<?xml version="1.0" encoding="UTF-8"?>
<svg xmlns="http://www.w3.org/2000/svg" viewBox="0 0 115.07 115.86">
  <defs>
    <style>
      .cls-1 {
        fill: #f4d59e;
      }

      .cls-2 {
        fill: #f3b21c;
      }

      .cls-3 {
        fill: #ecaa20;
      }

      .cls-4 {
        fill: #f3c096;
      }

      .cls-5 {
        fill: #fbd567;
      }

      .cls-6 {
        fill: #eec999;
      }

      .cls-7 {
        fill: #fff;
      }

      .cls-8 {
        fill: #ed1c24;
      }

      .cls-9, .cls-10, .cls-11, .cls-12 {
        fill: #f1f2f2;
      }

      .cls-13 {
        fill: #f2b31c;
      }

      .cls-14 {
        fill: #efdd3d;
      }

      .cls-15 {
        fill: #c45e44;
      }

      .cls-16 {
        fill: #bcbec0;
      }

      .cls-17 {
        fill: #a7a9ac;
      }

      .cls-18 {
        fill: #e31e27;
      }

      .cls-19 {
        fill: #168a44;
      }

      .cls-20, .cls-21, .cls-22, .cls-23, .cls-24, .cls-25, .cls-26 {
        fill: #231f20;
      }

      .cls-27 {
        fill: #0b0707;
      }

      .cls-28, .cls-29, .cls-30, .cls-31 {
        fill: #414042;
      }

      .cls-10 {
        stroke-width: 1.31px;
      }

      .cls-10, .cls-29, .cls-21, .cls-11, .cls-30, .cls-22, .cls-12, .cls-23, .cls-31, .cls-24, .cls-25, .cls-26 {
        stroke: #231f20;
      }

      .cls-29, .cls-21 {
        stroke-width: 1.1px;
      }

      .cls-11 {
        stroke-width: 1.12px;
      }

      .cls-12 {
        stroke-width: 1.19px;
      }

      .cls-23, .cls-31 {
        stroke-width: 1.12px;
      }

      .cls-24 {
        stroke-width: .99px;
      }

      .cls-25 {
        stroke-width: .97px;
      }

      .cls-26 {
        stroke-width: .89px;
      }
    </style>
  </defs>
  <g id="horns">
    <path class="cls-15" d="m67.22,19.84c-.54-.2-2.17.77-2.17,1.33l2.74,4.95c.81-.43,1.55-.91,1.68-1.53.51-2.05-.33-3.6-2.25-4.75Z"/>
    <path class="cls-6" d="m69.41,13.57c.48,2.38-.13,4.66-2.18,6.27,1.24,1.29,1.89,2.98,2.25,4.75,3.57-2.23,2.89-10.17-.07-11.02Z"/>
    <path class="cls-15" d="m44.34,20.3c.54-.2,2.17.77,2.17,1.33l-2.74,4.95c-.81-.43-1.55-.91-1.68-1.53-.51-2.05.33-3.6,2.25-4.75Z"/>
    <path class="cls-6" d="m42.16,14.03c-.48,2.38.13,4.66,2.18,6.27-1.24,1.29-1.89,2.98-2.25,4.75-3.57-2.23-2.89-10.17.07-11.02Z"/>
  </g>
  <g id="hair">
    <path class="cls-8" d="m48.31,20.59c-2.19-2.35-2.25-6.53.42-7.69.24,2.49.36,4.06.85,3.98-.31-2.14.39-3.45,2.43-4.49,2.82-.46,6.24-1.46,7.76-3.26.72,1.52.93,3.27.84,5.16,1.98-1.74,3.42-1.23,4.69,0-.95.1-1.83.43-2.62,1.06,2.64.46,3.78,1.7,4.35,3.24-1.83-1.28-3.97-.77-5.71,1.08-4.8-1.23-8.97-1.47-13.01.92Z"/>
  </g>
  <g id="head">
    <path class="cls-19" d="m69.02,28.57c-3.57-14.55-25.93-13.15-25.93,1.83,2.7,4.41,7.43,7.12,14.54,7.85,5.01-2.29,9.07-5.31,11.39-9.69Z"/>
  </g>
  <g id="body">
    <path class="cls-13" d="m46.77,55.94l-1.86,5.3-9.9,12.93c-.02-2.79.74-7.37,1.61-12.19,3.98-4.01,8.45-9.68,10.15-6.05Z"/>
    <path class="cls-13" d="m68.66,55.58l14.33,22.82c-.18-5.84,1.29-8.52-.61-16.39-5.02-4.12-11.67-12.75-13.72-6.42Z"/>
  </g>
  <g id="shell">
    <path class="cls-6" d="m84.53,63.97c1.67.47,3.88,1.18,5.05,2.62.09.11.11.27.03.39-.62.95-2.97,1.82-4.7,2.36l-.39-5.36Z"/>
    <path class="cls-6" d="m83.75,56.97c1.72.05,4.03.23,5.53,1.38.11.09.18.25.14.38-.35,1.12-2.37,2.59-3.89,3.56l-1.78-5.33Z"/>
    <path class="cls-15" d="m85.34,56.97c.91-.47,1.48,5.35.54,5.15"/>
    <path class="cls-15" d="m85.95,64.32c.96-.27.4,5.3-.46,4.93"/>
    <path class="cls-19" d="m85.13,54.69c1.09,5.85,1.15,11.53,0,17l-5.04-.49c-1.48-9.47-.09-18.1,5.04-16.51Z"/>
    <path class="cls-9" d="m84.15,72.98c.09-3.37-1.11-10.22-3.19-12.94-5.76.38-1.07,12.51,3.19,12.94Z"/>
  </g>
  <g id="legs">
    <path class="cls-13" d="m93.28,83.48c.86,3.73,1.54,8.84-3.97,12.99,4.39.9,6.2,3.93,6.13,8.5l-2.03-.58-.48,1.64-2.44-.4-1.08,1.14-2.31-1.76c-8.32.54-12.61-3.65-12.99-6.54,1.18-6.08,1.77-6.27-.03-13.23,6.68,3.87,13.61,3.35,19.21-1.77Z"/>
    <path class="cls-9" d="m88.85,101.02c2.07-.95,3.58-.83,4.36.65.42-.47.99-.61,1.65-.56.78,1.09.79,2.48.57,3.84l-2-.37-.47,1.43-2.61-.33-.12.47-2.92-1.96,1.55-3.16Z"/>
    <path class="cls-13" d="m28.67,78.78c-1.74,3.4-6.11,11.43-1.01,17.29-4.48-.2-6.98,2.29-8.02,6.74l2.11-.06.07,1.7,2.46.21.77,1.37,2.67-1.14c7.94,2.56,13.11-.45,14.2-3.16.35-6.19-.18-6.51,3.27-12.82-7.43,2.12-12.33-3.81-16.51-10.14Z"/>
    <path class="cls-9" d="m26.99,100.59c-1.78-1.43-3.26-1.68-4.38-.44-.29-.56-.81-.83-1.46-.95-1.02.86-1.37,2.21-1.49,3.59l2.03.13.11,1.5,2.61.32.72,1.21,3.98-1.05c.09-.7-.78-2.19-1.7-2.19-.05-1.16-.14-1.79-.42-2.11Z"/>
  </g>
  <g id="arms">
    <path class="cls-13" d="m97.2,40.64c.83,3.86-4.21,12.3-12.02,15.05-10,.3-10.77-14.15-10.77-14.15l6.33.18,16.46-1.08Z"/>
    <path class="cls-13" d="m31.86,55.73c-9.23-2.47-15.23-6.01-15.6-16.77,6.85,2.4,13.67,2.08,20.47.44,1.1.43,1.86,1.67,2.51,3.52,2.39,7.72.48,13.06-7.38,12.82Z"/>
  </g>
  <g id="drum-mallets">
    <ellipse class="cls-14" cx="70.11" cy="8.4" rx=".94" ry="2.45" transform="translate(10.6 46.4) rotate(-39.4)"/>
    <path class="cls-14" d="m70.98,10.12c1.65,3.17,12.36,17.9,18.9,26l1.73-.28c-5.98-8.32-17.45-23.93-19.9-26.15"/>
    <ellipse class="cls-14" cx="40.47" cy="2.17" rx="2.45" ry=".94" transform="translate(18.26 36.08) rotate(-59.84)"/>
    <path class="cls-14" d="m39.88,4.01c-1.12,3.39-9.67,20-14.82,29.04l-1.7-.05c4.57-9.17,13.66-26.71,15.73-29.3"/>
  </g>
  <g id="hands">
    <path class="cls-3" d="m34.41,18.78v.76c-2.33,9.83-7.45,16.03-10.4,9.24-.5-7.82-3.72-18.7,10.4-10Z"/>
    <path class="cls-2" d="m18.35,26.25c-1.41-14.29,14.56-17.1,16.06-7.47-.21-.08-1.21.22-1.94.68-1.5-2.36-4.34-3.86-7.57-3.03,3.49.84,5.41,1.07,6.67,3.81-1.3.98-1.74,2.55-1.54,3.95-1.76-2.48-3.85-3.3-6.18-2.81,3.12.87,5.42,2.12,5.7,4.38-.16.94-.13,1.81.28,2.56-1.66,2.22-3.63,2.17-5.83.46,0,1.64-.41,3.04-1.47,4.07-2.49-1.1-4.18-3-4.18-6.6Z"/>
    <path class="cls-2" d="m27.43,33.38c2.48,1.8,10.51-5.28,9.6-10.93-.28-1.78-1.94-3.13-3.7-2.73-.23.05-.44.13-.6.24-1.69,1.35-2.28,2.77-2.03,4.22,1.65.15,2.38.28,2.27,1.74-.06.74-.41,1.2-1.13,1.66-.5.17-1.06.31-1.69.24.61.78-1.02,2.58-3,2.72-1.52-.04-2.45-.51-3.15-1.78-2.82,3.25-2.83,5.28,3.43,4.61Z"/>
    <path class="cls-9" d="m30.21,27.84c1.25.25,2.16-.38,2.99-1.6-.07-1.4-.6-2.1-2.45-2.05-.98,1.34-1.15,2.55-.54,3.65Z"/>
    <path class="cls-3" d="m78.83,23.63l.12.75c3.88,9.33,9.93,14.63,11.75,7.45-.76-7.8.67-19.05-11.87-8.19Z"/>
    <path class="cls-2" d="m96.15,34.24c3.14-19.78-16.61-23.27-17.32-10.6.2-.12,1.23.02,2.02.36,1.1-2.57,3.67-4.51,6.98-4.2-3.31,1.39-5.17,1.92-5.97,4.83,1.44.76,2.12,2.24,2.16,3.65,1.34-2.73,3.27-3.88,5.65-3.77-2.94,1.36-5.01,2.96-4.93,5.24.31.9.42,1.76.14,2.57,2,1.93,3.93,1.56,5.83-.48.27,1.61.72,4,.72,4,0,0,4.23,1.07,4.72-1.59Z"/>
    <path class="cls-2" d="m88.06,36.93c-2.15,2.18-11.22-3.52-11.23-9.25,0-1.8,1.41-3.4,3.21-3.28.24.02.45.06.63.14,1.89,1.07,2.69,2.36,2.68,3.84-1.61.42-2.3.66-1.96,2.08.17.72.59,1.12,1.38,1.46.53.09,1.1.14,1.71-.03-.48.86,1.42,2.39,3.4,2.2,1.49-.29,2.34-.9,2.82-2.26,3.3,2.75,3.64,4.76-2.65,5.1Z"/>
    <path class="cls-9" d="m84.43,31.9c-1.19.45-2.19-.03-3.21-1.1-.16-1.39.26-2.17,2.09-2.41,1.18,1.17,1.55,2.33,1.12,3.51Z"/>
  </g>
  <g id="chest">
    <path class="cls-1" d="m46.77,55.94c-1.63,1.97-2.77,5.56-3.89,9.22,1.02,8.45,3.52,15.95,9.05,21.5l20.56.56,7.01-13.89c-4.14-7.59-8.35-15.35-10.85-18.33l-21.88.95Z"/>
    <path class="cls-6" d="m72.92,61.02c-9.73,1.65-19.16,1.85-28.2.24,9.08.27,18.51.17,28.2-.24Z"/>
    <path class="cls-6" d="m73.66,74.9c-9.73,1.65-19.16,1.85-28.2.24,9.08.27,18.51.17,28.2-.24Z"/>
    <path class="cls-6" d="m73.38,70.02c-9.73,1.65-19.16,1.85-28.2.24,9.08.27,18.51.17,28.2-.24Z"/>
    <path class="cls-6" d="m73.09,65.41c-9.73,1.65-19.16,1.85-28.2.24,9.08.27,18.51.17,28.2-.24Z"/>
  </g>
  <g id="armor">
    <path class="cls-28" d="m67.14,57.03l3.46-2.58c2.39,2.89,4.32,5.48,8.32,7.37,1.26-.29,6.3-4.18,6.26-6.14-4.53-1.11-9.53-4.61-10.9-14.76-4.89.82-10,7.94-7.14,16.1Z"/>
    <path class="cls-28" d="m47.73,52.47c-1.39-4.68-4.61-8.06-8.64-9.97.13,7.88-2.89,11.97-7.23,13.23.54,2.91,3.66,6.21,4.75,6.64,6.28-2.49,6.62-4.74,8.47-7.21l2.71,1.24"/>
    <circle class="cls-9" cx="73.06" cy="50.29" r="1.75"/>
    <circle class="cls-9" cx="77.08" cy="55.69" r="1.73"/>
    <circle class="cls-9" cx="41.95" cy="49.72" r="1.66"/>
    <circle class="cls-9" cx="39.16" cy="55.94" r="1.69"/>
    <path class="cls-9" d="m83.11,57.57c.41.97.53,1.95.24,2.94-1.01.34-2.11.34-3.27.01.39-1.6,1.4-2.58,3.03-2.95Z"/>
    <path class="cls-9" d="m36.01,61.35c-1.15.2-2.24.15-3.25-.25-.13-.9.12-1.82.74-2.75,1.65.58,2.49,1.58,2.51,3Z"/>
    <path class="cls-28" d="m80.72,41.35c1.9,5.91,19.29,1.5,16.58-2.69l-16.58,2.69Z"/>
    <path class="cls-28" d="m18.35,26.25c-11.84,15.33,19.1,11.17,15.1,4.54-5.65,5.41-15.14,2.82-15.1-4.54Z"/>
  </g>
  <g id="face">
    <path class="cls-4" d="m39.16,35.18c.62-4.23,6.6-7.68,9.37-2.35.88-.38,1.61-.58,2.1-.47l.27,1.41c2.7-4.59,6.91-5.69,10.9-1.75l.34-.95c.83-.1,1.94.17,3.25.75,2.65-5.74,8.49-3.13,9.02,1.23.25.57,1.11,9.86-4.15,12.18.61,3.12-.26,5.41-2.64,6.84,1.63,7.7-3.52,8.65-9.55,4.2-5.69,5.32-11.88,4.4-10.35-3.79-1.92-.82-3.1-2.75-3.58-5.76-4.32-1.66-5.91-5.57-4.99-11.54Z"/>
  </g>
  <g id="mouth">
    <path class="cls-27" d="m46.21,43.95c3.98,5.63,4.43,8.65,3.49,11.02,5.33-2.51,10.61-2.83,15.84-.82-.31-3.7.43-7.61,2.86-11.83.62-.82,1.35-2.82,1.17-4.59l.47-2.69c-3.62,4.62-7.43,6.42-13.17,3.47-4.46,2.74-8.91,2.99-13.64-2.58l1.01,2.65c.27,3.08.91,4.93,1.98,5.37Z"/>
    <path class="cls-18" d="m49.08,44.27c-.39-.22-1.05.12-1.58.37.15-.68,1.14-1.36,2.09-1.3.47,1.27,1.02,1.78,1.81,2.6.89-1.24,1.23-2.03,1.57-3.03,1.16.02,3.1.36,4.29,1.13,1.14-.85,2.86-1.4,4.38-1.65.66,1.13,1.01,2.05,2.15,2.85.79-1.04,1.23-2.2,1.25-2.98,1.04-.28,1.76.69,2.19,1.42-.88-.64-1.84-.51-1.86-.16.29,2.48.19,5.33-.57,6.38-.07-.63-.43-2.02-1.16-2.36-1.29.8-1.8,2.81-2.23,4.5-2.85-.34-5.9-.32-8.35.32-.31-1.38-1.11-3.22-2.11-3.41-.42.32-.57.95-.58,1.46-.59-1.02-1.24-4.57-1.28-6.14Z"/>
    <path class="cls-9" d="m52.63,41.44c-.23,1.49-.69,2.72-1.27,3.8-1.08-1-1.6-2.27-1.58-3.8h2.85Z"/>
    <path class="cls-9" d="m64.55,40.7c.24,1.48-.14,2.75-.87,3.9-.64-.73-1.45-2-1.96-3.62l2.83-.29Z"/>
    <path class="cls-9" d="m64.38,52.94c.22-1.48-.13-3.27-.71-4.41-.78.9-1.25,2.13-1.66,3.65l2.37.76Z"/>
    <path class="cls-9" d="m52.63,52.93l-2.08.65c-.18-1.3.14-2.87.65-3.86"/>
    <path class="cls-9" d="m47.79,45c.27-.33.6-.52,1.05-.39v2.13c-.53-.3-.88-.88-1.05-1.74Z"/>
    <path class="cls-9" d="m66.87,43.94c-.28-.32-.6-.51-1.06-.37l.04,2.13"/>
    <path class="cls-9" d="m45.08,39.39c.05,1.2.27,2.26.83,3,.43-.21.76-.63.87-1.5-.43-.32-1.03-.87-1.7-1.5Z"/>
    <path class="cls-7" d="m68.03,40.44c-.48-.23-.84-.7-.96-1.66.47-.35,1.14-.96,1.88-1.66"/>
  </g>
  <g id="nose">
    <path class="cls-20" d="m54.15,33.88c-.33-.47-.44-.83-.2-1.01.56.37,1.12.76,1.32.73-.1-.74-.84-1.8-2.03-1.46-.62.62-.08,1.75.91,1.74Z"/>
    <path class="cls-20" d="m58.92,33.44c.16-.55.14-.92-.14-1.02-.41.54-.81,1.08-1.01,1.12-.14-.73.21-1.98,1.44-2.04.78.38.65,1.63-.29,1.94Z"/>
  </g>
  <g id="eyes">
    <path class="cls-9" d="m58.68,27.75s2.5-1.88,3.17-2.65c.88-1.29,2.14-1.3,2.77-.44.44.86.2,2.85-.16,4.08-.09.32-.34.57-.67.67l-2.69.82c-.42.12-.82.08-1.18-.18-.57-.33-1.08-.73-1.46-1.32-.14-.38-.08-.71.2-1Z"/>
    <path class="cls-20" d="m59.84,29.07c1.18-.99,1.83-1.8,3.79-.79-.2-2.93-4.24-1.01-3.79.79"/>
    <path class="cls-9" d="m53.37,28.25s-2.72-1.54-3.49-2.22c-1.04-1.17-2.29-1.02-2.81-.08-.32.91.17,2.85.68,4.03.14.31.42.53.75.58l2.77.47c.44.07.82-.02,1.15-.33.52-.4.98-.86,1.27-1.49.09-.4-.02-.72-.33-.96Z"/>
    <path class="cls-20" d="m52.39,29.71c-1.3-.83-2.05-1.55-3.86-.3-.18-2.93,4.08-1.55,3.86.3"/>
  </g>
  <g id="eyebrows">
    <path class="cls-8" d="m58.15,28.13c.16-1.5.64-2.74.46-4.43.99.07,2.54-1.95,3.86-4.11,1.71-2.04,4.74-.92,4.73.56-.4.01-1.62-.21-1.8.37,1.51.45,2.48,2.24,1.8,4.2-.67,0-1.25-.2-1.69-.76.12.51.09,1.01-.19,1.48-1.07-1.24-2.29-1.11-3.29-.39-.88,1.74-2.75,2.66-3.88,3.08Z"/>
    <path class="cls-8" d="m53.95,28.56c-.35-1.47-.98-2.64-1.02-4.33-.97.2-2.77-1.61-4.36-3.58-1.96-1.8-4.82-.3-4.62,1.17.39-.04,1.58-.41,1.83.13-1.44.64-2.17,2.54-1.24,4.39.66-.08,1.22-.36,1.58-.97-.05.53.04,1.02.38,1.44.9-1.37,2.12-1.39,3.21-.81,1.09,1.61,3.07,2.29,4.25,2.56Z"/>
  </g>
  <g id="drumset-stands">
    <polyline class="cls-16" points="81.02 85.36 80.73 100.21 82.49 99.95 82.76 85.34"/>
    <path class="cls-16" d="m80.08,103.17c-1.31,2.16-2.3,4.65-2.78,4.78-.2.05-1.08.32-1.5,0,.79-1.06,2.5-3.61,4.06-5.91"/>
    <path class="cls-16" d="m80.91,99.83l.05,7.23c-.04.07-2.2-1.87-2.17-1.97l-.49.89c.72.68,2.41,2.02,3.12,1.98.53.02,1.7-.87,3.43-2.26l-.3-.52c-.95.67-1.88,1.48-2.67,1.85l.2-7.07"/>
    <path class="cls-16" d="m82.72,103.01c1.08,2.29,1.79,4.93,2.26,5.06.2.05,1.05.33,1.5,0-.68-1.12-2.11-3.82-3.41-6.26"/>
    <path class="cls-17" d="m80.3,103.9l2.28-.02c.3,0,.56-.19.56-.41l.1-3.62c0-.22-.24-.4-.54-.4l-2.28.02c-.3,0-.56.19-.56.41l-.1,3.62c0,.22.24.4.54.4Z"/>
    <polyline class="cls-16" points="37.83 88.62 37.54 103.47 39.29 103.22 39.57 88.6"/>
    <path class="cls-16" d="m36.89,106.44c-1.31,2.16-2.3,4.65-2.78,4.78-.2.05-1.08.32-1.5,0,.79-1.06,2.5-3.61,4.06-5.91"/>
    <path class="cls-16" d="m37.72,103.09l.05,7.23c-.04.07-2.2-1.87-2.17-1.97l-.49.89c.72.68,2.41,2.02,3.12,1.98.53.02,1.7-.87,3.43-2.26l-.3-.52c-.95.67-1.88,1.48-2.67,1.85l.2-7.07"/>
    <path class="cls-16" d="m39.53,106.27c1.08,2.29,1.79,4.93,2.26,5.06.2.05,1.05.33,1.5,0-.68-1.12-2.11-3.82-3.41-6.26"/>
    <path class="cls-17" d="m37.1,107.16l2.28-.02c.3,0,.56-.19.56-.41l.1-3.62c0-.22-.24-.4-.54-.4l-2.28.02c-.3,0-.56.19-.56.41l-.1,3.62c0,.22.24.4.54.4Z"/>
    <polyline class="cls-16" points="57.07 72.66 57.04 81.69 59.56 81.69 59.56 72.75"/>
    <path class="cls-17" d="m54.06,71.17l9.87.08.75,1.81c-3.87.06-7.66.07-11.37,0l.75-1.9Z"/>
  </g>
  <g id="hi-hats">
    <polyline class="cls-16" points="101.89 68.14 101.83 98.25 103.68 97.74 103.74 68.51"/>
    <path class="cls-16" d="m101.61,97.71c-2.3,5.18-4.06,11.26-4.89,11.5-.35.08-1.87.61-2.58-.24,1.39-2.52,4.38-8.62,7.11-14.12"/>
    <path class="cls-16" d="m101.6,94.42l.08,12.66c-.06.15-3.94-4.11-3.87-4.32l-.88,1.95c1.29,1.49,4.3,4.44,5.57,4.35.95.04,3.04-1.91,6.14-4.97l-.54-1.15c-1.71,1.48-3.36,3.26-4.78,4.06l.38-12.72"/>
    <path class="cls-16" d="m103.9,98.39c2.39,5.04,4.28,11.06,5.09,11.21.34.05,1.82.43,2.47-.51-1.42-2.43-4.51-8.33-7.32-13.65"/>
    <path class="cls-17" d="m101.28,99.12l2.48-.03c.33,0,.6-.23.61-.5l.11-4.44c0-.27-.26-.49-.59-.49l-2.48.03c-.33,0-.6.23-.61.5l-.11,4.44c0,.27.26.49.59.49Z"/>
    <path class="cls-17" d="m101.47,80.42l2.48-.03c.33,0,.6-.23.61-.5l.11-4.44c0-.27-.26-.49-.59-.49l-2.48.03c-.33,0-.6.23-.61.5l-.11,4.44c0,.27.26.49.59.49Z"/>
    <polyline class="cls-16" points="102.42 54.45 102.28 61.2 102.91 61.11 103.05 54.56"/>
    <path class="cls-17" d="m100.93,61.9c.51-1.62,2.83-1.71,3.33.04"/>
    <path class="cls-5" d="m89.89,65.67c.89,1.1,3.86,1.83,7.48,2.2,6.93.7,16.21.07,17.71-1.84l-25.19-.36Z"/>
    <path class="cls-5" d="m98.03,67.93c1.17,2.03,7.99,1.81,9.15.08"/>
    <path class="cls-5" d="m89.89,65.18c.92-1.08,3.91-1.73,7.54-1.99,6.94-.51,16.2.38,17.65,2.33l-25.19-.34Z"/>
    <path class="cls-5" d="m98.09,63.15c1.22-1.99,8.04-1.59,9.15.17"/>
  </g>
  <g id="extra-cymbal">
    <ellipse class="cls-5" cx="17.06" cy="60.36" rx="17.06" ry="2.9" transform="translate(-1.57 .47) rotate(-1.5)"/>
    <path class="cls-17" d="m18.99,60.9l.15,5.23-12.34,11.47c-.13.12-.36.12-.5-.01l-.8-.73c-.14-.13-.15-.33-.02-.46l11.68-11.14.08-4.51,1.75.14Z"/>
    <path class="cls-16" d="m16.88,95.41l-.29-23.47s0-.04-.02-.06c-1.02-1.57-2.12-2.81-3.43-3.31l-1.21-.87-2.02,2.19s-.04.11,0,.15c1.45,1.41,4.15,2.6,4.62,2.8.05.02.07.06.07.1l.41,22.52,1.87-.05Z"/>
    <path class="cls-16" d="m19.77,60.94c-.21-.33-2.67-.54-3.5-.08"/>
    <path class="cls-17" d="m19.82,57.63c-.89-1.67-2.8-1.62-3.62-.06"/>
    <path class="cls-16" d="m14.29,100.11c-3.46,3.28-6.94,7.56-7.55,7.37-.25-.1-1.41-.35-1.52-1.39,1.85-1.47,6.11-5.2,9.96-8.55"/>
    <path class="cls-16" d="m14.94,96.2l.39,10.9c-.06.09-4.49-3.85-4.43-3.98l-1.2.89c1.33.95,5.21,4.98,6.46,4.95.95.05,3.28-2.35,6.27-4.16l-1.34-1.05c-1.31,1.09-2.33,2.13-4.13,3.37l.08-10.71"/>
    <path class="cls-16" d="m17.66,100.45c3.27,3.42,6.07,7.56,7.02,7.61.4.01,2.14.19,2.79-.51-1.88-1.63-6.05-5.61-9.83-9.21"/>
    <path class="cls-17" d="m14.73,100.84l2.76.04c.37,0,.66-.24.66-.55l-.09-5.04c0-.31-.31-.57-.68-.57l-2.76-.04c-.37,0-.66.24-.66.55l.09,5.04c0,.31.31.57.68.57Z"/>
    <path class="cls-17" d="m14.29,87.62l2.76.04c.37,0,.66-.24.66-.55l-.09-5.04c0-.31-.31-.57-.68-.57l-2.76-.04c-.37,0-.66.24-.66.55l.09,5.04c0,.31.31.57.68.57Z"/>
  </g>
  <g id="ride-cymbal">
    <ellipse class="cls-5" cx="26.07" cy="37.32" rx="4.49" ry="11.29" transform="translate(-12.98 60.73) rotate(-86.01)"/>
    <path class="cls-17" d="m27.23,37.4l.57,5.2-11.36,12.44c-.12.13-.35.14-.5.03l-.86-.66c-.15-.12-.18-.32-.06-.45l10.74-12.05-.29-4.5h1.75Z"/>
    <path class="cls-16" d="m24.61,98.18l-.69-47.55s0-.04-.02-.06c-1-1.57-2.1-2.83-3.4-3.34l-1.2-.88-2.04,2.17s-.04.11,0,.15c1.43,1.42,4.12,2.63,4.59,2.84.05.02.07.06.07.1l.6,46.3,2.09.26Z"/>
    <path class="cls-16" d="m28.04,37.59c-.21-.33-2.66-.58-3.5-.14"/>
    <path class="cls-17" d="m28.23,33.09c-.78-1.73-2.68-1.8-3.61-.31"/>
    <path class="cls-16" d="m22.16,101.34c-2.65,3.85-4.95,8.6-5.69,8.6-.31-.02-1.68.07-2.17-.82,1.52-1.81,4.88-6.28,7.93-10.3"/>
    <path class="cls-16" d="m22.76,97.67l.42,11.66c-.06.09-4.12-3.6-4.05-3.73l-1.1,1.08c1.33,1.01,4.74,4.68,6,4.64.95.05,2.52-1.87,5.5-3.82l-.62-1.42c-1.31,1.18-2.3,1.93-4.09,3.27l.05-11.47"/>
    <path class="cls-16" d="m25.26,101.73c2.29,4.62,3.93,9.95,4.83,10.23.39.1,2.04.7,2.86.04-1.41-2.27-4.42-7.74-7.16-12.67"/>
    <path class="cls-17" d="m22.24,102.58l2.76.09c.37.01.67-.23.67-.54v-5.04c.01-.31-.29-.57-.65-.59l-2.76-.09c-.37-.01-.67.23-.67.54v5.04c-.01.31.29.57.65.59Z"/>
    <path class="cls-17" d="m21.8,81.12l2.76.09c.37.01.67-.23.67-.54v-5.04c.01-.31-.29-.57-.65-.59l-2.76-.09c-.37-.01-.67.23-.67.54v5.04c-.01.31.29.57.65.59Z"/>
  </g>
  <g id="crash-cymbal">
    <ellipse class="cls-5" cx="83.36" cy="38.78" rx="17.14" ry="3.87" transform="translate(-2.85 6.84) rotate(-4.62)"/>
    <path class="cls-17" d="m82.42,40.05l.33,3.68,8.77,14.72c.09.15.28.2.43.11l.83-.49c.15-.09.2-.28.11-.43l-8.55-14.88-.39-3.1-1.54.38Z"/>
    <path class="cls-16" d="m86.13,102.25l.16-49.45s0-.04.02-.06c.87-1.61,1.82-2.89,2.96-3.39l1.05-.89,1.81,2.31s.04.11,0,.16c-1.25,1.44-3.6,2.63-4.01,2.84-.04.02-.06.06-.06.11l-.09,48.15-1.84.22Z"/>
    <path class="cls-16" d="m81.79,40.34c.12-.34,2.21-.96,3-.67"/>
    <path class="cls-17" d="m80.97,35.17c.32-1.67,2.61-2.03,3.31-.35"/>
    <path class="cls-16" d="m88.88,107.8c2.33,2.73,4.36,6.11,5,6.1.27-.02,1.45.03,1.86-.61-1.33-1.28-4.27-4.44-6.95-7.29"/>
    <path class="cls-16" d="m87.97,102.02l-.18,10.48c.05.09,3.04-2.39,2.98-2.53l.85,1.18c-1.14,1.01-3.46,2.71-4.56,2.67-.83.05-2.64-1.2-5.33-3.15l.48-.77c1.48.94,2.91,2.07,4.14,2.58l-.22-10.24"/>
    <path class="cls-16" d="m85.58,107.66c-2.54,2.8-4.73,6.23-5.46,6.24-.31,0-1.65.07-2.14-.56,1.46-1.32,4.7-4.57,7.64-7.49"/>
    <rect class="cls-17" x="85.35" y="102.05" width="3.6" height="6.42" rx=".59" ry=".59" transform="translate(-1.13 .94) rotate(-.62)"/>
  </g>
  <g id="floor-tom">
    <path class="cls-31" d="m29.43,92.33l-.15-11.37c5.3-3.59,13.82-4.13,18.86-.45l-.41,10.19"/>
    <ellipse class="cls-11" cx="38.63" cy="92" rx="9.16" ry="2.33" transform="translate(-3.3 1.46) rotate(-2.07)"/>
    <path class="cls-23" d="m29.29,80.96l-.31-2.56c-.05-.44.1-.89.43-1.16,5.48-4.44,15.73-3.58,18.93-.45.26.26.38.63.31,1l-.5,2.71c-5.99-3.4-12.28-3.2-18.86.45Z"/>
    <ellipse class="cls-7" cx="38.59" cy="75.85" rx="1.01" ry="1.09"/>
    <ellipse class="cls-9" cx="33.75" cy="76.62" rx="1.01" ry="1.09"/>
    <ellipse class="cls-7" cx="43.69" cy="76.32" rx="1.01" ry="1.09"/>
    <ellipse class="cls-9" cx="30.16" cy="78.78" rx=".56" ry=".79" transform="translate(-14.99 7.52) rotate(-11.41)"/>
    <ellipse class="cls-7" cx="47.27" cy="78.23" rx=".79" ry=".56" transform="translate(-36.76 114.2) rotate(-82.03)"/>
    <path class="cls-23" d="m48.06,82.47c-5.67-3.55-12.79-3.22-18.75.55l.24,6.89c4.76-2.73,13.92-2.94,18.29,0l.22-7.43Z"/>
    <polygon class="cls-24" points="38.97 78.72 39.16 88.83 38.23 88.77 38.1 78.64 38.97 78.72"/>
    <ellipse class="cls-9" cx="38.56" cy="79.66" rx=".37" ry=".54" transform="translate(-2.07 1.04) rotate(-1.5)"/>
    <ellipse class="cls-7" cx="48.06" cy="81.62" rx=".54" ry=".37" transform="translate(-35.38 126.44) rotate(-87.75)"/>
    <ellipse class="cls-7" cx="47.82" cy="88.44" rx=".54" ry=".37" transform="translate(-42.43 132.75) rotate(-87.75)"/>
    <ellipse class="cls-9" cx="38.79" cy="88.44" rx=".37" ry=".54" transform="translate(-2.3 1.04) rotate(-1.5)"/>
    <ellipse class="cls-9" cx="29.33" cy="82.08" rx=".37" ry=".54" transform="translate(-2.14 .79) rotate(-1.5)"/>
    <ellipse class="cls-9" cx="29.36" cy="90.21" rx=".37" ry=".54" transform="translate(-2.35 .8) rotate(-1.5)"/>
  </g>
  <g id="snare-drum">
    <path class="cls-29" d="m92.92,85.39l-.2-8.91c-6.05-2.91-15.62-3.12-21.12.19l.81,8.73"/>
    <ellipse class="cls-10" cx="82.67" cy="85.4" rx="10.26" ry="2.84"/>
    <path class="cls-21" d="m92.72,76.48l.26-2.21c.04-.38-.14-.76-.52-.98-6.28-3.64-17.73-2.59-21.2.2-.28.23-.41.55-.32.87l.66,2.31c6.59-3.11,13.63-3.12,21.12-.19Z"/>
    <ellipse class="cls-9" cx="82.14" cy="72.38" rx="1.13" ry=".93"/>
    <circle class="cls-9" cx="87.38" cy="72.89" r=".93"/>
    <ellipse class="cls-7" cx="76.44" cy="72.94" rx="1.13" ry=".93"/>
    <ellipse class="cls-9" cx="91.67" cy="74.64" rx=".7" ry=".61" transform="translate(-19.66 114.4) rotate(-58.81)"/>
    <ellipse class="cls-7" cx="72.5" cy="74.7" rx=".61" ry=".7" transform="translate(-27.84 46.97) rotate(-30.41)"/>
    <path class="cls-21" d="m71.76,78.36c6.22-3.22,14.21-3.16,21.01-.11l-.09,4.42c-5.2-2.74-15.52-2.28-20.5.01l-.42-4.32Z"/>
    <polygon class="cls-25" points="81.81 74.86 81.9 82.45 82.94 82.44 82.78 74.76 81.81 74.86"/>
    <ellipse class="cls-7" cx="82.3" cy="75.65" rx=".41" ry=".47" transform="translate(-.21 .23) rotate(-.16)"/>
    <ellipse class="cls-7" cx="71.73" cy="77.62" rx=".41" ry=".47" transform="translate(-14.92 17.11) rotate(-12.33)"/>
    <ellipse class="cls-9" cx="72.24" cy="83.47" rx=".41" ry=".47" transform="translate(-16.16 17.36) rotate(-12.33)"/>
    <ellipse class="cls-9" cx="82.38" cy="81.31" rx=".41" ry=".47" transform="translate(-.22 .23) rotate(-.16)"/>
    <ellipse class="cls-9" cx="92.72" cy="77.44" rx=".41" ry=".47" transform="translate(-.21 .26) rotate(-.16)"/>
    <ellipse class="cls-9" cx="92.92" cy="83.25" rx=".41" ry=".47" transform="translate(-.23 .26) rotate(-.16)"/>
  </g>
  <g id="mid-tom">
    <path class="cls-30" d="m35.56,74.53l1.63-8.76c5.4-2.05,13.21-.96,17.14,3.05l-2.09,8.51"/>
    <ellipse class="cls-12" cx="43.89" cy="75.92" rx="2.84" ry="8.45" transform="translate(-38.24 106.66) rotate(-80.48)"/>
    <path class="cls-22" d="m37.18,65.76l.15-2.21c.03-.38.24-.73.59-.9,5.71-2.74,14.84-.15,17.2,3.07.19.26.24.6.11.9l-.92,2.19c-4.84-3.95-10.57-4.93-17.14-3.05Z"/>
    <circle class="cls-9" cx="46.46" cy="63.16" r=".93"/>
    <circle class="cls-9" cx="41.95" cy="62.92" r=".93"/>
    <circle class="cls-9" cx="51" cy="64.48" r=".93"/>
    <ellipse class="cls-9" cx="38.34" cy="64.09" rx=".51" ry=".68" transform="translate(-3.27 2.08) rotate(-2.97)"/>
    <ellipse class="cls-9" cx="53.92" cy="66.74" rx=".68" ry=".51" transform="translate(-27.91 92.54) rotate(-68.57)"/>
    <path class="cls-22" d="m53.92,70.45c-4.53-4.02-11.03-5.04-17.06-2.96l-.66,4.37c4.68-2,12.99-.15,16.66,2.79l1.05-4.2Z"/>
    <polygon class="cls-26" points="46.32 65.64 45 73.12 44.15 72.96 45.55 65.41 46.32 65.64"/>
    <ellipse class="cls-9" cx="45.79" cy="66.36" rx=".47" ry=".34" transform="translate(-27.22 100.55) rotate(-80.48)"/>
    <ellipse class="cls-9" cx="54.06" cy="69.73" rx=".47" ry=".34" transform="translate(-26.79 105.07) rotate(-75.82)"/>
    <ellipse class="cls-9" cx="52.68" cy="75.43" rx=".47" ry=".34" transform="translate(-33.35 108.04) rotate(-75.82)"/>
    <ellipse class="cls-9" cx="44.8" cy="71.93" rx=".47" ry=".34" transform="translate(-33.55 104.22) rotate(-80.48)"/>
    <ellipse class="cls-9" cx="37.03" cy="66.71" rx=".47" ry=".34" transform="translate(-34.89 92.2) rotate(-80.48)"/>
    <ellipse class="cls-9" cx="35.91" cy="72.42" rx=".47" ry=".34" transform="translate(-41.45 95.86) rotate(-80.48)"/>
  </g>
  <g id="high-tom">
    <path class="cls-30" d="m82.44,74.67l-1.63-8.76c-5.4-2.05-13.21-.96-17.14,3.05l2.09,8.51"/>
    <ellipse class="cls-12" cx="74.1" cy="76.06" rx="8.45" ry="2.84" transform="translate(-11.56 13.3) rotate(-9.52)"/>
    <path class="cls-22" d="m80.81,65.9l-.15-2.21c-.03-.38-.24-.73-.59-.9-5.71-2.74-14.84-.15-17.2,3.07-.19.26-.24.6-.11.9l.92,2.19c4.84-3.95,10.57-4.93,17.14-3.05Z"/>
    <circle class="cls-9" cx="71.53" cy="63.3" r=".93"/>
    <circle class="cls-9" cx="76.04" cy="63.06" r=".93"/>
    <circle class="cls-9" cx="67" cy="64.62" r=".93"/>
    <ellipse class="cls-9" cx="79.65" cy="64.23" rx=".68" ry=".51" transform="translate(11.38 140.44) rotate(-87.03)"/>
    <ellipse class="cls-9" cx="64.08" cy="66.88" rx=".51" ry=".68" transform="translate(-20.01 28.04) rotate(-21.43)"/>
    <path class="cls-22" d="m64.08,70.59c4.53-4.02,11.03-5.04,17.06-2.96l.66,4.37c-4.68-2-12.99-.15-16.66,2.79l-1.05-4.2Z"/>
    <polygon class="cls-26" points="71.67 65.78 72.99 73.26 73.84 73.1 72.45 65.55 71.67 65.78"/>
    <ellipse class="cls-9" cx="72.2" cy="66.5" rx=".34" ry=".47" transform="translate(-10 12.85) rotate(-9.52)"/>
    <ellipse class="cls-9" cx="63.93" cy="69.87" rx=".34" ry=".47" transform="translate(-15.17 17.79) rotate(-14.18)"/>
    <ellipse class="cls-9" cx="65.31" cy="75.57" rx=".34" ry=".47" transform="translate(-16.52 18.3) rotate(-14.18)"/>
    <ellipse class="cls-9" cx="73.2" cy="72.07" rx=".34" ry=".47" transform="translate(-10.91 13.09) rotate(-9.52)"/>
    <ellipse class="cls-9" cx="80.97" cy="66.85" rx=".34" ry=".47" transform="translate(-9.94 14.31) rotate(-9.52)"/>
    <ellipse class="cls-7" cx="82.09" cy="72.56" rx=".34" ry=".47" transform="translate(-10.87 14.57) rotate(-9.52)"/>
  </g>
  <g id="bass-drum">
    <circle class="cls-20" cx="58.04" cy="96.78" r="19.08"/>
    <circle class="cls-8" cx="58.01" cy="96.81" r="17.1"/>
    <path class="cls-20" d="m45.04,105.49l4.38-.7.97-2.01,1.55,1.65,13.23-.14,1.09-1.82,1.29,1.99,4.08.23c-6.4,9.23-18.31,10.89-26.58.81Z"/>
    <path class="cls-20" d="m58.35,91.94l7.46-.22,1.96,2.74,1.05-2.85c1.49-.15,2.55-.34,2.86-.65.4-.4.46-1.09.18-1.58-.59-1.03-1.33-1.86-2.29-2.35l-1.13-.13-.59-.13c-.44-.1-.74-.5-.72-.94l.03-.69c-.02-1.13-.54-1.82-1.47-2.14l-.99,1.25c-.76-.55-1.74-1.39-2.98-2.04l-1.58,1.26-1.83-1.49.05,9.97Z"/>
    <path class="cls-20" d="m58.35,91.94l-7.46-.15-1.94,2.76-1.08-2.84c-1.22-.34-2.25-.4-2.86-.62-.53-.19-.48-1.09-.19-1.58.65-1.11,1.42-1.88,2.27-2.37l1.13-.14.59-.14c.44-.1.74-.5.71-.95l-.04-.69c0-1.13.53-1.82,1.46-2.15l1,1.24c.59-.5,1.46-1.32,2.96-2.06l1.59,1.24,1.82-1.51.04,9.97Z"/>
    <path class="cls-8" d="m59.58,87.27l.08,1.99c2.25-.32,4.28-.52,6.16-.24.32-1.17-.47-2.76-1.62-3.87-.89.79-2.48,1.95-4.61,2.12Z"/>
    <path class="cls-8" d="m57.01,87.31l-.05,1.99c-2.26-.29-4.28-.46-6.16-.15-.34-1.17.43-2.77,1.57-3.9.9.77,2.5,1.91,4.64,2.05Z"/>
    <g>
      <path class="cls-20" d="m44.28,96.75l2.09-.05c.27,0,.51.02.73.07.22.05.41.13.57.24.16.11.28.24.38.4.09.16.14.36.14.57,0,.16-.01.29-.06.4-.04.11-.08.2-.13.28-.06.09-.12.16-.19.23.12.07.23.15.33.26.08.09.16.21.23.35s.11.31.11.52c0,.24-.03.45-.12.64-.09.19-.21.36-.38.5-.16.14-.37.25-.61.32-.24.08-.51.12-.81.12l-2.17.05-.11-4.9Zm2.27,1.44c0-.23-.14-.34-.41-.33h-.19s.01.68.01.68h.19c.27-.01.4-.13.39-.35Zm-.35,2.27c.4,0,.6-.16.6-.44,0-.28-.21-.42-.62-.41h-.19s.02.86.02.86h.19Z"/>
      <path class="cls-20" d="m48.66,99.11c0-.35.06-.69.2-1.01.14-.32.33-.59.58-.83.25-.24.54-.43.88-.57.34-.14.7-.22,1.08-.23.38,0,.75.05,1.09.18s.65.3.9.53c.26.23.46.5.62.81s.23.64.24.99-.06.69-.2,1c-.14.32-.33.6-.58.83-.25.24-.54.43-.88.57-.34.14-.7.22-1.08.23-.38,0-.75-.05-1.09-.18-.34-.13-.65-.3-.9-.53-.26-.23-.46-.5-.62-.81-.15-.31-.23-.64-.24-.99Zm1.68-.04c0,.14.04.28.1.4.06.12.14.23.25.32.1.09.22.16.36.21s.28.07.44.07c.15,0,.3-.03.43-.09.13-.06.25-.13.35-.23.1-.1.18-.21.23-.33.06-.13.08-.26.08-.4s-.04-.27-.1-.4c-.06-.12-.14-.23-.25-.32-.1-.09-.22-.16-.36-.21-.14-.05-.28-.07-.44-.07-.15,0-.3.03-.43.09-.13.06-.25.13-.35.23-.1.09-.18.21-.23.33-.06.13-.08.26-.08.4Z"/>
      <path class="cls-20" d="m53.92,96.54l1.81-.04.65,1.7.58-1.73,1.17-.03.65,1.7.58-1.73,1.81-.04-1.65,4.94-1.33.03-.57-1.47-.5,1.5-1.33.03-1.87-4.86Z"/>
      <path class="cls-20" d="m61.3,99.76c.12.03.24.06.37.07.11.02.23.04.37.05.14.01.27.02.41.01.24,0,.36-.09.36-.26,0-.06-.04-.13-.12-.19-.08-.07-.17-.14-.29-.21-.12-.08-.24-.16-.37-.26-.13-.1-.26-.2-.38-.33-.12-.13-.21-.27-.29-.42-.08-.16-.12-.34-.12-.55,0-.23.04-.43.12-.61.09-.18.21-.33.37-.45.16-.12.34-.21.56-.28.21-.07.44-.1.69-.11.13,0,.26,0,.38.01.13,0,.24.02.34.03.12.01.23.02.35.03l.03,1.38s-.09,0-.15-.01c-.04,0-.09,0-.14-.01-.05,0-.11,0-.17,0-.03,0-.07,0-.12,0-.05,0-.09.01-.14.02-.04.01-.08.03-.11.05-.03.03-.05.06-.05.1,0,.04.04.09.11.14.07.06.16.12.27.2.11.08.22.17.35.27.13.1.24.22.35.35.11.13.2.28.27.44.07.16.12.35.12.56,0,.22-.03.42-.1.61-.07.19-.18.36-.34.5-.15.14-.35.26-.6.34-.24.09-.53.13-.87.14-.2,0-.39,0-.56-.01-.17-.01-.33-.03-.46-.05-.16-.02-.3-.05-.43-.08l-.03-1.47Z"/>
      <path class="cls-20" d="m64.96,96.29l3.14-.07.03,1.29-1.44.03v.54s1.43-.03,1.43-.03l.03,1.22-1.41.03v.57s1.51-.03,1.51-.03l.03,1.29-3.2.07-.11-4.9Z"/>
      <path class="cls-20" d="m68.64,96.21l1.84-.04c.34,0,.66.03.95.1.29.08.55.19.76.35.22.16.39.35.51.59.13.24.19.51.2.82,0,.25-.03.45-.1.63-.07.17-.15.32-.24.43-.1.13-.22.24-.35.33l1.03,1.6-2,.04-.83-1.22.03,1.24-1.7.04-.11-4.9Zm1.76,2.37h.09c.2,0,.37-.05.51-.14.14-.09.21-.23.2-.42,0-.2-.08-.33-.22-.41-.14-.08-.32-.12-.52-.11h-.09s.02,1.09.02,1.09Z"/>
    </g>
    <circle class="cls-9" cx="75.97" cy="99.07" r=".93"/>
    <circle class="cls-9" cx="74.37" cy="89.01" r=".93"/>
    <circle class="cls-9" cx="66.27" cy="80.67" r=".93"/>
    <circle class="cls-9" cx="52.57" cy="79.51" r=".93"/>
    <circle class="cls-9" cx="43.78" cy="85.72" r=".93"/>
    <circle class="cls-9" cx="39.91" cy="95.96" r=".93"/>
    <circle class="cls-9" cx="43.14" cy="107.03" r=".93"/>
    <circle class="cls-9" cx="51.08" cy="113.47" r=".93"/>
    <circle class="cls-9" cx="64.52" cy="113.73" r=".93"/>
    <circle class="cls-9" cx="71.6" cy="108.79" r=".93"/>
  </g>
</svg>