<?xml version="1.0" encoding="UTF-8"?>
<svg xmlns="http://www.w3.org/2000/svg" viewBox="0 0 104.59 82.83">
  <defs>
    <style>
      .cls-1 {
        fill: #fbd567;
      }

      .cls-2 {
        fill: #fff;
      }

      .cls-3 {
        fill: #ed1c24;
      }

      .cls-4 {
        fill: #bcbec0;
      }

      .cls-5 {
        fill: #a7a9ac;
      }

      .cls-6, .cls-7, .cls-8, .cls-9, .cls-10, .cls-11, .cls-12 {
        fill: #231f20;
      }

      .cls-13 {
        stroke-width: 1.31px;
      }

      .cls-13, .cls-14, .cls-7, .cls-15, .cls-16, .cls-8, .cls-17, .cls-9, .cls-18, .cls-10, .cls-11, .cls-12 {
        stroke: #231f20;
      }

      .cls-13, .cls-15, .cls-17 {
        fill: #f1f2f2;
      }

      .cls-14, .cls-7 {
        stroke-width: 1.1px;
      }

      .cls-14, .cls-16, .cls-18 {
        fill: #414042;
      }

      .cls-15 {
        stroke-width: 1.12px;
      }

      .cls-17 {
        stroke-width: 1.19px;
      }

      .cls-9, .cls-18 {
        stroke-width: 1.12px;
      }

      .cls-10 {
        stroke-width: .99px;
      }

      .cls-11 {
        stroke-width: .97px;
      }

      .cls-12 {
        stroke-width: .89px;
      }
    </style>
  </defs>
  <g id="drumset-stands">
    <polyline class="cls-4" points="77.37 52.32 77.08 67.17 78.83 66.92 79.11 52.31"/>
    <path class="cls-4" d="m76.43,70.14c-1.31,2.16-2.3,4.65-2.78,4.78-.2.05-1.08.32-1.5,0,.79-1.06,2.5-3.61,4.06-5.91"/>
    <path class="cls-4" d="m77.26,66.8l.05,7.23c-.04.07-2.2-1.87-2.17-1.97l-.49.89c.72.68,2.41,2.02,3.12,1.98.53.02,1.7-.87,3.43-2.26l-.3-.52c-.95.67-1.88,1.48-2.67,1.85l.2-7.07"/>
    <path class="cls-4" d="m79.07,69.97c1.08,2.29,1.79,4.93,2.26,5.06.2.05,1.05.33,1.5,0-.68-1.12-2.11-3.82-3.41-6.26"/>
    <path class="cls-5" d="m76.65,70.86l2.28-.02c.3,0,.56-.19.56-.41l.1-3.62c0-.22-.24-.4-.54-.4l-2.28.02c-.3,0-.56.19-.56.41l-.1,3.62c0,.22.24.4.54.4Z"/>
    <polyline class="cls-4" points="34.17 55.59 33.88 70.44 35.64 70.18 35.91 55.57"/>
    <path class="cls-4" d="m33.23,73.4c-1.31,2.16-2.3,4.65-2.78,4.78-.2.05-1.08.32-1.5,0,.79-1.06,2.5-3.61,4.06-5.91"/>
    <path class="cls-4" d="m34.06,70.06l.05,7.23c-.04.07-2.2-1.87-2.17-1.97l-.49.89c.72.68,2.41,2.02,3.12,1.98.53.02,1.7-.87,3.43-2.26l-.3-.52c-.95.67-1.88,1.48-2.67,1.85l.2-7.07"/>
    <path class="cls-4" d="m35.87,73.24c1.08,2.29,1.79,4.93,2.26,5.06.2.05,1.05.33,1.5,0-.68-1.12-2.11-3.82-3.41-6.26"/>
    <path class="cls-5" d="m33.45,74.13l2.28-.02c.3,0,.56-.19.56-.41l.1-3.62c0-.22-.24-.4-.54-.4l-2.28.02c-.3,0-.56.19-.56.41l-.1,3.62c0,.22.24.4.54.4Z"/>
    <polyline class="cls-4" points="53.41 39.62 53.38 48.66 55.9 48.65 55.9 39.71"/>
    <path class="cls-5" d="m50.41,38.14l9.87.08.75,1.81c-3.87.06-7.66.07-11.37,0l.75-1.9Z"/>
  </g>
  <g id="hi-hats">
    <polyline class="cls-4" points="91.41 35.45 91.35 65.57 93.2 65.06 93.26 35.83"/>
    <path class="cls-4" d="m91.12,65.03c-2.3,5.18-4.06,11.26-4.89,11.5-.35.08-1.87.61-2.58-.24,1.39-2.52,4.38-8.62,7.11-14.12"/>
    <path class="cls-4" d="m91.11,61.74l.08,12.66c-.06.15-3.94-4.11-3.87-4.32l-.88,1.95c1.29,1.49,4.3,4.44,5.57,4.35.95.04,3.04-1.91,6.14-4.97l-.54-1.15c-1.71,1.48-3.36,3.26-4.78,4.06l.38-12.72"/>
    <path class="cls-4" d="m93.42,65.7c2.39,5.04,4.28,11.06,5.09,11.21.34.05,1.82.43,2.47-.51-1.42-2.43-4.51-8.33-7.32-13.65"/>
    <path class="cls-5" d="m90.8,66.44l2.48-.03c.33,0,.6-.23.61-.5l.11-4.44c0-.27-.26-.49-.59-.49l-2.48.03c-.33,0-.6.23-.61.5l-.11,4.44c0,.27.26.49.59.49Z"/>
    <path class="cls-5" d="m90.99,47.74l2.48-.03c.33,0,.6-.23.61-.5l.11-4.44c0-.27-.26-.49-.59-.49l-2.48.03c-.33,0-.6.23-.61.5l-.11,4.44c0,.27.26.49.59.49Z"/>
    <polyline class="cls-4" points="91.94 21.77 91.8 28.51 92.43 28.42 92.56 21.87"/>
    <path class="cls-5" d="m90.45,29.22c.51-1.62,2.83-1.71,3.33.04"/>
    <path class="cls-1" d="m79.4,32.98c.89,1.1,3.86,1.83,7.48,2.2,6.93.7,16.21.07,17.71-1.84l-25.19-.36Z"/>
    <path class="cls-1" d="m87.54,35.25c1.17,2.03,7.99,1.81,9.15.08"/>
    <path class="cls-1" d="m79.4,32.5c.92-1.08,3.91-1.73,7.54-1.99,6.94-.51,16.2.38,17.65,2.33l-25.19-.34Z"/>
    <path class="cls-1" d="m87.6,30.47c1.22-1.99,8.04-1.59,9.15.17"/>
  </g>
  <g id="extra-cymbal">
    <ellipse class="cls-1" cx="17.06" cy="32.73" rx="17.06" ry="2.9" transform="translate(-.85 .46) rotate(-1.5)"/>
    <path class="cls-5" d="m18.99,33.27l.15,5.23-12.34,11.47c-.13.12-.36.12-.5-.01l-.8-.73c-.14-.13-.15-.33-.02-.46l11.68-11.14.08-4.51,1.75.14Z"/>
    <path class="cls-4" d="m16.88,67.78l-.29-23.47s0-.04-.02-.06c-1.02-1.57-2.12-2.81-3.43-3.31l-1.21-.87-2.02,2.19s-.04.11,0,.15c1.45,1.41,4.15,2.6,4.62,2.8.05.02.07.06.07.1l.41,22.52,1.87-.05Z"/>
    <path class="cls-4" d="m19.77,33.31c-.21-.33-2.67-.54-3.5-.08"/>
    <path class="cls-5" d="m19.82,30c-.89-1.67-2.8-1.62-3.62-.06"/>
    <path class="cls-4" d="m14.29,72.48c-3.46,3.28-6.94,7.56-7.55,7.37-.25-.1-1.41-.35-1.52-1.39,1.85-1.47,6.11-5.2,9.96-8.55"/>
    <path class="cls-4" d="m14.94,68.57l.39,10.9c-.06.09-4.49-3.85-4.43-3.98l-1.2.89c1.33.95,5.21,4.98,6.46,4.95.95.05,3.28-2.35,6.27-4.16l-1.34-1.05c-1.31,1.09-2.33,2.13-4.13,3.37l.08-10.71"/>
    <path class="cls-4" d="m17.66,72.82c3.27,3.42,6.07,7.56,7.02,7.61.4.01,2.14.19,2.79-.51-1.88-1.63-6.05-5.61-9.83-9.21"/>
    <path class="cls-5" d="m14.73,73.22l2.76.04c.37,0,.66-.24.66-.55l-.09-5.04c0-.31-.31-.57-.68-.57l-2.76-.04c-.37,0-.66.24-.66.55l.09,5.04c0,.31.31.57.68.57Z"/>
    <path class="cls-5" d="m14.29,59.99l2.76.04c.37,0,.66-.24.66-.55l-.09-5.04c0-.31-.31-.57-.68-.57l-2.76-.04c-.37,0-.66.24-.66.55l.09,5.04c0,.31.31.57.68.57Z"/>
  </g>
  <g id="ride-cymbal">
    <ellipse class="cls-1" cx="27.57" cy="5.69" rx="4.49" ry="11.29" transform="translate(19.97 32.79) rotate(-86.01)"/>
    <path class="cls-5" d="m28.73,5.77l.57,5.2-11.36,12.44c-.12.13-.35.14-.5.03l-.86-.66c-.15-.12-.18-.32-.06-.45l10.74-12.05-.29-4.5h1.75Z"/>
    <path class="cls-4" d="m26.11,66.54l-.69-47.55s0-.04-.02-.06c-1-1.57-2.1-2.83-3.4-3.34l-1.2-.88-2.04,2.17s-.04.11,0,.15c1.43,1.42,4.12,2.63,4.59,2.84.05.02.07.06.07.1l.6,46.3,2.09.26Z"/>
    <path class="cls-4" d="m29.54,5.95c-.21-.33-2.66-.58-3.5-.14"/>
    <path class="cls-5" d="m29.72,1.45c-.78-1.73-2.68-1.8-3.61-.31"/>
    <path class="cls-4" d="m23.66,69.7c-2.65,3.85-4.95,8.6-5.69,8.6-.31-.02-1.68.07-2.17-.82,1.52-1.81,4.88-6.28,7.93-10.3"/>
    <path class="cls-4" d="m24.25,66.03l.42,11.66c-.06.09-4.12-3.6-4.05-3.73l-1.1,1.08c1.33,1.01,4.74,4.68,6,4.64.95.05,2.52-1.87,5.5-3.82l-.62-1.42c-1.31,1.18-2.3,1.93-4.09,3.27l.05-11.47"/>
    <path class="cls-4" d="m26.76,70.1c2.29,4.62,3.93,9.95,4.83,10.23.39.1,2.04.7,2.86.04-1.41-2.27-4.42-7.74-7.16-12.67"/>
    <path class="cls-5" d="m23.74,70.95l2.76.09c.37.01.67-.23.67-.54v-5.04c.01-.31-.29-.57-.65-.59l-2.76-.09c-.37-.01-.67.23-.67.54v5.04c-.01.31.29.57.65.59Z"/>
    <path class="cls-5" d="m23.3,49.49l2.76.09c.37.01.67-.23.67-.54v-5.04c.01-.31-.29-.57-.65-.59l-2.76-.09c-.37-.01-.67.23-.67.54v5.04c-.01.31.29.57.65.59Z"/>
  </g>
  <g id="crash-cymbal">
    <ellipse class="cls-1" cx="79.61" cy="5.05" rx="17.14" ry="3.87" transform="translate(-.15 6.43) rotate(-4.62)"/>
    <path class="cls-5" d="m78.67,6.32l.33,3.68,8.77,14.72c.09.15.28.2.43.11l.83-.49c.15-.09.2-.28.11-.43l-8.55-14.88-.39-3.1-1.54.38Z"/>
    <path class="cls-4" d="m82.39,68.52l.16-49.45s0-.04.02-.06c.87-1.61,1.82-2.89,2.96-3.39l1.05-.89,1.81,2.31s.04.11,0,.16c-1.25,1.44-3.6,2.63-4.01,2.84-.04.02-.06.06-.06.11l-.09,48.15-1.84.22Z"/>
    <path class="cls-4" d="m78.05,6.61c.12-.34,2.21-.96,3-.67"/>
    <path class="cls-5" d="m77.22,1.44c.32-1.67,2.61-2.03,3.31-.35"/>
    <path class="cls-4" d="m85.14,74.07c2.33,2.73,4.36,6.11,5,6.1.27-.02,1.45.03,1.86-.61-1.33-1.28-4.27-4.44-6.95-7.29"/>
    <path class="cls-4" d="m84.23,68.29l-.18,10.48c.05.09,3.04-2.39,2.98-2.53l.85,1.18c-1.14,1.01-3.46,2.71-4.56,2.67-.83.05-2.64-1.2-5.33-3.15l.48-.77c1.48.94,2.91,2.07,4.14,2.58l-.22-10.24"/>
    <path class="cls-4" d="m81.84,73.93c-2.54,2.8-4.73,6.23-5.46,6.24-.31,0-1.65.07-2.14-.56,1.46-1.32,4.7-4.57,7.64-7.49"/>
    <rect class="cls-5" x="81.61" y="68.32" width="3.6" height="6.42" rx=".59" ry=".59" transform="translate(-.76 .9) rotate(-.62)"/>
  </g>
  <g id="floor-tom">
    <path class="cls-18" d="m25.78,59.29l-.15-11.37c5.3-3.59,13.82-4.13,18.86-.45l-.41,10.19"/>
    <ellipse class="cls-15" cx="34.97" cy="58.97" rx="9.16" ry="2.33" transform="translate(-2.11 1.3) rotate(-2.07)"/>
    <path class="cls-9" d="m25.63,47.93l-.31-2.56c-.05-.44.1-.89.43-1.16,5.48-4.44,15.73-3.58,18.93-.45.26.26.38.63.31,1l-.5,2.71c-5.99-3.4-12.28-3.2-18.86.45Z"/>
    <ellipse class="cls-2" cx="34.93" cy="42.82" rx="1.01" ry="1.09"/>
    <ellipse class="cls-2" cx="30.09" cy="43.59" rx="1.01" ry="1.09"/>
    <ellipse class="cls-2" cx="40.03" cy="43.29" rx="1.01" ry="1.09"/>
    <ellipse class="cls-2" cx="26.51" cy="45.75" rx=".56" ry=".79" transform="translate(-8.53 6.15) rotate(-11.41)"/>
    <ellipse class="cls-2" cx="43.62" cy="45.2" rx=".79" ry=".56" transform="translate(-7.19 82.13) rotate(-82.03)"/>
    <path class="cls-9" d="m44.41,49.44c-5.67-3.55-12.79-3.22-18.75.55l.24,6.89c4.76-2.73,13.92-2.94,18.29,0l.22-7.43Z"/>
    <polygon class="cls-10" points="35.32 45.69 35.51 55.8 34.58 55.73 34.44 45.6 35.32 45.69"/>
    <ellipse class="cls-2" cx="34.91" cy="46.63" rx=".37" ry=".54" transform="translate(-1.21 .93) rotate(-1.5)"/>
    <ellipse class="cls-2" cx="44.41" cy="48.58" rx=".54" ry=".37" transform="translate(-5.88 91.05) rotate(-87.75)"/>
    <ellipse class="cls-2" cx="44.16" cy="55.41" rx=".54" ry=".37" transform="translate(-12.93 97.36) rotate(-87.75)"/>
    <ellipse class="cls-2" cx="35.14" cy="55.41" rx=".37" ry=".54" transform="translate(-1.44 .94) rotate(-1.5)"/>
    <ellipse class="cls-2" cx="25.67" cy="49.05" rx=".37" ry=".54" transform="translate(-1.27 .69) rotate(-1.5)"/>
    <ellipse class="cls-2" cx="25.7" cy="57.18" rx=".37" ry=".54" transform="translate(-1.49 .69) rotate(-1.5)"/>
  </g>
  <g id="snare-drum">
    <path class="cls-14" d="m89.27,52.36l-.2-8.91c-6.05-2.91-15.62-3.12-21.12.19l.81,8.73"/>
    <ellipse class="cls-13" cx="79.01" cy="52.37" rx="10.26" ry="2.84"/>
    <path class="cls-7" d="m89.07,43.45l.26-2.21c.04-.38-.14-.76-.52-.98-6.28-3.64-17.73-2.59-21.2.2-.28.23-.41.55-.32.87l.66,2.31c6.59-3.11,13.63-3.12,21.12-.19Z"/>
    <ellipse class="cls-2" cx="78.48" cy="39.35" rx="1.13" ry=".93"/>
    <circle class="cls-2" cx="83.73" cy="39.86" r=".93"/>
    <ellipse class="cls-2" cx="72.79" cy="39.91" rx="1.13" ry=".93"/>
    <ellipse class="cls-2" cx="88.01" cy="41.61" rx=".7" ry=".61" transform="translate(6.84 95.35) rotate(-58.81)"/>
    <ellipse class="cls-2" cx="68.84" cy="41.66" rx=".61" ry=".7" transform="translate(-11.62 40.58) rotate(-30.41)"/>
    <path class="cls-7" d="m68.1,45.32c6.22-3.22,14.21-3.16,21.01-.11l-.09,4.42c-5.2-2.74-15.52-2.28-20.5.01l-.42-4.32Z"/>
    <polygon class="cls-11" points="78.15 41.83 78.24 49.42 79.29 49.4 79.12 41.73 78.15 41.83"/>
    <ellipse class="cls-2" cx="78.64" cy="42.62" rx=".41" ry=".47" transform="translate(-.12 .22) rotate(-.16)"/>
    <ellipse class="cls-2" cx="68.07" cy="44.59" rx=".41" ry=".47" transform="translate(-7.95 15.57) rotate(-12.33)"/>
    <ellipse class="cls-2" cx="68.59" cy="50.44" rx=".41" ry=".47" transform="translate(-9.19 15.81) rotate(-12.33)"/>
    <ellipse class="cls-2" cx="78.72" cy="48.28" rx=".41" ry=".47" transform="translate(-.13 .22) rotate(-.16)"/>
    <ellipse class="cls-2" cx="89.06" cy="44.41" rx=".41" ry=".47" transform="translate(-.12 .25) rotate(-.16)"/>
    <ellipse class="cls-2" cx="89.27" cy="50.22" rx=".41" ry=".47" transform="translate(-.14 .25) rotate(-.16)"/>
  </g>
  <g id="mid-tom">
    <path class="cls-16" d="m31.9,41.49l1.63-8.76c5.4-2.05,13.21-.96,17.14,3.05l-2.09,8.51"/>
    <ellipse class="cls-17" cx="40.24" cy="42.89" rx="2.84" ry="8.45" transform="translate(-8.72 75.48) rotate(-80.48)"/>
    <path class="cls-8" d="m33.53,32.73l.15-2.21c.03-.38.24-.73.59-.9,5.71-2.74,14.84-.15,17.2,3.07.19.26.24.6.11.9l-.92,2.19c-4.84-3.95-10.57-4.93-17.14-3.05Z"/>
    <circle class="cls-2" cx="42.81" cy="30.12" r=".93"/>
    <circle class="cls-2" cx="38.3" cy="29.89" r=".93"/>
    <circle class="cls-2" cx="47.35" cy="31.45" r=".93"/>
    <ellipse class="cls-2" cx="34.69" cy="31.06" rx=".51" ry=".68" transform="translate(-1.56 1.84) rotate(-2.97)"/>
    <ellipse class="cls-2" cx="50.26" cy="33.71" rx=".68" ry=".51" transform="translate(.52 68.18) rotate(-68.57)"/>
    <path class="cls-8" d="m50.26,37.42c-4.53-4.02-11.03-5.04-17.06-2.96l-.66,4.37c4.68-2,12.99-.15,16.66,2.79l1.05-4.2Z"/>
    <polygon class="cls-12" points="42.67 32.61 41.35 40.09 40.5 39.93 41.89 32.38 42.67 32.61"/>
    <ellipse class="cls-2" cx="42.14" cy="33.32" rx=".47" ry=".34" transform="translate(2.31 69.37) rotate(-80.48)"/>
    <ellipse class="cls-2" cx="50.41" cy="36.7" rx=".47" ry=".34" transform="translate(2.48 76.58) rotate(-75.82)"/>
    <ellipse class="cls-2" cx="49.03" cy="42.4" rx=".47" ry=".34" transform="translate(-4.09 79.55) rotate(-75.82)"/>
    <ellipse class="cls-2" cx="41.15" cy="38.89" rx=".47" ry=".34" transform="translate(-4.02 73.04) rotate(-80.48)"/>
    <ellipse class="cls-2" cx="33.37" cy="33.68" rx=".47" ry=".34" transform="translate(-5.36 61.02) rotate(-80.48)"/>
    <ellipse class="cls-2" cx="32.25" cy="39.38" rx=".47" ry=".34" transform="translate(-11.92 64.68) rotate(-80.48)"/>
  </g>
  <g id="high-tom">
    <path class="cls-16" d="m78.79,41.63l-1.63-8.76c-5.4-2.05-13.21-.96-17.14,3.05l2.09,8.51"/>
    <ellipse class="cls-17" cx="70.45" cy="43.03" rx="8.45" ry="2.84" transform="translate(-6.14 12.24) rotate(-9.52)"/>
    <path class="cls-8" d="m77.16,32.87l-.15-2.21c-.03-.38-.24-.73-.59-.9-5.71-2.74-14.84-.15-17.2,3.07-.19.26-.24.6-.11.9l.92,2.19c4.84-3.95,10.57-4.93,17.14-3.05Z"/>
    <circle class="cls-2" cx="67.88" cy="30.26" r=".93"/>
    <circle class="cls-2" cx="72.39" cy="30.03" r=".93"/>
    <circle class="cls-2" cx="63.34" cy="31.59" r=".93"/>
    <ellipse class="cls-2" cx="76" cy="31.2" rx=".68" ry=".51" transform="translate(40.9 105.48) rotate(-87.03)"/>
    <ellipse class="cls-2" cx="60.42" cy="33.85" rx=".51" ry=".68" transform="translate(-8.19 24.42) rotate(-21.43)"/>
    <path class="cls-8" d="m60.42,37.56c4.53-4.02,11.03-5.04,17.06-2.96l.66,4.37c-4.68-2-12.99-.15-16.66,2.79l-1.05-4.2Z"/>
    <polygon class="cls-12" points="68.02 32.75 69.34 40.23 70.19 40.07 68.79 32.52 68.02 32.75"/>
    <ellipse class="cls-2" cx="68.55" cy="33.46" rx=".34" ry=".47" transform="translate(-4.59 11.79) rotate(-9.52)"/>
    <ellipse class="cls-2" cx="60.28" cy="36.84" rx=".34" ry=".47" transform="translate(-7.19 15.89) rotate(-14.18)"/>
    <ellipse class="cls-2" cx="61.66" cy="42.54" rx=".34" ry=".47" transform="translate(-8.54 16.4) rotate(-14.18)"/>
    <ellipse class="cls-2" cx="69.54" cy="39.03" rx=".34" ry=".47" transform="translate(-5.5 12.03) rotate(-9.52)"/>
    <ellipse class="cls-2" cx="77.31" cy="33.82" rx=".34" ry=".47" transform="translate(-4.53 13.25) rotate(-9.52)"/>
    <ellipse class="cls-2" cx="78.43" cy="39.52" rx=".34" ry=".47" transform="translate(-5.45 13.51) rotate(-9.52)"/>
  </g>
  <g id="bass-drum">
    <circle class="cls-6" cx="54.38" cy="63.75" r="19.08"/>
    <circle class="cls-3" cx="54.36" cy="63.78" r="17.1"/>
    <path class="cls-6" d="m41.39,72.46l4.38-.7.97-2.01,1.55,1.65,13.23-.14,1.09-1.82,1.29,1.99,4.08.23c-6.4,9.23-18.31,10.89-26.58.81Z"/>
    <path class="cls-6" d="m54.7,58.91l7.46-.22,1.96,2.74,1.05-2.85c1.49-.15,2.55-.34,2.86-.65.4-.4.46-1.09.18-1.58-.59-1.03-1.33-1.86-2.29-2.35l-1.13-.13-.59-.13c-.44-.1-.74-.5-.72-.94l.03-.69c-.02-1.13-.54-1.82-1.47-2.14l-.99,1.25c-.76-.55-1.74-1.39-2.98-2.04l-1.58,1.26-1.83-1.49.05,9.97Z"/>
    <path class="cls-6" d="m54.7,58.91l-7.46-.15-1.94,2.76-1.08-2.84c-1.22-.34-2.25-.4-2.86-.62-.53-.19-.48-1.09-.19-1.58.65-1.11,1.42-1.88,2.27-2.37l1.13-.14.59-.14c.44-.1.74-.5.71-.95l-.04-.69c0-1.13.53-1.82,1.46-2.15l1,1.24c.59-.5,1.46-1.32,2.96-2.06l1.59,1.24,1.82-1.51.04,9.97Z"/>
    <path class="cls-3" d="m55.92,54.24l.08,1.99c2.25-.32,4.28-.52,6.16-.24.32-1.17-.47-2.76-1.62-3.87-.89.79-2.48,1.95-4.61,2.12Z"/>
    <path class="cls-3" d="m53.36,54.27l-.05,1.99c-2.26-.29-4.28-.46-6.16-.15-.34-1.17.43-2.77,1.57-3.9.9.77,2.5,1.91,4.64,2.05Z"/>
    <g>
      <path class="cls-6" d="m40.63,63.72l2.09-.05c.27,0,.51.02.73.07.22.05.41.13.57.24.16.11.28.24.38.4.09.16.14.36.14.57,0,.16-.01.29-.06.4-.04.11-.08.2-.13.28-.06.09-.12.16-.19.23.12.07.23.15.33.26.08.09.16.21.23.35s.11.31.11.52c0,.24-.03.45-.12.64-.09.19-.21.36-.38.5-.16.14-.37.25-.61.32-.24.08-.51.12-.81.12l-2.17.05-.11-4.9Zm2.27,1.44c0-.23-.14-.34-.41-.33h-.19s.01.68.01.68h.19c.27-.01.4-.13.39-.35Zm-.35,2.27c.4,0,.6-.16.6-.44,0-.28-.21-.42-.62-.41h-.19s.02.86.02.86h.19Z"/>
      <path class="cls-6" d="m45.01,66.08c0-.35.06-.69.2-1.01.14-.32.33-.59.58-.83.25-.24.54-.43.88-.57.34-.14.7-.22,1.08-.23.38,0,.75.05,1.09.18s.65.3.9.53c.26.23.46.5.62.81s.23.64.24.99-.06.69-.2,1c-.14.32-.33.6-.58.83-.25.24-.54.43-.88.57-.34.14-.7.22-1.08.23-.38,0-.75-.05-1.09-.18-.34-.13-.65-.3-.9-.53-.26-.23-.46-.5-.62-.81-.15-.31-.23-.64-.24-.99Zm1.68-.04c0,.14.04.28.1.4.06.12.14.23.25.32.1.09.22.16.36.21s.28.07.44.07c.15,0,.3-.03.43-.09.13-.06.25-.13.35-.23.1-.1.18-.21.23-.33.06-.13.08-.26.08-.4s-.04-.27-.1-.4c-.06-.12-.14-.23-.25-.32-.1-.09-.22-.16-.36-.21-.14-.05-.28-.07-.44-.07-.15,0-.3.03-.43.09-.13.06-.25.13-.35.23-.1.09-.18.21-.23.33-.06.13-.08.26-.08.4Z"/>
      <path class="cls-6" d="m50.27,63.5l1.81-.04.65,1.7.58-1.73,1.17-.03.65,1.7.58-1.73,1.81-.04-1.65,4.94-1.33.03-.57-1.47-.5,1.5-1.33.03-1.87-4.86Z"/>
      <path class="cls-6" d="m57.64,66.72c.12.03.24.06.37.07.11.02.23.04.37.05.14.01.27.02.41.01.24,0,.36-.09.36-.26,0-.06-.04-.13-.12-.19-.08-.07-.17-.14-.29-.21-.12-.08-.24-.16-.37-.26-.13-.1-.26-.2-.38-.33-.12-.13-.21-.27-.29-.42-.08-.16-.12-.34-.12-.55,0-.23.04-.43.12-.61.09-.18.21-.33.37-.45.16-.12.34-.21.56-.28.21-.07.44-.1.69-.11.13,0,.26,0,.38.01.13,0,.24.02.34.03.12.01.23.02.35.03l.03,1.38s-.09,0-.15-.01c-.04,0-.09,0-.14-.01-.05,0-.11,0-.17,0-.03,0-.07,0-.12,0-.05,0-.09.01-.14.02-.04.01-.08.03-.11.05-.03.03-.05.06-.05.1,0,.04.04.09.11.14.07.06.16.12.27.2.11.08.22.17.35.27.13.1.24.22.35.35.11.13.2.28.27.44.07.16.12.35.12.56,0,.22-.03.42-.1.61-.07.19-.18.36-.34.5-.15.14-.35.26-.6.34-.24.09-.53.13-.87.14-.2,0-.39,0-.56-.01-.17-.01-.33-.03-.46-.05-.16-.02-.3-.05-.43-.08l-.03-1.47Z"/>
      <path class="cls-6" d="m61.31,63.26l3.14-.07.03,1.29-1.44.03v.54s1.43-.03,1.43-.03l.03,1.22-1.41.03v.57s1.51-.03,1.51-.03l.03,1.29-3.2.07-.11-4.9Z"/>
      <path class="cls-6" d="m64.98,63.17l1.84-.04c.34,0,.66.03.95.1.29.08.55.19.76.35.22.16.39.35.51.59.13.24.19.51.2.82,0,.25-.03.45-.1.63-.07.17-.15.32-.24.43-.1.13-.22.24-.35.33l1.03,1.6-2,.04-.83-1.22.03,1.24-1.7.04-.11-4.9Zm1.76,2.37h.09c.2,0,.37-.05.51-.14.14-.09.21-.23.2-.42,0-.2-.08-.33-.22-.41-.14-.08-.32-.12-.52-.11h-.09s.02,1.09.02,1.09Z"/>
    </g>
    <circle class="cls-2" cx="72.32" cy="66.04" r=".93"/>
    <circle class="cls-2" cx="70.71" cy="55.98" r=".93"/>
    <circle class="cls-2" cx="62.62" cy="47.63" r=".93"/>
    <circle class="cls-2" cx="48.92" cy="46.48" r=".93"/>
    <circle class="cls-2" cx="40.13" cy="52.69" r=".93"/>
    <circle class="cls-2" cx="36.25" cy="62.93" r=".93"/>
    <circle class="cls-2" cx="39.48" cy="74" r=".93"/>
    <circle class="cls-2" cx="47.43" cy="80.43" r=".93"/>
    <circle class="cls-2" cx="60.86" cy="80.7" r=".93"/>
    <circle class="cls-2" cx="67.95" cy="75.75" r=".93"/>
  </g>
</svg>