<?xml version="1.0" encoding="UTF-8"?>
<svg xmlns="http://www.w3.org/2000/svg" xmlns:xlink="http://www.w3.org/1999/xlink" viewBox="0 0 197.5 149.75">
  <defs>
    <style>
      .cls-1 {
        fill: #4b4b4a;
      }

      .cls-2 {
        fill: #ccc;
        opacity: .7;
      }

      .cls-2, .cls-3, .cls-4, .cls-5, .cls-6 {
        mix-blend-mode: screen;
      }

      .cls-7 {
        fill: #535352;
      }

      .cls-8, .cls-9, .cls-10, .cls-11, .cls-12, .cls-13, .cls-14 {
        mix-blend-mode: multiply;
      }

      .cls-8, .cls-15 {
        fill: #3b3b3b;
      }

      .cls-9 {
        fill: #c18257;
        opacity: .21;
      }

      .cls-10, .cls-16 {
        fill: #595959;
      }

      .cls-17 {
        fill: #414346;
      }

      .cls-11, .cls-18 {
        fill: none;
      }

      .cls-19 {
        fill: #5c5c5c;
      }

      .cls-20 {
        fill: #abadae;
      }

      .cls-21 {
        fill: #4d4d4d;
      }

      .cls-22 {
        fill: #c5c6c8;
      }

      .cls-3, .cls-23 {
        fill: #7a7c7f;
      }

      .cls-24 {
        fill: #b9babc;
      }

      .cls-25 {
        fill: #303030;
      }

      .cls-26 {
        fill: #606163;
      }

      .cls-27 {
        fill: #7f5422;
      }

      .cls-4, .cls-28 {
        fill: #d7ad4f;
      }

      .cls-5 {
        fill: #fbf8c8;
        opacity: .39;
      }

      .cls-29 {
        fill: #787877;
      }

      .cls-30 {
        fill: #6b6d6f;
      }

      .cls-31 {
        fill: url(#radial-gradient);
      }

      .cls-32 {
        fill: #e2e3e4;
      }

      .cls-33 {
        fill: #b8b9bb;
      }

      .cls-18 {
        isolation: isolate;
      }

      .cls-34 {
        fill: #fff;
        mix-blend-mode: color-dodge;
        opacity: .5;
      }

      .cls-35 {
        fill: #898b8e;
      }

      .cls-36 {
        fill: #676666;
      }

      .cls-37 {
        fill: #a2a2a1;
      }

      .cls-38 {
        fill: #97261f;
      }

      .cls-39 {
        fill: #808283;
      }

      .cls-40 {
        fill: #a3a5a7;
      }

      .cls-41, .cls-12 {
        fill: #f04a24;
      }

      .cls-42 {
        fill: #959695;
      }

      .cls-43 {
        fill: #3f5caa;
      }

      .cls-44 {
        fill: url(#linear-gradient);
      }

      .cls-45 {
        fill: #b0b1b4;
      }

      .cls-6 {
        fill: #bfbfbf;
        opacity: .6;
      }

      .cls-46 {
        fill: #917531;
      }

      .cls-13 {
        fill: #a8aaad;
      }

      .cls-47 {
        fill: #5e5e5e;
      }

      .cls-48 {
        fill: #0e79bf;
      }

      .cls-14 {
        fill: #4b5290;
        opacity: .41;
      }
    </style>
    <linearGradient id="linear-gradient" x1="86.52" y1="142.43" x2="113.21" y2="89.76" gradientUnits="userSpaceOnUse">
      <stop offset=".03" stop-color="#bdbdbd"/>
      <stop offset=".24" stop-color="#b9b9b9"/>
      <stop offset=".43" stop-color="#aeaeae"/>
      <stop offset=".61" stop-color="#9b9b9b"/>
      <stop offset=".8" stop-color="gray"/>
      <stop offset=".97" stop-color="#5e5e5e"/>
      <stop offset="1" stop-color="#595959"/>
    </linearGradient>
    <radialGradient id="radial-gradient" cx="100.17" cy="115.48" fx="100.17" fy="115.48" r="32.95" gradientUnits="userSpaceOnUse">
      <stop offset=".98" stop-color="#595959"/>
      <stop offset="1" stop-color="#1c1c1c"/>
    </radialGradient>
  </defs>
  <g class="cls-18">
    <g id="Layer_1" data-name="Layer 1">
      <g>
        <g>
          <g>
            <path class="cls-19" d="m50.39,113.19c-.04.35.11.72.42.94l26.28,19.23c.46.34,1.1.24,1.44-.22.34-.46.24-1.1-.22-1.44l-26.28-19.23c-.46-.34-1.1-.24-1.44.22-.11.15-.17.32-.19.5Z"/>
            <path class="cls-21" d="m77.69,133.66c-.24,0-.47-.07-.66-.22l-26.28-19.23c-.32-.24-.5-.63-.46-1.03h0c.02-.2.09-.38.21-.54.37-.5,1.08-.61,1.58-.24l26.28,19.23c.24.18.4.44.45.74.05.3-.03.6-.2.84-.18.24-.44.4-.74.45-.06,0-.12.01-.18.01Zm-27.3-20.47h.1c-.04.34.11.67.37.86l26.28,19.23c.2.15.45.21.69.17.24-.04.46-.17.61-.37.15-.2.21-.44.17-.69-.04-.24-.17-.46-.37-.61l-26.28-19.23c-.41-.3-.99-.21-1.3.2-.1.13-.16.29-.17.45h-.1Z"/>
          </g>
          <g>
            <path class="cls-19" d="m148.48,103.78c.04.35-.11.72-.42.94l-26.28,19.23c-.46.34-1.1.24-1.44-.22-.34-.46-.24-1.1.22-1.44l26.28-19.23c.46-.34,1.1-.24,1.44.22.11.15.17.32.19.5Z"/>
            <path class="cls-21" d="m121.17,124.25c-.35,0-.69-.16-.91-.46-.18-.24-.25-.54-.2-.84.05-.3.21-.56.45-.74l26.28-19.23c.24-.18.54-.25.84-.2.3.05.56.21.74.45.12.16.19.35.21.54h0c.04.4-.13.8-.46,1.03l-26.28,19.23c-.2.15-.43.22-.67.22Zm26.28-21.29c-.2,0-.39.06-.55.18l-26.28,19.23c-.2.15-.33.36-.37.61-.04.24.02.49.17.69.3.41.88.5,1.3.2l26.28-19.23c.27-.2.41-.52.37-.85h0c-.02-.16-.08-.32-.17-.45-.15-.2-.36-.33-.61-.37-.05,0-.1-.01-.14-.01Z"/>
          </g>
          <g>
            <g>
              <path class="cls-48" d="m139.38,88.07c-12.7,0-23,.76-23,1.69v16.42c0,.93,10.3,1.69,23,1.69s23-.76,23-1.69v-16.42c0-.93-10.3-1.69-23-1.69Z"/>
              <path class="cls-43" d="m139.38,107.98c-6.15,0-11.93-.18-16.27-.5-6.83-.5-6.83-1.1-6.83-1.3v-16.42c0-.2,0-.79,6.83-1.3,4.35-.32,10.13-.5,16.27-.5s11.93.18,16.27.5c6.83.5,6.83,1.1,6.83,1.3v16.42c0,.2,0,.79-6.83,1.3-4.35.32-10.13.5-16.27.5Zm0-19.8c-14.75,0-22.9.94-22.9,1.59v16.42c0,.65,8.16,1.59,22.9,1.59s22.9-.94,22.9-1.59v-16.42c0-.65-8.16-1.59-22.9-1.59Z"/>
            </g>
            <path class="cls-14" d="m160.08,97.84c-3.73,1.36-7.97,2.12-12.27,2.48-4.27.35-8.66.32-12.94.03-4.24-.29-8.5-.88-12.34-2.03-2.3-.68-4.4-1.58-6.16-2.69v10.56c0,.93,10.3,1.69,23,1.69s23-.76,23-1.69v-9.3c-.73.34-1.5.66-2.3.96Z"/>
            <path class="cls-5" d="m132.52,88.15c-.91.02-1.8.05-2.65.07v19.5c.86.03,1.74.05,2.65.07v-19.65Z"/>
            <path class="cls-12" d="m120.23,88.83c-2.44.27-3.86.59-3.86.94v16.42c0,.35,1.42.67,3.86.94v-18.29Z"/>
            <path class="cls-14" d="m148.06,88.2v19.55c8.4-.25,14.32-.86,14.32-1.57v-16.42c0-.71-5.92-1.31-14.32-1.57Z"/>
            <g>
              <g>
                <path class="cls-45" d="m162.81,90.01v-.58c0-.95-10.49-1.72-23.43-1.72s-23.43.77-23.43,1.72v.68c5.08-.63,24.57-2.66,46.86-.1Z"/>
                <path class="cls-26" d="m115.85,90.22v-.79c0-.2,0-.81,6.96-1.32,4.43-.33,10.31-.5,16.57-.5s12.15.18,16.57.5c6.96.51,6.96,1.12,6.96,1.32v.69h-.11c-22.14-2.56-41.45-.58-46.84.09h-.11Zm23.53-2.42c-15.02,0-23.33.96-23.33,1.62v.57c5.54-.68,24.7-2.61,46.66-.1v-.47c0-.66-8.31-1.62-23.33-1.62Z"/>
              </g>
              <g>
                <path class="cls-45" d="m115.95,105.52v.63c0,.95,10.49,1.72,23.43,1.72s23.43-.77,23.43-1.72v-.53c-22.29,2.56-41.78.53-46.86-.1Z"/>
                <path class="cls-26" d="m139.38,107.98c-6.26,0-12.15-.18-16.57-.5-6.96-.51-6.96-1.12-6.96-1.32v-.75h.11c5.39.68,24.7,2.66,46.84.12h.11s0,.63,0,.63c0,.2,0,.81-6.96,1.32-4.43.33-10.31.5-16.57.5Zm-23.33-2.34v.52c0,.66,8.31,1.62,23.33,1.62s23.33-.96,23.33-1.62v-.42c-21.96,2.51-41.12.58-46.66-.1Z"/>
              </g>
            </g>
            <path class="cls-26" d="m126.41,107.95c-.17,0-.3-.14-.3-.3v-19.94c0-.17.14-.3.3-.3s.3.14.3.3v19.94c0,.17-.14.3-.3.3Z"/>
            <path class="cls-26" d="m115.87,106.89c-.17,0-.3-.14-.3-.3v-17.83c0-.17.14-.3.3-.3s.3.14.3.3v17.83c0,.17-.14.3-.3.3Z"/>
            <path class="cls-26" d="m162.68,106.89c-.17,0-.3-.14-.3-.3v-17.83c0-.17.14-.3.3-.3s.3.14.3.3v17.83c0,.17-.14.3-.3.3Z"/>
            <path class="cls-26" d="m152.57,107.95c-.17,0-.3-.14-.3-.3v-19.94c0-.17.14-.3.3-.3s.3.14.3.3v19.94c0,.17-.14.3-.3.3Z"/>
            <g>
              <g>
                <g>
                  <path class="cls-19" d="m162.42,90.62h.33c.16,0,.28-.07.28-.17v-1.2c0-.09-.12-.17-.28-.17h-.33v1.54Z"/>
                  <path class="cls-7" d="m162.74,90.63h-.34v-1.55h.34c.16,0,.29.08.29.18v1.2c0,.1-.13.18-.29.18Zm-.31-.01h.31c.15,0,.27-.07.27-.16v-1.2c0-.09-.12-.16-.27-.16h-.31v1.53Z"/>
                </g>
                <g>
                  <path class="cls-42" d="m161.57,89.08c-.15,0-.28.08-.28.17v1.2c0,.09.12.17.28.17h.85v-1.54h-.85Z"/>
                  <path class="cls-7" d="m162.42,90.63h-.86c-.16,0-.29-.08-.29-.18v-1.2c0-.1.13-.18.29-.18h.86v1.55Zm-.86-1.54c-.15,0-.27.08-.27.16v1.2c0,.09.12.16.27.16h.84v-1.53h-.84Z"/>
                </g>
              </g>
              <g>
                <g>
                  <g>
                    <path class="cls-19" d="m161.93,90.02c.14,0,.25.07.25.15s-.12.15-.25.15-.25-.07-.25-.15.11-.15.25-.15Z"/>
                    <path class="cls-7" d="m161.93,90.33c-.15,0-.26-.07-.26-.16s.12-.16.26-.16.26.07.26.16-.12.16-.26.16Zm0-.31c-.14,0-.24.07-.24.15s.11.15.24.15.24-.07.24-.15-.11-.15-.24-.15Z"/>
                  </g>
                  <g>
                    <path class="cls-37" d="m161.93,90.09c.14,0,.25.07.25.15,0,.09-.12.15-.25.15s-.25-.07-.25-.15c0-.08.11-.15.25-.15Z"/>
                    <path class="cls-7" d="m161.93,90.4c-.15,0-.26-.07-.26-.16,0-.08.11-.16.26-.16s.26.07.26.16c0,.09-.12.16-.26.16Zm0-.31c-.14,0-.24.07-.24.15,0,.08.11.15.24.15s.24-.07.24-.15c0-.08-.11-.15-.24-.15Z"/>
                  </g>
                </g>
                <g>
                  <g>
                    <path class="cls-19" d="m161.93,89.31c.14,0,.25.07.25.15,0,.09-.12.15-.25.15s-.25-.07-.25-.15c0-.08.11-.15.25-.15Z"/>
                    <path class="cls-7" d="m161.93,89.62c-.15,0-.26-.07-.26-.16s.12-.16.26-.16.26.07.26.16-.12.16-.26.16Zm0-.3c-.14,0-.24.07-.24.15,0,.08.11.15.24.15s.24-.07.24-.15c0-.08-.11-.15-.24-.15Z"/>
                  </g>
                  <g>
                    <path class="cls-37" d="m161.93,89.38c.14,0,.25.07.25.15s-.12.15-.25.15-.25-.07-.25-.15.11-.15.25-.15Z"/>
                    <path class="cls-7" d="m161.93,89.69c-.15,0-.26-.07-.26-.16s.11-.16.26-.16.26.07.26.16-.12.16-.26.16Zm0-.3c-.14,0-.24.07-.24.15s.11.15.24.15.24-.07.24-.15-.11-.15-.24-.15Z"/>
                  </g>
                </g>
              </g>
            </g>
            <g>
              <g>
                <g>
                  <path class="cls-19" d="m116.4,90.62h-.33c-.16,0-.28-.07-.28-.17v-1.2c0-.09.12-.17.28-.17h.33v1.54Z"/>
                  <path class="cls-7" d="m115.78,90.45v-1.2c0-.1.13-.18.29-.18h.34v1.55h-.34c-.16,0-.29-.08-.29-.18Zm.61-1.37h-.31c-.15,0-.27.08-.27.16v1.2c0,.09.12.16.27.16h.31v-1.53Z"/>
                </g>
                <g>
                  <path class="cls-42" d="m117.25,89.08c.15,0,.28.08.28.17v1.2c0,.09-.12.17-.28.17h-.85v-1.54h.85Z"/>
                  <path class="cls-7" d="m116.39,89.08h.86c.16,0,.29.08.29.18v1.2c0,.1-.13.18-.29.18h-.86v-1.55Zm.02.01v1.53h.84c.15,0,.27-.07.27-.16v-1.2c0-.09-.12-.16-.27-.16h-.84Z"/>
                </g>
              </g>
              <g>
                <g>
                  <g>
                    <path class="cls-19" d="m116.89,90.02c-.14,0-.25.07-.25.15s.12.15.25.15.25-.07.25-.15-.11-.15-.25-.15Z"/>
                    <path class="cls-7" d="m116.63,90.17c0-.09.12-.16.26-.16s.26.07.26.16-.12.16-.26.16-.26-.07-.26-.16Zm.02,0c0,.08.11.15.24.15.14,0,.24-.07.24-.15s-.11-.15-.24-.15-.24.07-.24.15Z"/>
                  </g>
                  <g>
                    <path class="cls-37" d="m116.89,90.09c-.14,0-.25.07-.25.15,0,.09.12.15.25.15s.25-.07.25-.15c0-.08-.11-.15-.25-.15Z"/>
                    <path class="cls-7" d="m116.63,90.24c0-.08.12-.16.26-.16s.26.07.26.16c0,.09-.11.16-.26.16s-.26-.07-.26-.16Zm.02,0c0,.08.11.15.24.15.14,0,.24-.07.24-.15,0-.08-.11-.15-.24-.15s-.24.07-.24.15Z"/>
                  </g>
                </g>
                <g>
                  <g>
                    <path class="cls-19" d="m116.89,89.31c-.14,0-.25.07-.25.15,0,.09.12.15.25.15s.25-.07.25-.15c0-.08-.11-.15-.25-.15Z"/>
                    <path class="cls-7" d="m116.63,89.46c0-.08.12-.16.26-.16s.26.07.26.16-.12.16-.26.16-.26-.07-.26-.16Zm.02,0c0,.08.11.15.24.15.14,0,.24-.07.24-.15,0-.08-.11-.15-.24-.15s-.24.07-.24.15Z"/>
                  </g>
                  <g>
                    <path class="cls-37" d="m116.89,89.38c-.14,0-.25.07-.25.15s.12.15.25.15.25-.07.25-.15-.11-.15-.25-.15Z"/>
                    <path class="cls-7" d="m116.63,89.53c0-.09.12-.16.26-.16s.26.07.26.16-.11.16-.26.16-.26-.07-.26-.16Zm.02,0c0,.08.11.15.24.15.14,0,.24-.07.24-.15s-.11-.15-.24-.15-.24.07-.24.15Z"/>
                  </g>
                </g>
              </g>
            </g>
          </g>
          <g>
            <g>
              <g>
                <g>
                  <path class="cls-17" d="m79.15,65.29c-9.3,0-16.83-1.29-16.83-2.88,0,0,0-.02,0-.03h0v-1.79c0,1.59,7.54,2.88,16.83,2.88s16.83-1.29,16.83-2.88v1.82c0,1.59-7.54,2.88-16.83,2.88Z"/>
                  <path class="cls-26" d="m79.15,65.39c-8.22,0-16.71-1.09-16.93-2.91h0s0-.05,0-.07v-1.82h.2c0,1.34,6.72,2.78,16.73,2.78,4.49,0,8.71-.3,11.89-.84,3.03-.52,4.85-1.24,4.85-1.94h.2v1.82c0,1.87-8.61,2.98-16.93,2.98Zm-16.73-3.11h0s0,.13,0,.13c0,1.34,6.72,2.77,16.73,2.77,4.49,0,8.71-.3,11.89-.84,3.03-.52,4.85-1.24,4.85-1.94v-1.34c-1.34,1.57-9.15,2.5-16.73,2.5s-15.39-.92-16.73-2.5v1.21Z"/>
                </g>
                <g>
                  <path class="cls-41" d="m62.91,76.51v-14.7h0s0-.02,0-.03c0-1.54,7.3-2.79,16.31-2.79s16.31,1.25,16.31,2.79v14.72h-32.63Z"/>
                  <path class="cls-38" d="m95.64,76.61h-32.83v-14.9c.23-1.77,8.46-2.82,16.41-2.82s16.41,1.08,16.41,2.89v14.82Zm-32.63-.2h32.43v-14.62c0-1.3-6.51-2.69-16.21-2.69-4.35,0-8.44.29-11.52.82-2.94.5-4.69,1.2-4.69,1.88,0,0,0,.01,0,.02v.1s0,0,0,0v14.5Z"/>
                </g>
                <g>
                  <path class="cls-48" d="m62.91,76.51v-14.7h0s0-.02,0-.03c0-1.54,7.3-2.79,16.31-2.79s16.31,1.25,16.31,2.79v14.72h-32.63Z"/>
                  <path class="cls-43" d="m95.64,76.61h-32.83v-14.9c.23-1.77,8.46-2.82,16.41-2.82s16.41,1.08,16.41,2.89v14.82Zm-32.63-.2h32.43v-14.62c0-1.3-6.51-2.69-16.21-2.69-4.35,0-8.44.29-11.52.82-2.94.5-4.69,1.2-4.69,1.88,0,0,0,.01,0,.02v.1s0,0,0,0v14.5Z"/>
                </g>
                <path class="cls-14" d="m66.75,59.99c-2.39.49-3.84,1.11-3.84,1.8,0,0,0,.02,0,.03h0v14.7h3.84v-16.52Z"/>
                <path class="cls-14" d="m85.48,59.21v17.3h10.06v-14.72c0-1.16-4.15-2.16-10.06-2.58Z"/>
                <path class="cls-14" d="m62.91,68.47c1.12-.86,2.36-1.58,3.63-2.18,2.73-1.29,5.7-2.08,8.68-2.51,3.02-.44,6.09-.49,9.13-.09,3.23.42,6.41,1.33,9.29,2.85.65.34,1.28.72,1.9,1.12v-5.88c0-1.54-7.3-2.79-16.31-2.79s-16.31,1.25-16.31,2.79c0,0,0,.02,0,.03h0v6.66Z"/>
                <path class="cls-12" d="m62.91,63.01c1.98-.83,4.09-1.33,6.21-1.62,2.4-.33,4.83-.42,7.25-.43,1.2,0,2.4.01,3.6.03,1.26.02,2.52.03,3.78.1,2.53.14,5.06.45,7.53,1.03,1.45.34,2.87.78,4.26,1.31v-1.64c0-1.54-7.3-2.79-16.31-2.79s-16.31,1.25-16.31,2.79c0,0,0,.02,0,.03h0v1.19Z"/>
                <g>
                  <g>
                    <path class="cls-45" d="m62.32,76.28v.03h0s0-.02,0-.03Z"/>
                    <polygon class="cls-26" points="62.22 76.41 62.22 76.28 62.32 76.28 62.31 76.21 62.32 76.28 62.42 76.27 62.42 76.3 62.43 76.41 62.22 76.41"/>
                  </g>
                  <g>
                    <g>
                      <path class="cls-45" d="m62.32,62.56v.03h0s0-.02,0-.03Z"/>
                      <polygon class="cls-26" points="62.22 62.69 62.22 62.56 62.32 62.56 62.31 62.48 62.32 62.56 62.42 62.55 62.42 62.58 62.43 62.68 62.22 62.69"/>
                    </g>
                    <g>
                      <path class="cls-32" d="m79.15,57.86c-9.3,0-16.83,1.29-16.83,2.88,0,0,0,.02,0,.03h0v1.79c0-1.59,7.54-2.88,16.83-2.88s16.83,1.29,16.83,2.88v-1.82c0-1.59-7.54-2.88-16.83-2.88Z"/>
                      <path class="cls-26" d="m96.08,62.56h-.2c0-1.34-6.72-2.78-16.73-2.78-4.49,0-8.71.3-11.89.84-3.03.52-4.85,1.24-4.85,1.94h-.2v-1.89c.22-1.82,8.71-2.91,16.93-2.91s16.93,1.12,16.93,2.98v1.82Zm-33.67-1.7v1.21c1.34-1.57,9.15-2.5,16.73-2.5s15.39.92,16.73,2.5v-1.34c0-1.34-6.72-2.78-16.73-2.78-4.49,0-8.71.3-11.89.84-3.03.52-4.85,1.24-4.85,1.94,0,0,0,.01,0,.02v.1s0,0,0,0Z"/>
                    </g>
                  </g>
                  <g>
                    <path class="cls-32" d="m79.15,73.4c-9.3,0-16.83,1.29-16.83,2.88,0,0,0,.02,0,.03h0v1.44h33.67v-1.47c0-1.59-7.54-2.88-16.83-2.88Z"/>
                    <path class="cls-26" d="m96.08,77.85h-33.87v-1.64c.22-1.82,8.72-2.91,16.93-2.91s16.93,1.12,16.93,2.98v1.57Zm-33.67-.2h33.46v-1.37c0-1.34-6.72-2.78-16.73-2.78-4.49,0-8.71.3-11.89.84-3.03.52-4.85,1.24-4.85,1.94,0,0,0,.01,0,.02v.1s0,0,0,0v1.24Z"/>
                  </g>
                </g>
                <g>
                  <path class="cls-45" d="m95.98,77.75c0-1.59-7.54-2.88-16.83-2.88s-16.83,1.29-16.83,2.88,7.54,2.88,16.83,2.88,16.83-1.29,16.83-2.88Z"/>
                  <path class="cls-26" d="m79.15,80.73c-8.32,0-16.93-1.12-16.93-2.98s8.61-2.98,16.93-2.98,16.93,1.12,16.93,2.98-8.61,2.98-16.93,2.98Zm0-5.76c-4.49,0-8.71.3-11.89.84-3.03.52-4.85,1.24-4.85,1.94,0,1.34,6.72,2.78,16.73,2.78,4.49,0,8.71-.3,11.89-.84,3.03-.52,4.85-1.24,4.85-1.94,0-1.34-6.72-2.78-16.73-2.78Z"/>
                </g>
                <g>
                  <g>
                    <path class="cls-24" d="m94.41,76.53c.15.15.24.3.24.46,0,1.46-6.94,2.65-15.5,2.65s-15.5-1.19-15.5-2.65c0-.16.08-.31.24-.46-1.01.37-1.57.78-1.57,1.22,0,1.59,7.54,2.88,16.83,2.88s16.83-1.29,16.83-2.88c0-.43-.57-.85-1.57-1.22Z"/>
                    <path class="cls-26" d="m79.15,80.73c-8.32,0-16.93-1.12-16.93-2.98,0-.47.55-.91,1.64-1.31l.44-.16-.33.33c-.14.13-.21.26-.21.39,0,1.23,6.19,2.55,15.4,2.55s15.4-1.32,15.4-2.55c0-.12-.07-.25-.21-.39l-.33-.33.44.16c1.09.4,1.64.84,1.64,1.31,0,1.87-8.61,2.98-16.93,2.98Zm-15.54-3.98c-.78.33-1.19.67-1.19,1,0,1.34,6.72,2.78,16.73,2.78,4.49,0,8.71-.3,11.89-.84,3.03-.52,4.85-1.24,4.85-1.94,0-.33-.41-.67-1.19-1,.04.08.05.16.05.24,0,1.72-7.93,2.75-15.6,2.75s-15.6-1.03-15.6-2.75c0-.08.02-.16.05-.24Z"/>
                  </g>
                  <g>
                    <path class="cls-22" d="m63.65,76.99c0,1.46,6.94,2.65,15.5,2.65s15.5-1.19,15.5-2.65c0-.16-.08-.31-.24-.46-2.68-.98-8.5-1.66-15.26-1.66s-12.58.68-15.26,1.66c-.15.15-.24.3-.24.46Z"/>
                    <path class="cls-26" d="m79.15,79.74c-7.67,0-15.6-1.03-15.6-2.75,0-.18.09-.36.27-.53l.04-.02c2.77-1.02,8.77-1.67,15.29-1.67s12.53.66,15.29,1.67l.04.02c.18.17.27.35.27.53,0,1.72-7.93,2.75-15.6,2.75Zm-15.2-3.13c-.13.13-.19.25-.19.37,0,1.23,6.19,2.55,15.4,2.55s15.4-1.32,15.4-2.55c0-.12-.06-.24-.19-.37-2.76-1-8.72-1.65-15.2-1.65s-12.45.65-15.2,1.65Z"/>
                  </g>
                </g>
                <g>
                  <g>
                    <path class="cls-30" d="m64.64,64.87c-.19,0-.34-.15-.34-.34v-4.17c0-.19.15-.34.34-.34s.34.15.34.34v4.17c0,.19-.15.34-.34.34Z"/>
                    <path class="cls-26" d="m64.64,64.97c-.24,0-.44-.2-.44-.44v-4.17c0-.24.2-.44.44-.44s.44.2.44.44v4.17c0,.24-.2.44-.44.44Zm0-4.86c-.13,0-.24.11-.24.24v4.17c0,.13.11.24.24.24s.24-.11.24-.24v-4.17c0-.13-.11-.24-.24-.24Z"/>
                  </g>
                  <g>
                    <path class="cls-30" d="m64.64,75.71c-.19,0-.34-.15-.34-.34v-3.64c0-.19.15-.34.34-.34s.34.15.34.34v3.64c0,.19-.15.34-.34.34Z"/>
                    <path class="cls-26" d="m64.64,75.81c-.24,0-.44-.2-.44-.44v-3.64c0-.24.2-.44.44-.44s.44.2.44.44v3.64c0,.24-.2.44-.44.44Zm0-4.33c-.13,0-.24.11-.24.24v3.64c0,.13.11.24.24.24s.24-.11.24-.24v-3.64c0-.13-.11-.24-.24-.24Z"/>
                  </g>
                </g>
                <g>
                  <g>
                    <path class="cls-30" d="m94.29,65.25c-.19,0-.34-.15-.34-.34v-4.17c0-.19.15-.34.34-.34s.34.15.34.34v4.17c0,.19-.15.34-.34.34Z"/>
                    <path class="cls-26" d="m94.29,65.35c-.24,0-.44-.2-.44-.44v-4.17c0-.24.2-.44.44-.44s.44.2.44.44v4.17c0,.24-.2.44-.44.44Zm0-4.86c-.13,0-.24.11-.24.24v4.17c0,.13.11.24.24.24s.24-.11.24-.24v-4.17c0-.13-.11-.24-.24-.24Z"/>
                  </g>
                  <g>
                    <path class="cls-30" d="m94.29,76.09c-.19,0-.34-.15-.34-.34v-3.64c0-.19.15-.34.34-.34s.34.15.34.34v3.64c0,.19-.15.34-.34.34Z"/>
                    <path class="cls-26" d="m94.29,76.19c-.24,0-.44-.2-.44-.44v-3.64c0-.24.2-.44.44-.44s.44.2.44.44v3.64c0,.24-.2.44-.44.44Zm0-4.33c-.13,0-.24.11-.24.24v3.64c0,.13.11.24.24.24s.24-.11.24-.24v-3.64c0-.13-.11-.24-.24-.24Z"/>
                  </g>
                </g>
                <path class="cls-34" d="m81,60.59c-1.2-.06-2.39-.05-3.59-.03-1.15.02-2.29.07-3.43.16-1.87.15-3.74.41-5.54.93.36-.02.71.01,1.05.11.84.24,1.34.96,1.6,1.76.35,1.07.35,2.23.33,3.34-.01.57,0,2.96,0,3.58,0,.93-.02,1.86,0,2.78.96-.11,1.93-.2,2.89-.31-.02-1.31-.09-2.61-.07-3.92,0-.41.06-2.13.08-2.57.04-.87.11-1.75.37-2.58.17-.55.47-1.03.91-1.4.43-.36.94-.61,1.47-.8,1.22-.43,2.54-.55,3.82-.63.99-.06,1.99-.06,2.98-.18-.37-.09-.75-.12-1.12-.14-.58-.04-1.16-.08-1.74-.1Z"/>
                <g>
                  <g>
                    <path class="cls-30" d="m79.28,63.43c-.19,0-.34-.15-.34-.34v-4.17c0-.19.15-.34.34-.34s.34.15.34.34v4.17c0,.19-.15.34-.34.34Z"/>
                    <path class="cls-26" d="m79.28,63.53c-.24,0-.44-.2-.44-.44v-4.17c0-.24.2-.44.44-.44s.44.2.44.44v4.17c0,.24-.2.44-.44.44Zm0-4.86c-.13,0-.24.11-.24.24v4.17c0,.13.11.24.24.24s.24-.11.24-.24v-4.17c0-.13-.11-.24-.24-.24Z"/>
                  </g>
                  <g>
                    <path class="cls-30" d="m79.28,74.27c-.19,0-.34-.15-.34-.34v-3.64c0-.19.15-.34.34-.34s.34.15.34.34v3.64c0,.19-.15.34-.34.34Z"/>
                    <path class="cls-26" d="m79.28,74.37c-.24,0-.44-.2-.44-.44v-3.64c0-.24.2-.44.44-.44s.44.2.44.44v3.64c0,.24-.2.44-.44.44Zm0-4.33c-.13,0-.24.11-.24.24v3.64c0,.13.11.24.24.24s.24-.11.24-.24v-3.64c0-.13-.11-.24-.24-.24Z"/>
                  </g>
                </g>
              </g>
              <g>
                <g>
                  <path class="cls-32" d="m94.33,93.95c-.63,0-1.14-.51-1.14-1.14v-24.57c0-.63.51-1.14,1.14-1.14s1.14.51,1.14,1.14v24.57c0,.63-.51,1.14-1.14,1.14Z"/>
                  <path class="cls-26" d="m94.33,94.05c-.69,0-1.24-.56-1.24-1.24v-24.57c0-.69.56-1.24,1.24-1.24s1.24.56,1.24,1.24v24.57c0,.69-.56,1.24-1.24,1.24Zm0-26.85c-.57,0-1.04.47-1.04,1.04v24.57c0,.57.47,1.04,1.04,1.04s1.04-.47,1.04-1.04v-24.57c0-.57-.47-1.04-1.04-1.04Z"/>
                </g>
                <g class="cls-11">
                  <path class="cls-20" d="m93.92,67.18c-.43.16-.74.58-.74,1.07v24.57c0,.49.31.9.74,1.07v-26.7Z"/>
                  <path class="cls-39" d="m94.99,67.31v26.43c.29-.21.49-.55.49-.93v-24.57c0-.39-.19-.73-.49-.93Z"/>
                </g>
                <g>
                  <path class="cls-33" d="m92.29,69.68v3.39s2.78.3,3.84.96v-3.44s-2.53-1.21-3.84-.91Z"/>
                  <path class="cls-26" d="m96.24,74.21l-.15-.1c-1.03-.64-3.77-.94-3.8-.95h-.09v-3.57l.08-.02c1.33-.31,3.8.87,3.91.92l.06.03v3.68Zm-3.84-1.23c.47.06,2.6.33,3.64.88v-3.2c-.37-.17-2.47-1.1-3.64-.89v3.21Z"/>
                </g>
                <path class="cls-35" d="m94.23,71.14c0,.2-.16.37-.37.37s-.37-.16-.37-.37.16-.37.37-.37.37.16.37.37Z"/>
                <path class="cls-35" d="m95.59,71.4c0,.2-.16.37-.37.37s-.37-.16-.37-.37.16-.37.37-.37.37.16.37.37Z"/>
              </g>
            </g>
            <g>
              <g>
                <g>
                  <path class="cls-17" d="m120.85,65.29c9.3,0,16.83-1.29,16.83-2.88,0,0,0-.02,0-.03h0v-1.79c0,1.59-7.54,2.88-16.83,2.88s-16.83-1.29-16.83-2.88v1.82c0,1.59,7.54,2.88,16.83,2.88Z"/>
                  <path class="cls-26" d="m120.85,65.39c-8.32,0-16.93-1.12-16.93-2.98v-1.82h.2c0,1.34,6.72,2.78,16.73,2.78,4.49,0,8.71-.3,11.89-.84,3.03-.52,4.85-1.24,4.85-1.94h.2v1.89c-.22,1.82-8.72,2.91-16.93,2.91Zm-16.73-4.32v1.34c0,1.34,6.72,2.78,16.73,2.78,4.49,0,8.71-.3,11.89-.84,3.03-.52,4.85-1.24,4.85-1.94,0,0,0-.01,0-.02v-.1s0,0,0,0v-1.21c-1.34,1.57-9.16,2.5-16.73,2.5s-15.39-.92-16.73-2.5Z"/>
                </g>
                <g>
                  <path class="cls-41" d="m137.09,76.51v-14.7h0s0-.02,0-.03c0-1.54-7.3-2.79-16.31-2.79s-16.31,1.25-16.31,2.79v14.72h32.63Z"/>
                  <path class="cls-38" d="m137.19,76.61h-32.83v-14.82c0-1.81,8.35-2.89,16.41-2.89s16.19,1.05,16.41,2.82h0s0,.05,0,.07v14.82Zm-32.63-.2h32.43v-14.5h0v-.13c0-1.29-6.51-2.69-16.21-2.69-4.35,0-8.44.29-11.52.82-2.94.5-4.69,1.2-4.69,1.88v14.62Z"/>
                </g>
                <g>
                  <path class="cls-48" d="m137.09,76.51v-14.7h0s0-.02,0-.03c0-1.54-7.3-2.79-16.31-2.79s-16.31,1.25-16.31,2.79v14.72h32.63Z"/>
                  <path class="cls-43" d="m137.19,76.61h-32.83v-14.82c0-1.81,8.35-2.89,16.41-2.89s16.19,1.05,16.41,2.82h0s0,.05,0,.07v14.82Zm-32.63-.2h32.43v-14.5h0v-.13c0-1.29-6.51-2.69-16.21-2.69-4.35,0-8.44.29-11.52.82-2.94.5-4.69,1.2-4.69,1.88v14.62Z"/>
                </g>
                <path class="cls-14" d="m133.25,59.99c2.39.49,3.84,1.11,3.84,1.8,0,0,0,.02,0,.03h0v14.7h-3.84v-16.52Z"/>
                <path class="cls-14" d="m114.52,59.21v17.3h-10.06v-14.72c0-1.16,4.15-2.16,10.06-2.58Z"/>
                <path class="cls-14" d="m137.09,68.47c-1.12-.86-2.36-1.58-3.63-2.18-2.73-1.29-5.7-2.08-8.68-2.51-3.03-.44-6.09-.49-9.13-.09-3.23.42-6.41,1.33-9.29,2.85-.65.34-1.28.72-1.9,1.12v-5.88c0-1.54,7.3-2.79,16.31-2.79s16.31,1.25,16.31,2.79c0,0,0,.02,0,.03h0v6.66Z"/>
                <path class="cls-12" d="m137.09,63.01c-1.98-.83-4.09-1.33-6.21-1.62-2.4-.33-4.83-.42-7.25-.43-1.2,0-2.4.01-3.6.03-1.26.02-2.52.03-3.78.1-2.53.14-5.06.45-7.53,1.03-1.45.34-2.87.78-4.26,1.31v-1.64c0-1.54,7.3-2.79,16.31-2.79s16.31,1.25,16.31,2.79c0,0,0,.02,0,.03h0v1.19Z"/>
                <g>
                  <g>
                    <path class="cls-45" d="m137.69,76.28v.03h0s0-.02,0-.03Z"/>
                    <polygon class="cls-26" points="137.79 76.41 137.58 76.41 137.59 76.27 137.68 76.28 137.69 76.21 137.69 76.28 137.79 76.28 137.79 76.41"/>
                  </g>
                  <g>
                    <g>
                      <path class="cls-45" d="m137.69,62.56v.03h0s0-.02,0-.03Z"/>
                      <polygon class="cls-26" points="137.79 62.69 137.58 62.68 137.59 62.55 137.68 62.55 137.69 62.48 137.69 62.55 137.79 62.56 137.79 62.69"/>
                    </g>
                    <g>
                      <path class="cls-32" d="m120.85,57.86c9.3,0,16.83,1.29,16.83,2.88,0,0,0,.02,0,.03h0v1.79c0-1.59-7.54-2.88-16.83-2.88s-16.83,1.29-16.83,2.88v-1.82c0-1.59,7.54-2.88,16.83-2.88Z"/>
                      <path class="cls-26" d="m137.79,62.56h-.2c0-1.34-6.72-2.78-16.73-2.78-4.49,0-8.71.3-11.89.84-3.03.52-4.85,1.24-4.85,1.94h-.2v-1.82c0-1.87,8.61-2.98,16.93-2.98s16.72,1.09,16.93,2.91h0s0,.05,0,.07v1.82Zm-16.93-4.6c-4.49,0-8.71.3-11.89.84-3.03.52-4.85,1.24-4.85,1.94v1.34c1.34-1.57,9.15-2.5,16.73-2.5s15.39.92,16.73,2.5v-1.34c0-1.34-6.72-2.77-16.73-2.77Z"/>
                    </g>
                  </g>
                  <g>
                    <path class="cls-32" d="m120.85,73.4c9.3,0,16.83,1.29,16.83,2.88,0,0,0,.02,0,.03h0v1.44h-33.67v-1.47c0-1.59,7.54-2.88,16.83-2.88Z"/>
                    <path class="cls-26" d="m137.79,77.85h-33.87v-1.57c0-1.87,8.61-2.98,16.93-2.98s16.71,1.09,16.93,2.91h0s0,.05,0,.07v1.57Zm-33.67-.2h33.47v-1.37c0-1.34-6.72-2.77-16.73-2.77-4.49,0-8.71.3-11.89.84-3.03.52-4.85,1.24-4.85,1.94v1.37Z"/>
                  </g>
                </g>
                <g>
                  <path class="cls-45" d="m104.02,77.75c0-1.59,7.54-2.88,16.83-2.88s16.83,1.29,16.83,2.88-7.54,2.88-16.83,2.88-16.83-1.29-16.83-2.88Z"/>
                  <path class="cls-26" d="m120.85,80.73c-8.32,0-16.93-1.12-16.93-2.98s8.61-2.98,16.93-2.98,16.93,1.12,16.93,2.98-8.61,2.98-16.93,2.98Zm0-5.76c-4.49,0-8.71.3-11.89.84-3.03.52-4.85,1.24-4.85,1.94,0,1.34,6.72,2.78,16.73,2.78,4.49,0,8.71-.3,11.89-.84,3.03-.52,4.85-1.24,4.85-1.94,0-1.34-6.72-2.78-16.73-2.78Z"/>
                </g>
                <g>
                  <g>
                    <path class="cls-24" d="m105.59,76.53c-.15.15-.24.3-.24.46,0,1.46,6.94,2.65,15.5,2.65s15.5-1.19,15.5-2.65c0-.16-.08-.31-.24-.46,1.01.37,1.57.78,1.57,1.22,0,1.59-7.54,2.88-16.83,2.88s-16.83-1.29-16.83-2.88c0-.43.57-.85,1.57-1.22Z"/>
                    <path class="cls-26" d="m120.85,80.73c-8.32,0-16.93-1.12-16.93-2.98,0-.47.55-.91,1.64-1.31l.44-.16-.33.33c-.14.13-.21.26-.21.39,0,1.23,6.19,2.55,15.4,2.55s15.4-1.32,15.4-2.55c0-.12-.07-.25-.21-.39l-.33-.33.44.16c1.09.4,1.64.84,1.64,1.31,0,1.87-8.61,2.98-16.93,2.98Zm-15.54-3.98c-.78.33-1.19.67-1.19,1,0,1.34,6.72,2.78,16.73,2.78,4.49,0,8.71-.3,11.89-.84,3.03-.52,4.85-1.24,4.85-1.94,0-.33-.41-.67-1.19-1,.04.08.05.16.05.24,0,1.72-7.93,2.75-15.6,2.75s-15.6-1.03-15.6-2.75c0-.08.02-.16.05-.24Z"/>
                  </g>
                  <g>
                    <path class="cls-22" d="m136.35,76.99c0,1.46-6.94,2.65-15.5,2.65s-15.5-1.19-15.5-2.65c0-.16.08-.31.24-.46,2.68-.98,8.5-1.66,15.26-1.66s12.58.68,15.26,1.66c.15.15.24.3.24.46Z"/>
                    <path class="cls-26" d="m120.85,79.74c-7.67,0-15.6-1.03-15.6-2.75,0-.18.09-.36.27-.53l.04-.02c2.77-1.02,8.77-1.67,15.29-1.67s12.53.66,15.29,1.67l.04.02c.18.17.27.35.27.53,0,1.72-7.93,2.75-15.6,2.75Zm-15.2-3.13c-.13.13-.19.25-.19.37,0,1.23,6.19,2.55,15.4,2.55s15.4-1.32,15.4-2.55c0-.12-.06-.24-.19-.37-2.76-1-8.72-1.65-15.2-1.65s-12.45.65-15.2,1.65Z"/>
                  </g>
                </g>
                <g>
                  <g>
                    <path class="cls-30" d="m135.36,64.87c.19,0,.34-.15.34-.34v-4.17c0-.19-.15-.34-.34-.34s-.34.15-.34.34v4.17c0,.19.15.34.34.34Z"/>
                    <path class="cls-26" d="m135.36,64.97c-.24,0-.44-.2-.44-.44v-4.17c0-.24.2-.44.44-.44s.44.2.44.44v4.17c0,.24-.2.44-.44.44Zm0-4.86c-.13,0-.24.11-.24.24v4.17c0,.13.11.24.24.24s.24-.11.24-.24v-4.17c0-.13-.11-.24-.24-.24Z"/>
                  </g>
                  <g>
                    <path class="cls-30" d="m135.36,75.71c.19,0,.34-.15.34-.34v-3.64c0-.19-.15-.34-.34-.34s-.34.15-.34.34v3.64c0,.19.15.34.34.34Z"/>
                    <path class="cls-26" d="m135.36,75.81c-.24,0-.44-.2-.44-.44v-3.64c0-.24.2-.44.44-.44s.44.2.44.44v3.64c0,.24-.2.44-.44.44Zm0-4.33c-.13,0-.24.11-.24.24v3.64c0,.13.11.24.24.24s.24-.11.24-.24v-3.64c0-.13-.11-.24-.24-.24Z"/>
                  </g>
                </g>
                <g>
                  <g>
                    <path class="cls-30" d="m105.71,65.25c.19,0,.34-.15.34-.34v-4.17c0-.19-.15-.34-.34-.34s-.34.15-.34.34v4.17c0,.19.15.34.34.34Z"/>
                    <path class="cls-26" d="m105.71,65.35c-.24,0-.44-.2-.44-.44v-4.17c0-.24.2-.44.44-.44s.44.2.44.44v4.17c0,.24-.2.44-.44.44Zm0-4.86c-.13,0-.24.11-.24.24v4.17c0,.13.11.24.24.24s.24-.11.24-.24v-4.17c0-.13-.11-.24-.24-.24Z"/>
                  </g>
                  <g>
                    <path class="cls-30" d="m105.71,76.09c.19,0,.34-.15.34-.34v-3.64c0-.19-.15-.34-.34-.34s-.34.15-.34.34v3.64c0,.19.15.34.34.34Z"/>
                    <path class="cls-26" d="m105.71,76.19c-.24,0-.44-.2-.44-.44v-3.64c0-.24.2-.44.44-.44s.44.2.44.44v3.64c0,.24-.2.44-.44.44Zm0-4.33c-.13,0-.24.11-.24.24v3.64c0,.13.11.24.24.24s.24-.11.24-.24v-3.64c0-.13-.11-.24-.24-.24Z"/>
                  </g>
                </g>
                <path class="cls-34" d="m119.01,60.59c1.2-.06,2.39-.05,3.59-.03,1.15.02,2.29.07,3.43.16,1.87.15,3.74.41,5.54.93-.36-.02-.71.01-1.05.11-.84.24-1.34.96-1.6,1.76-.35,1.07-.35,2.23-.33,3.34.01.57,0,2.96,0,3.58,0,.93.02,1.86,0,2.78-.96-.11-1.93-.2-2.89-.31.02-1.31.09-2.61.07-3.92,0-.41-.06-2.13-.08-2.57-.04-.87-.11-1.75-.37-2.58-.17-.55-.47-1.03-.91-1.4-.43-.36-.94-.61-1.47-.8-1.22-.43-2.54-.55-3.82-.63-.99-.06-1.99-.06-2.98-.18.37-.09.75-.12,1.12-.14.58-.04,1.16-.08,1.74-.1Z"/>
                <g>
                  <g>
                    <path class="cls-30" d="m120.73,63.43c.19,0,.34-.15.34-.34v-4.17c0-.19-.15-.34-.34-.34s-.34.15-.34.34v4.17c0,.19.15.34.34.34Z"/>
                    <path class="cls-26" d="m120.73,63.53c-.24,0-.44-.2-.44-.44v-4.17c0-.24.2-.44.44-.44s.44.2.44.44v4.17c0,.24-.2.44-.44.44Zm0-4.86c-.13,0-.24.11-.24.24v4.17c0,.13.11.24.24.24s.24-.11.24-.24v-4.17c0-.13-.11-.24-.24-.24Z"/>
                  </g>
                  <g>
                    <path class="cls-30" d="m120.73,74.27c.19,0,.34-.15.34-.34v-3.64c0-.19-.15-.34-.34-.34s-.34.15-.34.34v3.64c0,.19.15.34.34.34Z"/>
                    <path class="cls-26" d="m120.73,74.37c-.24,0-.44-.2-.44-.44v-3.64c0-.24.2-.44.44-.44s.44.2.44.44v3.64c0,.24-.2.44-.44.44Zm0-4.33c-.13,0-.24.11-.24.24v3.64c0,.13.11.24.24.24s.24-.11.24-.24v-3.64c0-.13-.11-.24-.24-.24Z"/>
                  </g>
                </g>
              </g>
              <g>
                <g>
                  <path class="cls-32" d="m105.68,93.95c.63,0,1.14-.51,1.14-1.14v-24.57c0-.63-.51-1.14-1.14-1.14s-1.14.51-1.14,1.14v24.57c0,.63.51,1.14,1.14,1.14Z"/>
                  <path class="cls-26" d="m105.68,94.05c-.69,0-1.24-.56-1.24-1.24v-24.57c0-.69.56-1.24,1.24-1.24s1.24.56,1.24,1.24v24.57c0,.69-.56,1.24-1.24,1.24Zm0-26.85c-.57,0-1.04.47-1.04,1.04v24.57c0,.57.47,1.04,1.04,1.04s1.04-.47,1.04-1.04v-24.57c0-.57-.47-1.04-1.04-1.04Z"/>
                </g>
                <g class="cls-11">
                  <path class="cls-20" d="m106.08,67.18c.43.16.74.58.74,1.07v24.57c0,.49-.31.9-.74,1.07v-26.7Z"/>
                  <path class="cls-39" d="m105.02,67.31v26.43c-.29-.21-.48-.55-.48-.93v-24.57c0-.39.19-.73.48-.93Z"/>
                </g>
                <g>
                  <path class="cls-33" d="m107.71,69.68v3.39s-2.78.3-3.84.96v-3.44s2.53-1.21,3.84-.91Z"/>
                  <path class="cls-26" d="m103.77,74.21v-3.68l.06-.03c.1-.05,2.57-1.22,3.91-.92l.08.02v3.56h-.09s-2.77.32-3.8.96l-.15.1Zm.2-3.55v3.2c1.04-.54,3.17-.82,3.64-.88v-3.21c-1.17-.21-3.27.72-3.64.89Z"/>
                </g>
                <path class="cls-35" d="m105.78,71.14c0,.2.16.37.37.37s.37-.16.37-.37-.16-.37-.37-.37-.37.16-.37.37Z"/>
                <path class="cls-35" d="m104.41,71.4c0,.2.16.37.37.37s.37-.16.37-.37-.16-.37-.37-.37-.37.16-.37.37Z"/>
              </g>
            </g>
          </g>
          <g>
            <rect class="cls-40" x="87.89" y="80.5" width="24.21" height="11.99" rx="2.89" ry="2.89"/>
            <path class="cls-26" d="m109.21,92.58h-18.43c-1.65,0-3-1.34-3-2.99v-6.2c0-1.65,1.34-2.99,3-2.99h18.43c1.65,0,3,1.34,3,2.99v6.2c0,1.65-1.34,2.99-3,2.99Zm-18.43-11.98c-1.54,0-2.79,1.25-2.79,2.79v6.2c0,1.54,1.25,2.79,2.79,2.79h18.43c1.54,0,2.79-1.25,2.79-2.79v-6.2c0-1.54-1.25-2.79-2.79-2.79h-18.43Z"/>
          </g>
          <rect class="cls-23" x="88.37" y="81.27" width="23.27" height="11.52" rx="2.78" ry="2.78"/>
          <g>
            <path class="cls-3" d="m108.85,81.27h-17.7c-1.53,0-2.78,1.25-2.78,2.78v.51c0-1.53,1.25-2.78,2.78-2.78h17.7c1.53,0,2.78,1.25,2.78,2.78v-.51c0-1.53-1.25-2.78-2.78-2.78Z"/>
            <path class="cls-23" d="m108.85,92.79h-17.7c-1.53,0-2.78-1.25-2.78-2.78v.51c0,1.53,1.25,2.78,2.78,2.78h17.7c1.53,0,2.78-1.25,2.78-2.78v-.51c0,1.53-1.25,2.78-2.78,2.78Z"/>
          </g>
          <g>
            <g>
              <path class="cls-48" d="m56.27,84.82c-12.7,0-23,1.25-23,2.79v27.1c0,1.54,10.3,2.79,23,2.79s23-1.25,23-2.79v-27.1c0-1.54-10.3-2.79-23-2.79Z"/>
              <path class="cls-43" d="m56.27,117.61c-11.36,0-23.1-1.08-23.1-2.89v-27.1c0-1.81,11.75-2.89,23.1-2.89s23.1,1.08,23.1,2.89v27.1c0,1.81-11.75,2.89-23.1,2.89Zm0-32.68c-13.7,0-22.9,1.39-22.9,2.69v27.1c0,1.3,9.2,2.69,22.9,2.69s22.9-1.39,22.9-2.69v-27.1c0-1.3-9.2-2.69-22.9-2.69Z"/>
            </g>
            <path class="cls-14" d="m76.98,100.94c-3.73,2.24-7.97,3.51-12.27,4.08-4.27.58-8.66.52-12.94.04-4.24-.48-8.5-1.45-12.34-3.35-2.3-1.13-4.4-2.61-6.16-4.43v17.43c0,1.54,10.3,2.79,23,2.79s23-1.25,23-2.79v-15.35c-.73.57-1.5,1.1-2.3,1.58Z"/>
            <path class="cls-34" d="m48.49,86.9c-.59.03-1.17.06-1.73.11v27.79c.56.04,1.14.08,1.73.11v-28Z"/>
            <path class="cls-14" d="m37.13,86.07c-2.44.44-3.86.97-3.86,1.55v27.1c0,.57,1.42,1.1,3.86,1.55v-30.19Z"/>
            <path class="cls-14" d="m64.96,85.03v32.27c8.4-.42,14.32-1.42,14.32-2.59v-27.1c0-1.17-5.92-2.17-14.32-2.59Z"/>
            <g>
              <g>
                <path class="cls-32" d="m79.7,88.01v-.95c0-1.57-10.49-2.84-23.43-2.84s-23.43,1.27-23.43,2.84v1.12c5.08-1.04,24.57-4.4,46.86-.17Z"/>
                <path class="cls-26" d="m32.74,88.31v-1.25c0-1.84,11.96-2.94,23.53-2.94s23.53,1.1,23.53,2.94v1.08l-.12-.02c-22.13-4.2-41.43-.93-46.82.17l-.12.02Zm23.53-3.99c-13.96,0-23.33,1.42-23.33,2.74v1c5.55-1.12,24.7-4.31,46.66-.17v-.83c0-1.32-9.37-2.74-23.33-2.74Z"/>
              </g>
              <path class="cls-13" d="m37.15,85.42c-2.71.46-4.31,1.03-4.31,1.64v1.12c.95-.19,2.42-.47,4.31-.76v-2Z"/>
              <path class="cls-13" d="m73.27,85.1v1.88c2.11.28,4.26.62,6.43,1.03v-.95c0-.76-2.45-1.45-6.43-1.96Z"/>
              <g>
                <path class="cls-32" d="m32.84,113.61v1.05c0,1.57,10.49,2.84,23.43,2.84s23.43-1.27,23.43-2.84v-.88c-22.29,4.23-41.78.87-46.86-.17Z"/>
                <path class="cls-26" d="m56.27,117.61c-11.57,0-23.53-1.1-23.53-2.94v-1.17l.12.02c5.39,1.1,24.69,4.37,46.82.17l.12-.02v1c0,1.84-11.96,2.94-23.53,2.94Zm-23.33-3.87v.92c0,1.32,9.37,2.74,23.33,2.74s23.33-1.42,23.33-2.74v-.76c-21.96,4.14-41.11.96-46.66-.17Z"/>
              </g>
              <path class="cls-13" d="m37.15,114.38c-1.89-.29-3.35-.57-4.31-.76v1.05c0,.61,1.6,1.18,4.31,1.64v-1.93Z"/>
              <path class="cls-13" d="m73.27,114.81v1.81c3.99-.51,6.43-1.2,6.43-1.96v-.88c-2.17.41-4.32.75-6.43,1.03Z"/>
            </g>
            <path class="cls-26" d="m43.31,117.47c-.19,0-.34-.15-.34-.34v-32.91c0-.19.15-.34.34-.34s.34.15.34.34v32.91c0,.19-.15.34-.34.34Z"/>
            <path class="cls-26" d="m32.77,115.72c-.19,0-.34-.15-.34-.34v-29.42c0-.19.15-.34.34-.34s.34.15.34.34v29.42c0,.19-.15.34-.34.34Z"/>
            <path class="cls-26" d="m79.58,115.72c-.19,0-.34-.15-.34-.34v-29.42c0-.19.15-.34.34-.34s.34.15.34.34v29.42c0,.19-.15.34-.34.34Z"/>
            <path class="cls-26" d="m69.47,117.47c-.19,0-.34-.15-.34-.34v-32.91c0-.19.15-.34.34-.34s.34.15.34.34v32.91c0,.19-.15.34-.34.34Z"/>
            <g>
              <g>
                <g>
                  <path class="cls-19" d="m79.31,89.03h.33c.16,0,.28-.12.28-.28v-1.99c0-.15-.12-.28-.28-.28h-.33v2.54Z"/>
                  <path class="cls-7" d="m79.64,89.04h-.34v-2.56h.34c.16,0,.29.13.29.29v1.99c0,.16-.13.29-.29.29Zm-.31-.02h.31c.15,0,.27-.12.27-.27v-1.99c0-.15-.12-.27-.27-.27h-.31v2.53Z"/>
                </g>
                <g>
                  <path class="cls-42" d="m78.46,86.49c-.15,0-.28.13-.28.28v1.99c0,.16.12.28.28.28h.85v-2.54h-.85Z"/>
                  <path class="cls-7" d="m79.32,89.04h-.86c-.16,0-.29-.13-.29-.29v-1.99c0-.16.13-.29.29-.29h.86v2.56Zm-.86-2.55c-.15,0-.27.12-.27.27v1.99c0,.15.12.27.27.27h.84v-2.53h-.84Z"/>
                </g>
              </g>
              <g>
                <g>
                  <g>
                    <path class="cls-19" d="m78.83,88.03c.14,0,.25.11.25.25s-.12.25-.25.25-.25-.11-.25-.25.11-.25.25-.25Z"/>
                    <path class="cls-7" d="m78.83,88.55c-.15,0-.26-.11-.26-.26s.12-.26.26-.26.26.12.26.26-.12.26-.26.26Zm0-.5c-.14,0-.24.11-.24.24s.11.24.24.24.24-.11.24-.24-.11-.24-.24-.24Z"/>
                  </g>
                  <g>
                    <path class="cls-37" d="m78.83,88.15c.14,0,.25.11.25.25,0,.14-.12.25-.25.25s-.25-.11-.25-.25c0-.13.11-.25.25-.25Z"/>
                    <path class="cls-7" d="m78.83,88.67c-.15,0-.26-.12-.26-.27,0-.14.11-.26.26-.26s.26.12.26.26c0,.15-.12.27-.26.27Zm0-.5c-.14,0-.24.11-.24.24,0,.14.11.24.24.24s.24-.11.24-.24c0-.13-.11-.24-.24-.24Z"/>
                  </g>
                </g>
                <g>
                  <g>
                    <path class="cls-19" d="m78.83,86.87c.14,0,.25.11.25.25,0,.14-.12.25-.25.25s-.25-.11-.25-.25c0-.13.11-.25.25-.25Z"/>
                    <path class="cls-7" d="m78.83,87.38c-.15,0-.26-.12-.26-.26s.12-.26.26-.26.26.12.26.26-.12.26-.26.26Zm0-.5c-.14,0-.24.11-.24.24,0,.14.11.25.24.25s.24-.11.24-.25c0-.13-.11-.24-.24-.24Z"/>
                  </g>
                  <g>
                    <path class="cls-37" d="m78.83,86.99c.14,0,.25.11.25.25s-.12.25-.25.25-.25-.11-.25-.25.11-.25.25-.25Z"/>
                    <path class="cls-7" d="m78.83,87.5c-.15,0-.26-.12-.26-.26s.11-.26.26-.26.26.12.26.26-.12.26-.26.26Zm0-.5c-.14,0-.24.11-.24.24s.11.24.24.24.24-.11.24-.24-.11-.24-.24-.24Z"/>
                  </g>
                </g>
              </g>
            </g>
            <g>
              <g>
                <g>
                  <path class="cls-19" d="m33.3,89.03h-.33c-.16,0-.28-.12-.28-.28v-1.99c0-.15.12-.28.28-.28h.33v2.54Z"/>
                  <path class="cls-7" d="m32.68,88.75v-1.99c0-.16.13-.29.29-.29h.34v2.56h-.34c-.16,0-.29-.13-.29-.29Zm.61-2.26h-.31c-.15,0-.27.12-.27.27v1.99c0,.15.12.27.27.27h.31v-2.53Z"/>
                </g>
                <g>
                  <path class="cls-42" d="m34.15,86.49c.15,0,.28.13.28.28v1.99c0,.16-.12.28-.28.28h-.85v-2.54h.85Z"/>
                  <path class="cls-7" d="m33.29,86.48h.86c.16,0,.29.13.29.29v1.99c0,.16-.13.29-.29.29h-.86v-2.56Zm.02.02v2.53h.84c.15,0,.27-.12.27-.27v-1.99c0-.15-.12-.27-.27-.27h-.84Z"/>
                </g>
              </g>
              <g>
                <g>
                  <g>
                    <path class="cls-19" d="m33.78,88.03c-.14,0-.25.11-.25.25s.12.25.25.25.25-.11.25-.25-.11-.25-.25-.25Z"/>
                    <path class="cls-7" d="m33.52,88.29c0-.14.12-.26.26-.26s.26.12.26.26-.12.26-.26.26-.26-.11-.26-.26Zm.02,0c0,.13.11.24.24.24.14,0,.24-.11.24-.24s-.11-.24-.24-.24-.24.11-.24.24Z"/>
                  </g>
                  <g>
                    <path class="cls-37" d="m33.78,88.15c-.14,0-.25.11-.25.25,0,.14.12.25.25.25s.25-.11.25-.25c0-.13-.11-.25-.25-.25Z"/>
                    <path class="cls-7" d="m33.52,88.4c0-.14.12-.26.26-.26s.26.12.26.26c0,.15-.11.27-.26.27s-.26-.12-.26-.27Zm.02,0c0,.14.11.24.24.24.14,0,.24-.11.24-.24,0-.13-.11-.24-.24-.24s-.24.11-.24.24Z"/>
                  </g>
                </g>
                <g>
                  <g>
                    <path class="cls-19" d="m33.78,86.87c-.14,0-.25.11-.25.25,0,.14.12.25.25.25s.25-.11.25-.25c0-.13-.11-.25-.25-.25Z"/>
                    <path class="cls-7" d="m33.52,87.12c0-.14.12-.26.26-.26s.26.12.26.26-.12.26-.26.26-.26-.12-.26-.26Zm.02,0c0,.14.11.25.24.25.14,0,.24-.11.24-.25,0-.13-.11-.24-.24-.24s-.24.11-.24.24Z"/>
                  </g>
                  <g>
                    <path class="cls-37" d="m33.78,86.99c-.14,0-.25.11-.25.25s.12.25.25.25.25-.11.25-.25-.11-.25-.25-.25Z"/>
                    <path class="cls-7" d="m33.52,87.24c0-.14.12-.26.26-.26s.26.12.26.26-.11.26-.26.26-.26-.12-.26-.26Zm.02,0c0,.13.11.24.24.24.14,0,.24-.11.24-.24s-.11-.24-.24-.24-.24.11-.24.24Z"/>
                  </g>
                </g>
              </g>
            </g>
          </g>
          <g>
            <g>
              <path class="cls-19" d="m130.78,149.65c-.36,0-.7-.18-.89-.51l-16.28-28.21c-.28-.49-.12-1.12.38-1.4.49-.28,1.12-.12,1.4.38l16.28,28.21c.28.49.12,1.12-.38,1.4-.16.09-.34.14-.51.14Z"/>
              <path class="cls-21" d="m130.78,149.75c-.4,0-.78-.22-.98-.56l-16.28-28.21c-.31-.54-.13-1.23.41-1.54.26-.15.57-.19.86-.11.29.08.53.27.69.53l16.28,28.21c.15.26.19.57.11.86-.08.29-.26.53-.53.69-.17.1-.37.15-.56.15Zm-16.28-30.26c-.16,0-.32.04-.46.12-.21.12-.37.32-.43.56-.06.24-.03.49.09.7l16.28,28.21c.17.29.47.46.8.46.16,0,.32-.04.46-.12.21-.12.37-.32.43-.56.06-.24.03-.49-.09-.7l-16.28-28.21c-.12-.21-.32-.37-.56-.43-.08-.02-.16-.03-.24-.03Z"/>
            </g>
            <g>
              <path class="cls-19" d="m66.58,149.65c.36,0,.7-.18.89-.51l16.28-28.21c.28-.49.12-1.12-.38-1.4-.49-.28-1.12-.12-1.4.38l-16.28,28.21c-.28.49-.12,1.12.38,1.4.16.09.34.14.51.14Z"/>
              <path class="cls-21" d="m66.58,149.75c-.2,0-.39-.05-.56-.15-.26-.15-.45-.39-.53-.69-.08-.29-.04-.6.11-.86l16.28-28.21c.15-.26.39-.45.69-.53.29-.08.6-.04.86.11.26.15.45.39.53.69.08.29.04.6-.11.86l-16.28,28.21c-.2.35-.58.56-.98.56Zm16.28-30.26c-.08,0-.16.01-.24.03-.24.06-.44.22-.56.43l-16.28,28.21c-.12.21-.16.46-.09.7.06.24.22.44.43.56.14.08.3.12.46.12.33,0,.64-.18.8-.46l16.28-28.21c.12-.21.16-.46.09-.7-.06-.24-.22-.44-.43-.56-.14-.08-.3-.12-.46-.12Z"/>
            </g>
          </g>
          <g>
            <g>
              <g>
                <path class="cls-44" d="m132.49,115.48c0,17.85-14.47,32.32-32.31,32.32s-32.31-14.47-32.31-32.32,14.47-32.31,32.31-32.31,32.31,14.47,32.31,32.31Z"/>
                <path class="cls-47" d="m100.17,147.87c-17.86,0-32.38-14.53-32.38-32.39s14.52-32.38,32.38-32.38,32.38,14.52,32.38,32.38-14.53,32.39-32.38,32.39Zm0-64.63c-17.78,0-32.24,14.46-32.24,32.24s14.46,32.24,32.24,32.24,32.24-14.46,32.24-32.24-14.47-32.24-32.24-32.24Z"/>
              </g>
              <g>
                <path class="cls-31" d="m100.17,82.54c-18.2,0-32.95,14.75-32.95,32.95s14.75,32.94,32.95,32.94,32.95-14.75,32.95-32.94-14.75-32.95-32.95-32.95Zm0,65.02c-17.71,0-32.07-14.36-32.07-32.07s14.36-32.07,32.07-32.07,32.07,14.36,32.07,32.07-14.36,32.07-32.07,32.07Z"/>
                <path class="cls-47" d="m100.17,148.5c-18.21,0-33.02-14.82-33.02-33.02s14.81-33.02,33.02-33.02,33.02,14.81,33.02,33.02-14.81,33.02-33.02,33.02Zm0-65.89c-18.13,0-32.88,14.75-32.88,32.87s14.75,32.87,32.88,32.87,32.87-14.75,32.87-32.87-14.75-32.87-32.87-32.87Zm0,65.02c-17.73,0-32.14-14.42-32.14-32.15s14.42-32.14,32.14-32.14,32.14,14.42,32.14,32.14-14.42,32.15-32.14,32.15Zm0-64.15c-17.65,0-32,14.36-32,32s14.35,32,32,32,32-14.36,32-32-14.36-32-32-32Z"/>
              </g>
              <path class="cls-6" d="m129.52,113.81c0,16.22-13.14,29.36-29.35,29.36s-29.35-13.14-29.35-29.36,13.14-29.35,29.35-29.35,29.35,13.14,29.35,29.35Z"/>
              <circle class="cls-2" cx="100.17" cy="113.81" r="24.29" transform="translate(-16.99 210.04) rotate(-88.04)"/>
              <path class="cls-25" d="m111.55,115.33c0,6.31-5.12,11.43-11.43,11.43s-11.43-5.12-11.43-11.43,5.12-11.43,11.43-11.43,11.43,5.12,11.43,11.43Z"/>
            </g>
            <g>
              <g>
                <g>
                  <path class="cls-19" d="m102.49,147.46v-.33c0-.15-.13-.28-.28-.28h-1.99c-.16,0-.28.13-.28.28v.33h2.55Z"/>
                  <path class="cls-7" d="m102.5,147.47h-2.56v-.34c0-.16.13-.29.29-.29h1.99c.16,0,.29.13.29.29v.34Zm-2.54-.03h2.53v-.32c0-.15-.12-.27-.27-.27h-1.99c-.15,0-.27.12-.27.27v.32Z"/>
                </g>
                <g>
                  <path class="cls-42" d="m99.94,148.3c0,.15.12.28.28.28h1.99c.15,0,.28-.12.28-.28v-.85h-2.55v.85Z"/>
                  <path class="cls-7" d="m102.21,148.59h-1.99c-.16,0-.29-.12-.29-.29v-.86h2.56v.86c0,.16-.13.29-.29.29Zm-2.26-1.12v.84c0,.15.12.27.27.27h1.99c.15,0,.27-.12.27-.27v-.84h-2.53Z"/>
                </g>
              </g>
              <g>
                <g>
                  <g>
                    <path class="cls-19" d="m101.49,147.94c0-.14.11-.25.25-.25s.25.11.25.25-.11.25-.25.25-.25-.11-.25-.25Z"/>
                    <path class="cls-7" d="m101.74,148.2c-.14,0-.26-.11-.26-.26s.12-.26.26-.26.26.12.26.26-.12.26-.26.26Zm0-.5c-.13,0-.24.11-.24.24s.11.24.24.24.24-.11.24-.24-.11-.24-.24-.24Z"/>
                  </g>
                  <g>
                    <path class="cls-37" d="m101.6,147.94c0-.14.11-.25.25-.25s.25.11.25.25-.11.25-.25.25-.25-.11-.25-.25Z"/>
                    <path class="cls-7" d="m101.86,148.2c-.14,0-.26-.11-.26-.26s.11-.26.26-.26.26.12.26.26-.12.26-.26.26Zm0-.5c-.13,0-.24.11-.24.24s.11.24.24.24.24-.11.24-.24-.11-.24-.24-.24Z"/>
                  </g>
                </g>
                <g>
                  <g>
                    <path class="cls-19" d="m100.32,147.94c0-.14.11-.25.25-.25s.25.11.25.25-.11.25-.25.25-.25-.11-.25-.25Z"/>
                    <path class="cls-7" d="m100.57,148.2c-.14,0-.26-.11-.26-.26s.12-.26.26-.26.26.12.26.26-.12.26-.26.26Zm0-.5c-.13,0-.24.11-.24.24s.11.24.24.24.24-.11.24-.24-.11-.24-.24-.24Z"/>
                  </g>
                  <g>
                    <path class="cls-37" d="m100.44,147.94c0-.14.11-.25.25-.25s.25.11.25.25-.11.25-.25.25-.25-.11-.25-.25Z"/>
                    <path class="cls-7" d="m100.69,148.2c-.14,0-.26-.11-.26-.26s.12-.26.26-.26.26.12.26.26-.11.26-.26.26Zm0-.5c-.13,0-.24.11-.24.24s.1.24.24.24.25-.11.25-.24-.11-.24-.25-.24Z"/>
                  </g>
                </g>
              </g>
            </g>
            <g>
              <g>
                <g>
                  <path class="cls-19" d="m131.84,117.12h-.33c-.16,0-.28.13-.28.28v1.99c0,.16.12.28.28.28h.33v-2.54Z"/>
                  <path class="cls-7" d="m131.85,119.67h-.34c-.16,0-.29-.13-.29-.29v-1.99c0-.16.13-.29.29-.29h.34v2.56Zm-.34-2.55c-.15,0-.27.12-.27.27v1.99c0,.15.12.27.27.27h.32v-2.53h-.32Z"/>
                </g>
                <g>
                  <path class="cls-42" d="m132.68,119.66c.15,0,.28-.12.28-.28v-1.99c0-.15-.12-.28-.28-.28h-.85v2.54h.85Z"/>
                  <path class="cls-7" d="m132.68,119.67h-.86v-2.56h.86c.16,0,.29.13.29.29v1.99c0,.16-.13.29-.29.29Zm-.84-.02h.84c.15,0,.27-.12.27-.27v-1.99c0-.15-.12-.27-.27-.27h-.84v2.53Z"/>
                </g>
              </g>
              <g>
                <g>
                  <g>
                    <path class="cls-19" d="m132.32,118.12c-.14,0-.25-.11-.25-.25s.11-.25.25-.25.25.11.25.25-.11.25-.25.25Z"/>
                    <path class="cls-7" d="m132.32,118.13c-.15,0-.26-.12-.26-.26s.12-.26.26-.26.26.12.26.26-.12.26-.26.26Zm0-.5c-.13,0-.24.11-.24.24s.11.24.24.24.24-.1.24-.24-.11-.24-.24-.24Z"/>
                  </g>
                  <g>
                    <path class="cls-37" d="m132.32,118c-.14,0-.25-.11-.25-.25,0-.13.11-.25.25-.25s.25.11.25.25c0,.14-.11.25-.25.25Z"/>
                    <path class="cls-7" d="m132.32,118.01c-.14,0-.26-.12-.26-.26s.12-.26.26-.26.26.12.26.26-.12.26-.26.26Zm0-.5c-.13,0-.24.11-.24.24,0,.14.11.25.24.25s.24-.11.24-.25c0-.13-.11-.24-.24-.24Z"/>
                  </g>
                </g>
                <g>
                  <g>
                    <path class="cls-19" d="m132.32,119.28c-.14,0-.25-.11-.25-.25,0-.13.11-.25.25-.25s.25.11.25.25c0,.14-.11.25-.25.25Z"/>
                    <path class="cls-7" d="m132.32,119.3c-.15,0-.26-.12-.26-.27,0-.14.12-.26.26-.26s.26.12.26.26c0,.15-.12.27-.26.27Zm0-.5c-.13,0-.24.11-.24.24,0,.14.11.24.24.24s.24-.1.24-.24c0-.13-.11-.24-.24-.24Z"/>
                  </g>
                  <g>
                    <path class="cls-37" d="m132.32,119.17c-.14,0-.25-.11-.25-.25s.11-.25.25-.25.25.11.25.25-.11.25-.25.25Z"/>
                    <path class="cls-7" d="m132.32,119.18c-.14,0-.26-.11-.26-.26s.12-.26.26-.26.26.12.26.26-.12.26-.26.26Zm0-.5c-.13,0-.24.11-.24.24s.11.24.24.24.24-.11.24-.24-.11-.24-.24-.24Z"/>
                  </g>
                </g>
              </g>
            </g>
            <g>
              <g>
                <g>
                  <path class="cls-19" d="m67.94,117.12h.33c.16,0,.28.13.28.28v1.99c0,.16-.12.28-.28.28h-.33v-2.54Z"/>
                  <path class="cls-7" d="m67.93,117.11h.34c.16,0,.29.13.29.29v1.99c0,.16-.13.29-.29.29h-.34v-2.56Zm.02.02v2.53h.32c.15,0,.27-.12.27-.27v-1.99c0-.15-.12-.27-.27-.27h-.32Z"/>
                </g>
                <g>
                  <path class="cls-42" d="m67.1,119.66c-.15,0-.28-.12-.28-.28v-1.99c0-.15.12-.28.28-.28h.85v2.54h-.85Z"/>
                  <path class="cls-7" d="m66.81,119.38v-1.99c0-.16.13-.29.29-.29h.86v2.56h-.86c-.16,0-.29-.13-.29-.29Zm1.12-2.26h-.84c-.15,0-.27.12-.27.27v1.99c0,.15.12.27.27.27h.84v-2.53Z"/>
                </g>
              </g>
              <g>
                <g>
                  <g>
                    <path class="cls-19" d="m67.46,118.12c.14,0,.25-.11.25-.25s-.11-.25-.25-.25-.25.11-.25.25.11.25.25.25Z"/>
                    <path class="cls-7" d="m67.2,117.87c0-.14.12-.26.26-.26s.26.12.26.26-.12.26-.26.26-.26-.12-.26-.26Zm.02,0c0,.13.11.24.24.24s.24-.1.24-.24-.11-.24-.24-.24-.24.11-.24.24Z"/>
                  </g>
                  <g>
                    <path class="cls-37" d="m67.46,118c.14,0,.25-.11.25-.25,0-.13-.11-.25-.25-.25s-.25.11-.25.25c0,.14.11.25.25.25Z"/>
                    <path class="cls-7" d="m67.2,117.75c0-.14.12-.26.26-.26s.26.12.26.26-.12.26-.26.26-.26-.12-.26-.26Zm.02,0c0,.14.11.25.24.25s.24-.11.24-.25c0-.13-.11-.24-.24-.24s-.24.11-.24.24Z"/>
                  </g>
                </g>
                <g>
                  <g>
                    <path class="cls-19" d="m67.46,119.28c.14,0,.25-.11.25-.25,0-.13-.11-.25-.25-.25s-.25.11-.25.25c0,.14.11.25.25.25Z"/>
                    <path class="cls-7" d="m67.2,119.03c0-.14.12-.26.26-.26s.26.12.26.26c0,.15-.12.27-.26.27s-.26-.12-.26-.27Zm.02,0c0,.14.11.24.24.24s.24-.1.24-.24c0-.13-.11-.24-.24-.24s-.24.11-.24.24Z"/>
                  </g>
                  <g>
                    <path class="cls-37" d="m67.46,119.17c.14,0,.25-.11.25-.25s-.11-.25-.25-.25-.25.11-.25.25.11.25.25.25Z"/>
                    <path class="cls-7" d="m67.2,118.92c0-.14.12-.26.26-.26s.26.12.26.26-.12.26-.26.26-.26-.11-.26-.26Zm.02,0c0,.13.11.24.24.24s.24-.11.24-.24-.11-.24-.24-.24-.24.11-.24.24Z"/>
                  </g>
                </g>
              </g>
            </g>
            <g>
              <g>
                <g>
                  <path class="cls-19" d="m81.42,141.68l.23-.23c.11-.11.11-.29,0-.4l-1.41-1.41c-.11-.11-.29-.11-.39,0l-.23.23,1.8,1.8Z"/>
                  <path class="cls-7" d="m81.42,141.69l-1.81-1.82.24-.24c.05-.05.12-.08.2-.08s.15.03.2.08l1.4,1.41c.11.11.11.3,0,.41l-.24.24Zm-1.78-1.82l1.78,1.79.22-.22c.1-.1.1-.27,0-.37l-1.41-1.41c-.05-.05-.12-.08-.19-.08s-.14.02-.19.08l-.22.22Z"/>
                </g>
                <g>
                  <path class="cls-42" d="m79.02,140.48c-.11.11-.11.28,0,.39l1.41,1.4c.1.11.28.11.39,0l.6-.6-1.8-1.8-.6.6Z"/>
                  <path class="cls-7" d="m80.62,142.37c-.08,0-.15-.03-.2-.08l-1.4-1.4c-.06-.06-.08-.13-.08-.21,0-.08.03-.15.08-.2l.6-.61,1.81,1.81-.6.61c-.05.05-.12.08-.2.08Zm-1-2.48l-.59.59c-.05.05-.08.12-.08.19s.03.14.08.19l1.41,1.4s.12.08.19.08.14-.03.19-.08l.59-.59-1.78-1.79Z"/>
                </g>
              </g>
              <g>
                <g>
                  <g>
                    <path class="cls-19" d="m80.37,141.32c.1-.1.26-.1.36,0,.1.1.1.25,0,.36-.1.09-.26.09-.36,0-.09-.1-.09-.26,0-.36Z"/>
                    <path class="cls-7" d="m80.55,141.75c-.07,0-.14-.03-.19-.08-.1-.1-.1-.27,0-.37.05-.05.12-.08.19-.08s.13.03.18.08c.05.05.08.11.08.18s-.03.14-.08.18c-.05.05-.12.08-.18.08Zm0-.5c-.07,0-.13.03-.17.07-.1.09-.1.24,0,.34.05.05.11.07.17.07s.12-.03.17-.07c.05-.05.07-.11.07-.17s-.02-.12-.07-.17c-.04-.05-.1-.07-.17-.07Z"/>
                  </g>
                  <g>
                    <path class="cls-37" d="m80.45,141.4c.1-.1.26-.1.36,0,.1.09.1.25,0,.35-.1.1-.26.1-.36,0-.1-.1-.1-.26,0-.35Z"/>
                    <path class="cls-7" d="m80.63,141.84c-.07,0-.13-.03-.18-.08-.05-.05-.08-.12-.08-.19,0-.06.03-.13.08-.18.05-.04.11-.07.18-.07s.14.03.19.07c.05.05.08.12.08.18,0,.07-.03.14-.08.19-.05.05-.12.08-.19.08Zm0-.5c-.06,0-.12.02-.17.07-.04.05-.07.11-.07.17,0,.07.03.13.07.18.04.05.11.07.17.07.07,0,.13-.02.17-.07.04-.05.07-.11.07-.18,0-.06-.03-.12-.07-.17-.04-.05-.11-.07-.17-.07Z"/>
                  </g>
                </g>
                <g>
                  <g>
                    <path class="cls-19" d="m79.55,140.49c.1-.1.26-.1.36,0,.1.1.1.25,0,.35-.1.1-.26.1-.36,0-.1-.1-.1-.25,0-.35Z"/>
                    <path class="cls-7" d="m79.72,140.93c-.07,0-.13-.03-.18-.08-.05-.05-.08-.12-.08-.18,0-.07.03-.14.08-.19.05-.05.11-.08.18-.08s.14.03.19.08c.1.1.1.27,0,.37-.05.05-.12.08-.19.08Zm0-.5c-.06,0-.12.03-.17.07-.05.05-.07.11-.07.18,0,.06.02.12.07.17.04.04.11.07.17.07.07,0,.13-.03.17-.07.1-.1.1-.25,0-.35-.04-.04-.11-.07-.17-.07Z"/>
                  </g>
                  <g>
                    <path class="cls-37" d="m79.63,140.58c.1-.1.26-.1.36,0,.1.1.1.25,0,.35-.1.1-.26.1-.36,0-.1-.1-.1-.25,0-.35Z"/>
                    <path class="cls-7" d="m79.8,141.01c-.06,0-.13-.02-.18-.08-.1-.1-.1-.26,0-.37.05-.05.11-.08.18-.08s.14.03.19.08c.1.1.1.27,0,.37-.05.05-.11.08-.19.08Zm0-.5c-.06,0-.12.02-.17.07-.09.1-.09.25,0,.34.05.05.11.07.17.07.07,0,.13-.02.17-.07.1-.09.1-.24,0-.34-.04-.04-.1-.07-.17-.07Z"/>
                  </g>
                </g>
              </g>
            </g>
            <g>
              <g>
                <g>
                  <path class="cls-19" d="m121.45,138.96l-.23-.23c-.1-.11-.28-.11-.39,0l-1.4,1.41c-.11.11-.11.28,0,.39l.23.23,1.8-1.8Z"/>
                  <path class="cls-7" d="m119.65,140.78l-.24-.24c-.06-.06-.09-.13-.09-.21s.03-.15.09-.2l1.4-1.4c.05-.06.13-.08.21-.08s.15.03.2.08l.24.24-1.81,1.81Zm1.37-2.12c-.07,0-.14.03-.19.08l-1.4,1.41c-.05.05-.08.12-.08.19s.02.14.08.19l.23.22,1.79-1.78-.23-.23s-.11-.08-.19-.08Z"/>
                </g>
                <g>
                  <path class="cls-42" d="m120.25,141.36c.11.11.28.11.39,0l1.4-1.41c.11-.11.11-.29,0-.4l-.6-.6-1.8,1.8.6.6Z"/>
                  <path class="cls-7" d="m120.45,141.45c-.08,0-.15-.03-.21-.09l-.6-.61,1.82-1.81.61.61c.05.05.08.12.08.2,0,.07-.03.15-.08.2l-1.41,1.41c-.05.05-.12.09-.21.09Zm-.78-.69l.59.59s.12.08.19.08.14-.03.19-.08l1.41-1.41s.08-.12.08-.19-.03-.14-.08-.19l-.59-.59-1.79,1.79Z"/>
                </g>
              </g>
              <g>
                <g>
                  <g>
                    <path class="cls-19" d="m121.09,140.01c-.1-.09-.1-.25,0-.35.1-.1.25-.1.35,0,.09.1.09.26,0,.35s-.25.1-.35,0Z"/>
                    <path class="cls-7" d="m121.27,140.1c-.07,0-.13-.03-.18-.08-.05-.05-.08-.12-.08-.19,0-.06.03-.13.08-.18.05-.05.12-.08.18-.08.07,0,.14.02.19.08.05.05.08.12.08.18,0,.07-.02.14-.08.19-.05.05-.11.08-.19.08Zm0-.5c-.06,0-.12.02-.17.07-.05.04-.07.1-.07.16,0,.07.02.13.07.18.04.04.1.07.17.07s.12-.03.17-.07c.04-.05.07-.11.07-.18,0-.06-.03-.12-.07-.16-.05-.05-.11-.07-.17-.07Z"/>
                  </g>
                  <g>
                    <path class="cls-37" d="m121.17,139.93c-.1-.1-.1-.26,0-.36.1-.1.26-.1.35,0,.1.1.1.25,0,.36-.1.09-.26.09-.35,0Z"/>
                    <path class="cls-7" d="m121.35,140.01c-.07,0-.13-.02-.18-.08-.1-.1-.1-.27,0-.37.05-.05.12-.07.18-.07.07,0,.14.02.19.07.1.1.1.27,0,.37-.05.05-.11.08-.19.08Zm0-.5c-.06,0-.12.03-.17.07-.09.09-.09.25,0,.35.05.04.11.07.17.07.07,0,.13-.03.17-.07.09-.1.09-.25,0-.35-.05-.04-.1-.07-.17-.07Z"/>
                  </g>
                </g>
                <g>
                  <g>
                    <path class="cls-19" d="m120.26,140.84c-.1-.1-.1-.26,0-.36.1-.1.26-.1.36,0,.1.1.1.26,0,.36-.1.09-.26.09-.36,0Z"/>
                    <path class="cls-7" d="m120.44,140.92c-.07,0-.13-.03-.18-.08-.04-.05-.07-.11-.07-.18,0-.08.03-.14.07-.19.05-.05.12-.08.19-.08.07,0,.13.03.18.08.1.1.1.27,0,.37-.05.05-.11.08-.19.08Zm0-.5c-.07,0-.13.02-.17.07-.04.04-.07.1-.07.17,0,.06.03.12.07.16.05.05.11.07.17.07.07,0,.13-.02.17-.07.1-.09.1-.25,0-.34-.04-.04-.1-.07-.16-.07Z"/>
                  </g>
                  <g>
                    <path class="cls-37" d="m120.35,140.76c-.1-.1-.1-.26,0-.36.1-.09.26-.09.36,0,.1.1.1.26,0,.36-.1.1-.26.1-.35,0Z"/>
                    <path class="cls-7" d="m120.53,140.84c-.07,0-.14-.03-.19-.08-.04-.05-.08-.11-.08-.18,0-.06.02-.14.08-.18.05-.05.12-.08.19-.08s.13.03.18.08c.05.05.08.12.08.18,0,.07-.02.14-.08.18-.05.05-.11.08-.18.08Zm0-.5c-.07,0-.13.03-.18.07-.04.05-.07.11-.07.17,0,.07.03.13.07.17.05.05.11.08.18.08.06,0,.12-.03.17-.08.05-.04.07-.1.07-.17,0-.06-.02-.12-.07-.17-.04-.05-.1-.07-.17-.07Z"/>
                  </g>
                </g>
              </g>
            </g>
            <g>
              <g>
                <g>
                  <path class="cls-19" d="m98.58,83.02v.33c0,.15.12.28.28.28h1.99c.15,0,.27-.12.27-.28v-.33h-2.54Z"/>
                  <path class="cls-7" d="m100.85,83.64h-1.99c-.16,0-.29-.13-.29-.28v-.34h2.57v.34c0,.16-.13.28-.28.28Zm-2.26-.61v.32c0,.14.12.26.27.26h1.99c.15,0,.26-.12.26-.26v-.32h-2.52Z"/>
                </g>
                <g>
                  <path class="cls-42" d="m101.13,82.18c0-.16-.12-.28-.27-.28h-1.99c-.15,0-.28.12-.28.28v.84h2.54v-.84Z"/>
                  <path class="cls-7" d="m101.14,83.03h-2.56v-.85c0-.16.13-.29.29-.29h1.99c.16,0,.28.13.28.29v.85Zm-2.54-.02h2.52v-.83c0-.15-.12-.27-.26-.27h-1.99c-.15,0-.27.12-.27.27v.83Z"/>
                </g>
              </g>
              <g>
                <g>
                  <g>
                    <path class="cls-19" d="m99.58,82.54c0,.14-.11.25-.25.25s-.25-.11-.25-.25.12-.25.25-.25.25.12.25.25Z"/>
                    <path class="cls-7" d="m99.33,82.8c-.14,0-.26-.12-.26-.26s.12-.26.26-.26.26.12.26.26-.11.26-.26.26Zm0-.5c-.13,0-.24.11-.24.24s.11.24.24.24.24-.11.24-.24-.11-.24-.24-.24Z"/>
                  </g>
                  <g>
                    <path class="cls-37" d="m99.47,82.54c0,.14-.11.25-.25.25s-.25-.11-.25-.25.11-.25.25-.25.25.12.25.25Z"/>
                    <path class="cls-7" d="m99.22,82.8c-.14,0-.26-.12-.26-.26s.12-.26.26-.26.26.12.26.26-.12.26-.26.26Zm0-.5c-.13,0-.24.11-.24.24s.11.24.24.24.24-.11.24-.24-.11-.24-.24-.24Z"/>
                  </g>
                </g>
                <g>
                  <g>
                    <path class="cls-19" d="m100.75,82.54c0,.14-.11.25-.25.25s-.25-.11-.25-.25.11-.25.25-.25.25.12.25.25Z"/>
                    <path class="cls-7" d="m100.5,82.8c-.14,0-.26-.12-.26-.26s.12-.26.26-.26.26.12.26.26-.11.26-.26.26Zm0-.5c-.13,0-.24.11-.24.24s.11.24.24.24.24-.11.24-.24-.11-.24-.24-.24Z"/>
                  </g>
                  <g>
                    <path class="cls-37" d="m100.63,82.54c0,.14-.11.25-.25.25s-.26-.11-.26-.25.12-.25.26-.25.25.12.25.25Z"/>
                    <path class="cls-7" d="m100.38,82.8c-.15,0-.26-.12-.26-.26s.12-.26.26-.26.26.12.26.26-.12.26-.26.26Zm0-.5c-.13,0-.24.11-.24.24s.11.24.24.24.24-.11.24-.24-.11-.24-.24-.24Z"/>
                  </g>
                </g>
              </g>
            </g>
            <g>
              <g>
                <g>
                  <path class="cls-19" d="m120.51,90.27l-.23.24c-.11.11-.11.28,0,.39l1.4,1.41c.11.11.28.11.39,0l.23-.23-1.8-1.8Z"/>
                  <path class="cls-7" d="m121.88,92.4h0c-.08,0-.14-.03-.2-.08l-1.41-1.41c-.11-.11-.11-.3,0-.41l.24-.24,1.81,1.81-.24.24c-.06.05-.13.08-.21.08Zm-1.37-2.11l-.23.23c-.1.1-.1.28,0,.38l1.41,1.41s.12.08.18.08h0c.07,0,.14-.03.19-.08l.23-.22-1.79-1.79Z"/>
                </g>
                <g>
                  <path class="cls-42" d="m122.9,91.47c.11-.11.11-.28,0-.39l-1.4-1.41c-.11-.11-.28-.11-.39,0l-.6.6,1.8,1.8.6-.6Z"/>
                  <path class="cls-7" d="m122.31,92.09l-1.82-1.82.61-.6c.05-.06.13-.09.2-.09s.15.03.2.09l1.41,1.4c.05.05.08.13.08.21s-.03.15-.08.21l-.61.6Zm-1.79-1.82l1.79,1.79.59-.59c.05-.05.08-.12.08-.19s-.03-.14-.08-.19l-1.41-1.4c-.05-.05-.12-.08-.19-.08-.07,0-.14.03-.19.08l-.59.59Z"/>
                </g>
              </g>
              <g>
                <g>
                  <g>
                    <path class="cls-19" d="m121.56,90.63c-.1.1-.26.1-.36,0-.1-.1-.1-.26,0-.36.1-.1.26-.1.36,0,.1.1.1.26,0,.36Z"/>
                    <path class="cls-7" d="m121.38,90.72c-.07,0-.14-.03-.18-.08-.1-.11-.1-.27,0-.37.04-.05.11-.08.18-.08s.14.03.18.08c.11.1.11.27,0,.37-.04.05-.11.08-.18.08Zm0-.5c-.07,0-.13.03-.17.07-.09.09-.09.25,0,.34.04.04.1.07.17.07s.12-.03.17-.07c.09-.1.09-.25,0-.34-.05-.04-.11-.07-.17-.07Z"/>
                  </g>
                  <g>
                    <path class="cls-37" d="m121.48,90.55c-.1.1-.26.1-.36,0-.1-.1-.1-.26,0-.35.1-.1.26-.1.36,0,.1.1.1.26,0,.35Z"/>
                    <path class="cls-7" d="m121.3,90.63c-.07,0-.13-.03-.18-.08-.05-.05-.08-.11-.08-.18s.03-.14.08-.19c.05-.05.11-.07.18-.07s.14.02.18.07c.05.05.08.11.08.19s-.03.13-.08.18c-.05.05-.11.08-.18.08Zm0-.5c-.07,0-.12.03-.17.07-.05.04-.07.1-.07.17s.02.12.07.17c.05.05.1.07.17.07s.12-.02.17-.07c.05-.04.07-.11.07-.17,0-.07-.02-.13-.07-.17-.05-.05-.11-.07-.17-.07Z"/>
                  </g>
                </g>
                <g>
                  <g>
                    <path class="cls-19" d="m122.38,91.46c-.1.1-.26.1-.35,0-.1-.1-.1-.26,0-.36.1-.1.25-.1.35,0,.1.1.1.26,0,.36Z"/>
                    <path class="cls-7" d="m122.2,91.54c-.07,0-.14-.03-.18-.08-.05-.05-.08-.11-.08-.18s.02-.14.08-.18c.04-.05.11-.08.18-.08.07,0,.14.03.18.08.05.05.08.11.08.18,0,.07-.03.14-.08.18-.05.05-.12.08-.18.08Zm0-.5c-.07,0-.12.03-.17.07-.05.04-.07.11-.07.17s.02.12.07.17c.05.04.11.07.17.07s.13-.03.17-.07c.04-.05.07-.11.07-.17s-.03-.12-.07-.17c-.05-.05-.11-.07-.17-.07Z"/>
                  </g>
                  <g>
                    <path class="cls-37" d="m122.3,91.37c-.1.1-.26.1-.36,0-.1-.1-.1-.26,0-.35.1-.1.26-.1.36,0,.09.1.09.25,0,.35Z"/>
                    <path class="cls-7" d="m122.12,91.46c-.07,0-.14-.03-.19-.08-.05-.05-.08-.11-.08-.18s.03-.14.08-.18c.05-.05.12-.07.19-.07.07,0,.13.02.18.07.1.11.1.27,0,.37-.05.05-.12.08-.18.08Zm0-.5c-.07,0-.12.02-.17.07-.04.04-.07.1-.07.17s.03.13.07.17c.05.05.11.07.17.07.06,0,.12-.02.17-.07.1-.09.1-.24,0-.34-.05-.05-.11-.07-.17-.07Z"/>
                  </g>
                </g>
              </g>
            </g>
            <g>
              <g>
                <g>
                  <path class="cls-19" d="m78.91,91.47l.23.24c.11.11.29.11.39,0l1.41-1.41c.11-.11.11-.28,0-.39l-.23-.23-1.8,1.79Z"/>
                  <path class="cls-7" d="m79.33,91.8c-.08,0-.15-.03-.2-.08l-.24-.24,1.82-1.81.24.24c.11.11.11.29,0,.4l-1.41,1.41c-.05.05-.13.08-.2.08Zm-.41-.33l.23.23c.05.05.12.08.19.08.08,0,.14-.02.19-.08l1.4-1.41c.1-.11.1-.27,0-.38l-.22-.23-1.79,1.78Z"/>
                </g>
                <g>
                  <path class="cls-42" d="m80.11,89.08c-.11-.11-.29-.11-.39,0l-1.41,1.41c-.11.11-.11.28,0,.39l.6.59,1.8-1.79-.6-.6Z"/>
                  <path class="cls-7" d="m78.91,91.49l-.61-.6c-.11-.11-.11-.29,0-.41l1.41-1.41c.05-.05.12-.08.2-.08s.15.03.2.08l.61.61-1.81,1.81Zm1-2.48c-.07,0-.14.03-.19.08l-1.4,1.4c-.11.1-.11.27,0,.38l.59.59,1.78-1.78-.59-.59c-.05-.05-.12-.08-.19-.08Z"/>
                </g>
              </g>
              <g>
                <g>
                  <g>
                    <path class="cls-19" d="m79.27,90.43c.1.1.1.25,0,.35-.1.1-.26.1-.36,0-.1-.1-.1-.25,0-.35.1-.1.26-.1.36,0Z"/>
                    <path class="cls-7" d="m79.09,90.86c-.07,0-.13-.02-.18-.07-.05-.05-.08-.12-.08-.18,0-.07.03-.14.08-.19.05-.05.11-.08.18-.08s.14.03.18.08c.11.1.11.27,0,.37-.05.05-.12.07-.18.07Zm0-.5c-.06,0-.12.02-.17.07-.05.05-.07.1-.07.17s.02.12.07.17c.05.05.1.07.17.07.07,0,.13-.02.17-.07.09-.09.09-.25,0-.34-.05-.05-.11-.07-.17-.07Z"/>
                  </g>
                  <g>
                    <path class="cls-37" d="m79.18,90.51c.1.1.1.26,0,.35-.1.1-.26.1-.35,0-.1-.1-.1-.26,0-.35.1-.1.26-.1.35,0Z"/>
                    <path class="cls-7" d="m79.01,90.94c-.07,0-.13-.03-.18-.08-.1-.1-.1-.27,0-.37.05-.05.11-.07.18-.07s.14.03.19.07c.05.05.08.12.08.18,0,.07-.03.14-.08.19-.05.05-.12.08-.19.08Zm0-.5c-.06,0-.12.03-.17.07-.1.09-.1.25,0,.34.05.04.1.07.17.07s.13-.03.17-.07c.04-.05.07-.11.07-.17,0-.06-.03-.12-.07-.17-.04-.04-.11-.07-.17-.07Z"/>
                  </g>
                </g>
                <g>
                  <g>
                    <path class="cls-19" d="m80.09,89.6c.1.1.1.25,0,.35-.1.1-.26.1-.36,0-.09-.1-.09-.26,0-.35.1-.1.26-.1.36,0Z"/>
                    <path class="cls-7" d="m79.91,90.04c-.07,0-.14-.02-.18-.07-.1-.1-.1-.27,0-.37.05-.05.11-.08.18-.08s.13.02.19.08c.05.05.08.12.08.18,0,.07-.03.14-.08.19-.05.05-.12.07-.19.07Zm0-.5c-.06,0-.13.03-.17.07-.09.09-.09.25,0,.35.04.04.11.07.17.07s.12-.03.17-.07c.04-.05.07-.11.07-.17,0-.06-.03-.12-.07-.17-.05-.04-.11-.07-.17-.07Z"/>
                  </g>
                  <g>
                    <path class="cls-37" d="m80.01,89.68c.1.1.1.26,0,.36-.1.1-.26.1-.36,0-.1-.1-.1-.26,0-.36.1-.1.26-.1.36,0Z"/>
                    <path class="cls-7" d="m79.83,90.12c-.07,0-.13-.03-.18-.08-.05-.05-.08-.11-.08-.18,0-.07.03-.14.08-.18.05-.05.12-.08.18-.08s.13.03.18.08c.05.05.08.11.08.18s-.03.13-.08.18c-.05.05-.11.08-.18.08Zm0-.5c-.06,0-.12.03-.17.07-.04.05-.07.11-.07.17s.03.12.07.17c.05.05.11.07.17.07.06,0,.13-.03.17-.07.05-.04.07-.1.07-.17s-.03-.12-.07-.17c-.04-.04-.11-.07-.17-.07Z"/>
                  </g>
                </g>
              </g>
            </g>
          </g>
        </g>
        <g>
          <g>
            <g>
              <path class="cls-19" d="m5.02,149.34c-.33,0-.66-.16-.86-.46-.31-.47-.18-1.11.29-1.42l19.34-12.74c.35-.23.8-.23,1.14,0l18.88,12.74c.47.32.6.96.28,1.43-.32.47-.96.59-1.43.28l-18.31-12.36-18.76,12.36c-.17.11-.37.17-.56.17Z"/>
              <path class="cls-21" d="m43.23,149.44c-.22,0-.44-.07-.63-.19l-18.26-12.32-18.71,12.32c-.19.12-.4.19-.62.19-.38,0-.73-.19-.94-.51-.34-.52-.2-1.22.32-1.56l19.34-12.74c.38-.25.87-.25,1.25,0l18.88,12.74c.25.17.42.42.48.72.06.3,0,.6-.17.85-.17.25-.42.42-.72.48-.07.01-.15.02-.22.02Zm-18.88-12.75l.06.04,18.31,12.35c.21.14.45.19.7.14.24-.05.45-.19.59-.39.14-.21.19-.45.14-.7-.05-.24-.19-.45-.39-.59l-18.88-12.74c-.31-.21-.72-.21-1.03,0l-19.34,12.74c-.43.28-.55.86-.26,1.29.17.26.46.42.78.42.18,0,.36-.05.51-.15l18.82-12.4Z"/>
            </g>
            <g>
              <path class="cls-15" d="m24.58,149.65c-.57,0-1.03-.46-1.03-1.03V49.82c0-.57.46-1.03,1.03-1.03s1.03.46,1.03,1.03v98.8c0,.57-.46,1.03-1.03,1.03Z"/>
              <path class="cls-21" d="m24.58,149.75c-.62,0-1.13-.51-1.13-1.13V49.82c0-.62.51-1.13,1.13-1.13s1.13.51,1.13,1.13v98.8c0,.62-.51,1.13-1.13,1.13Zm0-100.86c-.51,0-.93.42-.93.93v98.8c0,.51.42.93.93.93s.93-.42.93-.93V49.82c0-.51-.42-.93-.93-.93Z"/>
            </g>
          </g>
          <g>
            <g>
              <g>
                <path class="cls-28" d="m50.54,53.96s0-.04.01-.06c.01-.07.03-.15.03-.22-.02-3.4-15.18-8.44-26.58-8.39C12.61,45.35.04,50.53.05,53.91c0,1.16,1.29,1.96,3.42,2.51,4.38,1.48,12.54,2.45,21.88,2.41,13.17-.06,23.98-2.12,25.13-4.69.03-.06.05-.12.06-.18Z"/>
                <path class="cls-9" d="m24.01,45.3c-9.27.04-19.31,3.47-22.73,6.57,1.13-.52,2.27-1.03,3.43-1.49,2.06-.84,4.16-1.57,6.29-2.2,1.85-.55,3.69-1.14,5.56-1.63,1.94-.51,3.93-.93,5.93-1.08,1.76-.13,3.64-.08,5.31.54.37.14.73.31,1.07.51.47.24.91.57,1.3.95.86.82,1.54,1.81,2.16,2.81.85,1.37,1.62,2.8,2.36,4.24.63,1.23,1.23,2.49,1.8,3.75,7.7-.79,13.19-2.33,13.99-4.13.03-.06.05-.12.06-.18,0-.02,0-.04.01-.06.01-.07.03-.15.03-.22-.02-3.4-15.18-8.44-26.58-8.39Z"/>
                <path class="cls-27" d="m50.62,53.95c.47-1.98-3.22-3.49-4.48-4.08-4.07-1.91-8.57-3.01-12.98-3.8-9.65-1.72-20.07-.72-28.89,3.76-1.58.8-4.54,2.32-4.26,4.5.19,1.48,2.74,1.95,3.79,2.29,2.11.69,4.33,1.06,6.52,1.38,10.77,1.58,22.44,1.48,33.13-.71,1.99-.4,6.29-1.03,7.16-3.32.04-.1-.13-.07-.15,0-.97,2.55-6.37,3.09-8.59,3.5-5.43.99-11,1.26-16.51,1.3-5.57.04-11.19-.26-16.69-1.18-1.75-.29-3.48-.68-5.17-1.23-1.26-.42-3.48-.9-3.36-2.66.05-.78.81-1.46,1.35-1.94,3.38-3.03,8.66-4.34,12.95-5.3,5.13-1.15,10.34-1.32,15.56-.72,4.69.55,9.36,1.67,13.79,3.31,1.46.54,7.24,2.49,6.67,4.92-.02.09.14.04.16-.04Z"/>
              </g>
              <g>
                <path class="cls-9" d="m24.06,45.28v13.5c.84.01,1.68.02,2.53.01.78,0,1.56-.01,2.32-.03l-3.66-13.51c-.4,0-.8.01-1.2.02Z"/>
                <path class="cls-9" d="m22.72,45.35l-14.67,11.92c.89.19,1.85.36,2.88.51l12.86-12.49c-.35.02-.71.04-1.06.06Z"/>
              </g>
              <path class="cls-9" d="m29.97,46.35h0s0-.04,0-.06c0-.7-2.97-2.21-5.32-2.2s-5.13,1.54-5.13,2.24c0,.24.27.4.71.52.9.3,2.59.5,4.52.5,2.72-.01,4.96-.44,5.2-.97,0-.01,0-.02.01-.04Z"/>
              <g>
                <path class="cls-36" d="m29.25,45.53h0s0-.04,0-.05c0-.6-2.52-1.88-4.53-1.87-2,0-4.37,1.31-4.37,1.91,0,.2.23.34.6.44.77.26,2.21.43,3.85.42,2.32-.01,4.22-.37,4.42-.82,0-.01,0-.02.01-.03Z"/>
                <path class="cls-1" d="m29.33,45.55c.2-.97-2.47-1.65-3.04-1.81-1.84-.52-4.75-.06-5.95,1.57-.61.84,2.44,1.07,2.74,1.1.97.09,5.73.53,6.24-.84.03-.09-.12-.18-.15-.08-.38,1-3.56.8-4.37.81-.3,0-4.78-.27-4.18-1.08.8-1.09,2.88-1.47,4.12-1.54.69-.04,4.65.7,4.43,1.82-.02.1.15.15.16.04Z"/>
              </g>
            </g>
            <path class="cls-29" d="m25.24,43.88s4.45.96,3.31,1.62c-1.06.61-5.65.67-4.83.59,2.35-.22.16-2.07,1.52-2.21Z"/>
          </g>
        </g>
        <g>
          <g>
            <polygon class="cls-15" points="168.29 32.3 168.01 0 167.46 32.3 168.29 32.3"/>
            <path class="cls-21" d="m168.39,32.4h-1.03l.56-32.4h.2s.27,32.4.27,32.4Zm-.83-.2h.63l-.21-24.37-.42,24.37Z"/>
          </g>
          <g>
            <rect class="cls-15" x="166.98" y="26.75" width="1.75" height="4.94"/>
            <path class="cls-21" d="m168.83,31.8h-1.95v-5.14h1.95v5.14Zm-1.75-.2h1.55v-4.74h-1.55v4.74Z"/>
          </g>
          <g>
            <g>
              <path class="cls-19" d="m148.19,149.34c-.33,0-.66-.16-.86-.46-.31-.47-.18-1.11.29-1.42l19.34-12.74c.35-.23.8-.23,1.14,0l18.88,12.74c.47.32.6.96.28,1.43-.32.47-.96.59-1.43.28l-18.31-12.36-18.76,12.36c-.17.11-.37.17-.56.17Z"/>
              <path class="cls-21" d="m186.4,149.44c-.22,0-.44-.07-.63-.19l-18.26-12.32-18.71,12.32c-.19.12-.4.19-.62.19-.38,0-.73-.19-.94-.51-.34-.52-.2-1.22.32-1.56l19.34-12.74c.38-.25.87-.25,1.25,0l18.88,12.74c.25.17.42.42.48.72.06.3,0,.6-.17.85-.17.25-.42.42-.72.48-.07.01-.15.02-.22.02Zm-18.88-12.75l.06.04,18.31,12.35c.21.14.45.19.7.14.24-.05.45-.19.59-.39.14-.21.19-.45.14-.7-.05-.24-.19-.45-.39-.59l-18.88-12.74c-.31-.21-.72-.21-1.03,0l-19.34,12.74c-.43.28-.55.86-.26,1.29.17.26.46.42.78.42.18,0,.36-.05.51-.15l18.82-12.4Z"/>
            </g>
            <g>
              <path class="cls-15" d="m167.75,149.65c-.57,0-1.03-.52-1.03-1.16V36.95c0-.64.46-1.16,1.03-1.16s1.03.52,1.03,1.16v111.53c0,.64-.46,1.16-1.03,1.16Z"/>
              <path class="cls-21" d="m167.75,149.75c-.62,0-1.13-.57-1.13-1.26V36.95c0-.7.51-1.26,1.13-1.26s1.13.57,1.13,1.26v111.53c0,.7-.51,1.26-1.13,1.26Zm0-113.86c-.51,0-.93.48-.93,1.06v111.53c0,.58.42,1.06.93,1.06s.93-.48.93-1.06V36.95c0-.58-.42-1.06-.93-1.06Z"/>
            </g>
            <path class="cls-8" d="m167.93,35.81v113.82c.48-.09.85-.57.85-1.14V36.95c0-.57-.37-1.05-.85-1.14Z"/>
          </g>
          <g>
            <path class="cls-28" d="m176.48,36.25c-3.49-3.03-8.19-3.94-8.19-3.94,0,0-.89-.18-1.07,0,0,0-4.7.91-8.19,3.94,0,0-23.81,1.97-20.62,2.58,2.68.51,23,.16,29.35.04,6.35.12,26.67.47,29.35-.04,3.18-.61-20.62-2.58-20.62-2.58Z"/>
            <path class="cls-46" d="m187.57,39.19c-7.1,0-16.06-.16-19.82-.23-6.2.12-26.67.47-29.37-.04-.2-.04-.38-.09-.37-.24,0-.19.03-.53,10.56-1.59,4.95-.49,9.96-.91,10.41-.95,3.33-2.88,7.81-3.86,8.19-3.94.23-.17.92-.05,1.14,0,.05,0,4.74.95,8.21,3.94.45.04,5.46.46,10.41.95,10.54,1.05,10.55,1.4,10.56,1.59,0,.14-.18.2-.37.24-1.07.2-4.91.27-9.55.27Zm-19.82-.43c6.21.12,26.66.47,29.33-.04.08-.01.13-.03.16-.04-1.02-.54-12.86-1.68-20.78-2.34h-.03s-.02-.02-.02-.02c-3.43-2.98-8.1-3.91-8.14-3.92-.41-.08-.9-.11-.98-.03l-.02.02h-.03s-4.72.95-8.14,3.93l-.02.02h-.03c-7.92.66-19.76,1.8-20.78,2.34.03.01.09.03.16.04,2.67.51,23.12.16,29.33.04Z"/>
          </g>
          <g>
            <rect class="cls-15" x="166.43" y="31.5" width="2.65" height="1.11"/>
            <path class="cls-21" d="m169.18,32.71h-2.85v-1.31h2.85v1.31Zm-2.65-.2h2.45v-.91h-2.45v.91Z"/>
          </g>
          <path class="cls-4" d="m165.94,33.16s-3.74,1.26-5.51,3.34l-5.86,1.01,7.33-.25s3.74.89,8.89.57c.07,0,.14,0,.2-.01,5.26-.35-7.03-.61-7.33-1.47-.3-.86,2.27-3.18,2.27-3.18Z"/>
          <g>
            <g>
              <path class="cls-28" d="m176.48,43.67c-3.49,3.03-8.19,3.94-8.19,3.94,0,0-.89.18-1.07,0,0,0-4.7-.91-8.19-3.94,0,0-23.81-1.97-20.62-2.58,2.68-.51,23-.16,29.35-.04,6.35-.12,26.67-.47,29.35.04,3.18.61-20.62,2.58-20.62,2.58Z"/>
              <path class="cls-46" d="m167.59,47.79c-.17,0-.33-.02-.42-.09-.38-.08-4.85-1.05-8.19-3.94-.45-.04-5.46-.46-10.41-.95-10.53-1.05-10.55-1.4-10.56-1.59,0-.14.18-.2.37-.24,2.69-.51,23.16-.16,29.37-.04,6.2-.12,26.67-.47,29.37.04.2.04.38.09.37.24,0,.19-.03.53-10.56,1.59-4.95.49-9.96.91-10.41.95-3.47,3-8.16,3.93-8.21,3.94-.13.03-.44.08-.72.08Zm-29.33-6.56c1.02.54,12.86,1.68,20.78,2.34h.03s.02.02.02.02c3.43,2.98,8.1,3.91,8.14,3.92h.03s.02.03.02.03c.08.08.57.05.98-.03.05,0,4.72-.94,8.14-3.92l.02-.02h.03c7.92-.66,19.76-1.8,20.78-2.34-.03-.01-.09-.03-.16-.04-2.68-.51-23.12-.16-29.33-.04-6.21-.12-26.66-.47-29.33.04-.08.01-.13.03-.16.04Z"/>
            </g>
            <path class="cls-4" d="m165.94,46.75s-3.74-1.26-5.51-3.34l-5.86-1.01,7.33.25s3.74-.89,8.89-.57c.07,0,.14,0,.2.01,5.26.35-7.03.61-7.33,1.47-.3.86,2.27,3.18,2.27,3.18Z"/>
          </g>
          <g>
            <rect class="cls-16" x="166.4" y="47.93" width="3.05" height="4.1"/>
            <path class="cls-21" d="m169.54,52.13h-3.25v-4.3h3.25v4.3Zm-3.05-.2h2.85v-3.9h-2.85v3.9Z"/>
          </g>
          <g>
            <rect class="cls-16" x="165.78" y="76.84" width="4.04" height="2.2"/>
            <path class="cls-21" d="m169.93,79.14h-4.25v-2.4h4.25v2.4Zm-4.04-.2h3.84v-2h-3.84v2Z"/>
          </g>
          <rect class="cls-10" x="165.78" y="76.84" width="1.26" height="2.2"/>
          <rect class="cls-10" x="168.53" y="76.84" width="1.3" height="2.2"/>
          <g>
            <rect class="cls-16" x="165.61" y="47.22" width="4.62" height="1.12"/>
            <path class="cls-21" d="m170.33,48.44h-4.82v-1.32h4.82v1.32Zm-4.62-.2h4.42v-.92h-4.42v.92Z"/>
          </g>
          <g>
            <path class="cls-15" d="m165.44,75.75c-.06,0-.12.01-.18.03h-.89v1.09c-.1.31-.15.67-.15,1.04s.06.73.15,1.04v1.12h1.06c.67,0,1.21-.97,1.21-2.16s-.54-2.16-1.21-2.16Z"/>
            <path class="cls-21" d="m165.44,80.17h-1.16v-1.2c-.1-.32-.15-.69-.15-1.06s.05-.74.15-1.06v-1.18h.97c.07-.02.13-.03.19-.03.74,0,1.32.99,1.32,2.26s-.58,2.26-1.32,2.26Zm-.96-.2h.96c.61,0,1.11-.92,1.11-2.06s-.5-2.06-1.11-2.06c-.04,0-.09,0-.15.02h-.03s-.79,0-.79,0v1.02c-.1.31-.15.66-.15,1.01s.05.71.15,1.01v.03s0,1.02,0,1.02Z"/>
          </g>
          <g>
            <path class="cls-15" d="m165.69,77.91c0,1.19-.54,2.16-1.21,2.16s-1.21-.97-1.21-2.16.54-2.16,1.21-2.16,1.21.97,1.21,2.16Z"/>
            <path class="cls-21" d="m164.48,80.17c-.74,0-1.32-.99-1.32-2.26s.58-2.26,1.32-2.26,1.32.99,1.32,2.26-.58,2.26-1.32,2.26Zm0-4.32c-.61,0-1.11.92-1.11,2.06s.5,2.06,1.11,2.06,1.11-.92,1.11-2.06-.5-2.06-1.11-2.06Z"/>
          </g>
        </g>
      </g>
    </g>
  </g>
</svg>