<?xml version="1.0" encoding="UTF-8"?>
<svg xmlns="http://www.w3.org/2000/svg" viewBox="0 0 8.98 180.54">
  <defs>
    <style>
      .cls-1 {
        fill: #5f6163;
      }

      .cls-2 {
        mix-blend-mode: multiply;
      }

      .cls-2, .cls-3 {
        fill: #b7b9ba;
      }

      .cls-4 {
        fill: none;
        isolation: isolate;
      }

      .cls-5 {
        fill: #999c9e;
      }

      .cls-6 {
        fill: #5c5f61;
      }
    </style>
  </defs>
  <g class="cls-4">
    <g id="Layer_1" data-name="Layer 1">
      <g>
        <g>
          <path class="cls-5" d="m2.38,81.25c.36,0,.65.57.65,1.28l-.08,60.24c0,.7-.29,1.27-.65,1.28h0c-.36,0-.65-.57-.65-1.28l.08-60.24c0-.7.3-1.28.66-1.27h0Z"/>
          <path class="cls-1" d="m2.3,144.15c-.43,0-.76-.61-.75-1.39l.08-60.23c0-.77.34-1.38.76-1.38h0c.13,0,.25.06.36.17.24.24.39.7.39,1.22l-.08,60.24c0,.77-.33,1.38-.76,1.38Zm.08-62.79c-.29,0-.54.54-.55,1.17l-.08,60.23c0,.69.29,1.18.55,1.18.26,0,.55-.48.55-1.17l.08-60.24c0-.45-.13-.87-.33-1.07-.07-.07-.14-.1-.22-.1h0Z"/>
        </g>
        <g>
          <path class="cls-5" d="m1.66,145.99c.3,0,.55.22.55.49l-.03,23.05c0,.27-.24.48-.55.49h0c-.3,0-.55-.22-.55-.49l.03-23.04c0-.27.25-.49.55-.49h0Z"/>
          <path class="cls-1" d="m1.63,170.12c-.37,0-.65-.26-.65-.6l.03-23.04c0-.33.29-.59.65-.59h0c.36,0,.65.27.65.59l-.03,23.05c0,.32-.29.59-.65.59Zm.03-24.03c-.25,0-.45.17-.45.39l-.03,23.04c0,.21.2.39.44.39.24,0,.44-.17.44-.38l.03-23.05c0-.21-.2-.38-.45-.39Z"/>
        </g>
        <g>
          <g>
            <path class="cls-5" d="m2.87,148.13c1.35,0,2.45,1.1,2.45,2.45,0,1.36-1.1,2.45-2.46,2.45-1.35,0-2.45-1.1-2.45-2.45,0-1.36,1.1-2.45,2.45-2.45Z"/>
            <path class="cls-6" d="m2.86,153.14c-1.41,0-2.55-1.15-2.55-2.56,0-.68.27-1.33.75-1.81.48-.48,1.12-.74,1.8-.74h.01c1.4,0,2.55,1.15,2.55,2.56,0,1.41-1.15,2.55-2.56,2.55Zm0-4.9c-.62,0-1.21.24-1.65.68-.44.44-.69,1.03-.69,1.66,0,1.29,1.05,2.34,2.34,2.35,1.29,0,2.35-1.05,2.35-2.34,0-1.29-1.05-2.35-2.34-2.35h-.01Z"/>
          </g>
          <g>
            <path class="cls-5" d="m3.13,148.29c1.26,0,2.29,1.03,2.29,2.3,0,1.27-1.03,2.29-2.3,2.29-1.27,0-2.3-1.03-2.29-2.3,0-1.27,1.03-2.29,2.3-2.29Z"/>
            <path class="cls-1" d="m3.12,152.98c-.64,0-1.25-.25-1.7-.71-.45-.45-.7-1.06-.7-1.7,0-.64.25-1.24.7-1.69.45-.45,1.06-.7,1.7-.7h0c1.32,0,2.39,1.08,2.39,2.4,0,1.32-1.08,2.4-2.4,2.4Zm0-4.59c-.59,0-1.14.23-1.55.64-.41.41-.64.96-.64,1.55,0,.59.22,1.14.64,1.55.41.42.96.64,1.55.64,1.21,0,2.19-.98,2.19-2.19,0-1.21-.98-2.19-2.19-2.2Z"/>
          </g>
        </g>
        <g>
          <g>
            <path class="cls-5" d="m2.86,156.44c1.35,0,2.45,1.1,2.45,2.45,0,1.35-1.1,2.45-2.45,2.45-1.35,0-2.45-1.1-2.45-2.45,0-1.35,1.1-2.45,2.45-2.45Z"/>
            <path class="cls-6" d="m2.86,161.44h0c-1.41,0-2.55-1.15-2.55-2.56,0-1.41,1.15-2.55,2.55-2.55h0c1.41,0,2.55,1.15,2.55,2.56,0,1.41-1.15,2.55-2.55,2.55Zm0-4.9c-1.29,0-2.34,1.05-2.34,2.34,0,1.29,1.05,2.35,2.34,2.35h0c1.29,0,2.34-1.05,2.35-2.34,0-1.29-1.05-2.35-2.34-2.35h0Z"/>
          </g>
          <g>
            <path class="cls-5" d="m3.11,156.59c1.27,0,2.3,1.03,2.29,2.3,0,1.27-1.03,2.29-2.3,2.29s-2.29-1.03-2.29-2.3c0-1.27,1.03-2.29,2.3-2.29Z"/>
            <path class="cls-1" d="m3.1,161.29c-.64,0-1.24-.25-1.69-.7-.45-.45-.7-1.06-.7-1.7,0-1.32,1.08-2.4,2.4-2.4h0c.64,0,1.24.25,1.69.7.45.46.7,1.06.7,1.7,0,1.32-1.08,2.4-2.4,2.4Zm0-4.59c-1.21,0-2.19.99-2.19,2.19,0,.58.23,1.14.64,1.55.41.41.96.64,1.54.64,1.21,0,2.19-.98,2.2-2.19,0-.59-.23-1.14-.64-1.55-.41-.41-.96-.64-1.55-.64h0Z"/>
          </g>
        </g>
        <g>
          <g>
            <path class="cls-5" d="m2.85,165.42c1.35,0,2.45,1.1,2.45,2.45,0,1.35-1.1,2.45-2.45,2.45-1.35,0-2.45-1.11-2.45-2.46,0-1.35,1.1-2.45,2.45-2.45Z"/>
            <path class="cls-6" d="m2.84,170.43c-.68,0-1.32-.27-1.8-.75-.48-.48-.75-1.13-.75-1.81,0-1.4,1.15-2.55,2.56-2.55h0c1.41,0,2.55,1.16,2.55,2.56,0,1.4-1.15,2.55-2.56,2.55Zm0-4.9c-1.29,0-2.35,1.05-2.35,2.34,0,.63.24,1.22.69,1.67.44.44,1.03.69,1.65.69,1.29,0,2.35-1.05,2.35-2.35,0-1.29-1.05-2.34-2.34-2.35Z"/>
          </g>
          <g>
            <path class="cls-5" d="m3.1,165.58c1.27,0,2.29,1.03,2.29,2.3,0,1.27-1.03,2.29-2.29,2.29-1.27,0-2.29-1.03-2.29-2.3,0-1.27,1.03-2.29,2.3-2.29Z"/>
            <path class="cls-1" d="m3.09,170.27c-.64,0-1.24-.25-1.69-.7-.45-.45-.7-1.06-.7-1.7,0-.64.25-1.24.71-1.7.45-.45,1.05-.7,1.69-.7h0c.64,0,1.24.25,1.69.7.45.45.7,1.06.7,1.7,0,1.32-1.08,2.39-2.4,2.39h0Zm0-4.59c-.58,0-1.13.23-1.54.64-.41.41-.64.96-.64,1.55,0,.59.23,1.14.64,1.56.41.41.96.64,1.54.64h0c1.21,0,2.19-.98,2.19-2.19,0-.59-.23-1.14-.64-1.55-.41-.41-.96-.64-1.55-.64h0Z"/>
          </g>
        </g>
        <g>
          <path class="cls-3" d="m5.43.1c-1.57,0-2.84.56-2.97,1.27h-.03s-.23,177.71-.23,177.71h0c.04.74,1.36,1.35,2.98,1.35,1.63,0,2.95-.6,2.99-1.35h.01L8.42,1.38h-.03c-.13-.71-1.4-1.27-2.96-1.27Z"/>
          <path class="cls-1" d="m5.2,180.54h-.01c-1.57,0-2.85-.55-3.06-1.29l-.03.02v-.19S2.33,1.25,2.33,1.25h.05c.22-.72,1.5-1.25,3.04-1.25h0c1.55,0,2.83.54,3.05,1.27h.05s0,.1,0,.1l-.23,177.82h-.03c-.14.76-1.45,1.35-3.07,1.35Zm-2.89-1.52v.06c.04.69,1.33,1.26,2.88,1.26h0c1.55,0,2.83-.56,2.87-1.25v-.1S8.32,1.48,8.32,1.48h-.01s-.02-.08-.02-.08c-.12-.66-1.38-1.18-2.86-1.19h0C3.94.21,2.68.73,2.57,1.39l-.02.1h0s-.23,177.53-.23,177.53Z"/>
        </g>
        <path class="cls-2" d="m3.92.29c-.81.22-1.38.62-1.46,1.08h-.03s-.23,177.71-.23,177.71h0c.03.54.72,1,1.71,1.22V.29Z"/>
        <path class="cls-2" d="m8.39,1.38c-.1-.52-.8-.95-1.78-1.15v180.05c.91-.23,1.54-.67,1.57-1.18h.01L8.42,1.38h-.03Z"/>
        <g>
          <path class="cls-3" d="m8.07,53.72c.41,0,.74.43.74.98h0c0,.54-.33.97-.74.98H2.13c-.41-.01-.74-.45-.74-.99h0c0-.54.34-.97.74-.98h5.94Z"/>
          <path class="cls-1" d="m8.07,55.78H2.13s0-.01,0-.01c-.19,0-.37-.08-.52-.23-.21-.21-.32-.52-.32-.85,0-.59.38-1.08.85-1.08h5.94s0,.01,0,.01c.19,0,.37.08.52.23.21.21.32.52.32.85,0,.59-.38,1.08-.84,1.08Zm-5.94-.22h5.94c.35,0,.64-.38.64-.86,0-.28-.09-.54-.26-.7-.11-.11-.24-.17-.37-.17H2.13c-.35-.01-.64.38-.64.86,0,.28.1.54.26.71.11.11.24.17.37.17h0Z"/>
        </g>
        <g>
          <path class="cls-3" d="m8.21,1.75c.37,0,.67.27.67.61h0c0,.34-.3.61-.67.61H2.84c-.37,0-.67-.28-.67-.62h0c0-.34.3-.61.67-.61h5.36Z"/>
          <path class="cls-1" d="m8.21,3.07H2.84c-.43,0-.77-.33-.77-.72,0-.18.07-.35.2-.48.15-.14.35-.23.57-.23h5.37c.43,0,.78.33.78.72,0,.4-.34.71-.77.71ZM2.84,1.84c-.16,0-.31.06-.42.17-.09.09-.14.21-.14.34,0,.28.25.51.56.51h5.37c.32,0,.57-.21.57-.5,0-.28-.25-.5-.57-.5H2.85s0,0,0,0Z"/>
        </g>
        <g>
          <path class="cls-3" d="m8.06,64.85c.41,0,.74.44.74.98h0c0,.54-.33.97-.74.98H2.11c-.41,0-.74-.45-.74-.99h0c0-.54.33-.98.74-.98h5.94Z"/>
          <path class="cls-1" d="m8.06,66.91H2.11s0,0,0,0c-.19,0-.37-.08-.52-.23-.21-.21-.33-.52-.33-.85,0-.59.38-1.08.85-1.08h5.94c.46,0,.84.49.84,1.09,0,.59-.38,1.08-.84,1.08Zm-5.94-.22h5.94c.35,0,.64-.38.64-.86,0-.48-.28-.87-.63-.88H2.12c-.35,0-.64.39-.64.87,0,.28.1.54.26.71.11.11.24.17.37.17Z"/>
        </g>
        <g>
          <path class="cls-3" d="m7.91,174.04c.41,0,.74.3.74.67h0c0,.37-.33.67-.74.67H1.97c-.41,0-.74-.31-.74-.68h0c0-.37.34-.66.75-.67h5.94Z"/>
          <path class="cls-1" d="m7.91,175.48H1.97c-.22,0-.43-.09-.59-.23-.16-.15-.25-.34-.25-.55,0-.42.38-.77.85-.77h5.94c.23,0,.46.09.62.25.15.14.23.33.23.53,0,.43-.38.77-.85.77Zm-5.94-.22h5.94c.35,0,.64-.24.64-.56,0-.14-.06-.28-.17-.38-.12-.12-.29-.18-.47-.19H1.98c-.35,0-.64.25-.64.56,0,.15.07.29.18.4.12.11.29.17.45.17Z"/>
        </g>
        <g>
          <path class="cls-3" d="m7.95,144.65c.41,0,.74.3.74.67h0c0,.38-.33.67-.75.68H2.01c-.41-.01-.74-.31-.74-.68h0c0-.37.33-.67.74-.67h5.94Z"/>
          <path class="cls-1" d="m7.95,146.1H2.01c-.47-.01-.85-.36-.85-.79,0-.19.08-.38.22-.53.16-.16.38-.25.62-.25h5.94s0,.01,0,.01c.24,0,.46.09.62.25.14.14.22.33.22.52,0,.43-.37.77-.85.78Zm-5.94-1.35c-.18,0-.35.07-.47.19-.1.1-.16.24-.16.38,0,.31.29.56.64.56h5.93c.36,0,.64-.24.64-.56,0-.14-.06-.27-.16-.37-.12-.12-.29-.19-.48-.19H2.01s0-.01,0-.01Z"/>
        </g>
        <g>
          <g>
            <g>
              <path class="cls-5" d="m2.33,139.46c-.28.3-.48.97-.49,1.75,0,.78.2,1.45.48,1.76v.19h.35c.47,0,.84-.87.84-1.94,0-1.07-.37-1.94-.84-1.94h-.35s0,.19,0,.19Z"/>
              <path class="cls-6" d="m2.68,143.26h-.46v-.25c-.3-.36-.48-1.04-.48-1.8,0-.77.19-1.45.49-1.79v-.25s.46,0,.46,0c.53,0,.94.9.94,2.05,0,.82-.21,1.53-.54,1.86-.13.13-.26.19-.41.19Zm-.25-.21h.25c.09.01.18-.04.26-.13.29-.29.48-.96.48-1.71,0-1.1-.38-1.84-.73-1.84h-.25s0,.13,0,.13l-.03.03c-.28.29-.46.95-.46,1.68,0,.72.18,1.38.46,1.69l.03.03v.12Z"/>
            </g>
            <g>
              <path class="cls-5" d="m2.33,139.26c.46,0,.84.87.83,1.94,0,1.08-.38,1.94-.84,1.94-.46,0-.84-.87-.84-1.95,0-1.07.38-1.94.84-1.94Z"/>
              <path class="cls-6" d="m2.33,143.26c-.14,0-.28-.06-.41-.19-.33-.33-.54-1.06-.53-1.86,0-.8.21-1.53.54-1.86.13-.13.26-.19.41-.19h0c.14,0,.28.06.4.19.33.33.54,1.06.53,1.86,0,1.15-.42,2.05-.95,2.05Zm0-3.89c-.09,0-.18.04-.26.13-.29.29-.48.96-.48,1.71,0,.74.19,1.43.47,1.72.08.08.17.13.26.13.35,0,.74-.74.74-1.84,0-.74-.19-1.43-.47-1.71-.08-.08-.17-.13-.26-.13h0Z"/>
            </g>
          </g>
          <g>
            <g>
              <path class="cls-5" d="m1.05,139.22c-.32.35-.55,1.1-.55,1.98,0,.88.22,1.64.55,1.99v.21h.4c.52,0,.95-.98.95-2.19,0-1.21-.42-2.19-.94-2.2h-.4v.21Z"/>
              <path class="cls-6" d="m1.45,143.51h-.5v-.28c-.34-.39-.55-1.16-.55-2.03,0-.85.21-1.62.55-2.02v-.28h.51c.59,0,1.05,1.02,1.05,2.3,0,1.29-.46,2.3-1.05,2.3Zm-.29-.21h.29c.41,0,.84-.84.85-2.09,0-1.25-.43-2.09-.84-2.1h-.3v.15s-.03.03-.03.03c-.31.35-.52,1.1-.52,1.91,0,.82.2,1.57.52,1.92l.03.03v.15Z"/>
            </g>
            <g>
              <path class="cls-5" d="m1.06,139.01c.52,0,.95.98.95,2.2,0,1.21-.43,2.19-.95,2.19-.52,0-.95-.99-.95-2.2,0-1.21.43-2.2.95-2.2Z"/>
              <path class="cls-6" d="m1.05,143.51c-.59,0-1.05-1.01-1.05-2.3,0-.91.24-1.73.61-2.09.14-.14.29-.21.45-.21h0c.16,0,.31.07.44.21.37.37.6,1.19.6,2.09,0,1.29-.47,2.3-1.05,2.3Zm0-4.39c-.1,0-.2.05-.3.15-.33.32-.54,1.1-.55,1.94,0,1.25.44,2.09.85,2.09.41,0,.84-.84.84-2.09,0-.84-.22-1.62-.54-1.95-.1-.1-.2-.15-.3-.15h0Z"/>
            </g>
          </g>
        </g>
        <g>
          <g>
            <g>
              <path class="cls-5" d="m2.34,133.01c-.29.31-.49.97-.49,1.75,0,.78.2,1.45.48,1.76v.19h.35c.46,0,.84-.87.84-1.94,0-1.08-.37-1.95-.84-1.95h-.35s0,.19,0,.19Z"/>
              <path class="cls-6" d="m2.23,136.81v-.25c-.3-.36-.48-1.04-.48-1.8,0-.76.19-1.44.49-1.79v-.26s.46,0,.46,0c.27,0,.51.23.69.63.16.38.25.89.25,1.42,0,.8-.21,1.53-.54,1.85-.12.12-.26.19-.4.19h-.46Zm.21-3.89v.13s-.03.03-.03.03c-.28.3-.46.96-.46,1.68,0,.72.18,1.38.46,1.69l.03.03v.12h.25c.09,0,.17-.04.26-.13.28-.28.48-.97.48-1.71,0-.51-.08-.98-.23-1.34-.14-.32-.32-.51-.5-.51h-.25Z"/>
            </g>
            <g>
              <path class="cls-5" d="m2.34,132.82c.46,0,.84.88.84,1.94,0,1.08-.38,1.95-.84,1.95s-.84-.87-.84-1.94c0-1.07.38-1.94.84-1.95Z"/>
              <path class="cls-6" d="m2.34,136.81c-.14,0-.28-.06-.4-.19-.33-.33-.54-1.06-.54-1.86,0-1.15.42-2.05.95-2.05h0c.53,0,.94.9.94,2.05,0,1.15-.42,2.05-.94,2.05Zm0-3.89c-.35,0-.74.76-.74,1.84,0,.74.19,1.43.48,1.71.08.08.17.13.26.13.35,0,.74-.74.74-1.84,0-1.08-.38-1.84-.73-1.84Z"/>
            </g>
          </g>
          <g>
            <g>
              <path class="cls-5" d="m1.59,132.78c-.32.35-.55,1.1-.55,1.98,0,.88.22,1.63.55,1.99v.21s.4,0,.4,0c.52,0,.95-.98.95-2.19,0-1.22-.42-2.2-.94-2.2h-.4s0,.21,0,.21Z"/>
              <path class="cls-6" d="m1.98,137.06h-.51v-.27c-.33-.4-.54-1.17-.54-2.03,0-.86.21-1.63.55-2.02v-.28h.5c.59,0,1.05,1.02,1.05,2.31,0,1.29-.47,2.3-1.05,2.3Zm-.3-.21h.3c.41,0,.84-.84.85-2.09,0-1.25-.43-2.09-.84-2.1h-.29s0,.15,0,.15l-.03.03c-.32.34-.52,1.09-.52,1.91,0,.82.2,1.57.52,1.92l.03.03v.14Z"/>
            </g>
            <g>
              <path class="cls-5" d="m1.59,132.56c.52,0,.95.99.95,2.2,0,1.21-.43,2.19-.96,2.2-.52,0-.95-.98-.94-2.2,0-1.22.43-2.19.95-2.2Z"/>
              <path class="cls-6" d="m1.58,137.06c-.16,0-.31-.07-.45-.21-.37-.37-.6-1.19-.6-2.09,0-1.28.46-2.3,1.05-2.3h0c.59,0,1.05,1.02,1.05,2.3,0,1.29-.47,2.3-1.06,2.3Zm0-4.4c-.41,0-.85.85-.85,2.1,0,.85.21,1.62.54,1.94.1.1.2.15.3.15.41,0,.85-.84.85-2.09,0-1.23-.44-2.09-.84-2.1Z"/>
            </g>
          </g>
        </g>
        <g>
          <g>
            <g>
              <path class="cls-5" d="m2.35,126.56c-.29.31-.49.97-.49,1.76,0,.78.19,1.45.48,1.76v.19s.35,0,.35,0c.46,0,.84-.87.84-1.94,0-1.07-.37-1.94-.83-1.94h-.36v.19Z"/>
              <path class="cls-6" d="m2.24,130.37v-.25c-.3-.35-.48-1.03-.48-1.8,0-.76.18-1.44.49-1.8v-.25h.46c.53,0,.94.9.94,2.05,0,.8-.21,1.54-.54,1.86-.12.12-.26.19-.4.19h-.46Zm.21-3.89v.12l-.03.03c-.28.3-.46.97-.46,1.69,0,.73.18,1.39.46,1.68l.03.03v.13s.25,0,.25,0h0c.09,0,.17-.04.26-.13.29-.28.48-.97.48-1.71,0-1.08-.38-1.84-.73-1.84h-.25Z"/>
            </g>
            <g>
              <path class="cls-5" d="m2.35,126.38c.46,0,.84.87.84,1.94,0,1.07-.38,1.95-.84,1.95-.47,0-.84-.87-.84-1.94,0-1.08.38-1.95.84-1.94Z"/>
              <path class="cls-6" d="m2.34,130.37c-.53,0-.94-.9-.94-2.05,0-.81.21-1.54.54-1.86.13-.12.26-.19.41-.19h0c.14,0,.28.06.41.19.33.33.54,1.06.54,1.86,0,1.15-.42,2.05-.95,2.05Zm0-3.89c-.09,0-.17.04-.26.13-.29.29-.48.96-.48,1.71,0,1.08.38,1.84.73,1.84.35,0,.74-.76.74-1.84,0-.74-.19-1.42-.48-1.71-.09-.09-.17-.13-.26-.13h0Z"/>
            </g>
          </g>
          <g>
            <g>
              <path class="cls-5" d="m1.59,126.33c-.32.35-.55,1.11-.55,1.99,0,.88.22,1.63.55,1.98v.21h.4c.52,0,.95-.98.95-2.19,0-1.21-.42-2.2-.95-2.2h-.4s0,.21,0,.21Z"/>
              <path class="cls-6" d="m1.99,130.61h-.51v-.27c-.34-.39-.55-1.16-.55-2.02,0-.87.21-1.64.55-2.03v-.27h.51c.16,0,.31.07.45.21.37.36.61,1.19.6,2.1,0,.91-.24,1.73-.61,2.09-.14.14-.29.2-.44.2Zm-.3-.21h.3c.09,0,.2-.05.3-.14.33-.33.54-1.09.55-1.94,0-.84-.22-1.62-.54-1.95-.1-.1-.2-.14-.3-.14h-.3s0,.14,0,.14l-.03.03c-.31.34-.52,1.09-.52,1.92,0,.82.2,1.57.52,1.91l.03.03v.15Z"/>
            </g>
            <g>
              <path class="cls-5" d="m1.59,126.12c.53,0,.95.99.95,2.2,0,1.21-.43,2.2-.95,2.19-.52,0-.95-.98-.95-2.19,0-1.21.43-2.2.95-2.2Z"/>
              <path class="cls-6" d="m1.58,130.61c-.15,0-.3-.07-.44-.2-.37-.36-.6-1.19-.6-2.09,0-1.29.47-2.3,1.05-2.3h0c.59,0,1.05,1.01,1.05,2.3,0,.9-.24,1.72-.61,2.09-.14.14-.28.2-.45.2h0Zm.01-4.39c-.41,0-.84.84-.85,2.09,0,.84.22,1.62.54,1.94.1.1.2.14.3.14.1,0,.2-.05.3-.14.33-.32.55-1.1.55-1.94,0-1.25-.43-2.09-.84-2.09Z"/>
            </g>
          </g>
        </g>
        <g>
          <g>
            <g>
              <path class="cls-5" d="m2.36,120.11c-.29.31-.49.98-.49,1.76,0,.78.2,1.45.49,1.76v.18s.35,0,.35,0c.46,0,.84-.87.84-1.94,0-1.07-.37-1.94-.84-1.94h-.35s0,.18,0,.18Z"/>
              <path class="cls-6" d="m2.25,123.92v-.25c-.3-.36-.49-1.04-.48-1.8,0-.76.19-1.45.49-1.8v-.24s.45,0,.45,0c.15,0,.28.06.41.19.33.33.54,1.06.53,1.86,0,.8-.21,1.53-.54,1.86-.12.12-.26.19-.4.19h-.46Zm.21-3.89v.12s-.03.03-.03.03c-.28.3-.46.97-.46,1.69,0,.72.18,1.38.46,1.69l.03.03v.12s.25,0,.25,0h0c.09,0,.17-.04.26-.13.29-.28.48-.97.48-1.71,0-.74-.19-1.43-.47-1.71-.09-.09-.17-.13-.26-.13h-.25Z"/>
            </g>
            <g>
              <path class="cls-5" d="m2.36,119.93c.46,0,.83.87.83,1.95,0,1.07-.38,1.94-.84,1.94-.47,0-.84-.87-.84-1.95,0-1.07.38-1.94.84-1.94Z"/>
              <path class="cls-6" d="m2.35,123.92c-.53,0-.94-.9-.94-2.05,0-.8.21-1.53.54-1.85.13-.12.26-.19.41-.19.14,0,.28.06.4.18.33.32.53,1.06.53,1.87,0,.8-.21,1.53-.54,1.85-.13.13-.26.19-.41.19Zm0-3.89c-.09,0-.17.04-.26.13-.29.28-.48.97-.48,1.71,0,1.1.38,1.84.73,1.84.09,0,.17-.04.26-.13.29-.29.48-.97.48-1.71,0-.75-.19-1.44-.47-1.72-.08-.08-.17-.12-.25-.12h0Z"/>
            </g>
          </g>
          <g>
            <g>
              <path class="cls-5" d="m1.6,119.89c-.32.35-.55,1.11-.55,1.98,0,.88.22,1.64.55,1.99v.21s.4,0,.4,0c.52,0,.95-.98.95-2.2,0-1.21-.42-2.19-.94-2.2h-.4s0,.21,0,.21Z"/>
              <path class="cls-6" d="m2,124.17h-.51v-.27c-.33-.39-.54-1.16-.55-2.03,0-.86.22-1.63.55-2.02v-.27s.5,0,.5,0c.59,0,1.05,1.01,1.05,2.3,0,.91-.24,1.73-.61,2.09-.14.14-.29.2-.44.2Zm-.3-.21h.3c.1,0,.2-.05.3-.14.33-.33.54-1.09.55-1.95,0-1.25-.43-2.09-.84-2.09h-.3s0,.15,0,.15l-.03.03c-.32.34-.52,1.09-.53,1.91,0,.82.21,1.58.52,1.92l.03.03v.15Z"/>
            </g>
            <g>
              <path class="cls-5" d="m1.6,119.68c.53,0,.95.98.95,2.19,0,1.22-.43,2.2-.95,2.2s-.95-.98-.94-2.2c0-1.21.42-2.2.95-2.19Z"/>
              <path class="cls-6" d="m1.59,124.17c-.16,0-.31-.07-.45-.21-.37-.37-.6-1.19-.6-2.09,0-.91.24-1.73.61-2.09.14-.13.28-.2.44-.2,0,0,0,0,0,0,.16,0,.31.07.45.21.37.37.6,1.18.6,2.09,0,1.29-.47,2.3-1.06,2.3Zm0-4.39c-.1,0-.2.05-.29.14-.32.32-.54,1.1-.54,1.94,0,.85.21,1.61.54,1.94.1.1.2.15.3.15.41,0,.85-.84.85-2.09,0-.85-.21-1.61-.54-1.94-.1-.1-.2-.15-.3-.15h0Z"/>
            </g>
          </g>
        </g>
        <g>
          <g>
            <g>
              <path class="cls-5" d="m2.36,113.67c-.29.31-.48.98-.49,1.76,0,.78.2,1.45.49,1.76v.18s.35,0,.35,0c.47,0,.84-.87.85-1.94,0-1.08-.38-1.95-.84-1.95h-.35v.18Z"/>
              <path class="cls-6" d="m2.71,117.48h-.46v-.25c-.3-.35-.48-1.03-.48-1.8,0-.76.19-1.45.49-1.8v-.25h.46c.14,0,.28.06.41.19.33.33.54,1.06.54,1.86,0,1.15-.42,2.04-.95,2.04Zm-.25-.21h.25c.36,0,.74-.74.74-1.84,0-.74-.19-1.43-.47-1.72-.09-.09-.17-.13-.26-.13h-.25v.12s-.03.03-.03.03c-.28.3-.46.97-.46,1.69,0,.72.18,1.39.46,1.69l.03.03v.12Z"/>
            </g>
            <g>
              <path class="cls-5" d="m2.36,113.48c.46,0,.84.87.84,1.95,0,1.07-.38,1.94-.85,1.94-.46,0-.84-.87-.84-1.95,0-1.07.38-1.94.84-1.94Z"/>
              <path class="cls-6" d="m2.36,117.48h0c-.53,0-.94-.9-.94-2.05,0-.8.21-1.53.54-1.86.12-.12.26-.19.4-.19h0c.53,0,.94.9.94,2.05,0,1.15-.42,2.05-.95,2.05Zm0-3.89c-.09,0-.17.04-.26.13-.29.28-.48.97-.48,1.71,0,1.08.38,1.84.73,1.84h0c.35,0,.74-.74.74-1.84,0-1.09-.39-1.84-.74-1.84h0Z"/>
            </g>
          </g>
          <g>
            <g>
              <path class="cls-5" d="m1.61,113.44c-.32.35-.55,1.11-.55,1.98,0,.88.22,1.63.54,1.98v.21s.4,0,.4,0c.52,0,.95-.98.95-2.2,0-1.21-.42-2.2-.94-2.2h-.4v.21Z"/>
              <path class="cls-6" d="m2,117.73h-.5s0-.28,0-.28c-.34-.39-.54-1.16-.54-2.02,0-.86.21-1.63.55-2.02v-.27h.5c.3,0,.57.25.77.7.18.43.28.99.28,1.59,0,1.29-.46,2.3-1.05,2.3Zm-.3-.21h.3c.41,0,.85-.84.84-2.09,0-.57-.09-1.11-.26-1.51-.16-.37-.37-.58-.57-.58h-.29v.15l-.03.03c-.31.34-.52,1.09-.52,1.91,0,.82.2,1.57.52,1.91l.03.03v.15Z"/>
            </g>
            <g>
              <path class="cls-5" d="m1.61,113.23c.52,0,.95.98.95,2.19,0,1.21-.43,2.2-.95,2.2-.53,0-.95-.99-.94-2.2,0-1.21.43-2.19.95-2.19Z"/>
              <path class="cls-6" d="m1.61,117.73h0c-.59,0-1.05-1.01-1.05-2.3,0-.9.24-1.72.61-2.09.14-.14.29-.21.45-.21.59,0,1.05,1.01,1.05,2.3,0,.91-.24,1.73-.61,2.09-.14.14-.29.21-.45.21Zm0-4.39c-.1,0-.2.05-.3.15-.32.32-.54,1.1-.55,1.94,0,1.25.43,2.09.84,2.09.1,0,.2-.05.3-.15.33-.32.55-1.11.55-1.95,0-1.25-.43-2.09-.84-2.09h0Z"/>
            </g>
          </g>
        </g>
        <g>
          <g>
            <g>
              <path class="cls-5" d="m2.37,107.23c-.29.31-.49.98-.49,1.76,0,.77.2,1.44.48,1.76v.18s.36,0,.36,0c.46,0,.84-.87.84-1.94,0-1.08-.37-1.95-.84-1.94h-.35s0,.18,0,.18Z"/>
              <path class="cls-6" d="m2.27,111.03v-.25c-.3-.36-.49-1.04-.49-1.8,0-.76.19-1.45.49-1.8v-.25h.46c.15,0,.28.07.4.19.33.32.54,1.06.54,1.86,0,.8-.21,1.53-.54,1.86-.12.12-.26.19-.4.19h-.46Zm.21-3.89v.12l-.03.03c-.28.3-.46.97-.46,1.69,0,.72.18,1.38.46,1.69l.03.03v.12s.25,0,.25,0h0c.09,0,.17-.04.26-.13.29-.29.48-.97.48-1.71,0-.74-.19-1.43-.48-1.72-.08-.08-.17-.12-.26-.12h-.25Z"/>
            </g>
            <g>
              <path class="cls-5" d="m2.37,107.04c.46,0,.84.88.84,1.95s-.38,1.94-.84,1.94c-.46,0-.84-.87-.84-1.94,0-1.07.38-1.94.85-1.95Z"/>
              <path class="cls-6" d="m2.37,111.03c-.53,0-.94-.9-.94-2.05,0-1.15.42-2.05.95-2.05h0c.53,0,.94.9.94,2.05s-.42,2.05-.95,2.05Zm0-3.89c-.36,0-.74.74-.74,1.84,0,1.1.38,1.84.74,1.84.35,0,.74-.76.74-1.84s-.39-1.84-.73-1.84Z"/>
            </g>
          </g>
          <g>
            <g>
              <path class="cls-5" d="m1.62,107c-.32.35-.55,1.1-.55,1.98,0,.88.22,1.63.54,1.98v.21h.4c.53,0,.95-.99.95-2.19,0-1.21-.42-2.2-.94-2.2h-.4v.21Z"/>
              <path class="cls-6" d="m2.01,111.28h-.5v-.28c-.34-.39-.55-1.16-.54-2.02,0-.86.21-1.63.55-2.02v-.28h.5c.59,0,1.05,1.01,1.05,2.3,0,.9-.24,1.72-.61,2.09-.14.14-.29.21-.45.21Zm-.29-.21h.29c.1,0,.2-.05.3-.15.33-.32.54-1.1.54-1.94,0-1.25-.43-2.09-.84-2.1h-.3v.15l-.03.03c-.32.34-.52,1.09-.52,1.91,0,.82.2,1.57.52,1.91l.03.03v.15Z"/>
            </g>
            <g>
              <path class="cls-5" d="m1.62,106.79c.53,0,.95.99.94,2.2,0,1.21-.43,2.19-.95,2.19-.53,0-.94-.98-.94-2.2,0-1.21.42-2.2.95-2.2Z"/>
              <path class="cls-6" d="m1.61,111.28c-.59,0-1.05-1.01-1.05-2.3,0-.9.23-1.72.6-2.09.14-.14.29-.21.45-.21h0c.59,0,1.05,1.01,1.05,2.3,0,1.29-.46,2.3-1.05,2.3Zm0-4.39c-.1,0-.2.05-.3.15-.33.33-.54,1.09-.54,1.94,0,1.25.43,2.09.84,2.09.41,0,.84-.84.84-2.09,0-1.25-.43-2.09-.84-2.09Z"/>
            </g>
          </g>
        </g>
        <g>
          <g>
            <g>
              <path class="cls-5" d="m2.38,100.78c-.29.31-.49.98-.49,1.76s.2,1.44.48,1.76v.19s.35,0,.35,0c.47,0,.84-.87.84-1.94,0-1.07-.37-1.94-.84-1.94h-.35v.19Z"/>
              <path class="cls-6" d="m2.73,104.59h-.46s0-.25,0-.25c-.3-.36-.48-1.04-.48-1.8s.19-1.45.49-1.8v-.25h.46c.54,0,.94.88.94,2.05,0,1.15-.42,2.05-.95,2.05Zm-.25-.21h.25c.36,0,.74-.74.74-1.84,0-1.1-.38-1.84-.73-1.84h-.25v.12s-.03.03-.03.03c-.28.3-.46.96-.46,1.69s.18,1.38.46,1.69l.03.03v.12Z"/>
            </g>
            <g>
              <path class="cls-5" d="m2.38,100.6c.46,0,.83.87.84,1.95,0,1.07-.38,1.94-.84,1.94-.46,0-.84-.87-.84-1.94,0-1.08.38-1.95.84-1.94Z"/>
              <path class="cls-6" d="m2.38,104.59h0c-.53,0-.94-.9-.94-2.05,0-.8.21-1.54.54-1.86.13-.12.27-.18.41-.19.14,0,.28.06.4.18.33.32.54,1.06.54,1.87,0,.8-.21,1.53-.54,1.86-.13.12-.26.19-.4.19Zm0-3.89c-.09,0-.17.04-.26.13-.29.28-.48.97-.48,1.71,0,1.1.38,1.84.74,1.84h0c.09,0,.17-.04.26-.13.29-.29.48-.97.48-1.71,0-.74-.19-1.44-.48-1.72-.08-.08-.17-.12-.25-.12h0Z"/>
            </g>
          </g>
          <g>
            <g>
              <path class="cls-5" d="m1.63,100.55c-.33.35-.55,1.1-.55,1.99,0,.88.22,1.63.54,1.98v.21s.4,0,.4,0c.52,0,.95-.98.95-2.19,0-1.21-.42-2.2-.94-2.2h-.4v.21Z"/>
              <path class="cls-6" d="m2.02,104.84h-.51s0-.28,0-.28c-.34-.4-.54-1.16-.54-2.02,0-.86.21-1.63.55-2.03v-.28h.5c.16,0,.31.07.45.21.37.37.6,1.19.6,2.1,0,1.28-.46,2.29-1.05,2.3Zm-.3-.21h.3c.41,0,.84-.84.84-2.09,0-.84-.21-1.62-.54-1.95-.1-.1-.2-.15-.3-.15h-.3v.15l-.03.03c-.32.34-.52,1.09-.52,1.92,0,.82.2,1.57.52,1.91l.03.03v.15Z"/>
            </g>
            <g>
              <path class="cls-5" d="m1.63,100.34c.52,0,.95.99.94,2.2,0,1.21-.42,2.19-.95,2.19-.52,0-.95-.98-.94-2.2,0-1.21.43-2.19.95-2.19Z"/>
              <path class="cls-6" d="m1.62,104.83c-.16,0-.31-.07-.45-.21-.37-.37-.6-1.19-.6-2.09,0-1.29.46-2.3,1.05-2.3h0c.59,0,1.05,1.02,1.05,2.3,0,.9-.24,1.72-.6,2.09-.14.14-.29.21-.45.21Zm0-4.39c-.41,0-.85.84-.85,2.09,0,.85.21,1.61.54,1.94.1.1.2.15.3.15.1,0,.2-.05.3-.15.33-.33.54-1.09.54-1.94,0-1.25-.43-2.09-.84-2.1Z"/>
            </g>
          </g>
        </g>
        <g>
          <g>
            <g>
              <path class="cls-5" d="m2.39,92.58c-.29.31-.48.98-.49,1.76,0,.77.2,1.44.48,1.75v.19h.36c.46,0,.84-.87.84-1.94,0-1.07-.37-1.94-.84-1.95h-.35s0,.19,0,.19Z"/>
              <path class="cls-6" d="m2.28,96.39v-.25c-.3-.35-.48-1.03-.48-1.79,0-.77.19-1.45.49-1.8v-.25s.46,0,.46,0c.53,0,.94.9.94,2.05,0,.81-.21,1.54-.54,1.86-.13.12-.27.18-.41.19h-.46Zm.21-3.89v.12s-.03.03-.03.03c-.28.3-.46.97-.46,1.69,0,.72.18,1.38.45,1.68l.03.03v.12h.25s0,0,0,0c.09,0,.17-.04.26-.13.28-.28.48-.97.48-1.71,0-1.08-.38-1.84-.73-1.84h-.25Z"/>
            </g>
            <g>
              <path class="cls-5" d="m2.39,92.39c.46,0,.84.87.84,1.95,0,1.07-.37,1.94-.84,1.94-.46,0-.84-.87-.84-1.95,0-1.07.38-1.94.84-1.94Z"/>
              <path class="cls-6" d="m2.39,96.38c-.14,0-.28-.06-.4-.19-.33-.33-.54-1.06-.54-1.86,0-.8.21-1.53.54-1.86.13-.13.26-.18.41-.19h0c.53,0,.94.91.94,2.05,0,1.15-.42,2.04-.95,2.04h0Zm0-3.89c-.09,0-.17.04-.26.13-.29.29-.48.97-.48,1.71,0,.74.19,1.43.48,1.72.08.08.17.12.26.13.36,0,.74-.74.74-1.84,0-1.09-.38-1.84-.73-1.85h0Z"/>
            </g>
          </g>
          <g>
            <g>
              <path class="cls-5" d="m1.64,92.35c-.32.35-.55,1.1-.55,1.99,0,.88.22,1.63.54,1.98v.21h.4c.52,0,.95-.98.95-2.19,0-1.21-.42-2.2-.95-2.2h-.4v.21Z"/>
              <path class="cls-6" d="m2.03,96.64h-.5v-.28c-.34-.4-.55-1.17-.54-2.02,0-.86.21-1.63.55-2.03v-.27h.51c.16,0,.31.07.45.21.37.37.6,1.19.6,2.09,0,1.29-.47,2.29-1.05,2.3Zm-.3-.21h.3c.41,0,.84-.84.85-2.09,0-.85-.21-1.62-.54-1.95-.1-.1-.2-.15-.3-.15h-.3v.15s-.03.03-.03.03c-.32.34-.52,1.09-.52,1.92,0,.81.2,1.57.52,1.91l.03.03v.15Z"/>
            </g>
            <g>
              <path class="cls-5" d="m1.64,92.14c.52,0,.95.98.94,2.2,0,1.21-.43,2.19-.95,2.19s-.95-.99-.94-2.2c0-1.21.42-2.19.95-2.19Z"/>
              <path class="cls-6" d="m1.63,96.63c-.16,0-.31-.07-.45-.21-.37-.37-.6-1.19-.6-2.09,0-.9.23-1.72.6-2.08.28-.28.62-.28.9,0,.37.37.6,1.19.6,2.09,0,1.29-.47,2.3-1.05,2.3Zm0-4.39c-.1,0-.21.05-.31.15-.33.33-.54,1.09-.54,1.94,0,.85.21,1.61.54,1.94.1.1.2.15.3.15.41,0,.84-.84.85-2.09,0-.85-.21-1.61-.54-1.94-.1-.1-.2-.15-.3-.15Z"/>
            </g>
          </g>
        </g>
        <g>
          <g>
            <g>
              <path class="cls-5" d="m2.41,83.34c-.29.31-.49.97-.49,1.76,0,.78.2,1.45.48,1.76v.19s.35,0,.35,0c.46,0,.84-.87.84-1.94,0-1.07-.38-1.94-.84-1.95h-.35s0,.19,0,.19Z"/>
              <path class="cls-6" d="m2.76,87.14h-.46v-.25c-.3-.35-.48-1.03-.48-1.79,0-.77.19-1.45.49-1.8v-.25s.45,0,.45,0c.53,0,.95.9.94,2.05,0,.81-.22,1.54-.54,1.86-.12.12-.26.18-.4.18Zm-.25-.21h.25c.09,0,.17-.04.25-.12.29-.28.48-.97.48-1.72,0-1.08-.39-1.84-.74-1.84h-.25s0,.13,0,.13l-.03.03c-.28.3-.46.96-.46,1.69,0,.72.18,1.38.46,1.68l.03.03v.12Z"/>
            </g>
            <g>
              <path class="cls-5" d="m2.41,83.15c.46,0,.84.87.84,1.94,0,1.07-.38,1.95-.85,1.94-.46,0-.84-.87-.83-1.94,0-1.08.38-1.95.84-1.94Z"/>
              <path class="cls-6" d="m2.4,87.14h0c-.53,0-.94-.9-.94-2.05,0-.81.21-1.54.54-1.86.12-.12.26-.19.4-.19h0c.53,0,.94.9.94,2.05,0,.81-.22,1.54-.54,1.86-.12.12-.26.19-.4.19Zm0-3.89c-.09,0-.17.04-.26.13-.29.28-.48.97-.48,1.71,0,1.08.38,1.84.73,1.84.08,0,.17-.04.26-.13.29-.28.48-.97.48-1.71,0-1.1-.38-1.84-.73-1.84h0Z"/>
            </g>
          </g>
          <g>
            <g>
              <path class="cls-5" d="m1.65,83.11c-.32.35-.55,1.1-.55,1.98,0,.88.22,1.63.55,1.98v.21h.4c.52,0,.95-.98.95-2.19,0-1.21-.42-2.2-.94-2.2h-.4v.21Z"/>
              <path class="cls-6" d="m2.04,87.39h-.5v-.28c-.34-.39-.55-1.16-.55-2.02,0-.86.21-1.63.55-2.02v-.27h.51c.59,0,1.05,1.01,1.05,2.3,0,1.28-.47,2.29-1.05,2.3Zm-.3-.21h.3c.4,0,.84-.84.85-2.09,0-1.25-.43-2.09-.84-2.1h-.3v.15l-.03.03c-.32.34-.52,1.09-.52,1.91,0,.82.21,1.57.52,1.91l.03.03v.15Z"/>
            </g>
            <g>
              <path class="cls-5" d="m1.65,82.9c.52,0,.95.98.95,2.2,0,1.21-.43,2.2-.95,2.19-.52,0-.95-.99-.94-2.2,0-1.21.43-2.2.95-2.19Z"/>
              <path class="cls-6" d="m1.65,87.39h0c-.16,0-.31-.07-.45-.21-.37-.37-.6-1.19-.6-2.09,0-.9.24-1.72.6-2.09.14-.14.29-.21.45-.21h0c.16,0,.31.07.45.21.37.37.6,1.19.6,2.09,0,.91-.24,1.73-.61,2.09-.14.14-.29.21-.45.21Zm0-4.39c-.1,0-.2.05-.3.15-.33.33-.54,1.09-.54,1.94,0,.84.22,1.62.54,1.94.1.1.2.15.3.15h0c.1,0,.2-.05.3-.15.33-.33.54-1.09.55-1.94,0-.85-.21-1.62-.54-1.94-.1-.1-.2-.14-.3-.15h0Z"/>
            </g>
          </g>
        </g>
        <g>
          <path class="cls-3" d="m2.98,33.01s-.71.65-.71-.52c0-1.16.02-19.01.02-19.01,0,0,0-1.04.52-.78,0,0,4.19,7.43.17,20.31Z"/>
          <path class="cls-1" d="m2.6,33.29s-.1,0-.14-.03c-.2-.09-.29-.34-.29-.78,0-1.17.02-19.01.02-19.01,0-.07.01-.7.3-.88.07-.05.2-.08.37,0h.03s.02.04.02.04c.04.07,4.17,7.61.18,20.39v.03s-.03.02-.03.02c-.03.02-.23.21-.45.21Zm.06-20.53s-.05,0-.06.02c-.14.09-.2.48-.2.7,0,0-.02,17.84-.02,19.01,0,.33.06.54.17.59.1.04.27-.05.35-.12,2.06-6.62,1.91-11.75,1.41-14.9-.5-3.18-1.43-5.02-1.57-5.27-.03-.01-.06-.02-.08-.02Z"/>
        </g>
        <g>
          <path class="cls-3" d="m2.59,33.01s-.72.65-.71-.52c0-1.17.03-19.01.03-19.01,0,0,0-1.04.52-.78,0,0,4.19,7.43.17,20.31Z"/>
          <path class="cls-1" d="m2.2,33.29s-.1,0-.14-.03c-.2-.09-.29-.34-.29-.77,0-1.17.03-19.01.03-19.01,0-.07,0-.7.3-.88.07-.05.2-.08.37,0h.03s.02.04.02.04c.04.07,4.16,7.61.18,20.39v.03s-.03.02-.03.02c-.03.02-.24.21-.45.21Zm.06-20.53s-.05,0-.06.02c-.14.09-.2.48-.2.7,0,0-.02,17.84-.03,19.01,0,.32.06.54.17.58.11.05.28-.06.35-.12,2.06-6.62,1.91-11.75,1.41-14.9-.5-3.18-1.43-5.02-1.57-5.27-.03-.01-.06-.02-.08-.02Z"/>
        </g>
        <g>
          <path class="cls-3" d="m5.01,148.1c1.25,0,2.27,1.02,2.27,2.27,0,1.26-1.02,2.27-2.27,2.27s-2.27-1.02-2.26-2.27c0-1.25,1.02-2.27,2.27-2.27Z"/>
          <path class="cls-1" d="m5,152.74c-.63,0-1.23-.25-1.67-.7-.45-.45-.69-1.05-.69-1.68,0-1.3,1.06-2.37,2.37-2.37h0c.64,0,1.23.25,1.68.7.45.45.69,1.04.69,1.68,0,1.31-1.07,2.37-2.38,2.37Zm0-4.54c-1.19,0-2.17.98-2.17,2.17,0,.58.22,1.12.63,1.53.41.41.95.63,1.53.63,1.19,0,2.16-.97,2.17-2.16,0-.58-.22-1.12-.63-1.53-.41-.41-.95-.64-1.53-.64Z"/>
        </g>
        <g>
          <path class="cls-5" d="m4.64,148.37c1.25,0,2.27,1.02,2.27,2.27s-1.02,2.27-2.27,2.27c-1.26,0-2.27-1.01-2.27-2.27,0-1.25,1.02-2.27,2.27-2.27Z"/>
          <path class="cls-1" d="m4.65,153.01h0c-.64,0-1.23-.25-1.68-.7-.45-.45-.69-1.04-.69-1.68,0-1.31,1.07-2.37,2.38-2.37s2.37,1.07,2.37,2.38c0,.64-.25,1.23-.7,1.68-.45.45-1.04.69-1.67.69Zm0-4.54c-1.19,0-2.17.97-2.17,2.17,0,.58.22,1.12.63,1.53.41.41.95.63,1.53.63.58,0,1.12-.22,1.53-.63.41-.41.63-.95.63-1.53,0-1.2-.97-2.17-2.16-2.17Z"/>
        </g>
      </g>
    </g>
  </g>
</svg>