<?xml version="1.0" encoding="UTF-8"?>
<svg id="flute" xmlns="http://www.w3.org/2000/svg" viewBox="0 0 102.98 114.6">
  <defs>
    <style>
      .cls-1 {
        fill: #e6e7e8;
      }

      .cls-2 {
        fill: #bcbec0;
      }

      .cls-3 {
        fill: #d1d3d4;
      }
    </style>
  </defs>
  <path class="cls-1" d="m54.69,50.03c.23.2.09.72-.31,1.16l-33.57,37.61c-.39.44-.89.63-1.12.44h0c-.23-.2-.09-.72.31-1.16l33.57-37.61c.39-.44.9-.63,1.12-.43h0Z"/>
  <path class="cls-1" d="m17.92,91.24c.21.19.26.48.11.65l-12.85,14.39c-.15.17-.43.15-.66-.03h0c-.21-.19-.26-.48-.11-.65l12.84-14.38c.15-.17.45-.15.66.03h0Z"/>
  <path class="cls-3" d="m101.75,1.01c-.98-.87-2.09-1.23-2.56-.86l-.02-.02L.13,111.07H.13c-.39.48.1,1.6,1.11,2.5s2.18,1.27,2.62.82h0S102.91,3.47,102.91,3.47l-.02-.02c.31-.52-.17-1.57-1.14-2.44h0Z"/>
  <path class="cls-3" d="m100.7.28c-.63-.31-1.21-.38-1.51-.14l-.02-.02L.13,111.07H.13c-.28.35-.11,1.03.39,1.71L100.69.28h0Z"/>
  <path class="cls-3" d="m102.89,3.45c.23-.38.03-1.04-.47-1.71L2.22,114.28c.7.36,1.34.44,1.64.14h0S102.91,3.47,102.91,3.47l-.02-.02Z"/>
  <path class="cls-1" d="m73.56,35.99c.26.23.22.68-.08,1.02h0c-.3.34-.75.42-1.01.2l-3.71-3.31c-.25-.23-.21-.69.09-1.03h0c.3-.34.75-.42,1.01-.2l3.71,3.31h0Z"/>
  <path class="cls-1" d="m102.57,3.58c.23.21.27.54.08.75h0c-.19.21-.53.21-.76,0l-3.36-2.99c-.23-.21-.26-.55-.07-.76h0c.19-.21.53-.21.76,0l3.35,2.98h0Z"/>
  <path class="cls-1" d="m67.36,42.94c.26.23.22.69-.08,1.02h0c-.3.34-.75.42-1.01.2l-3.72-3.31c-.26-.23-.21-.69.09-1.03h0c.3-.34.75-.43,1.01-.2l3.71,3.31h0Z"/>
  <path class="cls-1" d="m6.51,111.1c.26.23.3.6.09.83h0c-.21.23-.58.24-.84,0l-3.71-3.31c-.26-.23-.29-.61-.08-.84h0c.21-.23.58-.22.84,0l3.71,3.31h-.01Z"/>
  <path class="cls-1" d="m22.89,92.75c.26.23.3.6.09.83h0c-.21.24-.58.24-.85,0l-3.71-3.3c-.25-.23-.29-.61-.08-.84h0c.21-.23.58-.24.84,0l3.71,3.31Z"/>
  <path class="cls-1" d="m81.66,19.99s-.81,0-.15-.72c.65-.73,10.6-11.86,10.6-11.86,0,0,.58-.65.76-.2,0,0-1.52,6.98-11.2,12.79h0Z"/>
  <path class="cls-2" d="m47.29,58.61c.34.3.14,1.08-.44,1.74s-1.35.95-1.68.64c-.34-.3-.14-1.08.45-1.73.59-.66,1.35-.95,1.68-.64Z"/>
  <path class="cls-3" d="m46.87,57.96c.38.34.16,1.22-.51,1.97s-1.52,1.07-1.89.72c-.38-.34-.16-1.23.51-1.97.66-.74,1.52-1.07,1.89-.72h0Z"/>
  <path class="cls-2" d="m23.12,85.56c.34.3.14,1.08-.44,1.74s-1.35.95-1.68.64c-.34-.3-.14-1.08.45-1.73.59-.66,1.35-.95,1.68-.64Z"/>
  <path class="cls-3" d="m22.69,84.91c.38.34.16,1.22-.51,1.97s-1.52,1.07-1.89.72c-.38-.34-.16-1.23.51-1.97.66-.74,1.52-1.07,1.89-.72h0Z"/>
  <path class="cls-2" d="m26.44,81.84c.34.3.14,1.08-.44,1.74s-1.35.95-1.68.64c-.34-.3-.14-1.08.45-1.73.59-.66,1.35-.95,1.68-.64Z"/>
  <path class="cls-3" d="m26.02,81.19c.38.34.16,1.22-.51,1.97s-1.52,1.07-1.89.72c-.38-.34-.16-1.23.51-1.97.66-.74,1.52-1.07,1.89-.72h0Z"/>
  <path class="cls-2" d="m29.81,78.09c.34.3.14,1.08-.44,1.74s-1.35.95-1.68.64c-.34-.3-.14-1.08.45-1.73.59-.66,1.35-.95,1.68-.64Z"/>
  <path class="cls-3" d="m29.39,77.43c.38.34.16,1.22-.51,1.97s-1.52,1.07-1.89.72c-.38-.34-.16-1.23.51-1.97.66-.74,1.52-1.07,1.89-.72h0Z"/>
  <path class="cls-2" d="m33.24,74.32c.34.3.14,1.08-.44,1.74s-1.35.95-1.68.64c-.34-.3-.14-1.08.45-1.73.59-.66,1.35-.95,1.68-.64Z"/>
  <path class="cls-3" d="m32.82,73.67c.38.34.16,1.22-.51,1.97s-1.52,1.07-1.89.72c-.38-.34-.16-1.23.51-1.97.66-.74,1.52-1.07,1.89-.72h0Z"/>
  <path class="cls-2" d="m36.87,70.34c.34.3.14,1.08-.44,1.74s-1.35.95-1.68.64c-.34-.3-.14-1.08.45-1.73.59-.66,1.35-.95,1.68-.64Z"/>
  <path class="cls-3" d="m36.45,69.69c.38.34.16,1.22-.51,1.97s-1.52,1.07-1.89.72c-.38-.34-.16-1.23.51-1.97.66-.74,1.52-1.07,1.89-.72h0Z"/>
  <path class="cls-2" d="m40.47,66.31c.34.3.14,1.08-.44,1.74s-1.35.95-1.68.64c-.34-.3-.14-1.08.45-1.73.59-.66,1.35-.95,1.68-.64Z"/>
  <path class="cls-3" d="m40.05,65.66c.38.34.16,1.22-.51,1.97s-1.52,1.07-1.89.72c-.38-.34-.16-1.23.51-1.97.66-.74,1.52-1.07,1.89-.72h0Z"/>
  <path class="cls-2" d="m43.88,62.47c.34.3.14,1.08-.44,1.74s-1.35.95-1.68.64c-.34-.3-.14-1.08.45-1.73.59-.66,1.35-.95,1.68-.64Z"/>
  <path class="cls-3" d="m43.46,61.82c.38.34.16,1.22-.51,1.97s-1.52,1.07-1.89.72c-.38-.34-.16-1.23.51-1.97.66-.74,1.52-1.07,1.89-.72h0Z"/>
  <path class="cls-2" d="m50.55,54.97c.34.3.14,1.08-.44,1.74s-1.35.95-1.68.64c-.34-.3-.14-1.08.45-1.73.59-.66,1.35-.95,1.68-.64Z"/>
  <path class="cls-3" d="m50.13,54.32c.38.34.16,1.22-.51,1.97s-1.52,1.07-1.89.72c-.38-.34-.16-1.23.51-1.97.66-.74,1.52-1.07,1.89-.72h0Z"/>
  <path class="cls-2" d="m53.9,51.23c.34.3.14,1.08-.44,1.74s-1.35.95-1.68.64c-.34-.3-.14-1.08.45-1.73.59-.66,1.35-.95,1.68-.64Z"/>
  <path class="cls-3" d="m53.48,50.58c.38.34.16,1.22-.51,1.97s-1.52,1.07-1.89.72c-.38-.34-.16-1.23.51-1.97.66-.74,1.52-1.07,1.89-.72h0Z"/>
  <path class="cls-2" d="m17.16,92.28c.34.3.14,1.08-.44,1.74s-1.35.95-1.68.64c-.34-.3-.14-1.08.45-1.73.59-.66,1.35-.95,1.68-.64Z"/>
  <path class="cls-3" d="m16.74,91.63c.38.34.16,1.22-.51,1.97s-1.52,1.07-1.89.72c-.38-.34-.16-1.23.51-1.97.66-.74,1.52-1.07,1.89-.72h0Z"/>
  <path class="cls-2" d="m14.05,95.78c.34.3.14,1.08-.44,1.74s-1.35.95-1.68.64c-.34-.3-.14-1.08.45-1.73.59-.66,1.35-.95,1.68-.64Z"/>
  <path class="cls-3" d="m13.63,95.13c.38.34.16,1.22-.51,1.97s-1.52,1.07-1.89.72c-.38-.34-.16-1.23.51-1.97.66-.74,1.52-1.07,1.89-.72h0Z"/>
  <path class="cls-2" d="m10.81,99.41c.34.3.14,1.08-.44,1.74s-1.35.95-1.68.64c-.34-.3-.14-1.08.45-1.73.59-.66,1.35-.95,1.68-.64Z"/>
  <path class="cls-3" d="m10.39,98.76c.38.34.16,1.22-.51,1.97s-1.52,1.07-1.89.72c-.38-.34-.16-1.23.51-1.97.66-.74,1.52-1.07,1.89-.72h0Z"/>
  <path class="cls-2" d="m7.62,103.1c.34.3.14,1.08-.44,1.74s-1.35.95-1.68.64c-.34-.3-.14-1.08.45-1.73.59-.66,1.35-.95,1.68-.64Z"/>
  <path class="cls-3" d="m7.2,102.45c.38.34.16,1.22-.51,1.97s-1.52,1.07-1.89.72c-.38-.34-.16-1.23.51-1.97.66-.74,1.52-1.07,1.89-.72h0Z"/>
</svg>