<?xml version="1.0" encoding="UTF-8"?>
<svg id="Layer_1" data-name="Layer 1" xmlns="http://www.w3.org/2000/svg" viewBox="0 0 196.53 371.6">
  <defs>
    <style>
      .cls-1 {
        fill: #ed9997;
      }

      .cls-2 {
        fill: #b5abd4;
      }

      .cls-3 {
        fill: #8f5050;
      }

      .cls-4 {
        fill: #fdbc4a;
      }

      .cls-5 {
        fill: #131313;
      }

      .cls-6 {
        fill: #fbb31c;
      }

      .cls-7 {
        fill: #c4badc;
      }

      .cls-8 {
        fill: #f280b2;
      }

      .cls-9 {
        fill: #f16a53;
      }

      .cls-10 {
        fill: #fac2ba;
      }

      .cls-11 {
        fill: #10b1c0;
      }

      .cls-12 {
        fill: #f16790;
      }

      .cls-13 {
        fill: #f15a3b;
      }

      .cls-14 {
        fill: #635ca8;
      }
    </style>
  </defs>
  <path class="cls-13" d="m22.96,75.94s10.34,60.76-5.97,76.19c-16.3,15.43-24.68,29.77-7.49,42.66,17.19,12.88,22.72-2.99,22.72-2.99,0,0-10.57,30.54,13.55,28.93,24.12-1.6,37.91-21.71,37.91-21.71,0,0,32.03,32.84,60.26,25.5,13.21-1.87,18.13-13.4,22.06-24.16,4.37,3.78,15.83,7.04,19.36-25.13,0,0,16.75,3.35,9.25-20.89-7.49-24.24-28.42-16.37-34.41-39.23-5.99-22.86-6.6-55.47-6.6-55.47,0,0-116.72-22.2-130.63,16.3Z"/>
  <g>
    <path class="cls-8" d="m82.87,132.12s-32.06,3.2-30.2,22.61c1.86,19.41.22,63.51,10.61,79.63,4.33,6.72,57.08,1.11,70.87-3.05,13.79-4.15,14.15-16.98,12.61-30.15-1.54-13.16-5.79-44.36-10.43-58.46-2.97-9.03-24.93-13.78-53.45-10.59Z"/>
    <path class="cls-12" d="m86.39,131.95s-32.05,3.21-30.2,22.61c1.85,19.41.22,63.51,10.6,79.63,4.33,6.72,57.08,1.11,70.87-3.05,13.79-4.15,14.15-16.98,12.61-30.14-1.54-13.16-5.79-44.36-10.42-58.46-2.97-9.03-24.93-13.78-53.46-10.58Z"/>
  </g>
  <g>
    <path class="cls-12" d="m154.32,364.68s.41,3.77-5.38,5.09c-5.79,1.32-16.67,2.56-25.77,1.32-9.09-1.24-13.23-2.21-13.23-2.21,0,0-.41-1.68-.63-4.2-.21-2.52,45,0,45,0Z"/>
    <path class="cls-12" d="m154.32,364.68c.61,2.77-6.99,4.47-16.49,4.95,1.2-4.27,3.28-8.31,6.32-11.93,4.6,1.67,9.53,4.1,10.17,6.98Z"/>
    <path class="cls-8" d="m109.67,353.86s11.64,5.38,26.18,1.38c0,0,4.01.9,8.29,2.46-3.04,3.62-5.12,7.66-6.32,11.93-9.62.48-21.19-.28-28.16-2.47,0,0-1.45-7.78,0-13.3Z"/>
    <path class="cls-12" d="m137.54,356.82c1.94-.49,4.34-1.06,5.51-2.81.51-.75.11-1.68-.83-1.42-.63.17-1.23.86-1.68,1.31-.99,1-1.73,2.27-2.46,3.47-.31-.18-.61-.36-.91-.54.72-1.19,1.47-2.35,2.11-3.59.23-.45,2.24-5.54.06-4.37-1.12.61-1.07,3.31-1.12,4.35-.07,1.29-.03,2.59.03,3.88.04.8-1.22.8-1.24,0-.07-2.09-.66-9.53,2.82-9.38,4.39.19-.93,8.27-1.74,9.64-.35.59-1.26.05-.91-.54,1.1-1.87,2.43-3.87,4.35-4.99.78-.46,2.33-.58,2.74.46,1.4,3.51-4.36,4.95-6.64,5.1-.34.02-.4-.5-.08-.58h0Z"/>
  </g>
  <g>
    <path class="cls-12" d="m47,364.68s-.41,3.77,5.37,5.09c5.79,1.32,16.67,2.56,25.77,1.32,9.09-1.24,13.23-2.21,13.23-2.21,0,0,.41-1.68.62-4.2.22-2.52-45,0-45,0Z"/>
    <path class="cls-12" d="m47,364.68c-.61,2.77,6.99,4.47,16.49,4.95-1.2-4.27-3.28-8.31-6.32-11.93-4.6,1.67-9.53,4.1-10.17,6.98Z"/>
    <path class="cls-8" d="m91.65,353.86s-11.65,5.38-26.18,1.38c0,0-4.01.9-8.3,2.46,3.04,3.62,5.12,7.66,6.32,11.93,9.62.48,21.19-.28,28.16-2.47,0,0,1.44-7.78,0-13.3Z"/>
    <path class="cls-12" d="m63.78,356.82c-1.94-.49-4.34-1.06-5.52-2.81-.51-.75-.11-1.68.84-1.42.63.17,1.23.86,1.68,1.31,1,1,1.73,2.27,2.47,3.47.3-.18.61-.36.91-.54-.72-1.19-1.46-2.35-2.11-3.59-.24-.45-2.24-5.54-.06-4.37,1.12.61,1.07,3.31,1.12,4.35.07,1.29.03,2.59-.04,3.88-.04.8,1.23.8,1.25,0,.07-2.09.66-9.53-2.82-9.38-4.38.19.93,8.27,1.74,9.64.35.59,1.26.05.91-.54-1.11-1.87-2.43-3.87-4.35-4.99-.78-.46-2.33-.58-2.75.46-1.4,3.51,4.35,4.95,6.64,5.1.34.02.4-.5.08-.58h0Z"/>
  </g>
  <g>
    <path class="cls-7" d="m63.17,267.48c-.21,17.29,3.78,80.19,4.96,87.7,0,0,15.11,5.45,23.66-1.32,0,0,3.38-73.11,2.73-76.97,0,0,8,.95,13.05-1.18,0,0,.48,75.2,1.8,79.91,0,0,14.98,7.58,22.02-.38,0,0,5.01-86.69,2.91-106.02-22.73,10.69-46.67,17.05-71.14,18.27Z"/>
    <path class="cls-2" d="m133.66,237.21c-3.36-5.68-69.48-1.23-69.48-1.23,0,0-.84,17.59-1.01,31.5,24.47-1.21,48.42-7.58,71.14-18.27-.55-5.07.05-10.83-.65-12.01Z"/>
    <g>
      <g>
        <path class="cls-14" d="m126.45,245.41c1.88,5.17,4.8,11.78,8.4,15.91"/>
        <path class="cls-14" d="m126.14,245.52c.48,2.87,1.94,5.64,3.13,8.16,1.38,2.95,3.06,5.9,5.18,8.14.56.59,1.32-.31.82-.99-1.84-2.49-3.49-5.05-4.96-7.89-1.28-2.48-2.14-5.39-3.58-7.73-.22-.35-.66-.15-.59.3h0Z"/>
      </g>
      <g>
        <path class="cls-14" d="m64.18,260.09c3.61-2.69,4.46-7.65,6.01-12.19"/>
        <path class="cls-14" d="m64.42,260.59c3.58-1.93,5.73-8.28,6.18-12.7.06-.56-.56-.6-.78-.25-1.1,1.79-1.63,4.26-2.37,6.3-.84,2.32-2.1,4.03-3.61,5.74-.43.48.11,1.17.58.91h0Z"/>
      </g>
      <g>
        <path class="cls-14" d="m83.91,275.45c9.95.21,20.76,1.86,31.22,1.45"/>
        <path class="cls-14" d="m83.91,276.28c10.3.58,21.16,3.21,31.42,1.46.86-.15.55-1.62-.19-1.7-10.24-1.21-20.93-1.36-31.22-1.4-.88,0-.87,1.59,0,1.64h0Z"/>
      </g>
      <g>
        <path class="cls-14" d="m97.12,276.42c-.52-11.37-.69-22.74-.52-34.31"/>
        <path class="cls-14" d="m97.62,276.42c.12-11.38.02-22.95-.34-34.31-.03-1.06-1.29-1.04-1.35,0-.63,11.26-.39,23.11.69,34.31.07.75.99.8,1,0h0Z"/>
      </g>
      <path class="cls-14" d="m99.15,277.07c10.03-2.77,6.09-24.28,5.44-32.69-.09-1.19-1.57-1.24-1.57,0-.02,8.03,4.61,28.01-4.17,31.39-.69.27-.41,1.49.3,1.3h0Z"/>
    </g>
  </g>
  <path class="cls-6" d="m58.92,239.62s45.1,9.94,81.48-1.09l-.15-2.66c-29.02-5.23-56.9-19.35-80.32-38.16l-1.01,41.9Z"/>
  <path class="cls-4" d="m156.66,177.35s-10.19-30.77-38.56-34.9c-28.38-4.14-40.74,3.25-40.74,3.25,0,0-18.26,2.16-26.53,15.67-8.27,13.5-7.99,24.25-7.99,24.25,0,0,5.18,4.09,16,4.88.41.03.83.05,1.26.07l-.17,7.14c23.43,18.8,51.3,32.93,80.32,38.16l-2.6-45.85s10.47-2.2,19.01-12.68Z"/>
  <path class="cls-11" d="m99.04,225.53c-1.27.8-37.64-21.45-24.71-44.37,14.39-16.16,23.87,9.21,23.87,9.21,0,0,1.77-24.86,17.93-26.32,16.16-1.46,9.97,44.44-17.09,61.48Z"/>
  <g>
    <path class="cls-8" d="m117.23,138.85c3.69-.63,9.48.79,15.42,4.19,0,0-3.5,16.89-2.31,27.14,1.18,10.24,7.04,33.55,7.04,33.55,0,0,2.2,13.56,1.77,20.78-12.55-14.03-21.63-23.94-24.57-50.37-1.4-12.6,1.24-28.29,2.65-35.29Z"/>
    <path class="cls-12" d="m113.38,141.7c.44-1.57,1.84-2.5,3.85-2.84-1.41,7-4.06,22.69-2.65,35.29,2.94,26.43,12.02,36.35,24.57,50.37-.11,1.77-.37,3.17-.87,3.89,0,0-19.39-15.53-25.14-39.98-5.74-24.46-1.02-42.27.24-46.73Z"/>
  </g>
  <g>
    <path class="cls-1" d="m153.64,208.54c-6.38-2.95-15.65-12.48-15.65-12.48l-.34-6.04s11.61-4.58,15.51-9.01c0,0,4.98,9.65,9.31,19.34-11.57,8-8.83,8.19-8.83,8.19Z"/>
    <path class="cls-10" d="m168.64,217.17c-.56-3.58-3.21-10.21-6.17-16.82-9.1,6.3-9.34,7.75-9.03,8.09-6.59-3.27-26.67-23.24-26.67-23.24,0,0,.55-1.93,0-5.24-.53-3.21-2.59-.49-4.01.91-1.65-1.7-7.06-7.06-9.42-5.32-2.07,1.52,1.38,6.34,1.38,6.34,0,0-4.13-4.41-5.65-3.1-1.52,1.31,1.38,5.99,1.38,5.99,0,0-4.41-5.17-5.65-2.27-1.24,2.89,7.01,13.44,7.01,13.44h0c2.47,4.42,6.4,8.26,6.4,8.26,14.05,17.64,28.39,28.39,36.96,30.04,8.58,1.65,14.85-8.27,13.47-17.09Z"/>
  </g>
  <g>
    <g>
      <g>
        <path class="cls-10" d="m21.7,87.63c1.06,7.12,8.46,14.05,22.88,8.76v-10.07c-7.14-3.82-16.17-3.39-22.88,1.3Z"/>
        <path class="cls-1" d="m25.91,77.53c-3.38,1.95-4.82,6.06-4.21,10.11,6.7-4.7,15.73-5.13,22.88-1.3v-6.93s-9.33-7.26-18.66-1.87Z"/>
      </g>
      <g>
        <path class="cls-3" d="m28.68,85.45c3.76-.22,8.48-1.76,11.4,1.52,2.1,2.36,1.89,6.11,1.94,9.06,0,.27.41.27.41,0,.04-3.14.06-7.11-2.32-9.52-2.96-3-7.81-1.86-11.45-1.19-.07.01-.06.14.02.13h0Z"/>
        <path class="cls-3" d="m35.06,89.14c1.63-.87,3.18-1.05,4.63.21.98.85,1.6,1.98,2.34,3.02.16.23.52.03.38-.22-1.56-2.92-4.26-5.55-7.52-3.27-.16.11-.02.37.16.27h0Z"/>
      </g>
    </g>
    <g>
      <g>
        <path class="cls-10" d="m171.2,87.63c-1.06,7.12-8.47,14.05-22.87,8.76v-10.07c7.14-3.82,16.17-3.39,22.87,1.3Z"/>
        <path class="cls-1" d="m164.22,79.25c3.38,1.96,7.59,4.34,6.98,8.38-6.71-4.7-15.74-5.13-22.87-1.3v-6.93s6.56-5.53,15.89-.14Z"/>
      </g>
      <g>
        <path class="cls-3" d="m164.24,85.32c-3.65-.67-8.5-1.81-11.46,1.19-2.38,2.41-2.36,6.38-2.32,9.52,0,.27.41.27.41,0,.05-2.98-.14-6.65,1.94-9.06,2.88-3.32,7.67-1.74,11.4-1.52.08,0,.09-.12.02-.13h0Z"/>
        <path class="cls-3" d="m158,88.87c-3.26-2.27-5.96.35-7.52,3.27-.14.25.22.45.38.22.74-1.04,1.37-2.17,2.34-3.02,1.45-1.26,3.01-1.07,4.64-.21.18.1.32-.16.16-.27h0Z"/>
      </g>
    </g>
    <path class="cls-10" d="m86.57,140.03c-.21.93-.51,1.81-.95,2.61,0,0,11.68,12.37,26.54,1.93,0,0-.28-4.31.15-9.45-8.75.56-17.28,2.08-25.74,4.9Z"/>
    <path class="cls-1" d="m114.27,125.07l-28.65,2.37s2.22,7.09.95,12.6c8.46-2.82,16.99-4.35,25.74-4.9.27-3.31.84-6.97,1.96-10.06Z"/>
    <path class="cls-10" d="m43.08,75.81s-.55,19.55,4.15,29.22c4.7,9.68,20.46,20.46,41.47,22.4,21.02,1.93,48.94-4.98,55.3-20.18,6.36-15.21,8.85-25.71,6.91-41.2-1.93-15.48-2.76-22.39-17.14-29.31-14.38-6.91-92.62-41.86-90.68,39.07Z"/>
    <ellipse class="cls-5" cx="70.66" cy="82.99" rx="3.11" ry="3.73"/>
    <path class="cls-5" d="m124.78,82.99c0,2.06-1.39,3.73-3.11,3.73s-3.11-1.67-3.11-3.73,1.39-3.73,3.11-3.73,3.11,1.67,3.11,3.73Z"/>
    <path class="cls-3" d="m94.41,75.94c-.23,2.4-2.16,6.59-.82,8.86.39.65,1.02,1.15,1.8,1.06.42-.05.76-.35,1.12-.55.23-.13.45-.4.7-.49.86-.7,1.28-.29,1.24,1.21,1,1.2.77,1.97-.69,2.32-.3.11-.17.59.13.48,2.03-.76,3.6-4.9.31-4.85-.65.01-1.02.45-1.56.7-.92.42-1.72,2.29-2.91-.59-.26-.62-.01-1.91.09-2.49.31-1.75,1.33-3.91.78-5.68-.03-.1-.17-.08-.18.02h0Z"/>
    <path class="cls-3" d="m92.55,97.92c-.19,2.64,2.83,4.26,5.11,4.27,2.77.01,4.9-1.89,5.01-4.69.01-.38-.55-.37-.59,0-.26,2.52-2.01,4.18-4.59,4.12s-3.88-1.55-4.78-3.73c-.04-.09-.16-.08-.16.02h0Z"/>
    <path class="cls-3" d="m58.25,68.6c2.02-3.57,5.44-5.91,9.49-6.48.25-.03.18-.43-.06-.43-3.77.02-8.5,3.17-9.65,6.82-.04.13.15.21.22.09h0Z"/>
    <path class="cls-3" d="m120.08,60.81c3.57.47,7.32,1.35,9.87,4.08.27.29.68-.14.43-.43-2.32-2.68-6.8-4.24-10.3-3.94-.19.02-.18.27,0,.29h0Z"/>
    <path class="cls-1" d="m78.75,101.93c0,5.35-4.61,9.68-10.3,9.68s-10.3-4.33-10.3-9.68,4.61-9.68,10.3-9.68,10.3,4.33,10.3,9.68Z"/>
    <path class="cls-1" d="m135.08,101.93c0,5.35-4.61,9.68-10.3,9.68s-10.3-4.33-10.3-9.68,4.61-9.68,10.3-9.68,10.3,4.33,10.3,9.68Z"/>
    <path class="cls-3" d="m65.75,98.68c0,.6-.43,1.08-.96,1.08s-.95-.48-.95-1.08.42-1.08.95-1.08.96.48.96,1.08Z"/>
    <path class="cls-3" d="m72.37,104.92c0,.6-.43,1.08-.96,1.08s-.96-.48-.96-1.08.43-1.08.96-1.08.96.48.96,1.08Z"/>
    <path class="cls-3" d="m64.31,109.13c0,.6-.43,1.08-.96,1.08s-.96-.48-.96-1.08.43-1.08.96-1.08.96.48.96,1.08Z"/>
    <path class="cls-3" d="m77.09,97.11c0,.6-.43,1.08-.95,1.08s-.96-.48-.96-1.08.43-1.08.96-1.08.95.48.95,1.08Z"/>
    <path class="cls-3" d="m82.75,107.08c0,.6-.43,1.08-.96,1.08s-.96-.48-.96-1.08.43-1.08.96-1.08.96.48.96,1.08Z"/>
    <path class="cls-3" d="m114.88,98.68c0,.6-.42,1.08-.95,1.08s-.96-.48-.96-1.08.43-1.08.96-1.08.95.48.95,1.08Z"/>
    <path class="cls-3" d="m118.77,109.13c0,.6-.43,1.08-.95,1.08s-.96-.48-.96-1.08.43-1.08.96-1.08.95.48.95,1.08Z"/>
    <path class="cls-3" d="m126.83,99.27c0,.6-.43,1.08-.96,1.08s-.95-.48-.95-1.08.43-1.08.95-1.08.96.48.96,1.08Z"/>
    <path class="cls-3" d="m132.62,107.08c0,.6-.43,1.08-.95,1.08s-.96-.48-.96-1.08.43-1.08.96-1.08.95.48.95,1.08Z"/>
    <path class="cls-3" d="m124.73,106c0,.59-.43,1.08-.95,1.08s-.96-.49-.96-1.08.43-1.08.96-1.08.95.49.95,1.08Z"/>
  </g>
  <path class="cls-12" d="m90.06,80.97c-.33-10.11-8.63-18.24-18.82-18.24s-18.86,8.46-18.86,18.86,8.46,18.86,18.86,18.86c9.78,0,17.84-7.49,18.76-17.02.98-.96,5.48-4.51,14.49.6,1.2,9.25,9.11,16.43,18.68,16.43,10.4,0,18.86-8.46,18.86-18.86s-8.46-18.86-18.86-18.86-18.86,8.46-18.86,18.86m-33.08,16.95c-9.35,0-16.95-7.6-16.95-16.95s7.6-16.95,16.95-16.95,16.95,7.6,16.95,16.95-7.6,16.95-16.95,16.95Zm51.93,0c-9.34,0-16.95-7.6-16.95-16.95s7.61-16.95,16.95-16.95,16.95,7.6,16.95,16.95-7.6,16.95-16.95,16.95Z"/>
  <path class="cls-9" d="m32.14,31.44c-4.7,4.62-8.63,11.2-9.21,20.42-.03.38-.04.73-.07,1.1,8.63,7.39,19.69,12.28,31.23,14.22,1.82-2.11,3.66-4.4,5.31-6.77-10.73-7.77-19.66-17.85-27.27-28.98Z"/>
  <path class="cls-13" d="m102.38,49.66s.13.27.31.72c1.49,3.37,8.31,17.49,17.73,18.12-3.28-22.39-11.65-43.97-26.79-60.53-19.45,1.32-34.11,8.19-34.11,8.19,0,0,4.31-17.41-1.37-16.09-5.68,1.32-3.92,17.63-3.92,17.63,0,0-4.44-13.44-7.39-10.8-2.96,2.65,3.21,14.55,3.21,14.55,0,0-10.03,2.25-17.9,9.99,7.61,11.12,16.54,21.21,27.27,28.98,3.18-4.52,5.71-9.32,6.27-13.63,0,0,10.93,11.05,21.63,15.79.39-.53.63-1.2.63-2.13,0,.92-.25,1.59-.63,2.13,3.25,1.44,6.48,2.31,9.37,2.09,10.72-.79,7.18-11.41,6.01-14.29-.2-.46-.31-.72-.31-.72Z"/>
  <path class="cls-9" d="m121.62,11.34c-4.48-1.69-9.44-2.9-14.95-3.33-4.51-.35-8.88-.32-13.04-.04,15.15,16.56,23.51,38.14,26.79,60.53.41.03.82.07,1.24.04,3.55-.22,5.83-1.55,7.29-3.27,1.82-18.51-.24-37.18-7.33-53.94Z"/>
  <path class="cls-13" d="m150.67,37.31c-3.22-7.09-12.77-19.84-29.05-25.98,7.09,16.76,9.15,35.43,7.33,53.94,3.2-3.78,2.4-9.45,2.4-9.45,0,0,6.75,22.66,20.16,21.68,13.41-.98,3.27-31.16-.84-40.2Z"/>
  <path class="cls-13" d="m23.84,79.25s8.83-7.41,19.22-.86c0,0,5.47-4.76,11.04-11.21-11.54-1.95-22.6-6.83-31.23-14.22-1.4,23.65.97,26.29.97,26.29Z"/>
  <path class="cls-9" d="m102.69,50.38c-.18-.46-.31-.72-.31-.72,0,0,.11.27.31.72Z"/>
  <g>
    <path class="cls-8" d="m75.84,142.04c-3.72-.47-9.44,1.2-15.23,4.85,0,0,4.22,16.72,3.47,27.01-.74,10.29-5.6,33.82-5.6,33.82,0,0-1.62,13.64-.87,20.83,11.93-14.55,20.58-24.84,22.39-51.38.86-12.65-2.45-28.21-4.16-35.14Z"/>
    <path class="cls-12" d="m79.8,144.72c-.51-1.55-1.95-2.42-3.96-2.68,1.71,6.93,5.02,22.49,4.16,35.14-1.81,26.53-10.46,36.83-22.39,51.38.18,1.77.5,3.16,1.03,3.85,0,0,18.71-16.34,23.4-41.02,4.69-24.68-.79-42.28-2.24-46.67Z"/>
  </g>
  <g>
    <path class="cls-1" d="m47.16,211.71c6.03-3.63,14.22-14.1,14.22-14.1l-1.28-7.04s-8.8-1.08-16.19-4.26c0,0-3.13,8.1-6.4,18.19,12.36,6.71,9.65,7.2,9.65,7.2Z"/>
    <path class="cls-10" d="m33.19,221.9c.17-3.62,2.1-10.49,4.32-17.39,9.72,5.28,10.12,6.7,9.85,7.07,6.2-3.96,24.01-25.98,24.01-25.98,0,0-.76-1.86-.56-5.21.18-3.24,2.52-.77,4.09.48,1.46-1.87,6.26-7.78,8.79-6.31,2.22,1.29-.68,6.45-.68,6.45,0,0,3.63-4.83,5.28-3.69,1.65,1.13-.72,6.11-.72,6.11,0,0,3.83-5.61,5.37-2.87,1.55,2.75-5.52,14.13-5.52,14.13h0c-1.98,4.66-5.48,8.9-5.48,8.9-12.07,19.05-25.16,31.28-33.51,33.85-8.35,2.57-15.65-6.62-15.23-15.54Z"/>
  </g>
</svg>