<?xml version="1.0" encoding="UTF-8"?>
<svg id="guitar" xmlns="http://www.w3.org/2000/svg" viewBox="0 0 74.46 112.77">
  <defs>
    <style>
      .cls-1 {
        fill: #e6e7e8;
      }

      .cls-2 {
        fill: #f1f2f2;
      }

      .cls-3 {
        fill: #737374;
      }

      .cls-4 {
        fill: #e02426;
      }

      .cls-5 {
        fill: #d1d3d4;
      }

      .cls-6 {
        fill: #636464;
      }

      .cls-7 {
        fill: #630812;
      }

      .cls-8 {
        fill: none;
        stroke: #231f20;
        stroke-miterlimit: 10;
        stroke-width: .03px;
      }
    </style>
  </defs>
  <path class="cls-4" d="m40.33,100.7c-2.02,9.6-8.54,14.55-17.29,10.83-.65-.27-1.3-.54-1.96-.77-4.8-1.63-9.39-3.84-13.81-6.52-5.52-3.34-7.91-7.65-7.12-12.32.24-1.41.83-2.74,1.56-3.97,2.82-4.7,6.54-9.26,12.65-12.78.74-.43,1.35-1.04,1.74-1.8.71-1.4,1.24-2.93,1.62-4.58l2.58-10.07c1.59-6.18,4.93-8.03,8.91-8.73-2.41,4.11-3.9,8.04-4.03,11.1-.03.74.19,1.47.6,2.09,2.55,3.78,5.8,3.11,8.76-1.4.58,5.6,1.9,6.68,2.84,10.89,1.28,7.6,10.66,5.59,13.98-3.05,2.48,2.61.92,7.23-7.59,14.21-.33.27-.64.58-.9.92-.22.29-.42.61-.59.93-.22.42-.34.9-.4,1.37l-1.54,13.64Z"/>
  <path class="cls-2" d="m36.04,73.99c3.35,10.28,14.59,1.93,15.11-1.28-.15,3.1-3.34,5.84-9.07,10.54-1.08.89-1.67,2.03-1.91,3.41l-1.85,14.03c-.15.85-.44,1.68-.95,2.38-1.43,1.95-3.36,1.55-3.97-1.55-.73-3.72-2.27-6.76-5.27-8.56-7.86-5.54-22.9-1.46-7.42-12.78,1.12-.9,2.17-1.91,3.01-3.07,2.06-2.83,2.99-6.14,2.52-10.04.87,1.29,2.34,1.88,4.3,1.38l5.49,5.54"/>
  <polygon class="cls-6" points="27.81 73.38 34.81 76.62 62.45 20.17 57.44 18 27.81 73.38"/>
  <polygon class="cls-3" points="35.96 74.27 35.72 74.75 28.63 71.86 28.91 71.34 35.96 74.27"/>
  <polygon class="cls-3" points="37.43 71.19 37.19 71.67 30.25 68.83 30.52 68.31 37.43 71.19"/>
  <polygon class="cls-3" points="38.89 68.21 38.66 68.69 31.87 65.92 32.15 65.4 38.89 68.21"/>
  <polygon class="cls-3" points="40.35 65.24 40.12 65.72 33.42 62.98 33.69 62.46 40.35 65.24"/>
  <polygon class="cls-3" points="41.76 62.33 41.53 62.81 34.95 60.11 35.23 59.6 41.76 62.33"/>
  <polygon class="cls-3" points="43.24 59.33 43.01 59.81 36.54 57.16 36.81 56.64 43.24 59.33"/>
  <polygon class="cls-3" points="44.71 56.35 44.48 56.83 38.12 54.22 38.39 53.7 44.71 56.35"/>
  <polygon class="cls-3" points="46.14 53.43 45.91 53.91 39.65 51.34 39.92 50.82 46.14 53.43"/>
  <polygon class="cls-3" points="47.57 50.51 47.34 50.99 41.17 48.45 41.44 47.93 47.57 50.51"/>
  <polygon class="cls-3" points="49.03 47.53 48.8 48.01 42.75 45.52 43.01 45 49.03 47.53"/>
  <polygon class="cls-3" points="51.99 41.54 51.76 42.02 45.93 39.62 46.19 39.1 51.99 41.54"/>
  <polygon class="cls-3" points="53.47 38.48 53.24 38.96 47.56 36.62 47.82 36.09 53.47 38.48"/>
  <polygon class="cls-3" points="54.86 35.58 54.64 36.06 49.05 33.75 49.31 33.23 54.86 35.58"/>
  <polygon class="cls-3" points="56.36 32.62 56.13 33.1 50.64 30.83 50.9 30.31 56.36 32.62"/>
  <polygon class="cls-3" points="57.77 29.63 57.54 30.11 52.22 27.91 52.48 27.39 57.77 29.63"/>
  <polygon class="cls-3" points="59.26 26.63 59.03 27.11 53.8 24.94 54.06 24.42 59.26 26.63"/>
  <polygon class="cls-3" points="60.68 23.75 60.45 24.23 55.3 22.09 55.56 21.57 60.68 23.75"/>
  <polygon class="cls-3" points="62.13 20.8 61.91 21.28 56.87 19.19 57.12 18.67 62.13 20.8"/>
  <polygon class="cls-3" points="50.54 44.5 50.31 44.98 44.35 42.53 44.62 42.01 50.54 44.5"/>
  <path class="cls-7" d="m57.37,13.13l-.15-.29L69.87.04l.15.18c-4.83,5.34-9.6,10.57-12.65,12.91Z"/>
  <polygon class="cls-1" points="58.35 11.44 58.73 12.02 58.93 11.74 58.44 10.98 58.35 11.44"/>
  <polygon class="cls-1" points="60.22 9.52 60.59 10.09 60.82 9.83 60.36 9.14 60.22 9.52"/>
  <polygon class="cls-1" points="62.05 7.56 62.41 8.11 62.64 7.86 62.17 7.15 62.05 7.56"/>
  <polygon class="cls-1" points="64.13 5.43 64.48 5.95 64.7 5.71 64.3 5.08 64.13 5.43"/>
  <polygon class="cls-1" points="66.25 3.23 66.62 3.8 66.85 3.55 66.41 2.89 66.25 3.23"/>
  <polygon class="cls-1" points="68.3 1.15 68.67 1.7 68.9 1.45 68.46 .8 68.3 1.15"/>
  <path class="cls-4" d="m62.45,20.17c.29-.59.49-1.03.7-1.39.25-.43.6-.78,1.02-1.04.84-.52,1.76-.96,2.73-1.32l1.96-4.73c1.55-3.74,3.43-7.34,5.6-10.76h0c-.78-.2-1.52-.27-2.19-.05-.94.23-1.63-.07-2.25-.66l-12.65,12.91,1.33,2.18-1.26,2.68,5,2.17Z"/>
  <ellipse class="cls-5" cx="57.89" cy="10.86" rx=".55" ry=".77" transform="translate(12.93 48.91) rotate(-50.87)"/>
  <ellipse class="cls-5" cx="59.74" cy="8.98" rx=".55" ry=".77" transform="translate(15.08 49.66) rotate(-50.87)"/>
  <ellipse class="cls-5" cx="61.6" cy="7" rx=".55" ry=".77" transform="translate(17.3 50.37) rotate(-50.87)"/>
  <ellipse class="cls-5" cx="63.66" cy="4.91" rx=".55" ry=".77" transform="translate(19.68 51.19) rotate(-50.87)"/>
  <ellipse class="cls-5" cx="65.81" cy="2.73" rx=".55" ry=".77" transform="translate(22.17 52.06) rotate(-50.87)"/>
  <ellipse class="cls-5" cx="67.85" cy=".65" rx=".55" ry=".77" transform="translate(24.53 52.88) rotate(-50.87)"/>
  <ellipse class="cls-1" cx="60.11" cy="12.89" rx=".31" ry=".38" transform="translate(2.86 35.29) rotate(-33.47)"/>
  <ellipse class="cls-1" cx="69.44" cy="3.31" rx=".31" ry=".38" transform="translate(9.69 38.85) rotate(-33.47)"/>
  <ellipse class="cls-1" cx="67.69" cy="5.03" rx=".31" ry=".38" transform="translate(8.45 38.17) rotate(-33.47)"/>
  <ellipse class="cls-1" cx="65.88" cy="6.87" rx=".31" ry=".38" transform="translate(7.13 37.47) rotate(-33.47)"/>
  <ellipse class="cls-1" cx="64.02" cy="8.87" rx=".31" ry=".38" transform="translate(5.72 36.78) rotate(-33.47)"/>
  <ellipse class="cls-1" cx="62.16" cy="10.9" rx=".31" ry=".38" transform="translate(4.3 36.09) rotate(-33.47)"/>
  <ellipse class="cls-5" cx="67.71" cy="5.34" rx=".63" ry=".26" transform="translate(20.84 54.5) rotate(-50.87)"/>
  <ellipse class="cls-5" cx="69.43" cy="3.63" rx=".63" ry=".26" transform="translate(27.13 58.8) rotate(-55.51)"/>
  <ellipse class="cls-5" cx="65.9" cy="7.23" rx=".63" ry=".26" transform="translate(22.63 57.45) rotate(-55.51)"/>
  <ellipse class="cls-5" cx="64.02" cy="9.19" rx=".63" ry=".26" transform="translate(20.19 56.76) rotate(-55.51)"/>
  <ellipse class="cls-5" cx="62.13" cy="11.21" rx=".63" ry=".26" transform="translate(17.71 56.07) rotate(-55.51)"/>
  <ellipse class="cls-5" cx="60.11" cy="13.24" rx=".63" ry=".26" transform="translate(15.16 55.29) rotate(-55.51)"/>
  <rect class="cls-3" x="29.01" y="72.96" width="2.19" height="8.17" rx="1.1" ry="1.1" transform="translate(-52.48 72.45) rotate(-65.47)"/>
  <rect class="cls-3" x="19.54" y="87.08" width="5.41" height="11.14" rx=".65" ry=".65" transform="translate(-71.28 74.42) rotate(-65.47)"/>
  <rect class="cls-6" x="21.07" y="88.06" width="2.15" height="9.2" rx=".43" ry=".43" transform="translate(-71.35 74.34) rotate(-65.47)"/>
  <rect class="cls-5" x="27.03" y="75.44" width=".73" height=".73" rx=".37" ry=".37" transform="translate(-37.27 27.68) rotate(-33.47)"/>
  <rect class="cls-5" x="28.06" y="75.96" width=".73" height=".73" rx=".37" ry=".37" transform="translate(-37.38 28.33) rotate(-33.47)"/>
  <rect class="cls-5" x="29.17" y="76.42" width=".73" height=".73" rx=".37" ry=".37" transform="translate(-37.45 29.02) rotate(-33.47)"/>
  <rect class="cls-5" x="30.28" y="76.93" width=".73" height=".73" rx=".37" ry=".37" transform="translate(-37.55 29.72) rotate(-33.47)"/>
  <rect class="cls-5" x="31.39" y="77.43" width=".73" height=".73" rx=".37" ry=".37" transform="translate(-37.64 30.42) rotate(-33.47)"/>
  <rect class="cls-5" x="32.36" y="77.87" width=".73" height=".73" rx=".37" ry=".37" transform="translate(-37.72 31.03) rotate(-33.47)"/>
  <rect class="cls-3" x="23.56" y="83.49" width="2.19" height="8.17" rx="1.1" ry="1.1" transform="translate(-65.26 73.65) rotate(-65.47)"/>
  <rect class="cls-5" x="21.58" y="85.98" width=".73" height=".73" rx=".37" ry=".37" transform="translate(-43.98 26.42) rotate(-33.47)"/>
  <rect class="cls-5" x="22.61" y="86.5" width=".73" height=".73" rx=".37" ry=".37" transform="translate(-44.1 27.08) rotate(-33.47)"/>
  <rect class="cls-5" x="23.72" y="86.96" width=".73" height=".73" rx=".37" ry=".37" transform="translate(-44.17 27.77) rotate(-33.47)"/>
  <rect class="cls-5" x="24.83" y="87.46" width=".73" height=".73" rx=".37" ry=".37" transform="translate(-44.26 28.46) rotate(-33.47)"/>
  <rect class="cls-5" x="25.94" y="87.97" width=".73" height=".73" rx=".37" ry=".37" transform="translate(-44.36 29.16) rotate(-33.47)"/>
  <rect class="cls-5" x="26.91" y="88.41" width=".73" height=".73" rx=".37" ry=".37" transform="translate(-44.44 29.77) rotate(-33.47)"/>
  <rect class="cls-3" x="26.23" y="78.3" width="2.19" height="8.17" rx="1.1" ry="1.1" transform="translate(-58.97 73.05) rotate(-65.47)"/>
  <rect class="cls-5" x="24.26" y="80.79" width=".73" height=".73" rx=".37" ry=".37" transform="translate(-40.68 27.04) rotate(-33.47)"/>
  <rect class="cls-5" x="25.28" y="81.31" width=".73" height=".73" rx=".37" ry=".37" transform="translate(-40.79 27.69) rotate(-33.47)"/>
  <rect class="cls-5" x="26.39" y="81.77" width=".73" height=".73" rx=".37" ry=".37" transform="translate(-40.86 28.38) rotate(-33.47)"/>
  <rect class="cls-5" x="27.5" y="82.27" width=".73" height=".73" rx=".37" ry=".37" transform="translate(-40.95 29.08) rotate(-33.47)"/>
  <rect class="cls-5" x="28.61" y="82.78" width=".73" height=".73" rx=".37" ry=".37" transform="translate(-41.05 29.77) rotate(-33.47)"/>
  <rect class="cls-5" x="29.58" y="83.22" width=".73" height=".73" rx=".37" ry=".37" transform="translate(-41.13 30.38) rotate(-33.47)"/>
  <line class="cls-8" x1="19.08" y1="91.41" x2="60.03" y2="13.7"/>
  <line class="cls-8" x1="20.34" y1="91.5" x2="62.03" y2="11.66"/>
  <line class="cls-8" x1="21.81" y1="91.78" x2="63.94" y2="9.64"/>
  <line class="cls-8" x1="22.98" y1="92.45" x2="65.82" y2="7.68"/>
  <line class="cls-8" x1="24.05" y1="93.46" x2="67.73" y2="5.65"/>
  <line class="cls-8" x1="25.11" y1="93.69" x2="69.65" y2="3.63"/>
  <rect class="cls-5" x="18.4" y="90.86" width="1.47" height=".73" rx=".3" ry=".3" transform="translate(-71.03 67.61) rotate(-63.47)"/>
  <rect class="cls-5" x="19.56" y="91.33" width="1.47" height=".73" rx=".3" ry=".3" transform="translate(-70.81 68.91) rotate(-63.47)"/>
  <rect class="cls-5" x="20.76" y="91.94" width="1.47" height=".73" rx=".3" ry=".3" transform="translate(-70.69 70.31) rotate(-63.47)"/>
  <rect class="cls-5" x="22.02" y="92.53" width="1.47" height=".73" rx=".3" ry=".3" transform="translate(-70.53 71.76) rotate(-63.47)"/>
  <rect class="cls-5" x="23.25" y="93.14" width="1.47" height=".73" rx=".3" ry=".3" transform="translate(-70.39 73.2) rotate(-63.47)"/>
  <rect class="cls-5" x="24.37" y="93.65" width="1.47" height=".73" rx=".3" ry=".3" transform="translate(-70.22 74.49) rotate(-63.47)"/>
</svg>