<?xml version="1.0" encoding="UTF-8"?>
<svg xmlns="http://www.w3.org/2000/svg" xmlns:xlink="http://www.w3.org/1999/xlink" viewBox="0 0 59.29 166.79">
  <defs>
    <style>
      .cls-1 {
        fill: url(#linear-gradient-3);
      }

      .cls-1, .cls-2, .cls-3, .cls-4, .cls-5, .cls-6, .cls-7, .cls-8 {
        mix-blend-mode: multiply;
      }

      .cls-9, .cls-10 {
        fill: #fff;
      }

      .cls-11 {
        fill: #585a5c;
      }

      .cls-2 {
        fill: url(#linear-gradient-4);
      }

      .cls-12 {
        fill: #151213;
      }

      .cls-13 {
        fill: url(#linear-gradient-15);
      }

      .cls-3, .cls-5, .cls-14 {
        fill: none;
      }

      .cls-15 {
        fill: url(#linear-gradient-14);
      }

      .cls-16, .cls-17 {
        fill: #384fa1;
      }

      .cls-10 {
        opacity: .56;
      }

      .cls-18 {
        fill: #925f4d;
      }

      .cls-19 {
        fill: #9b9ea0;
      }

      .cls-20 {
        fill: url(#linear-gradient-11);
      }

      .cls-4 {
        fill: url(#linear-gradient-6);
      }

      .cls-21 {
        fill: url(#linear-gradient-10);
      }

      .cls-5 {
        opacity: .5;
      }

      .cls-22 {
        fill: #989998;
      }

      .cls-6 {
        fill: url(#linear-gradient-5);
      }

      .cls-23 {
        fill: url(#linear-gradient-16);
      }

      .cls-14 {
        isolation: isolate;
      }

      .cls-24 {
        fill: #b0b1b1;
      }

      .cls-17 {
        mix-blend-mode: screen;
      }

      .cls-25 {
        fill: #fee4d1;
      }

      .cls-7 {
        fill: url(#linear-gradient-2);
      }

      .cls-26 {
        fill: url(#linear-gradient-7);
      }

      .cls-27 {
        fill: url(#linear-gradient-9);
      }

      .cls-28 {
        fill: url(#linear-gradient);
      }

      .cls-29 {
        fill: #1e2051;
      }

      .cls-30 {
        fill: #563528;
      }

      .cls-8 {
        fill: #48abdf;
      }

      .cls-31 {
        fill: url(#linear-gradient-8);
      }

      .cls-32 {
        fill: url(#linear-gradient-12);
      }

      .cls-33 {
        fill: url(#linear-gradient-13);
      }

      .cls-34 {
        fill: #aaacaf;
      }
    </style>
    <linearGradient id="linear-gradient" x1="-2056.13" y1="264.13" x2="-2056.13" y2="265.33" gradientTransform="translate(2096.31 218.89) rotate(8.81)" gradientUnits="userSpaceOnUse">
      <stop offset="0" stop-color="#e01d3c"/>
      <stop offset=".08" stop-color="#ba182e"/>
      <stop offset=".17" stop-color="#991321"/>
      <stop offset=".26" stop-color="#7e1018"/>
      <stop offset=".35" stop-color="#6b0d11"/>
      <stop offset=".45" stop-color="#600c0d"/>
      <stop offset=".55" stop-color="#5d0c0c"/>
      <stop offset=".67" stop-color="#4d0f10"/>
      <stop offset=".83" stop-color="#421113"/>
      <stop offset="1" stop-color="#3f1214"/>
    </linearGradient>
    <linearGradient id="linear-gradient-2" x1="-2057.27" y1="264.41" x2="-2057.27" y2="265.1" xlink:href="#linear-gradient"/>
    <linearGradient id="linear-gradient-3" x1="-2056.79" y1="264.54" x2="-2056.79" y2="265.22" xlink:href="#linear-gradient"/>
    <linearGradient id="linear-gradient-4" x1="-2056.21" y1="264.58" x2="-2056.21" y2="265.27" xlink:href="#linear-gradient"/>
    <linearGradient id="linear-gradient-5" x1="-2055.62" y1="264.55" x2="-2055.62" y2="265.24" xlink:href="#linear-gradient"/>
    <linearGradient id="linear-gradient-6" x1="-2055.12" y1="264.45" x2="-2055.12" y2="265.15" xlink:href="#linear-gradient"/>
    <linearGradient id="linear-gradient-7" x1="-2056.13" y1="263.64" x2="-2056.13" y2="264.69" xlink:href="#linear-gradient"/>
    <linearGradient id="linear-gradient-8" x1="-2057.01" y1="121.09" x2="-2057.01" y2="213.74" gradientTransform="translate(2096.31 218.89) rotate(8.81)" gradientUnits="userSpaceOnUse">
      <stop offset=".21" stop-color="#412f2c"/>
      <stop offset=".26" stop-color="#4b3832"/>
      <stop offset=".39" stop-color="#684f45"/>
      <stop offset=".51" stop-color="#795d50"/>
      <stop offset=".6" stop-color="#806354"/>
      <stop offset=".7" stop-color="#6c5247"/>
      <stop offset=".89" stop-color="#4c3833"/>
      <stop offset="1" stop-color="#412f2c"/>
    </linearGradient>
    <linearGradient id="linear-gradient-9" x1="-2054.87" y1="102.53" x2="-2053.43" y2="104.88" xlink:href="#linear-gradient"/>
    <linearGradient id="linear-gradient-10" x1="-2055.94" y1="105.12" x2="-2054.5" y2="107.47" xlink:href="#linear-gradient"/>
    <linearGradient id="linear-gradient-11" x1="-2057.17" y1="107.67" x2="-2055.73" y2="110.02" xlink:href="#linear-gradient"/>
    <linearGradient id="linear-gradient-12" x1="-2058.27" y1="110.26" x2="-2056.83" y2="112.61" xlink:href="#linear-gradient"/>
    <linearGradient id="linear-gradient-13" x1="-2059.27" y1="113.53" x2="-2057.83" y2="115.88" xlink:href="#linear-gradient"/>
    <linearGradient id="linear-gradient-14" x1="-2060.76" y1="116.47" x2="-2059.32" y2="118.82" xlink:href="#linear-gradient"/>
    <linearGradient id="linear-gradient-15" x1="-2057.72" y1="121.08" x2="-2057.72" y2="213.74" xlink:href="#linear-gradient-8"/>
    <linearGradient id="linear-gradient-16" x1="-2057.72" y1="121.09" x2="-2057.72" y2="213.74" xlink:href="#linear-gradient-8"/>
  </defs>
  <g class="cls-14">
    <g id="Layer_1" data-name="Layer 1">
      <g>
        <g>
          <g>
            <path class="cls-28" d="m22.54,164.9l-.1.64c-.04.28.58.61,1.38.74.81.12,1.5,0,1.54-.28l.1-.67-2.92-.43Z"/>
            <path class="cls-7" d="m22.73,165.89s-.06-.03-.05-.07l.08-.57s.04-.05.07-.05c.04,0,.06.04.06.07l-.09.56s-.04.05-.07.05Z"/>
            <path class="cls-1" d="m23.19,166.09s-.06-.04-.06-.07l.09-.57s.04-.06.07-.05c.04,0,.06.03.06.07l-.09.57s-.04.05-.07.05Z"/>
            <path class="cls-2" d="m23.76,166.22s-.06-.04-.06-.07l.09-.57s.04-.05.07-.05c.04.01.06.04.05.07l-.08.57s-.04.05-.07.05Z"/>
            <path class="cls-6" d="m24.34,166.28s-.06-.04-.05-.07l.09-.57s.04-.05.07-.05c.04,0,.06.04.06.07l-.09.57s-.04.05-.07.05Z"/>
            <path class="cls-4" d="m24.85,166.27s-.06-.03-.06-.06l.09-.58s.04-.05.07-.05c.04,0,.06.04.05.07l-.09.57s-.03.05-.07.05Z"/>
            <path class="cls-26" d="m25.46,165.35c-.05.28-.73.41-1.54.29-.8-.13-1.42-.46-1.38-.74.04-.28.73-.41,1.54-.28.81.12,1.42.45,1.38.73Z"/>
          </g>
          <g>
            <path class="cls-16" d="m28.65,103.75s-2,3.56-6.43,1.66c-10.91-4.68-2.39-17.18-7.03-16.21-7,1.45-6.46,16.75-5.2,20.81,2.27,7.33,1.47,14.26-4.7,24.21-6.17,9.95-9.5,20.05,5.63,28.33,13.89,6.69,34.27,5.24,39.21-4.06,2.95-5.57,2.83-11.67-1.51-21.7-3.63-9.08.66-13.58,2.87-20.18,2.2-6.6,1.57-13.11-3.52-9.84-5.09,3.27-9.84,6.07-12.75,2.48-2.92-3.59-6.57-5.5-6.57-5.5Z"/>
            <path class="cls-29" d="m48.45,160.93c-2.97,3.06-8.09,5.09-14.56,5.69-7.75.72-16.35-.77-23.01-3.97-5.92-3.24-9.34-6.9-10.47-11.18-1.55-5.9,1.55-12.05,4.8-17.28,5.76-9.3,7.12-16.29,4.69-24.14-.94-3.03-1.57-12.79,1.46-17.93.98-1.66,2.26-2.67,3.81-2.99.55-.11.94-.05,1.21.19.59.53.45,1.89.27,3.6-.4,3.82-1.02,9.58,5.61,12.43,4.29,1.84,6.23-1.48,6.31-1.62l.04-.08.08.04s3.71,1.96,6.6,5.52c2.78,3.43,7.18,1.02,12.64-2.49,1.54-.99,2.76-1.15,3.63-.48,1.64,1.28,1.65,5.56.03,10.43-.51,1.54-1.14,2.97-1.75,4.36-2,4.54-3.88,8.83-1.11,15.76,4.16,9.63,4.6,15.94,1.5,21.77-.45.85-1.04,1.65-1.76,2.39ZM12.59,90.77c-.39.4-.74.88-1.07,1.42-3.01,5.1-2.38,14.78-1.45,17.79,2.45,7.9,1.08,14.94-4.71,24.29-3.22,5.2-6.31,11.3-4.78,17.14,1.11,4.24,4.51,7.86,10.38,11.07,6.63,3.19,15.19,4.67,22.91,3.96,7.98-.74,13.88-3.65,16.18-7.98,3.07-5.78,2.63-12.04-1.51-21.62-2.8-7-.9-11.32,1.11-15.9.61-1.38,1.24-2.81,1.75-4.35,1.57-4.72,1.59-9.02.03-10.23-.79-.62-1.94-.45-3.42.49-4.58,2.95-9.77,6.28-12.87,2.46-2.64-3.25-5.93-5.14-6.47-5.44-.75,1.26-3.01,3.12-6.5,1.62-6.75-2.9-6.13-8.74-5.72-12.61.18-1.66.32-2.98-.21-3.45-.22-.2-.57-.25-1.05-.15-.99.2-1.86.7-2.62,1.48Z"/>
          </g>
          <path class="cls-8" d="m48.63,136.8c-3.63-9.08.66-13.58,2.87-20.18,1.55-4.65,1.7-9.26-.13-10.43.02.07.04.13.05.2.04.29-.08.58-.27.79-.2.22-.52.29-.8.33-.31.04-.62.04-.93.11-.39.08-.78.22-1.14.39-.74.33-1.42.79-2.1,1.24-1.41.94-2.9,1.78-4.48,2.4-.82.32-1.68.58-2.55.7-.42.06-.85.09-1.27.07-.32-.01-.65-.06-.94-.2-.81-.38-.87-1.26-.77-2.08-.32-.24-.63-.53-.92-.89-2.92-3.59-6.57-5.5-6.57-5.5,0,0-.82,1.45-2.56,2-.03.16-.08.32-.15.47-.19.42-.41.9-.91,1-.21.04-.42.03-.63.02-.36-.02-.71,0-1.07.01-1.47.1-3.1.45-4.12,1.59-1.19,1.33-1.04,3.31-.77,4.95.32,1.88.95,3.69,1.3,5.56.36,1.96.32,4.03.12,6-.2,2.01-.63,4.07-1.51,5.9-1.51,3.17-4.48,6.18-3.85,9.98.55,3.35,3.81,5.51,6.96,6.04,3.62.61,7.23-.65,10.86-.35,1.64.14,3.3.5,4.82,1.13.71.3,1.41.66,2.02,1.14.64.5,1.14,1.15,1.56,1.84.76,1.25,1.17,2.7,1.03,4.17-.13,1.41-.73,2.73-1.6,3.84-1.64,2.09-4.07,3.26-6.6,3.9-2.11.53-4.3.71-6.47.66-2.33-.05-4.66-.38-6.92-.94-2.26-.56-4.46-1.35-6.54-2.4-1.98-1-3.85-2.23-5.47-3.74-1.48-1.39-2.74-3.02-3.57-4.88-.83-1.85-1.17-3.89-1-5.91.24-2.87,1.51-5.49,2.77-8.03,1.67-3.36,3.57-6.63,4.89-10.16.67-1.81,1.17-3.68,1.42-5.59.25-1.92.21-3.86.03-5.79-.35-3.75-1.22-7.42-1.61-11.16-.38-3.67-.22-7.39,1.21-10.84,0,0,0,0,0,0,.06-.21.12-.42.19-.63.21-.63.48-1.31.97-1.77.18-.17.41-.3.66-.35.26-.05.53,0,.77.11.14.06.28.14.38.26.11.14.19.31.24.48.15.48.18.99.2,1.49.05,1.14-.05,2.29.05,3.43.04.51.2,1.01.38,1.49.23.6.54,1.18.9,1.71-2.09-5.38,1.58-11.89-1.83-11.19-7,1.45-6.46,16.75-5.2,20.81,2.27,7.33,1.47,14.26-4.7,24.21-6.17,9.95-9.5,20.05,5.63,28.33,13.89,6.69,34.27,5.24,39.21-4.06,2.95-5.57,2.83-11.67-1.51-21.7Z"/>
          <path class="cls-8" d="m51.61,145.69c.05.67.06,1.36.02,2.04-.07,1.24-.17,2.5-.35,3.73-.15,1.02-.4,2.03-.78,3-1.44,3.65-4.66,6.36-8.13,8.03-3.47,1.66-7.33,2.43-11.15,2.68-3.77.24-7.59,0-11.3-.73-3.32-.65-6.5-1.85-9.4-3.59-2.92-1.75-5.64-4.07-7.38-7.03-.82-1.4-1.4-2.93-1.62-4.54-.27-1.92.03-3.82.57-5.68,1.35-4.61,4.08-8.63,6.24-12.87,1.12-2.19,2.12-4.47,2.65-6.89.29-1.3.47-2.61.53-3.94.06-1.34-.04-2.68-.19-4.01-.27-2.34-.84-4.62-1.29-6.92-.2-1.01-.39-2.09-.71-3.12.13,1.77.38,3.25.66,4.16,2.27,7.33,1.47,14.26-4.7,24.21-6.17,9.95-9.5,20.05,5.63,28.33,13.89,6.69,34.27,5.24,39.21-4.06,1.96-3.7,2.56-7.63,1.48-12.8Z"/>
          <g>
            <g>
              <g>
                <g>
                  <polygon class="cls-34" points="46.92 4.5 52.45 8.41 52.96 7.68 47.43 3.77 46.92 4.5"/>
                  <path class="cls-11" d="m52.47,8.53l-5.68-4.01.62-.88,5.68,4.01-.61.88Zm-5.43-4.05l5.39,3.8.41-.58-5.38-3.8-.41.58Z"/>
                </g>
                <g class="cls-5">
                  <g>
                    <path class="cls-34" d="m47.4,4.56c.33-.23.31-.32.33-.56l-.28-.2-.53.7,5.53,3.91.12-.17-5.16-3.68Z"/>
                    <path class="cls-11" d="m52.48,8.53l-5.69-4.01.64-.84.4.27v.11c-.02.2-.04.32-.27.5l5.13,3.66-.22.32Zm-5.43-4.05l5.38,3.8v-.02s-5.18-3.7-5.18-3.7l.11-.07c.27-.19.28-.25.29-.44h0s-.17-.12-.17-.12l-.42.56Z"/>
                  </g>
                </g>
              </g>
              <g>
                <path class="cls-34" d="m47.21,2.7c.43.34.44,1.03.03,1.54-.4.51-1.08.64-1.51.29-.43-.34-.45-1.03-.03-1.54.4-.51,1.08-.64,1.51-.29Z"/>
                <path class="cls-11" d="m47.22,4.4c-.22.23-.51.37-.8.41-.28.03-.54-.04-.74-.21-.2-.16-.33-.4-.36-.68-.04-.34.08-.7.31-.98.23-.29.56-.47.9-.51.28-.03.54.04.74.21h0c.2.16.33.4.36.68.04.34-.08.7-.31.98-.03.04-.06.07-.09.11Zm-1.37-1.45s-.06.06-.08.09c-.2.25-.3.56-.27.85.02.23.13.43.29.56.16.13.38.19.61.17.29-.03.57-.19.77-.45.2-.25.3-.56.27-.85-.02-.23-.13-.43-.29-.56h0c-.16-.13-.38-.19-.61-.17-.25.03-.5.15-.69.35Z"/>
              </g>
              <g class="cls-5">
                <path class="cls-34" d="m47.21,2.7c-.43-.35-1.11-.21-1.51.29-.41.51-.39,1.19.03,1.54.43.35,1.1.21,1.51-.29.41-.5.4-1.19-.03-1.54Zm-.07,1.27c-.33.42-.9.52-1.24.24-.35-.28-.37-.85-.03-1.27.34-.42.9-.52,1.25-.24.35.29.37.85.03,1.27Z"/>
                <path class="cls-11" d="m47.22,4.4c-.22.23-.51.37-.8.41-.28.03-.54-.04-.74-.21-.2-.16-.33-.4-.36-.68-.04-.34.08-.7.31-.98.23-.29.56-.47.9-.51.28-.03.54.04.74.21h0c.2.16.33.4.36.68.04.34-.08.7-.31.98-.03.04-.06.07-.09.11Zm-1.68-.91c-.04.13-.05.27-.04.41.02.23.13.43.29.56.16.13.38.19.61.17.29-.03.57-.19.77-.45.15-.19.25-.41.27-.63-.04.16-.12.32-.24.47-.2.24-.47.4-.76.43-.23.02-.45-.04-.62-.17-.19-.15-.3-.38-.31-.65,0-.04,0-.09,0-.13Zm.46-.57s-.04.05-.06.07c-.15.18-.23.41-.22.63,0,.21.09.4.24.52.13.11.3.15.48.14.24-.02.47-.16.63-.36h0c.31-.38.3-.89-.01-1.15-.29-.23-.75-.16-1.06.16Z"/>
              </g>
              <path class="cls-9" d="m47.08,2.84c.01.12-1.04.22-1.05.09-.01-.12.21-.24.51-.27.29-.03.54.05.55.18Z"/>
            </g>
            <g>
              <g>
                <g>
                  <rect class="cls-34" x="47.63" y="5.19" width=".89" height="6.77" transform="translate(13.34 42.9) rotate(-54.78)"/>
                  <path class="cls-11" d="m50.6,11.01l-5.68-4.01.62-.87,5.68,4.01-.62.87Zm-5.43-4.05l5.39,3.8.41-.58-5.38-3.8-.41.58Z"/>
                </g>
                <g class="cls-5">
                  <g>
                    <path class="cls-34" d="m45.54,7.04c.33-.23.31-.33.33-.56l-.28-.2-.53.7,5.53,3.91.12-.17-5.16-3.68Z"/>
                    <path class="cls-11" d="m50.6,11.01l-5.68-4.01.64-.84.39.27v.1c-.02.2-.03.32-.27.5l5.14,3.66-.22.31Zm-5.43-4.05l5.38,3.8v-.02s-5.18-3.7-5.18-3.7l.1-.07c.27-.19.27-.26.28-.44h0s-.17-.12-.17-.12l-.42.55Z"/>
                  </g>
                </g>
              </g>
              <g>
                <path class="cls-34" d="m45.34,5.18c.43.34.44,1.03.03,1.54-.4.51-1.08.64-1.51.29-.42-.34-.44-1.03-.03-1.54.41-.51,1.08-.64,1.51-.29Z"/>
                <path class="cls-11" d="m45.35,6.88c-.44.45-1.11.55-1.55.2-.46-.38-.48-1.12-.04-1.67.23-.29.56-.48.9-.51.27-.03.54.04.74.21.2.16.33.4.36.68.04.34-.08.7-.31.99-.03.04-.06.07-.09.11Zm-1.37-1.44s-.05.06-.08.09c-.38.47-.37,1.1.02,1.41.39.31,1.02.19,1.39-.28.2-.25.3-.56.27-.85-.02-.23-.13-.43-.29-.56h0c-.16-.13-.38-.19-.6-.17-.25.03-.5.15-.7.36Z"/>
              </g>
              <g class="cls-5">
                <path class="cls-34" d="m45.34,5.18c-.43-.35-1.1-.22-1.51.29-.41.51-.39,1.2.03,1.54.43.34,1.11.21,1.51-.29.41-.5.39-1.19-.03-1.54Zm-.07,1.26c-.33.42-.89.52-1.24.24-.35-.28-.36-.85-.03-1.27.34-.41.89-.52,1.25-.24.35.28.36.85.03,1.27Z"/>
                <path class="cls-11" d="m45.35,6.88c-.44.45-1.11.55-1.55.2-.46-.38-.48-1.12-.04-1.67.23-.29.56-.48.9-.51.27-.03.54.04.74.21.2.16.33.4.36.68.04.34-.08.7-.31.99-.03.04-.06.07-.09.11Zm-1.68-.92c-.11.37-.03.76.25.98.39.31,1.02.19,1.39-.28.15-.19.25-.41.27-.63-.04.17-.12.33-.24.47-.17.22-.41.37-.67.42-.26.05-.51,0-.7-.16-.23-.19-.33-.49-.3-.79Zm.46-.56s-.04.05-.06.07c-.3.38-.3.89.01,1.14.15.12.35.16.56.12.21-.04.41-.17.56-.35h0c.17-.21.25-.46.22-.69-.02-.18-.1-.34-.23-.45-.29-.23-.75-.16-1.06.16Z"/>
              </g>
              <path class="cls-9" d="m45.22,5.32c0,.13-1.04.22-1.06.1,0-.13.22-.25.51-.28.29-.02.54.05.55.18Z"/>
            </g>
            <g>
              <g>
                <g>
                  <rect class="cls-34" x="46.05" y="7.66" width=".89" height="6.77" transform="translate(12.06 44.17) rotate(-57.25)"/>
                  <path class="cls-11" d="m49.13,13.37l-5.85-3.76.58-.9,5.84,3.76-.58.9Zm-5.6-3.82l5.55,3.57.38-.6-5.54-3.57-.39.6Z"/>
                </g>
                <g class="cls-5">
                  <g>
                    <path class="cls-34" d="m43.89,9.62c.33-.25.3-.34.31-.57l-.29-.19-.5.72,5.7,3.66.11-.18-5.32-3.45Z"/>
                    <path class="cls-11" d="m49.13,13.37l-5.85-3.76.61-.87.41.26v.11c0,.19-.02.31-.24.5l5.29,3.43-.21.33Zm-5.6-3.81l5.54,3.56v-.02s-5.34-3.47-5.34-3.47l.1-.08c.26-.2.27-.27.27-.44h0s-.17-.12-.17-.12l-.4.57Z"/>
                  </g>
                </g>
              </g>
              <g>
                <path class="cls-34" d="m43.62,7.77c.44.33.49,1.01.1,1.54-.38.52-1.06.68-1.5.36-.44-.33-.48-1.02-.1-1.54.39-.52,1.06-.68,1.5-.36Z"/>
                <path class="cls-11" d="m43.66,9.51c-.18.19-.41.32-.65.38-.31.07-.61.02-.84-.15-.48-.35-.53-1.1-.12-1.66.22-.3.55-.5.88-.55.27-.04.54.02.74.18h0c.48.36.53,1.1.12,1.66-.04.05-.08.11-.13.15Zm-1.36-1.47s-.08.09-.11.13c-.35.48-.32,1.12.08,1.41.19.14.44.19.7.12.26-.06.5-.23.68-.46.36-.48.32-1.11-.08-1.41h0c-.17-.13-.38-.18-.61-.14-.24.03-.47.16-.65.35Z"/>
              </g>
              <g class="cls-5">
                <path class="cls-34" d="m43.62,7.77c-.44-.33-1.11-.17-1.5.36-.38.52-.34,1.21.1,1.54.44.33,1.11.17,1.5-.36.39-.52.34-1.21-.1-1.54Zm-.02,1.27c-.32.43-.87.56-1.23.29-.36-.27-.4-.84-.08-1.27.32-.43.87-.56,1.23-.29.37.27.41.83.09,1.27Z"/>
                <path class="cls-11" d="m43.66,9.51c-.18.19-.41.32-.65.38-.31.07-.61.02-.84-.15-.48-.35-.53-1.1-.12-1.66.22-.3.55-.5.88-.55.27-.04.54.02.74.18h0c.48.36.53,1.1.12,1.66-.04.05-.08.11-.13.15Zm-1.68-.89c-.09.37.01.75.29.96.19.14.44.19.7.12.26-.06.5-.23.68-.46.15-.2.23-.43.24-.64-.03.17-.11.34-.21.48-.18.25-.45.41-.73.46-.23.04-.45-.02-.63-.15-.24-.18-.35-.47-.33-.78Zm.47-.62s-.06.07-.09.11c-.29.39-.26.9.06,1.14.14.1.31.14.49.11.24-.04.46-.18.61-.39h0c.16-.21.23-.47.19-.71-.03-.18-.12-.34-.26-.43-.14-.1-.31-.14-.49-.12-.19.03-.38.13-.53.28Z"/>
              </g>
              <path class="cls-9" d="m43.5,7.92c.02.12-1.03.27-1.05.14-.01-.12.21-.26.5-.29.29-.04.53.03.55.15Z"/>
            </g>
            <g>
              <g>
                <g>
                  <rect class="cls-34" x="44.6" y="10.24" width=".89" height="6.77" transform="translate(10.72 45.82) rotate(-59.99)"/>
                  <path class="cls-11" d="m47.79,15.83l-6.02-3.48.53-.93,6.02,3.48-.54.93Zm-5.77-3.54l5.71,3.3.36-.62-5.71-3.3-.35.62Z"/>
                </g>
                <g class="cls-5">
                  <g>
                    <path class="cls-34" d="m42.38,12.33c.31-.27.28-.35.27-.59l-.3-.17-.47.75,5.86,3.39.11-.18-5.48-3.19Z"/>
                    <path class="cls-11" d="m47.79,15.83l-6.02-3.48.56-.9.42.24v.11c0,.2,0,.31-.21.51l5.45,3.18-.2.34Zm-5.77-3.54l5.7,3.3v-.03s-5.49-3.21-5.49-3.21l.1-.08c.25-.21.25-.28.24-.46h0s-.18-.11-.18-.11l-.37.59Z"/>
                  </g>
                </g>
              </g>
              <g>
                <path class="cls-34" d="m42.02,10.49c.46.31.53.99.18,1.53-.36.54-1.02.74-1.48.43-.45-.3-.53-.99-.17-1.53.36-.54,1.02-.73,1.48-.43Z"/>
                <path class="cls-11" d="m42.1,12.28c-.19.2-.43.33-.68.38-.27.06-.54,0-.76-.14-.5-.33-.58-1.08-.2-1.65.19-.28.45-.48.75-.57.3-.09.61-.05.85.11h0c.5.33.59,1.07.2,1.65-.05.08-.11.15-.17.21Zm-1.33-1.5c-.06.06-.11.12-.15.19-.33.5-.27,1.13.15,1.4.18.12.4.16.62.11.29-.06.56-.25.73-.52.33-.5.26-1.13-.15-1.4-.2-.13-.45-.16-.7-.09-.19.05-.36.16-.5.31Z"/>
              </g>
              <g class="cls-5">
                <path class="cls-34" d="m42.02,10.49c-.46-.3-1.12-.11-1.48.43-.36.54-.28,1.23.17,1.53.46.3,1.12.11,1.48-.43.36-.54.28-1.22-.18-1.53Zm.04,1.27c-.3.45-.84.6-1.22.35-.38-.25-.44-.81-.14-1.26.3-.45.84-.61,1.22-.36.38.25.44.82.14,1.26Z"/>
                <path class="cls-11" d="m42.1,12.28c-.19.2-.43.33-.68.38-.27.06-.54,0-.76-.14-.5-.33-.58-1.08-.2-1.65.19-.28.45-.48.75-.57.3-.09.61-.05.85.11h0c.5.33.59,1.07.2,1.65-.05.08-.11.15-.17.21Zm-1.68-.83c-.06.37.06.73.34.92.18.12.4.16.62.11.29-.06.56-.25.73-.52.13-.2.2-.43.21-.64-.03.17-.09.33-.19.48-.15.23-.38.4-.63.47-.26.07-.51.04-.72-.1-.18-.12-.31-.31-.35-.54-.01-.06-.02-.13-.02-.19Zm.48-.7s-.09.1-.12.15c-.15.22-.21.47-.16.7.04.18.13.33.28.43.16.11.36.13.57.07.21-.06.4-.2.53-.4h0c.15-.22.2-.48.16-.71-.04-.18-.13-.33-.28-.43-.14-.09-.32-.12-.5-.09-.18.04-.34.13-.47.27Z"/>
              </g>
              <path class="cls-9" d="m41.91,10.65c.02.12-1.02.31-1.04.19-.02-.12.19-.26.48-.32.29-.05.54,0,.56.13Z"/>
            </g>
            <g>
              <g>
                <g>
                  <polygon class="cls-34" points="40.36 15.34 46.22 18.72 46.67 17.95 40.8 14.57 40.36 15.34"/>
                  <path class="cls-11" d="m46.26,18.85l-6.02-3.47.53-.93,6.02,3.47-.54.93Zm-5.78-3.54l5.71,3.29.35-.61-5.71-3.29-.35.61Z"/>
                </g>
                <g class="cls-5">
                  <g>
                    <path class="cls-34" d="m40.85,15.36c.31-.26.28-.35.28-.59l-.3-.17-.47.74,5.87,3.38.1-.18-5.48-3.19Z"/>
                    <path class="cls-11" d="m46.26,18.85l-.08-.05-5.95-3.43.56-.9.42.24v.1c0,.2,0,.32-.21.52l5.45,3.17-.19.33Zm-5.77-3.53l5.71,3.29v-.02s-5.5-3.21-5.5-3.21l.1-.08c.25-.21.25-.28.25-.46h0s-.18-.1-.18-.1l-.37.59Z"/>
                  </g>
                </g>
              </g>
              <g>
                <path class="cls-34" d="m40.48,13.52c.45.3.53.99.18,1.53-.36.54-1.02.73-1.48.43-.46-.3-.53-.99-.17-1.53.35-.54,1.02-.73,1.48-.43Z"/>
                <path class="cls-11" d="m40.56,15.3c-.4.42-1,.53-1.44.25-.5-.33-.59-1.07-.2-1.66.2-.31.51-.52.84-.59.27-.06.54,0,.76.14h0c.21.14.36.37.42.64.07.33-.01.7-.22,1.01-.05.08-.11.14-.17.21Zm-1.34-1.49c-.05.06-.1.12-.15.19-.33.5-.27,1.13.15,1.41.41.27,1.02.09,1.36-.41.18-.27.25-.59.19-.88-.05-.22-.17-.41-.34-.53h0c-.18-.12-.4-.16-.63-.11-.21.04-.42.16-.58.33Z"/>
              </g>
              <g class="cls-5">
                <path class="cls-34" d="m40.48,13.52c-.46-.31-1.12-.11-1.48.43-.36.54-.28,1.23.17,1.53.46.3,1.12.11,1.48-.43.36-.54.28-1.22-.18-1.53Zm.04,1.27c-.3.45-.84.6-1.22.35-.37-.25-.44-.82-.14-1.26.29-.45.84-.6,1.22-.35.37.25.44.81.14,1.26Z"/>
                <path class="cls-11" d="m40.56,15.3c-.4.42-1,.53-1.44.25-.5-.33-.59-1.07-.2-1.66.2-.31.51-.52.84-.59.27-.06.54,0,.76.14h0c.21.14.36.37.42.64.07.33-.01.7-.22,1.01-.05.08-.11.14-.17.21Zm-1.68-.84c-.07.38.05.75.34.94.41.27,1.02.09,1.36-.41.13-.2.21-.43.21-.66-.02.17-.09.34-.19.5-.32.48-.92.65-1.34.38-.25-.17-.37-.45-.37-.75Zm.47-.68s-.09.1-.12.15c-.27.4-.21.91.12,1.14.34.22.83.07,1.09-.33h0c.13-.2.19-.43.17-.65-.02-.21-.13-.39-.28-.49-.14-.09-.32-.13-.51-.09-.17.04-.34.13-.47.26Z"/>
              </g>
              <path class="cls-9" d="m40.37,13.67c.02.12-1.02.31-1.04.2-.02-.13.19-.27.48-.32.29-.05.54,0,.56.13Z"/>
            </g>
            <g>
              <g>
                <g>
                  <rect class="cls-34" x="41.76" y="16.32" width=".89" height="6.77" transform="translate(6.01 49.01) rotate(-64.02)"/>
                  <path class="cls-11" d="m45.09,21.7l-6.25-3.04.47-.96.08.04,6.17,3-.47.96Zm-6.01-3.13l5.92,2.89.31-.64-5.92-2.89-.31.64Z"/>
                </g>
                <g class="cls-5">
                  <g>
                    <path class="cls-34" d="m39.45,18.6c.29-.28.25-.37.23-.6l-.31-.15-.41.77,6.09,2.97.09-.19-5.69-2.8Z"/>
                    <path class="cls-11" d="m45.09,21.7l-6.25-3.05.5-.93.43.21v.1c.03.2.03.32-.17.53l5.65,2.78-.17.35Zm-6.01-3.13l5.92,2.88v-.03s-5.71-2.81-5.71-2.81l.09-.09c.24-.23.23-.3.21-.48h0s-.19-.09-.19-.09l-.33.62Z"/>
                  </g>
                </g>
              </g>
              <g>
                <path class="cls-34" d="m38.96,16.79c.48.27.6.95.28,1.51-.32.57-.96.8-1.44.53-.48-.27-.6-.95-.28-1.51.32-.56.97-.8,1.44-.53Z"/>
                <path class="cls-11" d="m39.1,18.64c-.37.39-.92.51-1.35.27-.23-.13-.39-.35-.46-.62-.09-.33-.04-.7.15-1.02.18-.32.48-.56.81-.65.27-.07.54-.04.76.09.22.13.39.34.46.61.09.33.04.7-.15,1.02-.06.11-.14.21-.22.29Zm-1.31-1.53c-.07.08-.14.16-.19.26-.16.28-.21.6-.13.88.06.22.19.4.38.51.43.24,1.03.02,1.32-.5.16-.28.21-.61.13-.89-.06-.22-.19-.4-.38-.5h0c-.18-.1-.4-.13-.62-.07-.19.05-.36.16-.5.31Z"/>
              </g>
              <g class="cls-5">
                <path class="cls-34" d="m38.96,16.79c-.47-.27-1.12-.04-1.44.53-.32.56-.2,1.24.28,1.51.48.27,1.12.04,1.44-.53.32-.56.2-1.24-.28-1.51Zm.13,1.26c-.27.46-.79.66-1.19.43-.4-.23-.5-.78-.24-1.25.27-.47.8-.66,1.19-.44.39.22.5.78.23,1.25Z"/>
                <path class="cls-11" d="m39.1,18.64c-.37.39-.92.51-1.35.27-.23-.13-.39-.35-.46-.62-.09-.33-.04-.7.15-1.02.18-.32.48-.56.81-.65.27-.07.54-.04.76.09.22.13.39.34.46.61.09.33.04.7-.15,1.02-.06.11-.14.21-.22.29Zm-1.66-.8c-.02.14,0,.28.03.41.06.22.19.4.38.51.43.24,1.03.02,1.32-.5.12-.21.18-.45.16-.67-.01.17-.06.35-.16.52h0c-.29.51-.88.71-1.31.47-.26-.15-.41-.42-.42-.73Zm.47-.76c-.06.06-.11.13-.16.21-.24.42-.15.92.2,1.12.34.2.82.02,1.06-.4.24-.42.15-.93-.2-1.13-.28-.16-.65-.07-.91.2Z"/>
              </g>
              <path class="cls-9" d="m38.86,16.95c.03.12-.99.39-1.02.27-.03-.12.17-.28.45-.35.28-.07.53-.03.57.09Z"/>
            </g>
          </g>
          <g>
            <path class="cls-25" d="m25.78,108.97s1.78,4.17,11.74,4.5c4.42.15,6.98-1.14,9.59-3.16,2.6-2.02,4.95-.28,2.72,5.66-2.23,5.94-6.46,10.45-3.51,19.29,1.21,3.62,2.79,7.23,3.73,10.92.55,2.15.06,5.29-2.83,5.09-1.77-.13-3.14-1.57-4.41-2.67-3.29-2.87-6.59-4.81-11.17-3.11-2.68.83-11.78.79-14.94-2.84-2.44-2.87.19-6.26,1.27-8.18,1.08-1.92,3.83-6.15,3.94-10.26.11-4.1-.67-7.11-1.38-9.64-.72-2.54-.87-8.78,5.26-5.6Z"/>
            <path class="cls-11" d="m49.39,150.62c-.54.56-1.27.8-2.18.74-1.57-.11-2.84-1.25-3.97-2.26-.17-.15-.33-.29-.49-.43-3.48-3.04-6.7-4.72-11.08-3.09-1.32.41-4.26.63-7.33.26-4.6-.55-6.73-2-7.71-3.12-2.18-2.57-.38-5.55.81-7.52.16-.27.32-.53.45-.77.12-.22.26-.46.42-.73,1.28-2.19,3.41-5.86,3.51-9.48.11-3.99-.62-6.94-1.38-9.61-.48-1.69-.68-4.83.84-6.07.99-.81,2.52-.69,4.55.36h.03s.01.04.01.04c0,.01.46,1.04,2.12,2.1,1.53.98,4.43,2.18,9.54,2.35,4.37.15,6.89-1.09,9.53-3.14,1.11-.86,2.21-1.06,2.93-.53,1.13.83,1.1,3.18-.06,6.29-.5,1.34-1.11,2.62-1.71,3.86-2.1,4.4-4.08,8.55-1.81,15.37.43,1.3.92,2.62,1.4,3.89.85,2.29,1.73,4.66,2.34,7.03.35,1.37.29,3.23-.62,4.32-.04.05-.08.1-.13.14Zm-28.19-41.78c-1.25,1.29-1.04,4.14-.59,5.71.76,2.69,1.5,5.65,1.39,9.67-.1,3.67-2.25,7.36-3.53,9.57-.16.27-.3.51-.42.73-.13.24-.29.5-.45.77-1.16,1.93-2.92,4.84-.82,7.31,3.06,3.5,12.03,3.68,14.85,2.81,4.46-1.66,7.73.05,11.26,3.12.16.14.32.29.49.44,1.1.99,2.35,2.11,3.86,2.21.92.07,1.65-.21,2.16-.82.87-1.04.92-2.83.58-4.16-.6-2.36-1.48-4.73-2.33-7.02-.47-1.28-.96-2.6-1.4-3.9-2.3-6.88-.3-11.07,1.81-15.5.59-1.24,1.2-2.52,1.7-3.85,1.14-3.03,1.18-5.31.12-6.09-.65-.48-1.66-.28-2.71.53-2.68,2.07-5.23,3.33-9.65,3.18-9.57-.32-11.61-4.12-11.8-4.53-1.94-1-3.4-1.13-4.32-.37-.07.05-.13.11-.19.17Z"/>
          </g>
          <g class="cls-3">
            <g class="cls-3">
              <path class="cls-34" d="m30.57,141.29c-.27.48-.88.64-1.37.37l-6.68-3.82c-.48-.28-.65-.89-.37-1.37h0c.27-.48.89-.65,1.37-.37l6.68,3.82c.48.28.65.89.37,1.37h0Z"/>
              <path class="cls-11" d="m30.49,141.55c-.34.35-.89.44-1.33.19l-6.68-3.82c-.52-.3-.71-.97-.41-1.49.14-.25.38-.44.66-.51.28-.08.58-.04.83.11l6.68,3.82c.52.3.7.97.41,1.5h0c-.05.08-.1.15-.16.21Zm-8.13-5.22c-.05.05-.1.12-.14.18-.25.44-.1.99.34,1.25l6.68,3.82c.44.25,1,.1,1.24-.33.25-.44.1-1-.34-1.25l-6.68-3.82c-.21-.12-.46-.15-.69-.09-.16.04-.3.13-.42.24Z"/>
            </g>
            <g class="cls-3">
              <path class="cls-34" d="m32.96,128.67c-.08.55-.6.92-1.15.84l-7.6-1.18c-.55-.08-.93-.59-.84-1.14h0c.08-.54.6-.92,1.14-.83l7.61,1.18c.55.08.92.59.84,1.14h0Z"/>
              <path class="cls-11" d="m32.76,129.28c-.24.25-.59.38-.96.32l-7.6-1.18c-.28-.04-.54-.19-.71-.42-.18-.24-.25-.53-.2-.82.09-.59.65-1,1.25-.91l7.61,1.18c.59.09,1,.65.91,1.25h0c-.04.23-.14.43-.29.59Zm-9.05-2.57c-.13.13-.22.3-.25.49-.04.24.02.49.17.69.14.19.36.32.59.35l7.6,1.18c.5.08.97-.27,1.04-.76.08-.5-.26-.97-.76-1.04l-7.61-1.18c-.3-.05-.6.06-.8.27Z"/>
            </g>
            <g class="cls-3">
              <path class="cls-34" d="m34.77,118.29c-.08.55-.6.92-1.14.84l-7.61-1.18c-.55-.08-.92-.6-.84-1.14h0c.09-.55.6-.92,1.15-.84l7.61,1.18c.54.08.92.6.83,1.14h0Z"/>
              <path class="cls-11" d="m34.56,118.9s-.09.08-.14.12c-.24.17-.52.24-.81.2l-7.61-1.18c-.59-.09-1-.65-.91-1.24.09-.59.65-1,1.25-.91l7.61,1.18c.29.04.54.2.71.43.17.24.24.52.2.81-.03.23-.14.43-.29.59Zm-9.05-2.57c-.13.13-.22.3-.25.49-.08.5.27.96.76,1.04l7.61,1.18c.24.04.48-.02.68-.17.19-.14.32-.35.36-.59h0c.04-.24-.02-.48-.16-.68-.14-.2-.35-.32-.59-.36l-7.61-1.18c-.3-.05-.6.07-.8.27Z"/>
            </g>
            <g class="cls-5">
              <g>
                <g>
                  <polygon class="cls-34" points="47.05 31.76 40.69 30.77 40.7 30.65 47.07 31.63 47.05 31.76"/>
                  <polygon class="cls-11" points="47.12 31.87 40.59 30.85 40.62 30.54 47.18 31.56 47.12 31.87"/>
                </g>
                <g>
                  <rect class="cls-34" x="42.04" y="39.02" width=".13" height="6.69" transform="translate(-6.2 77.49) rotate(-81.19)"/>
                  <rect class="cls-11" x="41.95" y="38.93" width=".31" height="6.87" transform="translate(-6.2 77.49) rotate(-81.19)"/>
                </g>
                <g>
                  <rect class="cls-34" x="40.49" y="48.09" width=".13" height="6.93" transform="translate(-16.61 83.72) rotate(-81.17)"/>
                  <rect class="cls-11" x="40.4" y="48" width=".31" height="7.11" transform="translate(-16.61 83.72) rotate(-81.17)"/>
                </g>
                <g>
                  <polygon class="cls-34" points="42.56 61.53 35.59 60.45 35.61 60.32 42.58 61.4 42.56 61.53"/>
                  <polygon class="cls-11" points="42.63 61.63 35.49 60.52 35.54 60.22 42.68 61.33 42.63 61.63"/>
                </g>
                <g>
                  <polygon class="cls-34" points="41.28 70.36 33.94 69.23 33.96 69.1 41.29 70.23 41.28 70.36"/>
                  <polygon class="cls-11" points="41.36 70.46 33.84 69.3 33.89 69 41.4 70.16 41.36 70.46"/>
                </g>
                <g>
                  <polygon class="cls-34" points="40.24 77.58 32.79 76.42 32.81 76.3 40.26 77.45 40.24 77.58"/>
                  <polygon class="cls-11" points="40.32 77.68 32.68 76.5 32.73 76.19 40.36 77.38 40.32 77.68"/>
                </g>
                <g>
                  <polygon class="cls-34" points="39.94 79.5 32.45 78.34 32.47 78.21 39.96 79.37 39.94 79.5"/>
                  <polygon class="cls-11" points="40.02 79.6 32.35 78.41 32.39 78.11 40.06 79.29 40.02 79.6"/>
                </g>
                <g>
                  <polygon class="cls-34" points="38.53 88.6 30.86 87.41 30.88 87.28 38.55 88.47 38.53 88.6"/>
                  <polygon class="cls-11" points="38.61 88.7 30.76 87.48 30.8 87.18 38.65 88.39 38.61 88.7"/>
                </g>
                <g>
                  <polygon class="cls-34" points="37.11 97.8 29.19 96.58 29.21 96.45 37.13 97.67 37.11 97.8"/>
                  <polygon class="cls-11" points="37.18 97.91 29.09 96.65 29.13 96.34 37.23 97.6 37.18 97.91"/>
                </g>
                <g>
                  <polygon class="cls-34" points="36.12 104.2 28.08 102.95 28.1 102.82 36.14 104.07 36.12 104.2"/>
                  <polygon class="cls-11" points="36.19 104.3 27.98 103.02 28.02 102.72 36.24 103.99 36.19 104.3"/>
                </g>
                <g>
                  <polygon class="cls-34" points="35.84 106.38 27.8 105.13 27.82 105 35.86 106.25 35.84 106.38"/>
                  <polygon class="cls-11" points="35.91 106.48 27.7 105.21 27.75 104.9 35.97 106.18 35.91 106.48"/>
                </g>
              </g>
              <g>
                <g>
                  <polygon class="cls-34" points="22.03 144.6 21.9 144.58 42.83 19.6 42.95 19.63 22.03 144.6"/>
                  <polygon class="cls-11" points="22.11 144.71 21.8 144.65 42.75 19.5 43.06 19.55 43.04 19.64 22.11 144.71"/>
                </g>
                <g>
                  <polygon class="cls-34" points="23.44 144.82 23.31 144.79 44.72 16.97 44.85 17 23.44 144.82"/>
                  <polygon class="cls-11" points="23.51 144.93 23.21 144.87 23.22 144.78 44.65 16.87 44.95 16.93 44.93 17.01 23.51 144.93"/>
                </g>
                <g>
                  <polygon class="cls-34" points="24.85 145.04 24.72 145.01 46.21 13.84 46.34 13.87 24.85 145.04"/>
                  <polygon class="cls-11" points="24.92 145.14 24.61 145.09 24.63 145 46.13 13.74 46.44 13.79 46.42 13.88 24.92 145.14"/>
                </g>
                <g>
                  <polygon class="cls-34" points="26.25 145.26 26.13 145.23 47.69 11.46 47.82 11.48 26.25 145.26"/>
                  <polygon class="cls-11" points="26.32 145.36 26.02 145.3 26.04 145.22 47.62 11.35 47.92 11.4 47.91 11.49 26.32 145.36"/>
                </g>
                <g>
                  <polygon class="cls-34" points="27.66 145.47 27.53 145.45 49.3 9.09 49.43 9.11 27.66 145.47"/>
                  <polygon class="cls-11" points="27.74 145.58 27.43 145.53 27.44 145.44 49.22 8.98 49.53 9.03 49.52 9.12 27.74 145.58"/>
                </g>
                <g>
                  <polygon class="cls-34" points="29.06 145.69 28.94 145.67 50.72 6.69 50.85 6.71 29.06 145.69"/>
                  <polygon class="cls-11" points="29.14 145.79 28.84 145.75 50.64 6.59 50.95 6.63 50.94 6.72 29.14 145.79"/>
                </g>
              </g>
            </g>
          </g>
          <g>
            <path class="cls-34" d="m30.37,140.7c-.28.48-.89.65-1.37.37l-6.69-3.82c-.48-.27-.64-.89-.37-1.37h0c.28-.48.89-.65,1.37-.37l6.68,3.82c.48.27.65.89.37,1.37h0Z"/>
            <path class="cls-11" d="m30.28,140.96c-.34.35-.89.44-1.33.19l-6.69-3.82c-.52-.3-.7-.97-.41-1.49.3-.52.97-.7,1.49-.4l6.68,3.82c.25.14.43.37.51.65.08.28.04.58-.1.84h0c-.05.08-.1.15-.16.22Zm-8.13-5.21c-.05.05-.1.11-.13.18-.25.44-.09,1,.34,1.25l6.69,3.82c.43.25.99.1,1.24-.34.12-.21.15-.46.09-.7-.06-.23-.22-.43-.42-.55l-6.68-3.82c-.37-.21-.83-.13-1.11.16Z"/>
          </g>
          <g>
            <path class="cls-34" d="m32.76,128.08c-.09.54-.6.92-1.14.84l-7.61-1.18c-.55-.09-.92-.6-.84-1.14h0c.08-.55.59-.92,1.14-.84l7.61,1.18c.55.08.92.59.84,1.14h0Z"/>
            <path class="cls-11" d="m32.55,128.69c-.24.25-.59.38-.95.32l-7.61-1.18c-.29-.05-.55-.2-.72-.44-.17-.24-.24-.52-.19-.81.09-.59.65-1,1.24-.91l7.61,1.18c.29.04.54.2.71.43.17.24.24.52.2.81h0c-.04.23-.14.44-.3.59Zm-9.05-2.57c-.13.13-.22.3-.25.49-.04.24.02.48.16.67.14.2.36.33.6.37l7.61,1.18c.5.08.96-.27,1.04-.76.04-.24-.02-.48-.17-.68-.14-.2-.36-.32-.6-.36l-7.61-1.18c-.3-.05-.6.06-.79.27Z"/>
          </g>
          <g>
            <path class="cls-34" d="m34.56,117.7c-.09.55-.6.92-1.14.84l-7.61-1.18c-.55-.08-.92-.6-.83-1.14h0c.08-.55.59-.92,1.14-.84l7.61,1.18c.55.09.92.6.84,1.15h0Z"/>
            <path class="cls-11" d="m34.36,118.31c-.24.25-.59.38-.95.32l-7.61-1.18c-.29-.04-.54-.2-.71-.43-.17-.24-.24-.53-.2-.82.04-.28.19-.54.42-.71.24-.18.53-.25.82-.2l7.61,1.18c.59.1,1,.66.91,1.25-.04.23-.14.43-.29.59Zm-9.05-2.57c-.13.13-.21.31-.24.49-.04.24.02.49.16.69.14.19.35.32.59.36l7.61,1.18c.5.07.96-.27,1.04-.76h0c.08-.49-.26-.96-.76-1.04l-7.61-1.18c-.25-.04-.49.02-.69.17-.04.03-.08.06-.11.1Z"/>
          </g>
          <g>
            <g>
              <path class="cls-34" d="m23.83,124.9c-.04.25-.27.42-.52.38-.25-.04-.42-.27-.38-.51.04-.25.27-.42.52-.38.25.04.42.27.38.52Z"/>
              <path class="cls-11" d="m23.77,125.21s-.05.04-.07.06c-.12.09-.26.12-.4.1-.3-.05-.5-.32-.45-.62.02-.14.1-.27.21-.36.12-.09.26-.12.4-.1.3.05.5.33.45.62h0c-.02.11-.07.21-.15.29Zm-.65-.63c-.05.05-.09.12-.1.2-.03.2.11.38.3.41.09.02.19,0,.27-.06.08-.06.13-.14.15-.24h0c.03-.2-.11-.38-.3-.42-.1-.01-.19,0-.27.07-.02.01-.03.03-.05.04Z"/>
            </g>
            <g>
              <path class="cls-34" d="m22.61,111.23c-.03.25-.27.41-.52.37-.25-.03-.41-.27-.38-.51.04-.25.27-.42.52-.37.25.03.42.26.38.52Z"/>
              <path class="cls-11" d="m22.55,111.53s-.04.04-.07.06c-.12.09-.26.12-.41.1-.14-.02-.26-.09-.35-.21-.09-.12-.13-.27-.11-.41.02-.15.1-.28.22-.36.12-.08.26-.11.4-.09.14.02.27.09.35.21.09.12.12.26.1.41-.02.11-.07.21-.14.29Zm-.65-.63c-.05.05-.09.12-.1.2-.01.1.01.2.07.27.06.08.14.12.23.14.1.02.2,0,.28-.07.08-.06.12-.14.14-.23h0c.02-.1,0-.2-.06-.28-.06-.08-.14-.13-.24-.14-.1-.02-.19,0-.27.06-.02.01-.04.03-.05.04Z"/>
            </g>
            <g>
              <path class="cls-34" d="m49.27,111.8c-.04.25-.27.42-.52.38-.25-.04-.42-.27-.38-.51.04-.25.27-.42.52-.38.25.04.42.27.38.52Z"/>
              <path class="cls-11" d="m49.22,112.11c-.12.12-.29.19-.47.16-.3-.05-.5-.33-.45-.62.04-.29.32-.5.62-.46.3.05.5.32.45.62h0c-.02.11-.07.21-.15.29Zm-.65-.63c-.05.05-.09.12-.1.2-.03.2.11.38.3.41.2.03.38-.1.41-.3.03-.2-.11-.38-.3-.41-.12-.02-.24.03-.32.11Z"/>
            </g>
            <g>
              <path class="cls-34" d="m44.42,128.22c-.04.25-.27.42-.52.38-.24-.04-.42-.27-.38-.51.04-.25.27-.42.52-.38.25.04.42.27.38.51Z"/>
              <path class="cls-11" d="m44.36,128.53c-.12.12-.29.19-.48.16-.14-.02-.27-.1-.35-.21-.09-.12-.12-.26-.1-.4.02-.14.1-.27.22-.36.12-.09.26-.12.4-.1.3.05.5.32.45.62h0c-.02.12-.07.22-.15.29Zm-.65-.63c-.05.05-.09.12-.1.2-.01.09,0,.19.07.27.06.08.14.13.24.14.2.03.38-.1.42-.3.03-.19-.11-.38-.3-.41-.1-.01-.19,0-.27.07-.02.01-.03.03-.05.04Z"/>
            </g>
            <g>
              <path class="cls-34" d="m18.15,140.39c-.04.25-.27.42-.52.38-.25-.04-.42-.27-.38-.52.04-.25.27-.42.51-.38.25.04.42.27.38.52Z"/>
              <path class="cls-11" d="m18.1,140.7s-.04.04-.07.06c-.12.09-.26.12-.41.1-.15-.02-.27-.1-.36-.22-.08-.12-.12-.26-.09-.4.04-.29.32-.5.62-.45.14.02.27.1.36.22.09.12.12.26.1.4-.02.11-.07.22-.15.3Zm-.65-.63c-.05.05-.09.12-.1.2-.02.1,0,.19.06.27.06.08.14.13.24.15.1.01.19,0,.27-.07.08-.06.13-.14.14-.24h0c.01-.1,0-.19-.07-.27-.06-.08-.14-.13-.24-.15-.12-.02-.24.03-.31.11Z"/>
            </g>
            <g>
              <path class="cls-34" d="m35.62,143.42c-.04.25-.27.41-.52.38-.25-.04-.42-.27-.38-.52.04-.24.27-.41.52-.38.24.04.41.27.38.51Z"/>
              <path class="cls-11" d="m35.56,143.73c-.12.12-.29.19-.47.16-.14-.02-.27-.1-.36-.21-.09-.12-.12-.26-.1-.41.05-.29.32-.49.62-.45.29.05.5.33.46.62h0c-.02.12-.07.22-.15.29Zm-.65-.62c-.05.05-.08.12-.1.19-.02.1,0,.19.07.27.06.08.14.13.24.14.2.03.38-.1.42-.3.03-.19-.11-.38-.31-.41-.12-.02-.24.03-.32.11Z"/>
            </g>
          </g>
          <rect class="cls-19" x="22.38" y="138.79" width="5.37" height="13" transform="translate(-122.34 147.85) rotate(-81.2)"/>
          <g class="cls-3">
            <path class="cls-34" d="m30.01,146.21c-.08.55-.6.92-1.15.84l-7.61-1.18c-.55-.09-.92-.6-.84-1.15h0c.09-.55.6-.92,1.15-.84l7.61,1.18c.55.09.92.6.84,1.15h0Z"/>
            <path class="cls-11" d="m29.81,146.81s-.09.09-.14.12c-.24.17-.53.24-.81.2l-7.61-1.18c-.59-.09-1-.65-.92-1.25.1-.6.66-1,1.25-.91l7.61,1.18c.6.1,1.01.66.91,1.25h0c-.03.22-.14.43-.29.59Zm-9.05-2.57c-.13.13-.22.3-.25.49-.07.5.27.97.77,1.04l7.61,1.18c.24.04.48-.02.68-.17.2-.14.33-.36.36-.6h0c.08-.5-.26-.97-.76-1.05l-7.61-1.18c-.3-.05-.6.06-.8.27Z"/>
          </g>
          <g>
            <path class="cls-34" d="m29.91,145.71c-.08.55-.6.92-1.14.83l-7.61-1.18c-.55-.09-.92-.6-.83-1.14h0c.08-.55.59-.93,1.14-.84l7.61,1.18c.55.08.92.6.84,1.15h0Z"/>
            <path class="cls-11" d="m29.71,146.32s-.09.08-.14.12c-.24.17-.52.24-.81.2l-7.61-1.18c-.29-.04-.54-.2-.71-.44-.17-.24-.24-.52-.19-.81.04-.29.2-.54.43-.72.24-.17.52-.24.81-.19l7.61,1.18c.59.09,1,.65.91,1.25h0c-.03.23-.14.43-.29.59Zm-9.05-2.57c-.13.13-.22.31-.24.5-.04.24.02.48.16.68.14.2.36.33.6.36l7.61,1.18c.24.04.48-.02.68-.17.2-.14.32-.35.36-.59.07-.5-.27-.97-.76-1.04l-7.61-1.18c-.24-.04-.48.02-.67.16-.04.03-.08.06-.12.1Z"/>
          </g>
          <g class="cls-3">
            <path class="cls-22" d="m22.01,144.55c-.04.23-.25.39-.48.35-.23-.04-.39-.25-.35-.48.04-.23.25-.39.49-.35.23.04.38.25.35.48Z"/>
            <path class="cls-22" d="m23.41,144.77c-.03.23-.25.39-.48.35-.23-.04-.39-.25-.35-.48.04-.23.25-.39.48-.35.23.04.39.25.35.48Z"/>
            <path class="cls-22" d="m24.82,144.99c-.03.23-.25.39-.48.36-.23-.04-.38-.26-.35-.48.03-.23.25-.39.48-.35.23.04.39.25.35.48Z"/>
            <path class="cls-22" d="m26.23,145.21c-.04.23-.25.39-.48.36-.23-.04-.39-.25-.35-.48.03-.23.25-.39.48-.36.23.04.39.25.35.48Z"/>
            <path class="cls-22" d="m27.63,145.43c-.03.23-.25.38-.48.35-.23-.04-.39-.25-.35-.48.04-.23.25-.38.48-.35.23.03.39.25.35.48Z"/>
            <path class="cls-22" d="m29.04,145.64c-.04.23-.25.39-.48.35-.23-.03-.39-.25-.35-.48.04-.23.25-.39.48-.36.23.04.39.25.35.49Z"/>
          </g>
          <g class="cls-3">
            <path class="cls-22" d="m24.87,126.85c-.03.23-.25.38-.48.35-.23-.04-.39-.25-.35-.48.04-.22.25-.38.48-.35.23.04.39.25.35.48Z"/>
            <path class="cls-22" d="m26.27,127.07c-.04.23-.25.39-.48.35-.23-.03-.39-.25-.35-.47.04-.24.25-.39.48-.35.23.03.39.25.35.48Z"/>
            <path class="cls-22" d="m27.68,127.29c-.03.23-.25.38-.48.35-.23-.04-.39-.25-.35-.48.04-.23.26-.39.48-.36.23.04.39.25.35.49Z"/>
            <path class="cls-22" d="m29.09,127.5c-.03.23-.25.39-.48.35-.23-.04-.38-.25-.35-.48.04-.23.25-.38.48-.35.23.03.39.25.35.48Z"/>
            <path class="cls-22" d="m30.5,127.72c-.04.23-.25.39-.49.35-.23-.04-.38-.25-.35-.48.03-.23.25-.39.48-.35.23.04.39.25.35.48Z"/>
            <path class="cls-22" d="m31.9,127.94c-.04.23-.25.39-.48.35-.23-.04-.39-.25-.35-.48.03-.23.25-.39.48-.35.23.04.38.25.35.48Z"/>
          </g>
          <g class="cls-3">
            <path class="cls-22" d="m26.66,116.52c-.04.23-.25.39-.48.35-.23-.03-.38-.25-.35-.48.04-.23.25-.38.48-.35.23.04.39.25.35.48Z"/>
            <path class="cls-22" d="m28.07,116.74c-.04.23-.25.38-.48.35-.23-.03-.39-.25-.35-.48.04-.23.25-.39.48-.35.23.04.39.25.35.48Z"/>
            <path class="cls-22" d="m29.48,116.96c-.04.23-.25.38-.48.35-.23-.04-.39-.25-.35-.48.03-.23.25-.39.48-.35.23.04.39.25.35.48Z"/>
            <path class="cls-22" d="m30.88,117.18c-.04.23-.25.38-.48.35-.23-.03-.39-.25-.35-.48.03-.23.25-.39.48-.35.23.03.38.25.35.48Z"/>
            <path class="cls-22" d="m32.29,117.4c-.04.23-.25.38-.48.35-.23-.04-.39-.25-.35-.48.04-.23.25-.38.48-.35.23.04.39.25.35.48Z"/>
            <path class="cls-22" d="m33.69,117.62c-.03.23-.25.38-.48.35-.23-.04-.38-.25-.35-.48.03-.24.25-.39.48-.35.23.03.39.25.35.48Z"/>
          </g>
          <g class="cls-3">
            <path class="cls-22" d="m23.42,136.79c-.11.2-.37.27-.57.16-.2-.11-.28-.38-.16-.57.11-.2.37-.27.57-.16.2.12.27.37.16.58Z"/>
            <path class="cls-22" d="m24.65,137.5c-.12.2-.37.28-.57.16-.2-.12-.27-.37-.16-.57.12-.2.37-.27.58-.16.2.11.27.37.15.57Z"/>
            <path class="cls-22" d="m25.89,138.2c-.12.2-.37.27-.58.16-.2-.12-.27-.37-.15-.57.12-.2.37-.27.57-.15.2.11.27.37.16.57Z"/>
            <path class="cls-22" d="m27.13,138.91c-.11.2-.37.27-.57.16-.2-.12-.27-.37-.16-.58.12-.2.37-.27.58-.16.2.12.27.38.15.58Z"/>
            <path class="cls-22" d="m28.36,139.61c-.11.2-.37.27-.58.16-.2-.11-.27-.37-.16-.57.12-.2.37-.27.57-.15.2.11.27.37.16.57Z"/>
            <path class="cls-22" d="m29.6,140.32c-.12.2-.37.27-.58.16-.2-.11-.27-.37-.15-.57.11-.2.37-.27.57-.16.2.12.27.37.16.58Z"/>
          </g>
          <path class="cls-12" d="m41.17,150.6c-.3.48-1.48.29-2.65-.42-1.16-.72-1.87-1.68-1.58-2.16.3-.48,1.48-.3,2.64.42,1.17.71,1.88,1.68,1.58,2.16Z"/>
          <g>
            <path class="cls-34" d="m38.67,148.5c-.05.34-.47.56-.95.49-.47-.08-.81-.41-.76-.75.06-.35.48-.56.95-.49.47.08.81.41.75.75Z"/>
            <path class="cls-11" d="m38.6,148.83c-.19.2-.53.3-.89.25-.52-.08-.89-.47-.83-.85.06-.39.53-.64,1.05-.56.53.09.89.46.83.85h0c-.02.12-.08.23-.16.32Zm-1.43-.8c-.06.06-.1.14-.12.22-.04.28.27.58.68.65.42.07.8-.12.84-.41.04-.29-.26-.58-.68-.65-.3-.04-.58.03-.73.19Z"/>
          </g>
          <g>
            <polygon class="cls-18" points="25.97 112.75 34.84 114.12 48.42 23.62 41.86 22.6 25.97 112.75"/>
            <path class="cls-30" d="m34.91,114.23l-9.04-1.4.02-.09,15.9-90.24,6.74,1.04v.09s-13.61,90.6-13.61,90.6Zm-8.83-1.55l8.68,1.34,13.56-90.33-6.39-.99-15.86,89.97Z"/>
          </g>
          <g class="cls-5">
            <polygon class="cls-31" points="47.95 26.79 48.42 23.62 41.86 22.6 41.3 25.76 47.95 26.79"/>
          </g>
          <g>
            <path class="cls-16" d="m50.03,21.74c.18-.33.41-.62.73-.89.45-.38.96-.69,1.38-1.1.85-.83,1.12-1.9,1.22-3.05.09-.98.12-1.97.18-2.96.09-1.34.19-2.82.68-4.07.29-.75.81-1.44,1.53-1.79.68-.33,1.49-.31,2.13-.73.67-.44,1.09-1.23,1.24-2.01.47-2.53-1.16-5.04-3.83-5.06-2.65-.02-4.81,2.59-6.3,4.45-3.72,4.62-8.15,13.14-9.11,15.39-.96,2.25.15,2.43.15,2.43,0,0,8.95,1.39,8.95,1.39.51.08.49-.33.59-.73.11-.46.25-.89.47-1.27Z"/>
            <path class="cls-29" d="m49.41,23.72c-.09.1-.23.15-.46.11-.03,0-8.95-1.39-8.95-1.39-.01,0-.3-.05-.48-.37-.25-.45-.16-1.18.26-2.18.89-2.09,5.32-10.69,9.12-15.41C50.26,2.8,52.53-.02,55.28,0c1.19,0,2.26.51,3.01,1.42.83,1,1.17,2.4.91,3.75-.16.88-.64,1.65-1.28,2.07-.37.25-.8.35-1.21.44-.31.07-.64.15-.93.29-.64.3-1.16.92-1.49,1.74-.5,1.26-.59,2.74-.67,4.04-.02.36-.04.72-.06,1.08-.03.62-.07,1.25-.12,1.88-.09,1.02-.3,2.19-1.25,3.1-.25.25-.54.46-.82.66-.19.14-.38.28-.56.44-.29.24-.52.53-.71.86h0c-.19.34-.33.72-.46,1.25-.02.06-.03.13-.04.19-.04.18-.08.38-.19.5Zm1.34-21.1c-.66.69-1.24,1.4-1.7,1.98-3.79,4.71-8.21,13.29-9.1,15.37-.5,1.17-.42,1.74-.27,2.01.13.25.34.28.35.29,4.08.63,8.95,1.39,8.95,1.39.33.05.37-.11.44-.47.01-.06.03-.13.04-.19.14-.54.28-.94.48-1.29.2-.36.44-.66.75-.91.19-.16.38-.3.57-.44.27-.2.55-.41.8-.65.9-.87,1.11-2,1.19-2.99.05-.62.09-1.26.12-1.87.02-.36.04-.72.06-1.08.08-1.32.18-2.81.69-4.1.34-.86.9-1.51,1.58-1.84.31-.15.64-.23.97-.3.42-.1.81-.19,1.16-.42.6-.39,1.05-1.12,1.2-1.95.24-1.3-.08-2.64-.88-3.6-.71-.86-1.73-1.34-2.87-1.35-1.74-.01-3.29,1.16-4.53,2.44Z"/>
          </g>
          <g class="cls-5">
            <path class="cls-27" d="m51.5,7.05c-.08.54-.59.91-1.13.83-.54-.08-.91-.59-.83-1.13.08-.53.59-.91,1.12-.83.54.09.91.59.83,1.13Z"/>
            <path class="cls-21" d="m50.06,9.44c-.08.54-.59.91-1.13.82-.54-.08-.91-.59-.82-1.13.08-.54.59-.91,1.12-.83.54.09.91.59.83,1.13Z"/>
            <path class="cls-20" d="m48.45,11.78c-.08.54-.59.9-1.13.82-.54-.09-.91-.59-.83-1.13.09-.54.59-.91,1.13-.82.54.09.91.59.82,1.13Z"/>
            <path class="cls-32" d="m46.97,14.17c-.08.54-.59.91-1.13.82-.54-.08-.91-.58-.83-1.13.08-.54.58-.9,1.13-.83.54.08.91.59.82,1.13Z"/>
            <path class="cls-33" d="m45.48,17.24c-.09.54-.59.91-1.13.83-.54-.08-.91-.59-.83-1.13.08-.54.59-.91,1.13-.82.54.08.91.59.83,1.13Z"/>
            <path class="cls-15" d="m43.55,19.92c-.08.54-.59.91-1.13.82-.54-.08-.91-.58-.83-1.12.09-.54.59-.91,1.13-.83.54.08.91.59.83,1.13Z"/>
          </g>
          <g>
            <g>
              <path class="cls-34" d="m51.41,6.84c-.09.54-.59.91-1.13.83-.54-.09-.91-.59-.83-1.13.09-.54.59-.91,1.13-.83.54.08.91.59.83,1.13Z"/>
              <path class="cls-11" d="m51.21,7.43c-.24.24-.58.37-.94.32-.28-.05-.53-.2-.71-.43-.17-.23-.24-.52-.2-.8.05-.29.2-.54.43-.71.23-.17.52-.24.8-.19.58.09.99.64.9,1.23h0c-.04.23-.14.43-.29.58Zm-1.42-1.37c-.13.13-.21.3-.24.49-.04.24.02.47.16.66.14.19.35.32.59.36.49.07.95-.26,1.03-.75.07-.49-.27-.95-.75-1.02-.24-.04-.47.02-.67.16-.04.03-.08.06-.12.1Z"/>
            </g>
            <g>
              <path class="cls-34" d="m50.97,6.77c-.04.3-.32.5-.62.46-.3-.05-.5-.33-.46-.63.05-.3.32-.5.62-.46.3.05.5.33.46.62Z"/>
              <path class="cls-11" d="m50.89,7.13s-.05.05-.08.07c-.14.1-.31.14-.48.12-.17-.03-.32-.12-.42-.26-.1-.14-.14-.31-.11-.47.03-.17.12-.32.25-.42.14-.1.3-.14.47-.11.35.06.59.38.53.73-.02.13-.08.25-.17.35Zm-.79-.77c-.07.07-.11.15-.12.25-.02.12,0,.24.08.34.07.1.18.16.3.18.12.02.25-.01.34-.08.1-.07.16-.18.18-.3h0c.04-.25-.13-.48-.38-.52-.12-.02-.24,0-.34.08-.02.02-.04.03-.06.05Z"/>
            </g>
          </g>
          <g>
            <g>
              <path class="cls-34" d="m49.95,9.23c-.08.54-.58.91-1.13.83-.54-.08-.91-.59-.82-1.13.08-.54.59-.91,1.13-.83.54.08.91.59.82,1.13Z"/>
              <path class="cls-11" d="m49.75,9.82c-.23.24-.58.37-.94.32-.59-.09-.99-.64-.9-1.23.09-.59.64-.99,1.23-.9.59.09.99.64.9,1.23-.03.23-.14.43-.29.58Zm-1.42-1.37c-.12.13-.21.3-.24.49-.07.49.26.95.75,1.03.49.07.95-.27,1.02-.75h0c.08-.49-.26-.95-.75-1.02-.3-.05-.59.06-.79.26Z"/>
            </g>
            <g>
              <path class="cls-34" d="m49.52,9.16c-.05.3-.33.5-.63.46-.3-.05-.51-.33-.46-.63.05-.3.33-.51.63-.46.3.04.5.33.46.63Z"/>
              <path class="cls-11" d="m49.44,9.52c-.14.14-.34.22-.56.19-.17-.03-.32-.12-.42-.26-.1-.14-.14-.3-.11-.47.03-.17.12-.32.26-.42.14-.1.31-.14.47-.11.17.02.31.11.41.25.1.14.14.31.12.48h0c-.02.13-.08.25-.17.34Zm-.79-.76c-.07.07-.11.15-.12.25-.02.12,0,.24.08.34.07.1.18.17.3.19.25.04.48-.14.52-.38h0c.02-.12-.01-.24-.08-.34-.07-.1-.18-.16-.3-.18-.12-.02-.24,0-.34.08-.02.02-.04.03-.06.05Z"/>
            </g>
          </g>
          <g>
            <g>
              <path class="cls-34" d="m48.35,11.57c-.08.54-.59.91-1.13.82-.54-.08-.91-.59-.82-1.13.08-.54.59-.91,1.12-.83.54.08.91.59.83,1.13Z"/>
              <path class="cls-11" d="m48.15,12.16s-.09.09-.14.12c-.23.17-.52.24-.8.19-.58-.09-.99-.64-.9-1.23.04-.29.2-.54.43-.71.23-.17.52-.24.8-.19.59.09.99.64.9,1.23h0c-.03.22-.14.43-.29.58Zm-1.42-1.38c-.13.13-.21.3-.24.49-.07.49.26.95.75,1.02.24.04.48-.02.67-.16.19-.14.32-.35.36-.59.07-.49-.26-.95-.75-1.03-.24-.04-.47.02-.67.16-.04.03-.08.06-.12.1Z"/>
            </g>
            <g>
              <path class="cls-34" d="m47.92,11.5c-.05.3-.33.5-.63.46-.3-.05-.5-.33-.46-.63.05-.3.33-.51.62-.46.3.04.51.33.46.62Z"/>
              <path class="cls-11" d="m47.83,11.86c-.14.14-.34.22-.56.19-.35-.05-.59-.38-.53-.73.03-.17.12-.32.26-.42.14-.1.3-.14.47-.11.17.02.32.11.42.25.1.14.14.31.12.48h0c-.02.14-.08.26-.17.35Zm-.79-.77c-.07.07-.11.15-.12.25-.04.25.14.48.38.52.25.04.48-.13.52-.39.02-.12-.01-.24-.08-.34-.07-.1-.18-.16-.3-.18-.12-.02-.24,0-.34.08-.02.02-.04.03-.06.05Z"/>
            </g>
          </g>
          <g>
            <g>
              <path class="cls-34" d="m46.87,13.96c-.08.54-.59.9-1.13.83-.53-.09-.9-.59-.82-1.13.09-.54.59-.91,1.12-.82.54.08.91.59.83,1.13Z"/>
              <path class="cls-11" d="m46.67,14.55c-.24.24-.58.37-.95.32-.59-.09-.99-.65-.9-1.23.09-.58.64-.99,1.23-.9.28.04.54.19.71.42.17.23.24.52.2.8h0c-.03.23-.14.43-.29.58Zm-1.42-1.37c-.12.13-.21.29-.24.48-.08.49.26.95.75,1.03.49.07.95-.26,1.03-.75.04-.24-.02-.48-.17-.67-.14-.19-.35-.32-.59-.35-.3-.05-.58.06-.78.26Z"/>
            </g>
            <g>
              <path class="cls-34" d="m46.44,13.89c-.05.3-.33.51-.63.46-.3-.04-.51-.32-.46-.62.05-.3.33-.51.63-.46.3.05.5.33.46.63Z"/>
              <path class="cls-11" d="m46.35,14.25s-.05.05-.09.07c-.14.1-.3.14-.47.11-.17-.02-.32-.11-.42-.25-.1-.14-.14-.31-.12-.47.05-.35.38-.59.73-.54.35.06.59.38.53.73h0c-.02.13-.08.25-.17.35Zm-.79-.76c-.06.07-.11.15-.12.25-.02.12.01.24.08.34.07.1.18.16.3.18.12.02.24,0,.34-.08.1-.07.17-.18.19-.3.04-.25-.13-.48-.38-.52-.15-.02-.3.03-.4.13Z"/>
            </g>
          </g>
          <g>
            <g>
              <path class="cls-34" d="m45.38,17.03c-.09.54-.59.91-1.13.82-.54-.08-.91-.58-.82-1.12.08-.54.58-.91,1.12-.82.54.08.91.59.83,1.13Z"/>
              <path class="cls-11" d="m45.17,17.63c-.24.24-.58.37-.94.32-.28-.04-.53-.19-.7-.42-.17-.23-.24-.52-.19-.8.04-.29.2-.54.43-.71.23-.17.51-.24.8-.19.59.09.99.64.9,1.23h0c-.04.23-.14.43-.29.58Zm-1.42-1.37c-.13.13-.21.3-.24.49-.04.24.02.47.16.67.14.19.35.32.59.35.49.08.95-.26,1.03-.75.07-.49-.26-.95-.75-1.02-.24-.04-.47.02-.66.16-.04.03-.08.06-.12.1Z"/>
            </g>
            <g>
              <path class="cls-34" d="m44.94,16.96c-.04.3-.32.51-.62.46-.3-.04-.5-.32-.46-.63.04-.3.33-.5.63-.46.3.05.5.33.45.63Z"/>
              <path class="cls-11" d="m44.86,17.32s-.05.05-.08.07c-.14.1-.31.14-.47.11-.16-.02-.31-.11-.41-.24-.1-.14-.15-.31-.12-.48.02-.17.11-.32.25-.42.14-.1.31-.14.48-.12.35.06.59.39.53.73-.02.13-.08.25-.17.35Zm-.79-.76c-.07.07-.11.15-.12.25-.02.13.01.25.09.35.07.1.18.16.29.17.12.02.24,0,.34-.08.1-.07.16-.18.18-.3h0c.04-.25-.13-.48-.38-.53-.12-.02-.24.01-.34.09-.02.02-.04.03-.06.05Z"/>
            </g>
          </g>
          <g>
            <g>
              <path class="cls-34" d="m43.45,19.71c-.08.54-.59.91-1.12.83-.54-.08-.91-.59-.83-1.13.09-.54.59-.91,1.13-.83.54.08.91.59.82,1.13Z"/>
              <path class="cls-11" d="m43.25,20.31c-.23.24-.58.37-.94.32-.59-.09-.99-.64-.9-1.23.09-.59.65-.99,1.23-.9.28.04.53.2.7.43.17.23.24.52.19.8-.03.23-.14.43-.29.59Zm-1.42-1.37c-.13.13-.21.3-.24.49-.07.49.26.95.75,1.02.49.07.95-.26,1.02-.75h0c.04-.24-.02-.47-.16-.67-.14-.19-.35-.32-.58-.36-.3-.05-.59.06-.78.27Z"/>
            </g>
            <g>
              <path class="cls-34" d="m43.02,19.64c-.04.3-.33.5-.63.46-.3-.05-.51-.33-.46-.63.05-.3.33-.51.63-.46.3.05.51.33.46.63Z"/>
              <path class="cls-11" d="m42.94,20s-.05.05-.08.07c-.14.1-.31.14-.48.12-.17-.03-.32-.12-.42-.25-.1-.14-.14-.31-.12-.48.03-.17.12-.32.26-.42.14-.1.31-.14.47-.11.17.03.32.12.42.26.1.14.14.3.11.47-.02.13-.08.25-.17.34Zm-.79-.76c-.07.07-.11.15-.12.25-.02.12.01.24.08.34.07.1.18.16.3.18.12.02.24-.01.34-.09.1-.07.16-.18.18-.3h0c.02-.12,0-.24-.08-.34-.07-.1-.18-.17-.3-.19-.12-.02-.24,0-.34.08-.02.02-.04.03-.06.05Z"/>
            </g>
          </g>
          <path class="cls-17" d="m53.19,1.31s-4.47,2.21-11.01,14.88c3.7-6.11,6.21-10.06,11.01-14.88Z"/>
          <g>
            <g>
              <polygon class="cls-24" points="47.12 31.73 40.39 30.69 40.41 30.56 47.14 31.6 47.12 31.73"/>
              <polygon class="cls-24" points="45.48 42.91 38.49 41.83 38.51 41.7 45.5 42.78 45.48 42.91"/>
              <polygon class="cls-24" points="44.05 52.11 36.81 50.99 36.83 50.86 44.07 51.99 44.05 52.11"/>
              <rect class="cls-24" x="38.9" y="57.13" width=".13" height="7.46" transform="translate(-27.13 90.08) rotate(-81.22)"/>
              <polygon class="cls-24" points="41.36 70.33 33.6 69.13 33.62 69 41.38 70.2 41.36 70.33"/>
              <rect class="cls-24" x="36.33" y="72.88" width=".13" height="7.98" transform="translate(-45.14 101.08) rotate(-81.2)"/>
              <rect class="cls-24" x="36.01" y="74.78" width=".13" height="8.02" transform="translate(-47.31 102.38) rotate(-81.2)"/>
              <rect class="cls-24" x="34.51" y="83.77" width=".13" height="8.21" transform="translate(-57.56 108.56) rotate(-81.18)"/>
              <polygon class="cls-24" points="37.2 97.77 28.82 96.48 28.84 96.35 37.21 97.65 37.2 97.77"/>
              <rect class="cls-24" x="31.9" y="99.14" width=".13" height="8.6" transform="translate(-75.15 119.19) rotate(-81.19)"/>
              <rect class="cls-24" x="31.62" y="101.33" width=".13" height="8.6" transform="translate(-77.54 120.81) rotate(-81.21)"/>
            </g>
            <g>
              <polygon class="cls-24" points="21.66 144.5 21.53 144.48 42.45 19.5 42.58 19.53 21.66 144.5"/>
              <polygon class="cls-24" points="23.06 144.72 22.93 144.7 44.34 16.87 44.47 16.89 23.06 144.72"/>
              <polygon class="cls-24" points="24.47 144.94 24.34 144.91 45.83 13.74 45.96 13.76 24.47 144.94"/>
              <polygon class="cls-24" points="25.88 145.15 25.75 145.13 47.31 11.35 47.44 11.37 25.88 145.15"/>
              <polygon class="cls-24" points="27.28 145.37 27.16 145.34 48.93 8.98 49.05 9 27.28 145.37"/>
              <polygon class="cls-24" points="28.69 145.59 28.56 145.57 50.34 6.59 50.47 6.61 28.69 145.59"/>
            </g>
          </g>
          <g>
            <path class="cls-34" d="m47.04,155.53c-.11.74-.81,1.25-1.55,1.14-.74-.12-1.25-.81-1.14-1.55.12-.74.81-1.25,1.55-1.14.74.12,1.25.81,1.14,1.55Z"/>
            <path class="cls-11" d="m46.73,156.33c-.32.33-.78.5-1.26.43-.38-.06-.72-.26-.95-.58-.23-.31-.32-.69-.26-1.08.12-.79.87-1.34,1.65-1.21.38.06.72.26.95.58.23.31.32.69.26,1.08h0c-.05.31-.19.58-.39.79Zm-1.95-1.89c-.18.18-.3.42-.34.69-.05.33.03.67.23.94.2.27.5.45.83.5.69.11,1.34-.37,1.45-1.06h0c.05-.33-.03-.67-.23-.94-.2-.27-.5-.45-.83-.5-.42-.06-.83.09-1.11.37Z"/>
          </g>
          <g>
            <path class="cls-34" d="m46.44,155.44c-.07.42-.45.7-.87.64-.41-.07-.69-.45-.63-.87.07-.41.45-.69.86-.63.41.06.7.45.63.86Z"/>
            <path class="cls-11" d="m46.3,155.91c-.18.19-.45.29-.74.25-.46-.08-.77-.51-.71-.97.07-.46.51-.77.97-.7.23.04.43.16.56.34.13.18.18.4.15.62-.03.18-.11.34-.23.46Zm-1.09-1.05c-.09.09-.16.22-.18.36-.05.36.19.7.56.76.37.05.7-.19.76-.56h0c.03-.17-.01-.34-.12-.49-.11-.15-.26-.24-.44-.27-.22-.03-.44.05-.58.2Z"/>
          </g>
          <g>
            <path class="cls-34" d="m40.61,159.82c-.11.74-.81,1.25-1.55,1.13-.74-.12-1.25-.81-1.13-1.55.11-.74.81-1.25,1.55-1.13.74.11,1.25.81,1.14,1.55Z"/>
            <path class="cls-11" d="m40.31,160.61c-.06.06-.12.11-.19.17-.31.23-.69.32-1.08.26-.38-.06-.72-.27-.95-.58-.23-.31-.32-.69-.26-1.07.06-.38.26-.72.57-.95.31-.23.7-.32,1.08-.26.38.06.72.26.95.57.23.31.32.69.26,1.08h0c-.05.3-.18.57-.39.78Zm-1.96-1.88c-.18.19-.3.42-.34.69-.05.33.03.67.23.94.2.27.5.45.83.51.33.05.67-.03.94-.23.27-.2.45-.49.51-.83h0c.05-.34-.03-.67-.23-.94-.2-.27-.49-.45-.83-.5-.33-.05-.67.03-.94.23-.06.04-.11.09-.16.14Z"/>
          </g>
          <g>
            <path class="cls-34" d="m40.02,159.72c-.07.41-.45.69-.87.63-.41-.06-.69-.45-.63-.86.07-.41.45-.7.86-.63.41.06.69.45.63.86Z"/>
            <path class="cls-11" d="m39.88,160.2c-.18.19-.45.29-.74.24-.22-.03-.42-.15-.55-.33-.14-.18-.19-.41-.16-.63.07-.46.51-.78.97-.71.46.07.78.5.71.96h0c-.03.18-.11.34-.23.46Zm-1.09-1.05c-.09.1-.16.22-.18.36-.03.18.02.35.12.5.11.14.26.24.43.26.37.06.7-.19.76-.56.05-.36-.2-.7-.56-.76-.22-.04-.43.04-.58.19Z"/>
          </g>
          <g>
            <path class="cls-34" d="m48.64,147.31c-.12.74-.81,1.25-1.55,1.13-.74-.11-1.24-.81-1.13-1.55.12-.74.81-1.25,1.55-1.13.74.11,1.25.81,1.13,1.55Z"/>
            <path class="cls-11" d="m48.34,148.1c-.32.33-.78.5-1.27.43-.78-.12-1.33-.86-1.21-1.65.06-.38.26-.72.58-.95.31-.23.7-.32,1.08-.26.38.06.72.26.94.58.23.31.32.7.26,1.08h0c-.05.31-.19.57-.39.78Zm-1.96-1.88c-.18.19-.3.42-.34.69-.1.69.37,1.34,1.06,1.45.69.11,1.34-.37,1.45-1.06.05-.33-.03-.67-.23-.94-.2-.27-.49-.45-.83-.5-.34-.05-.67.03-.95.23-.06.04-.11.09-.17.14Z"/>
          </g>
          <g>
            <path class="cls-34" d="m48.04,147.21c-.06.41-.45.69-.86.63-.41-.06-.69-.45-.63-.86.07-.41.45-.69.86-.63.41.06.7.45.63.86Z"/>
            <path class="cls-11" d="m47.91,147.69s-.07.06-.11.09c-.18.13-.41.19-.63.15-.46-.07-.78-.5-.71-.96.08-.46.51-.77.96-.7.22.03.42.16.56.34.13.18.19.4.15.62-.03.17-.1.33-.23.46Zm-1.08-1.05c-.09.1-.16.22-.18.36-.06.36.19.7.56.76.18.03.35-.02.5-.12.14-.1.23-.26.26-.43h0c.03-.17-.01-.35-.12-.49-.11-.14-.26-.24-.44-.27-.22-.03-.43.05-.58.2Z"/>
          </g>
          <g class="cls-5">
            <path class="cls-13" d="m34.84,114.12l13.59-90.51-.68-.11c-1.26,7.89-7.45,44.43-17.78,66.59l-3.99,22.66,8.86,1.37Z"/>
          </g>
          <g class="cls-5">
            <polygon class="cls-23" points="26.44 110.09 25.97 112.75 34.84 114.12 35.24 111.46 26.44 110.09"/>
          </g>
        </g>
        <path class="cls-10" d="m15.44,119.25c-.1-3.34-1.23-6.46-2.12-9.65-.46-1.64-.8-3.3-1-5-.2-1.74-.29-3.46-.08-5.2.04-.32.08-.69-.13-.95-.6.24-.68,1.09-.7,1.65-.12,2.99.36,6.02.9,8.95.3,1.65.65,3.3.91,4.97.27,1.74.42,3.49.45,5.24.03,1.81.02,3.66-.29,5.45-.31,1.8-.89,3.55-1.55,5.26-.65,1.69-1.46,3.32-2.35,4.9-.85,1.53-1.81,3-2.63,4.55-.72,1.37-1.31,2.79-1.65,4.3-.28,1.24-.49,2.61-.21,3.86.06.27.15.53.27.78.05.1.22.02.24-.06.43-1.75.33-3.59,1.06-5.27.66-1.52,1.68-2.84,2.57-4.23,1.85-2.91,3.7-5.92,4.86-9.18,1.19-3.32,1.55-6.87,1.45-10.38Z"/>
      </g>
    </g>
  </g>
</svg>