<?xml version="1.0" encoding="UTF-8"?>
<svg id="maracas" xmlns="http://www.w3.org/2000/svg" viewBox="0 0 90.64 105.58">
  <defs>
    <style>
      .cls-1 {
        fill: #f1aa66;
      }

      .cls-2 {
        fill: #21409a;
      }
    </style>
  </defs>
  <path class="cls-1" d="m24.09,63.87c-4.54,6.07-4.79,17.7-4.08,29.3,1.44,16.64-16.14,16.53-12.28-.27,3.05-11.33,6.64-23.05,3.46-30.08,5.27,3.36,9.92,2.71,12.89,1.05Z"/>
  <path class="cls-1" d="m59.41,51.13c-6.76,3.44-12.12,13.76-16.6,24.48-6.06,15.57-21.79,7.7-10.89-5.67,7.74-8.82,16.14-17.74,16.39-25.45,3.24,5.35,7.7,6.81,11.1,6.64Z"/>
  <path class="cls-2" d="m11.19,62.82c3.69,2.74,9.17,3.33,12.89,1.05,25.99-19.17,17.25-42.37,8.24-49.44C13.58-2.65-16.48,33,11.19,62.82Z"/>
  <path class="cls-2" d="m48.31,44.49c2.1,4.09,6.76,7.04,11.1,6.64,31.78-5.71,34.2-30.39,29.24-40.72-9.27-23.6-51.99-4.9-40.34,34.08Z"/>
</svg>