<?xml version="1.0" encoding="UTF-8"?>
<svg xmlns="http://www.w3.org/2000/svg" xmlns:xlink="http://www.w3.org/1999/xlink" viewBox="0 0 71.35 68.52">
  <defs>
    <style>
      .cls-1 {
        fill: url(#radial-gradient-3);
      }

      .cls-1, .cls-2, .cls-3, .cls-4, .cls-5, .cls-6, .cls-7, .cls-8 {
        mix-blend-mode: screen;
      }

      .cls-2 {
        fill: url(#radial-gradient-4);
      }

      .cls-2, .cls-6 {
        opacity: .6;
      }

      .cls-9, .cls-10 {
        fill: #fff;
      }

      .cls-3 {
        fill: url(#radial-gradient);
      }

      .cls-11 {
        fill: #e86e24;
      }

      .cls-12 {
        fill: #a6793f;
      }

      .cls-4 {
        fill: url(#radial-gradient-7);
      }

      .cls-5 {
        fill: url(#radial-gradient-5);
      }

      .cls-10 {
        mix-blend-mode: overlay;
      }

      .cls-13 {
        fill: #dc1c4a;
      }

      .cls-14 {
        fill: #0a96a3;
      }

      .cls-15 {
        fill: #31748f;
      }

      .cls-16 {
        fill: #c0832b;
        mix-blend-mode: multiply;
        opacity: .4;
      }

      .cls-17 {
        fill: #db1f26;
      }

      .cls-18 {
        fill: none;
        isolation: isolate;
      }

      .cls-6 {
        fill: url(#radial-gradient-8);
      }

      .cls-19 {
        fill: #fdcb81;
      }

      .cls-20 {
        fill: #eae113;
      }

      .cls-7 {
        fill: url(#radial-gradient-2);
      }

      .cls-8 {
        fill: url(#radial-gradient-6);
      }

      .cls-21 {
        fill: #f6a81c;
      }
    </style>
    <radialGradient id="radial-gradient" cx="2278.62" cy="-1413.09" fx="2278.62" fy="-1413.09" r="16.53" gradientTransform="translate(2438.35 -1183.56) rotate(120.86) scale(1 -1)" gradientUnits="userSpaceOnUse">
      <stop offset="0" stop-color="#fff"/>
      <stop offset="1" stop-color="#000"/>
    </radialGradient>
    <radialGradient id="radial-gradient-2" cx="2278.6" cy="-1413.11" fx="2278.6" fy="-1413.11" r="16.53" xlink:href="#radial-gradient"/>
    <radialGradient id="radial-gradient-3" cx="2266.2" cy="-1457.05" fx="2266.2" fy="-1457.05" r="29.88" xlink:href="#radial-gradient"/>
    <radialGradient id="radial-gradient-4" cx="2266.21" cy="-1457.04" fx="2266.21" fy="-1457.04" r="29.86" xlink:href="#radial-gradient"/>
    <radialGradient id="radial-gradient-5" cx="1887.43" cy="-1417.89" fx="1887.43" fy="-1417.89" r="16.53" gradientTransform="translate(2433.06 24) rotate(142.59) scale(1 -1)" xlink:href="#radial-gradient"/>
    <radialGradient id="radial-gradient-6" cx="1887.41" cy="-1417.9" fx="1887.41" fy="-1417.9" r="16.54" gradientTransform="translate(2433.06 24) rotate(142.59) scale(1 -1)" xlink:href="#radial-gradient"/>
    <radialGradient id="radial-gradient-7" cx="1875" cy="-1461.85" fx="1875" fy="-1461.85" r="29.88" gradientTransform="translate(2433.06 24) rotate(142.59) scale(1 -1)" xlink:href="#radial-gradient"/>
    <radialGradient id="radial-gradient-8" cx="1875.02" cy="-1461.84" fx="1875.02" fy="-1461.84" r="29.86" gradientTransform="translate(2433.06 24) rotate(142.59) scale(1 -1)" xlink:href="#radial-gradient"/>
  </defs>
  <g class="cls-18">
    <g id="Layer_1" data-name="Layer 1">
      <g>
        <g>
          <g>
            <path class="cls-12" d="m5.65,44.7c-.18-.12-.36-.27-.53-.41-.29-.2-.56-.42-.76-.69-.79-.78-1.47-1.68-2.08-2.65-.81-1.29-1.52-2.71-1.79-4.23-.59-2.26-.6-4.53-.28-6.76,1.18-8.33,11.07-14.05,19.22-11.52,8.72,2.7,11.91,12.93,14.66,20.61.02.06.72,2.42,2.23,4.93.78,1.39,1.7,2.71,2.8,3.87,1.62,1.71,3.64,3,5.68,4.14,2.18,1.22,4.44,2.27,6.64,3.46,1.77.96,3.45,2.07,5.1,3.22.34.27.68.55,1.01.83.48.41.95.84,1.41,1.28.21.17.41.35.61.53.42.46.84.91,1.25,1.36.31.31.7.67.93,1.05,1.3,2.18-.98,5.01-3.31,4.8-1.16-.1-2.34-.85-3.41-1.35-1.24-.58-2.44-1.28-3.57-2.02-1.22-.8-2.41-1.67-3.56-2.6-.97-1-1.97-1.96-2.93-2.96-1.43-1.5-2.87-3-4.43-4.35-1.42-1.22-2.94-2.34-4.58-3.25-.86-.49-1.76-.92-2.7-1.22-.14-.06-.27-.13-.41-.19-.77-.33-1.57-.58-2.38-.78-.24-.04-.48-.07-.71-.11-.19-.03-.38-.05-.57-.08-.52-.06-1.05-.13-1.58-.18-1.24-.13-2.5-.23-3.75-.34-1.35-.02-2.72,0-4.05-.07-2.48-.13-4.85-.57-7.28-1.26-2.56-.67-4.75-1.58-6.86-3.05Z"/>
            <g>
              <path class="cls-19" d="m8.27,45.32c.91.32,1.78.74,2.69,1.05,1.1.38,2.24.7,3.36.95,3.03.69,6.17,1,9.31,1.27,1.43.01,2.85.05,4.27.13.49.11.97.23,1.45.35.1.01.21.02.31.04,1.33.19,2.6.57,3.83,1.1.16.07.32.14.48.22.11.03.21.06.31.09.5.19.99.43,1.47.67,1.16.58,2.21,1.34,3.22,2.14,2.17,1.7,4.08,3.74,6.09,5.63,1.5,1.4,3.01,2.77,4.59,4.1.29.27.6.53.92.76,1.43,1.02,2.97,1.93,4.53,2.79,1.12.62,2.53,1.41,3.8,1.26,1.44-.17,2.72-1.53,2.63-3.01-.06-.92-.86-1.63-1.55-2.25-1.44-1.3-2.83-2.57-4.43-3.7-.93-.64-1.88-1.27-2.86-1.86-2.93-1.77-5.94-3.45-8.94-5.12-2.83-1.57-5.29-3.78-7.11-6.44-.85-1.24-1.58-2.56-2.14-3.95-.07-.19-.15-.38-.22-.58-.06-.06-.13-.12-.2-.17-.03-.02.03-.05.05-.04.03.02.06.04.09.06-.19-.53-.36-1.08-.54-1.6-.09-.27-.2-.56-.31-.83-.8-2.22-1.64-4.46-2.58-6.59-1.89-4.3-4.29-8.34-8.02-11.18-3.58-2.74-8.64-3-12.92-1.45-4.89,1.78-8.14,5.9-9.23,10.71-.69,3.08-.18,6.57,1.26,9.5.28.44.58.86.87,1.28.47.68.98,1.3,1.53,1.88,1.22,1.06,2.56,1.99,3.97,2.78Z"/>
              <path class="cls-13" d="m52.7,57.06c.98.59,1.93,1.22,2.86,1.86.53.37,1.03.76,1.52,1.15-.23.47-.52.92-.79,1.32-.88,1.32-1.93,2.53-3.04,3.67-.1.1-.2.2-.3.31-.81-.49-1.61-1-2.37-1.55-.32-.23-.63-.49-.92-.76-1.57-1.33-3.09-2.7-4.59-4.1-2.01-1.88-3.92-3.92-6.09-5.63-.07-.05-.14-.1-.2-.16.54-1.17,1.24-2.31,2.16-3.12.89.7,1.83,1.33,2.82,1.87,3,1.67,6.01,3.35,8.94,5.12Z"/>
              <path class="cls-21" d="m44.68,52.46c-.74.51-1.36,1.25-1.86,1.96-.33.46-.66.97-.9,1.51-.49-.46-.98-.92-1.48-1.37.3-.62.67-1.21,1.08-1.77.38-.54.87-.95,1.33-1.39.3.19.6.37.91.54.31.17.62.35.93.52Z"/>
              <path class="cls-14" d="m45.97,53.18c.52.29,1.04.59,1.57.88-1.13,1.36-2.17,2.79-3.14,4.27-.45-.43-.9-.87-1.35-1.31.93-1.32,1.87-2.62,2.92-3.84Z"/>
              <path class="cls-20" d="m49.22,60.94c.98-1.4,2.09-2.73,2.97-4.2.17.1.34.21.51.31.29.17.57.35.86.53-.29.53-.69,1.01-1.08,1.46-.66.77-1.27,1.55-1.86,2.38-.37.51-.73,1.02-1.1,1.52-.35-.3-.7-.6-1.05-.9.25-.37.5-.73.75-1.09Z"/>
              <path class="cls-13" d="m49.66,63.07s-.01-.01-.02-.02c.45-.6.88-1.21,1.32-1.82.61-.85,1.29-1.63,1.95-2.44.29-.35.57-.72.8-1.12.63.4,1.26.82,1.87,1.24.53.37,1.03.76,1.52,1.15-.23.47-.52.92-.79,1.32-.88,1.32-1.93,2.53-3.04,3.67-.1.1-.2.2-.3.31-.81-.49-1.61-1-2.37-1.55-.32-.23-.63-.49-.92-.76Z"/>
              <path class="cls-14" d="m2.77,40.66h0c.04-.09.08-.18.12-.28.58-1.35,1.23-2.68,1.95-3.97,1.46-2.65,3.13-5.17,4.9-7.62,1.65-2.28,3.33-4.55,5.33-6.53,1.27-1.26,2.63-2.41,4.05-3.49,1.32.39,2.57,1,3.67,1.85,3.73,2.84,6.12,6.88,8.02,11.18.94,2.13,1.77,4.37,2.58,6.59.09.25.19.5.28.75-.95,3.82-3.54,7.21-6.81,9.53-1.07-.05-2.14-.07-3.21-.08-3.14-.27-6.28-.58-9.31-1.27-1.12-.26-2.26-.58-3.36-.95-.91-.31-1.79-.73-2.69-1.05-1.41-.79-2.75-1.72-3.97-2.78-.55-.57-1.06-1.19-1.53-1.88Z"/>
              <path class="cls-15" d="m24.23,21.85c-3.82,2.53-6.96,5.99-9.82,9.53-1.68,2.08-3.32,4.2-4.73,6.47-1.25,2.01-2.36,4.1-3.36,6.25-.7-.49-1.38-1.01-2.02-1.56-.55-.57-1.06-1.19-1.53-1.88h0c.04-.09.08-.18.12-.28.58-1.35,1.23-2.68,1.95-3.97,1.46-2.65,3.13-5.17,4.9-7.62,1.65-2.28,3.33-4.55,5.33-6.53,1.27-1.26,2.63-2.41,4.05-3.49,1.32.39,2.57,1,3.67,1.85.51.39.99.79,1.45,1.22Z"/>
              <path class="cls-17" d="m2.77,40.66c-.29-.42-.59-.84-.87-1.28-.21-.42-.4-.87-.57-1.31,0-.09,0-.17.01-.26,1.85-4.14,4.08-8.11,6.91-11.66,1.8-2.26,3.79-4.34,6.03-6.17.72-.59,1.46-1.14,2.2-1.7,2.28.2,4.47.95,6.29,2.34.23.18.46.36.68.55-4.06,3.14-7.61,6.82-10.71,10.92-1.77,2.34-3.46,4.76-4.95,7.3-.74,1.26-1.37,2.56-1.91,3.92-.05.13-.1.26-.15.39-.5-.37-.98-.75-1.45-1.16-.55-.57-1.06-1.19-1.53-1.88Z"/>
              <path class="cls-11" d="m15.97,28.08c-.91-2.4-1.74-4.83-2.73-7.19,0,0,0,0,0-.01,1-.09,1.99-.15,3-.17,1.35-.03,2.7,0,4.04.12,1.04.09,2.11.29,3.16.31.01.01.02.02.03.03-2.69,2.09-5.16,4.41-7.42,6.93-.03,0-.05-.01-.08-.02Z"/>
              <path class="cls-11" d="m10.95,34.49c-.52-.97-1.04-1.94-1.52-2.93-.46-.93-.83-1.87-1.19-2.84-.21-.56-.43-1.11-.7-1.64,0-.01.01-.02.02-.03,2.76.29,5.57.46,8.25,1.14.01.04.03.08.04.12-1.08,1.22-2.11,2.47-3.1,3.78-.6.79-1.19,1.6-1.76,2.41-.02,0-.03,0-.05,0Z"/>
              <path class="cls-11" d="m2.77,40.66s-.07-.1-.1-.15c1.34.28,2.68.57,3.98,1,0,0,.01.02.02.03-.27.58-.53,1.16-.77,1.76-.05.13-.1.26-.15.39-.5-.37-.98-.75-1.45-1.16-.55-.57-1.06-1.19-1.53-1.88Z"/>
              <path class="cls-11" d="m3.01,34.35s0-.02.01-.02c2.6,0,5.2.07,7.8.29.01.02.02.04.03.06-1.08,1.53-2.1,3.09-3.05,4.7-.38.64-.73,1.3-1.05,1.96-1.37-2.26-2.64-4.59-3.75-6.99Z"/>
              <path class="cls-14" d="m14.66,21.73c.55-.03,1.09-.06,1.64-.08,1.35-.04,2.7.02,4.04.13.69.06,1.39.11,2.07.23-2.04,1.66-3.94,3.46-5.72,5.39-.67-1.9-1.27-3.81-2.03-5.67Z"/>
              <path class="cls-14" d="m10.41,31.32c-.43-.94-.87-1.91-1.25-2.9.31.01.61.02.92.04,1.09.06,2.2.13,3.27.35.59.13,1.18.26,1.77.34-.82.95-1.61,1.93-2.37,2.94-.4.53-.79,1.06-1.18,1.6-.41-.78-.8-1.57-1.16-2.37Z"/>
              <path class="cls-14" d="m3.56,41.7c.94.11,1.88.25,2.74.65-.14.32-.27.63-.4.95-.05.13-.1.26-.15.39-.5-.37-.98-.75-1.45-1.16-.26-.27-.5-.55-.74-.84Z"/>
              <path class="cls-14" d="m5.24,37.42c-.41-.72-.8-1.46-1.11-2.23,2.08-.04,4.16-.06,6.21.24-.89,1.29-1.74,2.61-2.54,3.96-.25.42-.48.84-.7,1.26-.61-1.08-1.26-2.15-1.87-3.23Z"/>
              <path class="cls-20" d="m28.49,35.11c-2.34,4.6-5.82,8.66-9.7,12.04-.32.28-.64.55-.96.82-1.18-.17-2.35-.38-3.5-.64-1.12-.26-2.26-.58-3.36-.95-.22-.08-.44-.16-.65-.24,1.28-1.14,2.54-2.31,3.76-3.52,3.45-3.46,6.53-7.27,9.37-11.25,1.2-1.68,2.35-3.43,3.19-5.33.15-.33.28-.66.41-1,1.28,1.76,2.35,3.7,3.29,5.71-.5,1.5-1.12,2.96-1.84,4.37Z"/>
              <path class="cls-14" d="m25.08,40.49c-2.58-.52-5.18-.95-7.79-1.33,1.82-2.07,3.53-4.23,5.16-6.44.04,0,.07,0,.11,0,.63,1.55,1.07,3.19,1.59,4.78.32.98.66,1.95.97,2.92-.01.02-.03.04-.05.06Z"/>
              <path class="cls-14" d="m10.58,45.89c1.19-1.07,2.37-2.15,3.49-3.29,1.05-1.05,2.06-2.13,3.04-3.24.26.67.48,1.37.71,2.05.29.87.62,1.72.97,2.56.31.74.63,1.48.9,2.24-3.03-.16-6.07-.27-9.11-.33Z"/>
              <path class="cls-14" d="m22.64,32.46c.27-.37.53-.73.79-1.1,1.2-1.68,2.35-3.43,3.19-5.33.14-.32.27-.64.39-.96.29,1.05.53,2.11.79,3.16.29,1.17.67,2.32,1.04,3.48.17.52.34,1.04.5,1.56t0,0c-.72-.15-1.48-.19-2.21-.29-1.02-.13-2.05-.24-3.08-.31-.46-.03-.91-.06-1.36-.08-.02-.05-.04-.09-.06-.14Z"/>
              <path class="cls-17" d="m17.95,38.4c1.38-1.61,2.7-3.27,3.97-4.97.68,1.85,1.21,3.74,1.72,5.64-1.9-.21-3.8-.42-5.69-.67Z"/>
              <path class="cls-17" d="m16.28,45.08c-1.01-.09-2.01-.17-3.02-.17-.53,0-1.05,0-1.58-.02.81-.74,1.61-1.5,2.38-2.28.7-.7,1.38-1.41,2.04-2.14.5,1.61,1.08,3.2,1.75,4.75-.53-.05-1.05-.1-1.58-.14Z"/>
              <path class="cls-17" d="m26.76,31.73c-1.15-.1-2.3-.18-3.46-.18.05-.06.09-.12.14-.19,1.1-1.54,2.16-3.14,2.97-4.85.24,1.03.47,2.06.72,3.08.18.75.35,1.5.52,2.25-.3-.05-.59-.09-.89-.11Z"/>
              <path class="cls-14" d="m22.17,44.12c3.58-3.79,6.57-8.17,8.26-13.14.13.27.25.55.37.82.94,2.13,1.77,4.37,2.58,6.59.09.25.19.5.28.75-.95,3.82-3.54,7.21-6.81,9.53-1.07-.05-2.14-.07-3.21-.08-1.87-.16-3.75-.33-5.6-.6,1.45-1.21,2.84-2.51,4.13-3.88Z"/>
              <path class="cls-13" d="m30.99,32.25c-.12.31-.26.62-.38.93-.44,1.09-.93,2.16-1.48,3.19-1.11,2.1-2.42,4.12-3.92,5.97-1.42,1.75-3.02,3.3-4.66,4.83-.37.35-.74.69-1.12,1.02-.47-.06-.93-.12-1.4-.18,1.45-1.21,2.84-2.51,4.13-3.88,3.58-3.79,6.57-8.17,8.26-13.14.13.27.25.55.37.82.06.15.13.3.19.45Z"/>
              <path class="cls-13" d="m28.84,44.42c1.34-1.71,2.44-3.54,3.29-5.53.26-.6.52-1.21.76-1.83.16.45.33.9.49,1.34.09.25.19.5.28.75-.95,3.82-3.54,7.21-6.81,9.53-.67-.03-1.34-.05-2.01-.06,1.48-1.26,2.82-2.69,4.01-4.2Z"/>
              <path class="cls-13" d="m22.02,27.9c.9.54,2.07.25,2.61-.66.54-.9.24-2.07-.66-2.61-.9-.54-2.07-.24-2.61.66-.54.9-.24,2.07.66,2.61Z"/>
              <path class="cls-9" d="m22.39,27.19c.57.34,1.31.15,1.65-.42.34-.57.16-1.31-.41-1.65-.57-.34-1.31-.15-1.65.42-.34.57-.16,1.31.42,1.65Z"/>
              <path class="cls-13" d="m14.99,35.62c1.01.6,2.32.27,2.92-.74.6-1.01.27-2.31-.74-2.92-1.01-.6-2.32-.27-2.92.73-.6,1.01-.27,2.32.74,2.92Z"/>
              <path class="cls-9" d="m15.41,35c.65.39,1.5.18,1.89-.47.39-.65.18-1.5-.47-1.89-.66-.39-1.5-.18-1.89.47-.39.65-.18,1.5.47,1.89Z"/>
              <path class="cls-13" d="m9.42,43.96c.91.55,2.1.25,2.64-.67.55-.91.25-2.09-.66-2.64-.91-.55-2.1-.25-2.64.66-.55.91-.25,2.1.67,2.64Z"/>
              <path class="cls-9" d="m9.63,43.47c.64.39,1.47.17,1.85-.46.38-.64.17-1.47-.47-1.85-.64-.38-1.47-.17-1.85.46-.38.64-.17,1.47.47,1.85Z"/>
            </g>
          </g>
          <path class="cls-16" d="m12.52,47.75c2.43.69,4.8,1.13,7.28,1.26,1.32.07,2.7.05,4.05.07,1.26.11,2.51.21,3.75.34.53.05,1.06.12,1.58.18.19.02.38.05.57.08.23.04.48.07.71.11.81.2,1.61.45,2.38.78.14.06.27.12.41.19.94.3,1.84.74,2.7,1.22,1.63.92,3.16,2.03,4.58,3.25,1.57,1.35,3,2.86,4.43,4.35.96,1,1.96,1.97,2.93,2.96,1.14.93,2.34,1.8,3.56,2.6,1.13.74,2.33,1.44,3.57,2.02,1.06.5,2.25,1.24,3.41,1.35,2.33.21,4.61-2.63,3.31-4.8-.23-.38-.61-.74-.93-1.05-.41-.46-.83-.91-1.25-1.36-.2-.18-.4-.36-.61-.53-.46-.44-.93-.86-1.41-1.28-.33-.28-.67-.56-1.01-.83-1.65-1.15-3.33-2.26-5.1-3.22-2.19-1.19-4.46-2.24-6.64-3.46-2.05-1.14-4.06-2.44-5.68-4.14-1.1-1.16-2.01-2.48-2.8-3.87-1.51-2.51-2.2-4.87-2.23-4.93-2.75-7.68-5.94-17.91-14.66-20.61C11.28,15.9,1.38,21.62.21,29.95c-.32,2.24-.31,4.5.28,6.76.28,1.53.98,2.94,1.79,4.23.61.98,1.29,1.88,2.08,2.65.21.27.47.49.76.69.17.14.35.29.53.41,2.12,1.46,4.3,2.38,6.86,3.05Zm31.07,8.31c-.82-.71-4.77-4.6-4.77-5.42,0-.57.86-.23,1.26,0,1.08.58,2.09,1.29,3.17,1.87,1.29.7,2.61,1.32,3.94,1.93,2.03.93,3.99,2.07,5.9,3.23,1.27.77,2.52,1.59,3.71,2.47,1.02.76,2.04,1.58,2.84,2.57.46.56.98,1.35.75,2.11-.34,1.13-1.69,1.02-2.59.78-1.42-.37-2.77-1.11-4.08-1.76-2.3-1.15-3.79-2.19-5.71-3.91-1.92-1.73-2.48-2.18-4.42-3.87ZM3.6,32.63c-.81-1.83-1.25-3.93-.83-5.91.47-2.21,2.05-4.09,3.81-5.42,3.53-2.67,8.47-3.16,12.6-1.8,4.27,1.4,7.46,4.84,9.73,8.59,1.26,2.09,2.3,4.4,2.96,6.81.03.09.07.19.1.29.61,1.96,1.05,4.18.77,6.24-.21,1.52-1.07,2.77-2.43,3.48-1.42.74-3.13.82-4.7.74-1.69-.09-3.36-.42-4.99-.87-2.58-.7-5.13-1.56-7.53-2.73-4.1-1.99-7.61-5.2-9.48-9.41Z"/>
          <path class="cls-16" d="m5.65,44.7c-.18-.12-.36-.27-.53-.41-.29-.2-.56-.42-.76-.69-.79-.78-1.47-1.68-2.08-2.65-.81-1.29-1.52-2.71-1.79-4.23-.57-2.19-.6-4.38-.31-6.54.02,1.28.23,2.55.65,3.77.75,2.15,2.01,4.09,3.57,5.74,3.55,3.76,8.5,5.82,13.47,6.97,2.57.6,5.19.98,7.81,1.18,1.17.09,2.37.22,3.54.06.39-.05.77-.13,1.14-.24,1.01-.18,1.98-.53,2.77-1.15,1.57-1.22,1.96-3.23,1.83-5.13.34.77.78,1.67,1.34,2.59.68,1.21,1.46,2.36,2.37,3.4-.38-.11-.77-.19-1.16-.2-.93-.02-1.87.54-1.65,1.6.27,1.26,1.38,2.34,2.26,3.21.99.98,2.07,1.87,3.06,2.86,1.58,1.59,3.1,3.23,4.71,4.8,1.67,1.63,3.42,3.22,5.37,4.52,1.79,1.2,3.79,2.22,5.94,2.54,1.12.17,3.09.42,3.93-.63.64-.81.24-1.96-.17-2.78-.24-.48-.52-.94-.83-1.38.23.25.46.5.68.75.31.31.7.67.93,1.05,1.3,2.18-.98,5.01-3.31,4.8-1.16-.1-2.34-.85-3.41-1.35-1.24-.58-2.44-1.28-3.57-2.02-1.22-.8-2.41-1.67-3.56-2.6-.97-1-1.97-1.96-2.93-2.96-1.43-1.5-2.87-3-4.43-4.35-1.42-1.22-2.94-2.34-4.58-3.25-.86-.49-1.76-.92-2.7-1.22-.14-.06-.27-.13-.41-.19-.77-.33-1.57-.58-2.38-.78-.24-.04-.48-.07-.71-.11-.19-.03-.38-.05-.57-.08-.52-.06-1.05-.13-1.58-.18-1.24-.13-2.5-.23-3.75-.34-1.35-.02-2.72,0-4.05-.07-2.48-.13-4.85-.57-7.28-1.26-2.56-.67-4.75-1.58-6.86-3.05Z"/>
          <path class="cls-10" d="m5.76,23.01c1.88-1.45,4-2.48,6.3-3.06,2.65-.67,5.35-.41,7.83.73,2.81,1.29,5.4,3.41,7.1,6.01,1.61,2.44,2.47,5.15,3.15,7.96.07.26-.46.42-.59.21-1.4-2.26-2.79-4.49-4.78-6.28-2.13-1.92-4.37-3.71-6.87-5.12-1.76-1-3.69-1.62-5.7-1.77-2.14-.16-4.34.63-6.24,1.52-.15.07-.4-.05-.2-.2Z"/>
          <path class="cls-10" d="m30.77,38.43c-.19-.42-.23-.92-.33-1.38-.05-.21.37-.34.48-.17.25.4.62.85.66,1.34.03.39-.65.56-.81.21Z"/>
          <path class="cls-10" d="m57.88,62.83c-.84-.76-1.74-1.44-2.66-2.1-1.78-1.26-3.68-2.35-5.58-3.42-1.9-1.07-3.84-2.06-5.72-3.18-1.55-.91-3.17-1.87-4.39-3.21-.1-.11.18-.22.26-.15.81.59,1.71,1.02,2.63,1.41.94.41,1.81.91,2.7,1.41,1.92,1.07,3.88,2.05,5.78,3.13,1.89,1.07,3.77,2.19,5.54,3.46.87.62,1.73,1.29,2.5,2.03.75.72,1.55,1.45,2,2.41.15.32-.54.46-.72.33-.86-.6-1.56-1.43-2.34-2.13Z"/>
          <path class="cls-3" d="m60.67,65.32c-1.29.84-3.06.46-4.37-.1-1.59-.68-3.07-1.65-4.52-2.59-2.46-1.59-4.8-3.34-7.07-5.18-1.03-.83-2.04-1.68-3-2.59-.93-.89-1.91-1.83-2.62-2.91-.12-.17-.3-.44-.46-.72-.02-.08-.04-.16-.05-.24-.1-.71.16-1.13.59-1.36.3-.02.62.02.85.05.19.03.37.06.55.09.99.81,2.06,1.54,3.18,2.17,3,1.67,6.01,3.35,8.94,5.12.98.59,1.93,1.22,2.86,1.86,1.6,1.13,2.99,2.4,4.43,3.7.57.52,1.21,1.09,1.45,1.79-.17.36-.42.68-.78.91Z"/>
          <path class="cls-7" d="m39.61,49.47c.17-.04.34-.06.52-.07.06.06.13.11.2.17-.22-.04-.47-.08-.72-.1Z"/>
          <path class="cls-1" d="m33.19,37.88c.05.14.1.28.15.41,0,.59-.05,1.18-.17,1.77.09-.72.09-1.46.02-2.18Z"/>
          <path class="cls-2" d="m32.83,36.9c.09,2.19-.33,4.5-2.19,5.88-1.84,1.36-4.33,1.63-6.56,1.51-2.18-.12-4.32-.63-6.36-1.39-4.08-1.53-7.94-3.99-10.96-7.14-1.35-1.41-2.42-2.97-2.96-4.87-.5-1.77-.61-3.67-.23-5.47.21-1,.55-1.97,1.03-2.87,1.44-1.46,3.21-2.63,5.28-3.38,4.27-1.55,9.33-1.29,12.92,1.45,3.73,2.84,6.12,6.88,8.02,11.18.73,1.65,1.39,3.38,2.03,5.1Z"/>
        </g>
        <g>
          <g>
            <path class="cls-12" d="m26.25,22.47c-.12-.18-.23-.38-.34-.58-.2-.29-.36-.6-.45-.93-.45-1.02-.74-2.1-.95-3.23-.27-1.5-.41-3.08-.1-4.6.29-2.32,1.12-4.43,2.24-6.39,4.18-7.3,15.49-8.95,22.12-3.59,7.1,5.74,6.28,16.42,5.99,24.57,0,.07-.23,2.52.24,5.4.21,1.58.57,3.15,1.16,4.63.87,2.19,2.27,4.14,3.75,5.96,1.57,1.94,3.29,3.76,4.88,5.67,1.29,1.54,2.44,3.2,3.54,4.88.22.38.43.76.63,1.14.29.56.57,1.13.83,1.71.13.24.25.48.37.72.22.58.44,1.15.66,1.73.18.4.4.88.47,1.32.4,2.5-2.77,4.29-4.86,3.23-1.03-.53-1.86-1.66-2.66-2.51-.93-1-1.79-2.09-2.57-3.2-.84-1.19-1.62-2.45-2.34-3.73-.53-1.28-1.11-2.55-1.63-3.84-.78-1.92-1.55-3.85-2.51-5.69-.86-1.66-1.87-3.26-3.05-4.72-.62-.77-1.3-1.51-2.06-2.14-.1-.11-.21-.22-.31-.32-.59-.59-1.24-1.12-1.92-1.6-.2-.12-.42-.24-.62-.36-.16-.1-.33-.19-.5-.28-.46-.25-.93-.51-1.4-.76-1.11-.58-2.23-1.14-3.36-1.7-1.25-.51-2.53-1.01-3.73-1.56-2.25-1.04-4.3-2.33-6.3-3.87-2.13-1.57-3.82-3.23-5.25-5.37Z"/>
            <g>
              <path class="cls-19" d="m28.45,24.01c.72.64,1.38,1.34,2.11,1.97.88.76,1.82,1.48,2.77,2.13,2.56,1.77,5.36,3.22,8.18,4.63,1.32.54,2.63,1.1,3.92,1.71.41.28.82.57,1.22.86.09.05.18.1.27.15,1.16.67,2.21,1.49,3.15,2.44.12.12.24.25.36.38.09.06.18.13.25.2.39.37.76.77,1.12,1.17.87.97,1.55,2.07,2.2,3.18,1.39,2.39,2.4,4.99,3.57,7.48.87,1.86,1.77,3.69,2.74,5.51.17.36.36.72.57,1.05.94,1.48,2.04,2.89,3.17,4.27.81.99,1.83,2.25,3.07,2.58,1.41.38,3.1-.42,3.56-1.83.28-.87-.19-1.83-.6-2.67-.85-1.74-1.68-3.43-2.74-5.08-.63-.94-1.28-1.88-1.97-2.79-2.07-2.73-4.24-5.4-6.41-8.06-2.05-2.51-3.51-5.47-4.22-8.62-.33-1.46-.52-2.96-.53-4.46,0-.21,0-.41,0-.62-.03-.08-.07-.15-.12-.23-.02-.03.05-.04.07-.02.02.03.04.06.06.09.02-.56.07-1.13.09-1.69.01-.29.02-.59.02-.89.07-2.36.13-4.75.05-7.08-.17-4.69-.9-9.33-3.31-13.35-2.31-3.87-6.91-5.99-11.46-6.13-5.2-.16-9.75,2.47-12.54,6.53-1.78,2.6-2.6,6.04-2.35,9.29.1.51.22,1.02.33,1.51.18.81.42,1.57.72,2.31.74,1.44,1.64,2.8,2.66,4.06Z"/>
              <path class="cls-13" d="m65.38,51.37c.69.91,1.35,1.85,1.97,2.79.35.54.67,1.09.98,1.63-.39.35-.82.66-1.22.94-1.31.9-2.73,1.64-4.18,2.29-.13.06-.26.12-.4.17-.57-.76-1.12-1.52-1.63-2.31-.21-.33-.4-.69-.57-1.05-.97-1.81-1.87-3.65-2.74-5.51-1.17-2.5-2.19-5.09-3.57-7.48-.04-.07-.09-.15-.13-.22.94-.89,2.01-1.69,3.16-2.09.57.98,1.21,1.91,1.93,2.79,2.17,2.66,4.34,5.34,6.41,8.06Z"/>
              <path class="cls-21" d="m59.64,44.13c-.88.2-1.73.66-2.45,1.13-.47.31-.97.66-1.4,1.07-.28-.61-.57-1.22-.87-1.82.51-.47,1.07-.87,1.66-1.24.55-.35,1.16-.56,1.75-.8.21.28.42.56.65.84.22.27.44.55.67.82Z"/>
              <path class="cls-14" d="m60.57,45.27c.38.46.75.93,1.13,1.4-1.55.85-3.05,1.79-4.5,2.81-.26-.57-.51-1.15-.77-1.72,1.35-.88,2.71-1.74,4.14-2.48Z"/>
              <path class="cls-20" d="m60.7,53.69c1.43-.94,2.95-1.76,4.31-2.8.12.16.24.32.36.48.2.27.4.54.6.81-.47.38-1.02.68-1.54.95-.9.47-1.76.97-2.61,1.52-.53.34-1.05.68-1.59,1.01-.22-.41-.43-.82-.64-1.23.37-.24.74-.5,1.1-.74Z"/>
              <path class="cls-13" d="m60.33,55.82s0-.02-.01-.03c.64-.39,1.27-.8,1.89-1.2.88-.56,1.8-1.03,2.71-1.54.4-.22.8-.46,1.16-.74.44.61.86,1.23,1.28,1.85.35.54.67,1.09.98,1.63-.39.35-.82.66-1.22.94-1.31.9-2.73,1.64-4.18,2.29-.13.06-.26.12-.4.17-.57-.76-1.12-1.52-1.63-2.31-.21-.33-.4-.69-.57-1.05Z"/>
              <path class="cls-14" d="m25.08,17.65h0c.07-.07.14-.14.21-.22,1.04-1.04,2.14-2.03,3.28-2.97,2.33-1.92,4.82-3.65,7.37-5.26,2.38-1.5,4.77-2.99,7.37-4.09,1.65-.7,3.34-1.26,5.06-1.75,1.08.85,2.01,1.88,2.73,3.07,2.41,4.02,3.14,8.66,3.31,13.35.08,2.33.03,4.72-.05,7.08,0,.26-.01.54-.02.8-2.3,3.2-5.96,5.38-9.86,6.33-.97-.44-1.96-.86-2.95-1.26-2.82-1.41-5.62-2.86-8.18-4.63-.94-.65-1.88-1.37-2.77-2.13-.73-.63-1.39-1.34-2.11-1.97-1.02-1.26-1.91-2.62-2.66-4.06-.3-.74-.54-1.5-.72-2.31Z"/>
              <path class="cls-15" d="m51.98,8.12c-4.48.94-8.68,2.98-12.65,5.22-2.33,1.31-4.64,2.67-6.8,4.26-1.91,1.41-3.71,2.94-5.44,4.56-.47-.71-.9-1.44-1.3-2.2-.3-.74-.54-1.5-.72-2.31h0c.07-.07.14-.14.21-.22,1.04-1.04,2.14-2.03,3.28-2.97,2.33-1.92,4.82-3.65,7.37-5.26,2.38-1.5,4.77-2.99,7.37-4.09,1.65-.7,3.34-1.26,5.06-1.75,1.08.85,2.01,1.88,2.73,3.07.33.55.62,1.1.89,1.67Z"/>
              <path class="cls-17" d="m25.08,17.65c-.11-.49-.23-1-.33-1.51-.04-.47-.05-.95-.04-1.43.04-.08.07-.16.11-.23,3.26-3.16,6.79-6.02,10.74-8.27,2.51-1.43,5.13-2.63,7.89-3.49.89-.28,1.78-.52,2.68-.76,2.04,1.03,3.8,2.54,4.98,4.5.15.25.3.51.43.76-4.93,1.42-9.59,3.52-13.99,6.17-2.52,1.52-4.98,3.14-7.3,4.95-1.16.9-2.22,1.87-3.22,2.93-.1.1-.19.2-.29.3-.33-.53-.63-1.06-.92-1.61-.3-.74-.54-1.5-.72-2.31Z"/>
              <path class="cls-11" d="m41.99,10.85c.04-2.57.17-5.13.13-7.69,0,0,0,0,.01,0,.96.28,1.91.6,2.85.95,1.26.47,2.5,1,3.71,1.61.93.47,1.85,1.05,2.82,1.46,0,.01.01.03.02.04-3.27.94-6.43,2.18-9.46,3.69-.02-.02-.05-.03-.07-.05Z"/>
              <path class="cls-11" d="m34.95,14.94c-.12-1.09-.24-2.19-.33-3.29-.08-1.04-.08-2.05-.06-3.08.02-.6.01-1.19-.04-1.78,0,0,.02-.01.03-.02,2.46,1.29,5,2.49,7.24,4.12,0,.04,0,.08,0,.12-1.45.73-2.88,1.52-4.28,2.36-.85.52-1.7,1.04-2.53,1.59-.01,0-.03-.01-.04-.02Z"/>
              <path class="cls-11" d="m25.08,17.65c-.02-.06-.03-.12-.04-.18,1.14.76,2.28,1.52,3.32,2.4,0,.01,0,.02,0,.04-.47.43-.92.89-1.37,1.35-.1.1-.19.2-.29.3-.33-.53-.63-1.06-.92-1.61-.3-.74-.54-1.5-.72-2.31Z"/>
              <path class="cls-11" d="m27.63,11.88s.01-.01.02-.02c2.41.97,4.81,1.99,7.13,3.16,0,.03,0,.05,0,.07-1.56,1.02-3.09,2.09-4.57,3.23-.59.46-1.16.93-1.7,1.43-.44-2.61-.75-5.24-.89-7.89Z"/>
              <path class="cls-14" d="m43.13,4.46c.52.17,1.04.35,1.55.54,1.26.46,2.5,1.02,3.71,1.62.62.31,1.25.62,1.84.98-2.51.79-4.94,1.75-7.31,2.88.08-2.01.23-4.01.22-6.02Z"/>
              <path class="cls-14" d="m35.63,11.8c-.05-1.04-.1-2.1-.08-3.16.28.12.56.25.84.38.99.46,1.99.93,2.91,1.54.5.33,1,.68,1.52.97-1.11.58-2.21,1.2-3.29,1.85-.57.34-1.13.69-1.69,1.05-.09-.88-.16-1.76-.2-2.63Z"/>
              <path class="cls-14" d="m25.42,18.9c.84.45,1.65.93,2.3,1.62-.24.24-.48.48-.72.74-.1.1-.19.2-.29.3-.33-.53-.63-1.06-.92-1.61-.14-.34-.27-.7-.38-1.05Z"/>
              <path class="cls-14" d="m28.57,15.55c-.11-.82-.21-1.65-.21-2.48,1.95.73,3.88,1.48,5.68,2.52-1.3.87-2.58,1.78-3.82,2.74-.38.3-.75.6-1.12.91-.17-1.23-.37-2.46-.54-3.69Z"/>
              <path class="cls-20" d="m51.01,22.02c-3.88,3.41-8.62,5.89-13.47,7.59-.4.14-.79.27-1.2.4-1.03-.6-2.04-1.22-3.01-1.89-.94-.65-1.88-1.37-2.77-2.13-.18-.15-.35-.31-.52-.47,1.61-.59,3.22-1.2,4.79-1.88,4.49-1.94,8.76-4.33,12.87-6.98,1.74-1.12,3.46-2.32,4.94-3.77.26-.25.51-.51.75-.77.54,2.11.81,4.31.94,6.52-1.02,1.21-2.13,2.33-3.32,3.37Z"/>
              <path class="cls-14" d="m45.85,25.75c-2.21-1.44-4.46-2.8-6.74-4.12,2.45-1.24,4.84-2.62,7.18-4.07.03.02.07.03.1.04.01,1.68-.19,3.36-.29,5.03-.06,1.03-.11,2.05-.18,3.08-.02.01-.04.03-.07.04Z"/>
              <path class="cls-14" d="m30.38,25.4c1.5-.55,2.99-1.13,4.46-1.76,1.36-.59,2.7-1.22,4.02-1.88,0,.72-.06,1.45-.1,2.17-.05.91-.06,1.82-.05,2.74.01.8.03,1.61,0,2.42-2.76-1.27-5.54-2.5-8.34-3.69Z"/>
              <path class="cls-14" d="m46.57,17.38c.38-.24.77-.48,1.14-.72,1.74-1.12,3.46-2.32,4.94-3.77.25-.24.49-.49.72-.75-.12,1.08-.29,2.16-.44,3.23-.16,1.2-.24,2.41-.32,3.61-.04.54-.07,1.09-.11,1.64t0,0c-.62-.41-1.3-.72-1.95-1.08-.9-.5-1.81-.98-2.74-1.43-.41-.2-.82-.39-1.24-.58,0-.05,0-.1,0-.15Z"/>
              <path class="cls-17" d="m40.01,21.17c1.88-.98,3.72-2.04,5.53-3.15-.05,1.97-.26,3.92-.49,5.88-1.69-.9-3.37-1.8-5.04-2.73Z"/>
              <path class="cls-17" d="m35.99,26.75c-.9-.45-1.8-.9-2.74-1.28-.49-.2-.98-.39-1.46-.61,1.03-.39,2.05-.8,3.06-1.23.9-.39,1.8-.8,2.69-1.23-.13,1.68-.18,3.37-.13,5.06-.47-.24-.94-.48-1.42-.72Z"/>
              <path class="cls-17" d="m50.66,18.23c-1.03-.52-2.07-1.02-3.14-1.45.07-.04.13-.08.2-.12,1.59-1.02,3.16-2.12,4.56-3.41-.16,1.04-.32,2.09-.47,3.13-.11.76-.23,1.52-.36,2.28-.26-.15-.52-.3-.78-.43Z"/>
              <path class="cls-14" d="m41.81,28.04c4.73-2.2,9.13-5.16,12.54-9.15.02.3.03.6.04.9.08,2.33.03,4.72-.05,7.08,0,.26-.01.54-.02.8-2.3,3.2-5.96,5.38-9.86,6.33-.97-.44-1.96-.86-2.95-1.26-1.68-.84-3.36-1.7-4.98-2.63,1.8-.59,3.57-1.28,5.27-2.07Z"/>
              <path class="cls-13" d="m54.4,20.28c-.23.24-.47.48-.7.72-.81.85-1.66,1.66-2.55,2.42-1.81,1.54-3.77,2.93-5.85,4.09-1.96,1.1-4.03,1.95-6.12,2.76-.47.18-.94.36-1.42.53-.41-.22-.82-.45-1.23-.69,1.8-.59,3.57-1.28,5.27-2.07,4.73-2.2,9.13-5.16,12.54-9.15.02.3.03.6.04.9,0,.16,0,.32.01.48Z"/>
              <path class="cls-13" d="m47.9,30.79c1.88-1.09,3.57-2.38,5.11-3.92.46-.46.93-.93,1.38-1.42-.01.48-.03.95-.04,1.43,0,.26-.01.54-.02.8-2.3,3.2-5.96,5.38-9.86,6.33-.61-.28-1.22-.54-1.84-.8,1.84-.62,3.62-1.46,5.28-2.42Z"/>
              <path class="cls-13" d="m47.68,12.92c.64.84,1.83,1,2.67.36.83-.64.99-1.83.36-2.67-.64-.84-1.83-.99-2.67-.36-.83.64-.99,1.83-.35,2.67Z"/>
              <path class="cls-9" d="m48.28,12.39c.4.53,1.16.63,1.68.22.53-.4.63-1.16.23-1.69-.4-.53-1.16-.63-1.69-.22-.53.4-.63,1.16-.22,1.68Z"/>
              <path class="cls-13" d="m38.28,17.49c.71.93,2.05,1.11,2.98.4.93-.71,1.11-2.05.4-2.98-.71-.93-2.05-1.11-2.98-.4-.93.71-1.11,2.05-.4,2.98Z"/>
              <path class="cls-9" d="m38.91,17.07c.46.61,1.33.72,1.93.26.6-.46.72-1.33.26-1.93-.46-.61-1.33-.72-1.93-.26-.61.46-.72,1.33-.26,1.93Z"/>
              <path class="cls-13" d="m30.03,23.17c.65.85,1.86,1.01,2.7.36.84-.65,1.01-1.85.36-2.7-.65-.85-1.86-1.01-2.7-.36-.85.65-1.01,1.86-.36,2.7Z"/>
              <path class="cls-9" d="m30.4,22.79c.45.59,1.3.71,1.89.25.59-.46.71-1.3.25-1.89-.45-.6-1.3-.71-1.89-.26-.59.45-.71,1.3-.25,1.89Z"/>
            </g>
          </g>
          <path class="cls-16" d="m31.5,27.84c2,1.54,4.05,2.83,6.3,3.87,1.2.56,2.49,1.05,3.73,1.56,1.13.56,2.25,1.13,3.36,1.7.47.24.94.51,1.4.76.17.09.34.19.5.28.2.12.42.24.62.36.68.49,1.33,1.01,1.92,1.6.11.11.21.21.31.32.76.63,1.44,1.37,2.06,2.14,1.18,1.46,2.18,3.06,3.05,4.72.96,1.84,1.73,3.77,2.51,5.69.52,1.28,1.1,2.55,1.63,3.84.72,1.28,1.5,2.54,2.34,3.73.78,1.1,1.64,2.2,2.57,3.2.8.86,1.63,1.99,2.66,2.51,2.09,1.06,5.25-.73,4.86-3.23-.07-.44-.29-.92-.47-1.32-.21-.58-.44-1.15-.66-1.73-.12-.24-.24-.48-.37-.72-.26-.58-.54-1.15-.83-1.71-.2-.38-.41-.77-.63-1.14-1.11-1.68-2.26-3.34-3.54-4.88-1.6-1.92-3.31-3.74-4.88-5.67-1.48-1.82-2.87-3.77-3.75-5.96-.59-1.48-.95-3.05-1.16-4.63-.47-2.89-.24-5.34-.24-5.4.29-8.15,1.11-18.83-5.99-24.57-6.63-5.36-17.94-3.71-22.12,3.59-1.12,1.96-1.95,4.06-2.24,6.39-.31,1.52-.18,3.1.1,4.6.2,1.13.5,2.22.95,3.23.09.33.25.63.45.93.11.19.22.4.34.58,1.42,2.14,3.12,3.81,5.25,5.37Zm25.78,19.23c-.5-.96-2.73-6.04-2.42-6.81.21-.53.88.11,1.17.46.79.94,1.47,1.97,2.25,2.91.94,1.12,1.94,2.2,2.95,3.26,1.54,1.62,2.94,3.4,4.28,5.18.89,1.19,1.75,2.41,2.53,3.67.67,1.08,1.31,2.22,1.69,3.44.22.69.41,1.62-.09,2.24-.74.92-1.95.33-2.7-.23-1.18-.87-2.16-2.05-3.14-3.14-1.71-1.92-2.71-3.44-3.85-5.75-1.14-2.31-1.49-2.94-2.68-5.23ZM28.81,10.49c-.07-2,.29-4.11,1.42-5.8,1.25-1.88,3.42-3.04,5.54-3.62,4.27-1.17,9.04.2,12.38,3,3.45,2.88,5.14,7.25,5.85,11.58.4,2.41.51,4.94.23,7.42,0,.1,0,.2-.02.3-.16,2.05-.58,4.27-1.6,6.08-.76,1.34-2.02,2.18-3.54,2.33-1.59.16-3.21-.4-4.64-1.06-1.53-.71-2.97-1.64-4.31-2.66-2.13-1.61-4.19-3.35-5.99-5.32-3.07-3.37-5.15-7.65-5.32-12.25Z"/>
          <path class="cls-16" d="m26.25,22.47c-.12-.18-.23-.38-.34-.58-.2-.29-.36-.6-.45-.93-.45-1.02-.74-2.1-.95-3.23-.27-1.5-.41-3.08-.1-4.6.28-2.25,1.07-4.29,2.13-6.19-.45,1.2-.73,2.45-.79,3.74-.1,2.27.35,4.55,1.19,6.66,1.91,4.81,5.74,8.55,9.93,11.46,2.16,1.51,4.45,2.83,6.82,3.99,1.05.52,2.12,1.08,3.27,1.37.38.1.77.16,1.15.2,1.01.2,2.03.24,3-.04,1.91-.55,3.02-2.28,3.61-4.09.03.85.11,1.84.28,2.9.18,1.38.48,2.74.94,4.04-.31-.25-.65-.46-1.01-.61-.86-.37-1.94-.19-2.12.87-.22,1.27.41,2.68.91,3.82.56,1.28,1.23,2.51,1.78,3.79.88,2.06,1.69,4.15,2.59,6.2.95,2.14,1.99,4.26,3.31,6.19,1.22,1.78,2.7,3.47,4.58,4.56.98.57,2.72,1.54,3.88.87.9-.51.95-1.73.87-2.64-.05-.53-.14-1.06-.26-1.59.12.32.24.63.36.95.18.4.4.88.47,1.32.4,2.5-2.77,4.29-4.86,3.23-1.03-.53-1.86-1.66-2.66-2.51-.93-1-1.79-2.09-2.57-3.2-.84-1.19-1.62-2.45-2.34-3.73-.53-1.28-1.11-2.55-1.63-3.84-.78-1.92-1.55-3.85-2.51-5.69-.86-1.66-1.87-3.26-3.05-4.72-.62-.77-1.3-1.51-2.06-2.14-.1-.11-.21-.22-.31-.32-.59-.59-1.24-1.12-1.92-1.6-.2-.12-.42-.24-.62-.36-.16-.1-.33-.19-.5-.28-.46-.25-.93-.51-1.4-.76-1.11-.58-2.23-1.14-3.36-1.7-1.25-.51-2.53-1.01-3.73-1.56-2.25-1.04-4.3-2.33-6.3-3.87-2.13-1.57-3.82-3.23-5.25-5.37Z"/>
          <path class="cls-10" d="m34.38,2.36c2.29-.65,4.63-.82,6.99-.51,2.71.36,5.12,1.6,7,3.58,2.14,2.24,3.75,5.17,4.37,8.21.59,2.86.39,5.7-.02,8.56-.04.27-.59.22-.63-.02-.46-2.61-.93-5.2-2.11-7.6-1.26-2.57-2.68-5.06-4.48-7.3-1.26-1.58-2.83-2.87-4.64-3.75-1.93-.94-4.26-1.02-6.36-.9-.16.01-.35-.19-.12-.26Z"/>
          <path class="cls-10" d="m51.91,25.95c-.02-.46.13-.94.21-1.4.04-.22.47-.18.51.02.09.47.26,1.02.11,1.49-.11.37-.81.28-.83-.11Z"/>
          <path class="cls-10" d="m68.05,58.65c-.5-1.01-1.08-1.98-1.7-2.93-1.19-1.83-2.55-3.55-3.92-5.24-1.37-1.7-2.81-3.34-4.14-5.07-1.1-1.42-2.26-2.91-2.89-4.61-.05-.15.24-.14.3-.04.53.85,1.21,1.58,1.92,2.28.72.73,1.34,1.51,1.99,2.31,1.38,1.7,2.84,3.34,4.21,5.05,1.36,1.7,2.68,3.43,3.87,5.26.58.9,1.13,1.83,1.57,2.82.43.95.9,1.92.96,2.98.02.36-.67.23-.79.04-.58-.88-.92-1.9-1.39-2.84Z"/>
          <path class="cls-5" d="m69.72,61.99c-1.51.3-3.01-.7-4.02-1.72-1.22-1.22-2.24-2.67-3.24-4.08-1.7-2.39-3.22-4.88-4.65-7.43-.65-1.15-1.27-2.31-1.82-3.51-.54-1.17-1.09-2.41-1.36-3.67-.04-.2-.12-.52-.16-.84.01-.08.02-.16.04-.24.17-.7.57-.99,1.05-1.04.29.09.57.25.77.36.16.09.32.19.48.29.62,1.12,1.34,2.19,2.16,3.19,2.17,2.66,4.34,5.34,6.41,8.06.69.91,1.35,1.85,1.97,2.79,1.07,1.65,1.89,3.33,2.74,5.08.34.69.72,1.46.69,2.2-.29.27-.64.47-1.06.56Z"/>
          <path class="cls-8" d="m56.03,39.47c.17.03.34.07.51.13.04.08.08.15.12.23-.19-.12-.41-.25-.63-.36Z"/>
          <path class="cls-4" d="m54.36,26.33c0,.15,0,.29-.01.44-.22.55-.49,1.08-.82,1.58.35-.64.62-1.32.83-2.02Z"/>
          <path class="cls-6" d="m54.39,25.29c-.73,2.06-1.97,4.06-4.21,4.65-2.21.58-4.63-.09-6.65-1.03-1.98-.91-3.78-2.18-5.4-3.65-3.22-2.93-5.89-6.64-7.54-10.69-.74-1.81-1.15-3.66-.94-5.62.19-1.83.8-3.63,1.81-5.17.56-.85,1.24-1.63,2.02-2.29,1.88-.82,3.96-1.25,6.15-1.18,4.55.14,9.15,2.26,11.46,6.13,2.41,4.02,3.14,8.66,3.31,13.35.06,1.81.04,3.65,0,5.49Z"/>
        </g>
      </g>
    </g>
  </g>
</svg>