<?xml version="1.0" encoding="UTF-8"?>
<svg xmlns="http://www.w3.org/2000/svg" viewBox="0 0 77.76 124.96">
  <defs>
    <style>
      .cls-1 {
        fill: #f4cc26;
      }

      .cls-2 {
        fill: #f4b38c;
      }

      .cls-3 {
        fill: #f8b232;
      }

      .cls-4 {
        fill: #f3a57b;
      }

      .cls-5 {
        fill: #e6e7e8;
      }

      .cls-6 {
        fill: #f6b753;
      }

      .cls-7 {
        fill: #efcc23;
      }

      .cls-8 {
        fill: #f1f2f2;
      }

      .cls-9 {
        fill: #efc687;
      }

      .cls-10 {
        fill: #b65d27;
      }

      .cls-11 {
        fill: #8e1c22;
      }

      .cls-12 {
        fill: #b47029;
      }

      .cls-13 {
        fill: #d89228;
      }

      .cls-14 {
        fill: #d62328;
      }

      .cls-15 {
        fill: #dc942c;
      }

      .cls-16 {
        fill: #dd8457;
      }

      .cls-17 {
        fill: #e3222b;
      }

      .cls-18 {
        fill: #231f20;
      }

      .cls-19 {
        fill: #1a2039;
      }

      .cls-20 {
        fill: #2b61ab;
      }

      .cls-21 {
        fill: #2d1214;
      }

      .cls-22 {
        fill: #3a57a7;
      }

      .cls-23 {
        fill: #531a15;
      }
    </style>
  </defs>
  <g id="shoes">
    <path class="cls-16" d="m72.75,95.87c1.19,1.19,2.03,3.59,2.72,6.15h-.35c-.63-2.05-1.42-4.1-2.37-6.15Z"/>
    <path class="cls-16" d="m60.44,120.74c.62,1.16,1.25,1.73,2.13,2.14.85.29,1.68.46,2.58.54.75.07,1.5.05,2.25-.05,10.97-1.46,12.4-9.87,8.14-19.92,2.25,9.39,1.58,16.92-7.63,18.49-2.09.36-4.26.19-6.24-.59-.46-.18-.89-.39-1.23-.62Z"/>
    <path class="cls-10" d="m72.75,95.87c1.43,11.4-3.35,16.84-14.95,15.69-.26,2.07.07,4.27.8,6.57,2.86,7.61,18.89,5.67,18.45-6.83-.8-6.64-2.42-11.34-4.3-15.42Z"/>
    <path class="cls-16" d="m33.49,121.28c-.02.6-.03.89,0,1.55-1.43.48-3.36,1.06-5.42,1.16-1.09-.14-2.21-.1-3.39.44-5.78.99-11.69.45-17.7-.44l-.03-1.38"/>
    <path class="cls-10" d="m34.18,115.59c.89,2.07.36,3.92-.69,5.69-1.25.7-3.69,1.32-5.74,1.54-1.02.11-2.02.28-3.03.45-5.02.88-15.23.56-17.77-.65-3.28-6.88-.16-12.45,5.72-13.35,8.82-.98,13,8.47,21.51,6.33Z"/>
  </g>
  <g id="shirt">
    <path class="cls-14" d="m45.13,65.73c.54,2.55,3.31,6.14,3.87,13.15,4.59-1.49,10.13-3.57,12.52-7.23.74-1.23,1.26-3.21,1.56-5.92.62-6.69.71-9.86-4.99-13.15-3.34-2.37-9.04,0-6.99,5.64-2.52,2.23-3.35,4.16-2.78,5.85"/>
    <path class="cls-14" d="m25.36,53.13c-1.99,2.01-11.32,13.53-9.89,20.6l11.47-4.3c-.06-.64.23-.96-.52-4.3-.75.4-.55-4.77-.2-4.71.42-2.05.96-3.44,2.66-5.93"/>
    <path class="cls-14" d="m32.84,55.4c-.51,1.07-.85,2.15-1.02,3.22,2.31,2.11,5.2,3.77,8.53,5.1,1.25-.2,2.41-.57,3.49-1.11.76-3.25,1.63-6.25,2.72-8.7"/>
  </g>
  <g id="overalls">
    <path class="cls-22" d="m54.84,49.63c1.97.93,3.56,2.11,3.25,2.94-4.95-1.44-7.48.06-6.99,5.64-2.44,2.07-3.27,4.01-2.78,5.85-1.91.26-3.36,2.34-4.85,2.29l-4.28-2.63c1.12.05,2.73-.24,3.76-.82.54-.3.89-.86,1.01-1.47.57-2.94,1.4-5.22,2.6-7.53,3.7-.83,6.5-2.14,8.29-4.28Z"/>
    <path class="cls-22" d="m28.9,81.07c-1.86-10.82-5.96-20.89-.02-26.58l3.96.91c-2.01,4.19.15,10.33,2.5,16.57,3.39,8.86.31,10.91-6.44,9.11Z"/>
    <path class="cls-1" d="m43.98,66.35c-.31-2.33,3.29-3.89,4.33-2.29l-4.33,2.29Z"/>
    <path class="cls-1" d="m25.87,63.02c.81-1.09,2.46-.77,2.84.65"/>
    <path class="cls-22" d="m50.6,104.93c-1.12-2.02-2.29-4.01-3.19-6.16s-2.47-4.14-4.58-5.28c-.28-.15-.55-.29-.83-.41-.4-.18-.86-.11-1.2.16h0c-1.27,1.34-3.53,3.79-4.93,5.57-.51.65-.78,1.45-.76,2.28.03,1.28.05,2.32.12,4.21.11,3.33.25,5.83.49,7.65.18,1.34-.75,2.57-2.08,2.8h-.03c.87-5.78-2.06-17.75-3.84-30.11l19.25-6.77c10.04-3.47,13.39-6.26,14.08-13.15.57.5.79,2.09.22,3.9-.13.4-.17.83-.08,1.24.7,3.31.67,6.45-.47,9.33-.34.85-.37,1.78-.11,2.65.45,1.48,1.15,3.76,1.62,5.27.27.89,1.06,1.49,1.99,1.62,3.36.46,5.48,2.76,6.61,6.53,1.56,8.46-.83,14.7-12.32,15.82-.97.09-1.94-.09-2.8-.54-1.55-.81-3.04-1.85-4.47-3.15-1.09-.98-1.97-2.18-2.68-3.46Z"/>
    <path class="cls-22" d="m14.44,100.96l-.22,3.75c-.05.94-.43,1.81-.95,2.59-.41.63-.55,1.32-.61,1.96,2.09-.26,4.9.36,5.55.88-.19-3.28-2.18-9.42-3.77-9.18Z"/>
    <path class="cls-22" d="m14.44,103.07c7.86-18.25,12.86-27.64,11.14-16.18l11.27,10.74c-4.18,16.01-10.05,22.13-18.64,12.52"/>
  </g>
  <g id="face">
    <path class="cls-2" d="m55.98,39.86c2.71,9.67-3.22,13.11-11.64,14.48-6.63,2.3-13.24,1.44-18.98-1.21-10.19-2.67-10.64-12.03-3.49-17.52.08-.76.26-1.34.53-1.72-.46-3.31-.67-6.52-.53-9.6,4.98-7.92,16.61-5.33,31.23,1.99.55,1.48.34,3.03-.1,4.61-1.95,3.32-1.55,5.27,1.27,5.32-.12.8.47,1.63,1.1,2.3-.04.66.05.99.6,1.34Z"/>
  </g>
  <g id="ears">
    <path class="cls-2" d="m60.37,28.14c.52-1.62,1.67-2.27,3.99-1.11,7.7,1.73,3.41,17.53-6.36,15.49l-1.36,2.54-.66-5.21c1.27-.06,2.11.19,2.02-3.49-.37-4.07.73-6.64,2.38-8.22Z"/>
    <path class="cls-2" d="m21.35,25.29c-.2,2.41-.4,4.86-.87,6.2-.6-1.42-1.26-3.62-.69-5.6.15-.48.45-.73.78-.88l.78.28Z"/>
    <path class="cls-4" d="m64.97,30.91c-.33-.5-.82-.81-1.33-.77-2.83.23-5.09,7.84-2.07,9.38,2.33.92,5.35-5.69,3.4-8.61Z"/>
  </g>
  <g id="hair">
    <path class="cls-23" d="m53.1,26.29c.45,1.6.24,3.07-.1,4.61-2,3.49-1.57,5.26,1.27,5.32-.32,1.32.49,2.37,1.1,2.3-.46,1.9,2.79,2.27,2.6-.82.02-4.99.5-7.73,2.4-9.57-3.07-3.02-5.79-4.7-7.28-1.85Z"/>
    <path class="cls-23" d="m56.57,45.48c0-.93.77-1.95,1.44-2.95,1.13.3,2.43.19,3.81-.12.14,2.13-1.6,3.16-5.25,3.07Z"/>
    <path class="cls-23" d="m21.35,24.28l.52.02c-.13,3.84.19,7.39.53,9.6-.32.45-.45,1.06-.53,1.72-.42.34-.89.74-1.38,1.2-.09-1.1-.11-2.17.3-3.03-.23-.71-.37-1.46-.31-2.31.48-2.84.96-5.71.87-7.2Z"/>
  </g>
  <g id="moustache">
    <path class="cls-21" d="m22.58,40.62c-.96-.33-1.84-1.13-2.63-2.44-2.1,3.12-.9,7.27,1.01,7.16.5,2.91,2.14,4.03,4.45,3.39"/>
    <path class="cls-21" d="m26.74,49.27c1.3,2.01,10.8,2.35,10.75-.33,3.35,1.37,4.75.3,4.78-2.5,4.13-.45,4.69-3.14,3.54-6.89-2.26,1.79-4.8,2.89-7.57,2.67"/>
  </g>
  <g id="right-hand">
    <path class="cls-8" d="m14.57,78.54c-2.22,2.95-3.82,9.07-2.53,13.35l3.11-2.91-1.19-1.76-.05-2.49.14,2.28,1.18,1.64,6.34-2-4.54-2.99-.87-2.88,1.24,2.65,4.17,2.85c1.35.76,3.15.8,5.1.62.67-.39.81-1.27.76-2.34-2.27-1.42-4.66-3.48-4.73-5.06.05-2.63-.47-4.3-.35-6.16l-2.14-.9c-3.57,1.63-5.55,3.64-5.65,6.1"/>
    <path class="cls-5" d="m21.43,73.09c-3.06-.11-6.45,2.69-6.86,5.45-.04-.45-.09-.91-.12-1.34-.08-1.24.25-2.49,1.02-3.47,1.31-1.68,2.95-2.8,5.08-3.06l.88,2.43Z"/>
    <polyline class="cls-8" points="24.15 74.15 26.44 74.03 28.48 81.22 27.41 81.29"/>
  </g>
  <g id="eyes">
    <path class="cls-8" d="m40.43,39.49c-5.13.55-6.43-11.01-.61-11.01,6.07-.34,6.15,11.03.61,11.01Z"/>
    <path class="cls-20" d="m41.6,35.58c-.01,3.33-3.72,5.23-5.13.76-.82-3.6.27-5.18,1.96-5.28,1.9-.06,3.06,1.59,3.16,4.52Z"/>
    <path class="cls-19" d="m39.12,37.94c2.34-.19,2.07-5.82-.43-5.63-2.63.2-1.76,5.85.43,5.63Z"/>
    <path class="cls-8" d="m25.92,27.76c4.64-.24,6.06,10.59,1.98,10.06-2.22,4.1-5.64-9.68-1.98-10.06Z"/>
    <path class="cls-20" d="m30.05,36.4c.25-1.03.3-2.02.17-2.98-.12-.87-.54-1.7-1.2-2.27-2.6-2.23-4.83,1.73-2.27,5.91"/>
    <path class="cls-19" d="m28.67,37.14c-1.95.5-3.38-4.59-1.25-5.23,2.48-.68,3.08,4.81,1.25,5.23Z"/>
  </g>
  <g id="nose">
    <path class="cls-4" d="m21.94,43.09c.62-8.78,16.06-8.79,16.31-.86-.25,8.58-15.61,10.77-16.31.86Z"/>
  </g>
  <g id="saxophone">
    <path class="cls-7" d="m24.48,56.41c-.07-.96-.67-1.82-2.19-1.61l.03.23c.86-.19,1.67.07,1.86,1.41l.29-.03Z"/>
    <polygon class="cls-7" points="22.63 56.47 24.21 56.29 24.18 56.11 22.61 56.29 22.63 56.47"/>
    <polygon class="cls-7" points="22.57 56.08 24.15 55.9 24.12 55.72 22.54 55.9 22.57 56.08"/>
    <polygon class="cls-7" points="22.41 55.66 23.98 55.48 23.95 55.31 22.38 55.49 22.41 55.66"/>
    <ellipse class="cls-15" cx="28.21" cy="49.26" rx=".79" ry=".51" transform="translate(-28.51 46.95) rotate(-57.86)"/>
    <ellipse class="cls-15" cx="26.1" cy="48.77" rx=".79" ry=".51" transform="translate(-29.08 44.93) rotate(-57.86)"/>
    <path class="cls-15" d="m20.05,48.31l.67.82c-2.71.53-3.8,1.35-4.35,3.5l-1.81-.5c.65-3.65,3.12-3.64,5.49-3.82Z"/>
    <path class="cls-6" d="m14.65,54.64c-1.26-6.38,4.84-7.74,14.09-5.07l.19-.43c-10.47-2.88-16.14-1.08-14.8,5.55"/>
    <polygon class="cls-13" points="24.79 83.76 23.2 84.87 22.35 84.86 24.72 83.18 24.79 83.76"/>
    <path class="cls-13" d="m22.46,82.32l1.6-1.09-.18-.61c-.91.67-2.23,1.62-2.36,1.79l.93-.09Z"/>
    <path class="cls-13" d="m21.68,79.79l1.55-1.13-.17-.59c-.89.66-2.17,1.58-2.3,1.75l.92-.02Z"/>
    <ellipse class="cls-13" cx="21.33" cy="80.8" rx=".84" ry="1.2" transform="translate(-12.52 4.4) rotate(-9.11)"/>
    <ellipse class="cls-13" cx="22.12" cy="83.35" rx=".84" ry="1.2" transform="translate(-12.92 4.55) rotate(-9.11)"/>
    <path class="cls-13" d="m23,87.08c.46-.05.77-.62.68-1.27-.05-.4-.24-.74-.49-.94-.15-.12-.33-.18-.51-.16-.46.05-.77.62-.68,1.27s.53,1.15.99,1.1Z"/>
    <polygon class="cls-12" points="35.24 92.63 36.65 92.36 34.79 86.15 33.39 86.41 35.24 92.63"/>
    <path class="cls-15" d="m32.76,86.3l4.14-.78c.24-.05.39-.21.34-.38h0c-.05-.16-.28-.26-.52-.21l-4.14.78.18.59Z"/>
    <path class="cls-12" d="m28.34,100.26h0c.33-.06.53-.3.46-.54l-3.65-12.22c-.07-.24-.39-.38-.72-.31h0c-.33.06-.53.3-.46.54l3.65,12.22c.07.24.39.38.72.31Z"/>
    <path class="cls-15" d="m38.56,97.81h0c.27-.06.43-.26.37-.46l-14.07-40.69c-.07-.19-.34-.31-.61-.25h0c-.27.06-.43.26-.37.46l14.07,40.69c.07.19.34.31.61.25Z"/>
    <path class="cls-15" d="m39.13,92.91h0c.22-.04.36-.21.32-.37l-2.19-7.35c-.05-.16-.27-.26-.49-.21h0c-.22.04-.36.21-.32.37l2.19,7.35c.05.16.27.26.49.21Z"/>
    <polygon class="cls-15" points="36.96 88.3 38.36 88.03 37.85 86.31 36.44 86.58 36.96 88.3"/>
    <polygon class="cls-15" points="36.39 86.39 37.79 86.13 37.59 85.46 36.19 85.72 36.39 86.39"/>
    <polygon class="cls-15" points="37.68 90.53 39.08 90.26 38.57 88.54 37.16 88.8 37.68 90.53"/>
    <polygon class="cls-15" points="41.87 107.63 39.33 98.35 38.5 98.5 41.04 107.78 41.87 107.63"/>
    <path class="cls-15" d="m21.12,76.07h0c-.28.05-.56-.07-.62-.27l-4.75-16.03c-.06-.2.12-.41.4-.47h0c.28-.05.56.07.62.27l4.75,16.03c.06.2-.12.41-.4.47Z"/>
    <path class="cls-15" d="m17.61,59.88l-1.09.11c-.41.04-.76-.09-.79-.28v-.04c-.03-.2.28-.39.69-.43l1.09-.11.1.76Z"/>
    <polygon class="cls-15" points="37.21 99.09 39.42 98.74 39.28 98.15 37.06 98.5 37.21 99.09"/>
    <polygon class="cls-15" points="39.3 108.11 41.87 107.65 41.73 107.14 39.16 107.59 39.3 108.11"/>
    <polygon class="cls-15" points="18.66 73.36 21.46 72.9 21.41 72.69 18.6 73.16 18.66 73.36"/>
    <polygon class="cls-15" points="39.28 106.77 42.18 106.31 42.13 106.09 39.23 106.56 39.28 106.77"/>
    <polygon class="cls-15" points="39.35 107.15 42.32 106.67 42.26 106.46 39.3 106.93 39.35 107.15"/>
    <polygon class="cls-15" points="23.74 91.51 27.1 91.01 27.05 90.81 23.69 91.31 23.74 91.51"/>
    <polygon class="cls-15" points="23.65 91.09 27.01 90.6 26.96 90.39 23.6 90.89 23.65 91.09"/>
    <polygon class="cls-15" points="24.49 93.77 27.85 93.27 27.8 93.07 24.44 93.57 24.49 93.77"/>
    <polygon class="cls-15" points="24.4 93.35 27.76 92.86 27.71 92.65 24.35 93.15 24.4 93.35"/>
    <polygon class="cls-15" points="26.15 99.17 29.51 98.67 29.47 98.47 26.11 98.96 26.15 99.17"/>
    <polygon class="cls-15" points="26.06 98.75 29.42 98.26 29.38 98.05 26.02 98.55 26.06 98.75"/>
    <polygon class="cls-15" points="23.11 89.32 26.47 88.83 26.43 88.62 23.07 89.12 23.11 89.32"/>
    <polygon class="cls-15" points="23.02 88.9 26.38 88.41 26.34 88.21 22.98 88.7 23.02 88.9"/>
    <polygon class="cls-15" points="29.73 85.69 33.67 84.94 33.61 84.74 29.67 85.49 29.73 85.69"/>
    <polygon class="cls-15" points="29.6 85.26 33.54 84.51 33.48 84.31 29.54 85.05 29.6 85.26"/>
    <polygon class="cls-15" points="28.23 81.57 32.17 80.82 32.11 80.62 28.17 81.37 28.23 81.57"/>
    <polygon class="cls-15" points="28.1 81.13 32.04 80.39 31.98 80.19 28.04 80.93 28.1 81.13"/>
    <polygon class="cls-15" points="25.78 74.19 29.72 73.44 29.66 73.24 25.72 73.99 25.78 74.19"/>
    <polygon class="cls-15" points="25.65 73.75 29.59 73.01 29.53 72.81 25.59 73.55 25.65 73.75"/>
    <polygon class="cls-15" points="24.3 70.09 28.24 69.34 28.18 69.14 24.24 69.89 24.3 70.09"/>
    <polygon class="cls-15" points="24.17 69.66 28.11 68.91 28.05 68.71 24.11 69.45 24.17 69.66"/>
    <polygon class="cls-15" points="15.79 63.87 18.59 63.4 18.54 63.2 15.73 63.67 15.79 63.87"/>
    <polygon class="cls-15" points="15.89 64.29 18.7 63.82 18.65 63.62 15.84 64.09 15.89 64.29"/>
    <polygon class="cls-15" points="16.44 66.15 19.25 65.68 19.19 65.48 16.39 65.95 16.44 66.15"/>
    <polygon class="cls-15" points="16.55 66.57 19.35 66.1 19.3 65.9 16.5 66.37 16.55 66.57"/>
    <polygon class="cls-15" points="17.14 68.39 19.94 67.92 19.89 67.72 17.08 68.19 17.14 68.39"/>
    <polygon class="cls-15" points="17.24 68.81 20.05 68.34 20 68.14 17.19 68.61 17.24 68.81"/>
    <polygon class="cls-15" points="17.8 70.68 20.61 70.21 20.56 70.01 17.75 70.48 17.8 70.68"/>
    <polygon class="cls-15" points="17.91 71.1 20.72 70.64 20.66 70.43 17.86 70.9 17.91 71.1"/>
    <polygon class="cls-15" points="18.55 72.94 21.35 72.47 21.3 72.27 18.5 72.74 18.55 72.94"/>
    <polygon class="cls-15" points="32.92 87.03 34.34 86.82 34.29 86.6 32.88 86.81 32.92 87.03"/>
    <polygon class="cls-15" points="33.07 87.45 34.49 87.24 34.44 87.02 33.02 87.23 33.07 87.45"/>
    <polygon class="cls-15" points="33.67 89.3 35.09 89.09 35.05 88.88 33.63 89.09 33.67 89.3"/>
    <polygon class="cls-15" points="33.85 89.68 35.27 89.48 35.23 89.26 33.81 89.47 33.85 89.68"/>
    <polygon class="cls-15" points="34.42 91.53 35.84 91.32 35.79 91.1 34.37 91.31 34.42 91.53"/>
    <polygon class="cls-15" points="34.61 91.95 36.03 91.74 35.98 91.52 34.56 91.73 34.61 91.95"/>
    <polygon class="cls-15" points="36.29 96.83 39.64 96.29 39.59 96.07 36.24 96.61 36.29 96.83"/>
    <polygon class="cls-15" points="36.44 97.24 39.79 96.7 39.74 96.49 36.39 97.03 36.44 97.24"/>
    <path class="cls-18" d="m35.5,50.16c1.17.45,1.58.22,2.18.16.18-.02.19.18.13.3-.43.73-1.06,1-2.41,1.31-.28-.65-2.52-1.6-.14-1.76"/>
    <path class="cls-9" d="m33.68,50.77c1.85-1.67,3.7.83,1.66,1.2"/>
    <path class="cls-3" d="m29.42,106.49c.75.44,1.39.46,1.76-.56.23-.62.2-1.28,0-1.89-5.51-16.66-10.47-32.46-14.48-46.84-1.72-5.63.03-8.94,8.06-8.04,1.22.16,2.41.44,3.57.85,2.03.78,4.12.75,6.15.41.33-.06.69-.02.94.14.67.43.63,1.14-.14,1.49-2.74.54-5.4.61-7.96.19-.74-.12-1.51-.17-2.25-.03-1.21.22-2.04.73-2.46,1.56-.28.54-.26,1.14-.07,1.68,6.67,19.18,13.42,38.53,16.03,47.78.91,3.03,1.27,6.04.2,7.77-2.13,5.91-11.69,6.99-16.18,3.49-4.26-2.92-7.25-8.1-9.49-14.6-1.06-2.79-2.78-5.49-4.99-8.13l9.85-10.49,11.48,25.22Z"/>
    <ellipse class="cls-9" cx="19.92" cy="57.64" rx="1.29" ry=".94" transform="translate(-3.92 1.51) rotate(-3.95)"/>
    <ellipse class="cls-9" cx="20.84" cy="61.8" rx="1.29" ry=".94" transform="translate(-4.2 1.58) rotate(-3.95)"/>
    <ellipse class="cls-15" cx="18.63" cy="54.42" rx="1.13" ry=".4" transform="translate(-7.73 3.29) rotate(-8.38)"/>
    <ellipse class="cls-15" cx="19.02" cy="52.35" rx="1.13" ry=".4" transform="translate(-5 2.1) rotate(-5.57)"/>
    <ellipse class="cls-9" cx="23.44" cy="69.9" rx="1.29" ry=".94" transform="translate(-4.76 1.78) rotate(-3.95)"/>
    <ellipse class="cls-9" cx="24.68" cy="74.16" rx="1.29" ry=".94" transform="translate(-5.05 1.88) rotate(-3.95)"/>
    <ellipse class="cls-9" cx="27.17" cy="81.49" rx="1.29" ry=".94" transform="translate(-5.55 2.06) rotate(-3.95)"/>
    <ellipse class="cls-9" cx="28.5" cy="85.52" rx="1.29" ry=".94" transform="translate(-5.82 2.17) rotate(-3.95)"/>
    <ellipse class="cls-9" cx="32.03" cy="96.25" rx="2.08" ry="2.37" transform="translate(-65.85 69.6) rotate(-56.36)"/>
    <ellipse class="cls-9" cx="30.04" cy="89.9" rx="2.08" ry="2.37" transform="translate(-61.44 65.11) rotate(-56.36)"/>
    <ellipse class="cls-9" cx="34.1" cy="102.76" rx="2.08" ry="2.37" transform="translate(-70.35 74.22) rotate(-56.36)"/>
    <ellipse class="cls-9" cx="36.65" cy="111.6" rx="2.03" ry="2.43" transform="translate(-77.6 84.31) rotate(-58.39)"/>
    <ellipse class="cls-9" cx="24.83" cy="101.04" rx="3.07" ry="3.65" transform="translate(-59.33 39.87) rotate(-40.18)"/>
    <ellipse class="cls-9" cx="27.44" cy="108.22" rx="2.74" ry="3.13" transform="translate(-83.3 94.09) rotate(-68.5)"/>
    <ellipse class="cls-9" cx="39.3" cy="100.59" rx="2.25" ry="1.63" transform="translate(-6.83 2.94) rotate(-3.95)"/>
    <ellipse class="cls-9" cx="22.35" cy="91.9" rx="3.07" ry="3.65" transform="translate(-54.02 36.11) rotate(-40.18)"/>
    <ellipse class="cls-6" cx="9" cy="84.01" rx="10.36" ry="6.36" transform="translate(-50.69 24.21) rotate(-38.83)"/>
    <ellipse class="cls-15" cx="10.02" cy="84.34" rx="6.85" ry="4.15" transform="translate(-51.18 25.44) rotate(-39.32)"/>
  </g>
  <g id="left-hand">
    <path class="cls-8" d="m42.92,82.35c-2.61,1.69-5.28,2.43-7.99,2.32-.79-.03-1.58.1-2.34.34-1.31.41-2.53.66-3.58.64-5.04-.06-7.11-5.15-.9-4.62.26.06.53.08.8.05l6.33-.73-9.32.19c-7.32.31-5.34-6.72-.34-5.11.14.03.44.05.44.05h9.33s-8.26-1-8.26-1c-.24-.03-.5-.04-.74-.05-8.96-.19-6.56-7.2-.5-5.28.41.13.82.24,1.25.28l8.21.82-7.63-1.8c-.27-.06-.55-.11-.83-.15l-2.03-.24c-.3-.04-.6-.12-.85-.28-2.79-1.85-1.73-5.29,1.6-4.84l9.32,2.13-4.04-.93c-.32-.07-.62-.21-.88-.41l-.36-.28c-.27-.2-.58-.33-.9-.42-4.16-1.14-3.72-7.04,1.81-5.07.39.14.76.34,1.12.55l8.71,5.21c.51.3.98.67,1.4,1.08l.59.58c.59.58,1.28,1.01,2,1.41,4.58,2.54,4.32,12.62-1.42,15.55Z"/>
    <path class="cls-5" d="m43.36,66.4l1.77-.66c6.49,2.16,5.95,16.28-.18,16.84l-2.03-.22c5.47-2.28,4.98-12.71.44-15.95Z"/>
    <ellipse class="cls-5" cx="41" cy="71.04" rx="1.13" ry="1.52" transform="translate(-34.14 103.91) rotate(-83.64)"/>
    <ellipse class="cls-5" cx="41" cy="75.41" rx="1.52" ry="1.13"/>
    <ellipse class="cls-5" cx="40.35" cy="79.77" rx="1.52" ry="1.13" transform="translate(-7.42 4.21) rotate(-5.47)"/>
  </g>
  <g id="eyebrows">
    <path class="cls-21" d="m45.93,27.69c-5.65-5.38-9.27-5.52-9.94,1.24,2.51-3.01,5.93-3.75,9.94-1.24Z"/>
    <path class="cls-21" d="m29.07,28.48c-1.47-9.56-7.14-7.5-6.36-2.18,1.34-2.37,3.68-.76,6.36,2.18Z"/>
  </g>
  <g id="hat">
    <path class="cls-14" d="m53.9,25.93l6.47,2.21c1.07-1.09,2.4-1.48,3.99-1.11,1.99-4.01,1.56-7.18-.38-9.81C51.13-1.59,25.58-7.16,17.86,11.53c-1.06,3.88-.72,7.17.56,10.07"/>
    <ellipse class="cls-8" cx="30.78" cy="12.2" rx="7.22" ry="6.31"/>
    <polygon class="cls-14" points="25.1 14.17 27.77 8.03 30.25 11.1 32.68 8.03 36.45 14.75 34.34 16.37 32.22 11.28 30.62 13.94 28.11 11.1 27.01 16.37 25.1 14.17"/>
    <path class="cls-17" d="m21.35,24.28c8.14.25,16.13.91,23.71,2.75,4.17.88,7.47.71,8.84-1.74-6.61-6.38-30.81-10.86-35.47-3.69l-3.18,3.35c-.09.1-.11.25-.03.35.75.9,2.56-.17,4.25-1.02h1.88Z"/>
    <path class="cls-11" d="m21.35,24.28h-1.88c.59.53,1.22.85,1.88,1,.02-.37.02-.71,0-1Z"/>
  </g>
</svg>