<?xml version="1.0" encoding="utf-8"?>
<!-- Generator: Adobe Illustrator 27.5.0, SVG Export Plug-In . SVG Version: 6.00 Build 0)  -->
<svg version="1.1" id="Layer_1" xmlns="http://www.w3.org/2000/svg" xmlns:xlink="http://www.w3.org/1999/xlink" x="0px" y="0px"
	 viewBox="0 0 90.9 91.2" style="enable-background:new 0 0 90.9 91.2;" xml:space="preserve">
<style type="text/css">
	.st0{fill:#F5A882;}
	.st1{fill:#DB9B81;}
	.st2{fill:#FFFFFF;}
	.st3{fill:#2B61AB;}
	.st4{fill:#1A2039;}
	.st5{fill:#F4B38C;}
	.st6{fill:#2D1214;}
	.st7{fill:#531A15;}
	.st8{fill:#8E1C22;}
	.st9{fill:#E3222B;}
	.st10{fill:#D62328;}
</style>
<g id="face">
	<path class="st0" d="M65.1,33.4l9.1,19.8c0.9,2.5,1.2,4.8,0,6.7l1.1,5.5c-1.4,5.7-4.9,10.4-10.1,14.4
		c-13.5,10.5-24.9,15.3-33.6,7.8c-2.5-1.4-4.9-2.7-7.2-3.8c-5.7-2.5-9.8-6.3-10.8-12.6l2.8-16c-1.7-7.2-3.2-16-1-17.9
		C20,27.1,43.5,27.1,65.1,33.4L65.1,33.4z"/>
</g>
<g id="mouth">
	<path class="st1" d="M47.6,73.8c-4.9,4.3-10.3,5.5-16.3,3.7C38.1,82.5,47.3,76.2,47.6,73.8z"/>
</g>
<g id="eyes">
	<path class="st2" d="M28.8,50.9c-1.6-12.8-12.2-11.2-9.6,2"/>
	<path class="st2" d="M52.5,46.6c-2.8-13.2-16.9-9.9-14.1,3.1C40.9,61.5,54.8,56.8,52.5,46.6z"/>
	<path class="st3" d="M22,51.6c-0.8-6.8,5.7-11.2,6.9-0.8"/>
	<path class="st4" d="M24,51.1c-0.2-4.8,4.6-5.2,4.8-0.2"/>
	<path class="st3" d="M47.8,56.2c-6.9,1.4-8.8-14.4-0.7-14.9C53.2,40.7,55.7,53.6,47.8,56.2z"/>
	<path class="st4" d="M48,53.7c-3.9,0.4-5.3-8.5-1-9.7C51.5,43.5,51.7,53.4,48,53.7z"/>
</g>
<g id="nose">
	<ellipse class="st5" cx="27.2" cy="61.8" rx="13.7" ry="11.1"/>
</g>
<g id="ear">
	<path class="st0" d="M88.9,41.3c-3.1-3.7-8.8-4-12.4-1c-1.9,3-2.5,7.5-2.4,12.9c0.9,2.3,1.1,4.5,0,6.7l1.1,5.6
		c1.8,0.7,3.6,0.8,5.3,0.3C88.4,63.7,94,49.4,88.9,41.3z"/>
</g>
<g id="mustache">
	<path class="st6" d="M40.9,60.3c0,0,12.6-2.1,15.8-7.7c4.6,4.2,3.6,10.9-3.3,12.8c-0.3,5.9-4,7.7-9.6,6.9c-2.3,4-5.9,5.2-10.7,3.8
		c-2.9,2.6-5.7,2.8-8.6,0c-3.6,1.9-6.1,0.7-7.7-3.7c-3.6,0.4-5.7-3.9-2.9-7.9C16.3,74.1,39.1,77.3,40.9,60.3L40.9,60.3z"/>
</g>
<g id="eyebrows">
	<path class="st6" d="M52.5,30.5c1.3,1.3,1.3,2.5,1.2,4.4c-6.8-4.4-12.1-2.2-16.5,3.8c-0.7-3.2,0.4-7.4,2.8-9.3"/>
	<path class="st6" d="M20,32.7c2.9,0.2,6,4.6,5.7,8.4c-3.1-3.8-8.4-4-10.3,1c-0.2-2.1-0.4-4.2,0.2-5.3"/>
	<path class="st6" d="M40,29.5c4,0,8.2,0.3,12.4,1.1"/>
	<path class="st6" d="M15.6,36.7c1.2-1.8,2.6-3.2,4.4-4"/>
</g>
<g id="hair">
	<path class="st7" d="M73.9,54.3c0.6-0.9,0.1-10,2.6-14c-2.2-3.9-6.3-6-11.4-6.9c0.8,1.3,1.9,7.9,0.2,10.9c-0.1,0.2-0.3,0.5-0.4,0.8
		c-1.8,5.7,3.7,8.9,6.4,2.7L73.9,54.3L73.9,54.3z"/>
	<path class="st7" d="M69.2,76.4c9.7,1.8,15.4-6,11.4-10.5c-1.8,0.3-3.5,0.4-5.3-0.5C74,69.6,72,73.2,69.2,76.4L69.2,76.4z"/>
	<path class="st7" d="M69.2,76.4c-1.1,1-2.5,2.2-4,3.4c2.3-0.1,4.5-0.1,6.4,0c1.5-0.6,2.5-1.6,2.6-3.4"/>
	<path class="st7" d="M67.8,51.1c-0.1,2.9,2.2,5.8,3.5,6.2c1.3-0.5,2-1.7,2.6-3l-2.6-6.6C71.4,47.7,67.8,51.1,67.8,51.1z"/>
</g>
<g id="hat">
	<path class="st8" d="M14.6,45.8l-1.8-1.7c-17.7,0.1-14-11.2-4.1-16c24.5-12.8,52.6-1.7,56.4,5.3C61.9,31.4,8.7,20.6,14.6,45.8
		L14.6,45.8z"/>
	<path class="st9" d="M0.4,38.7c-0.2-4.3,3.8-8.4,8.3-10.6c19.5-10.4,49.3-4.8,56.4,5.3C59.2,19,40,14.1,19.7,21.9
		C6.2,26-1.8,31.5,0.4,38.7z"/>
	<path class="st10" d="M65.1,33.4c-3.5-8-9.9-12-19.7-14.4l34,1.7c8.1,2.1,12.8,11.6,9.6,20.7c-2.5-3.2-7.9-4.4-12.4-1
		C74.3,36.6,70.3,34.4,65.1,33.4"/>
	<path class="st10" d="M45.3,19l34,1.7C73,11.2,66.1,3.8,58.1,0H19C10.9,4.7,6.6,15.9,7.9,26.6C21.7,20.1,34.3,17.3,45.3,19L45.3,19
		z"/>
</g>
<g id="m">
	<path class="st2" d="M19.3,22c4.9-2.1,10.1-3.4,15.6-3.7c4.4-4.6,3.2-14.4-2.8-16.9c-5.3-2.4-10.9-1-15.1,3.9
		C12.6,11.4,13.4,18.4,19.3,22z"/>
	<path class="st10" d="M20,3.9c-2,4.4-3.1,8.9-3.4,13.7l3.8,2.5L21,9.6l4.1,3.8L27.9,8l4.9,9.2L36,13c-2.6-3.6-5.3-7.4-7.9-11.5
		l-3.7,5.7L20,3.9L20,3.9z"/>
</g>
</svg>
