<?xml version="1.0" encoding="UTF-8"?>
<svg xmlns="http://www.w3.org/2000/svg" viewBox="0 0 54.19 121.77">
  <defs>
    <style>
      .cls-1 {
        fill: #f8b232;
      }

      .cls-2 {
        fill: #f6b753;
      }

      .cls-3 {
        fill: #efcc23;
      }

      .cls-4 {
        fill: #efc687;
      }

      .cls-5 {
        fill: #b47029;
      }

      .cls-6 {
        fill: #d89228;
      }

      .cls-7 {
        fill: #dc942c;
      }

      .cls-8 {
        fill: #231f20;
      }
    </style>
  </defs>
  <g id="additional-pieces">
    <path class="cls-3" d="m17.92,15.83c-.08-1.69.55-3.3,2.5-3.2v.41c-1.12-.18-2.11.43-2.13,2.79h-.38Z"/>
    <rect class="cls-3" x="18.24" y="15.27" width="2.03" height=".31" transform="translate(.29 -.35) rotate(1.05)"/>
    <rect class="cls-3" x="18.25" y="14.57" width="2.03" height=".31" transform="translate(.27 -.35) rotate(1.05)"/>
    <rect class="cls-3" x="18.39" y="13.82" width="2.03" height=".31" transform="translate(.26 -.35) rotate(1.05)"/>
    <ellipse class="cls-7" cx="11.99" cy="3.99" rx=".7" ry="1.3" transform="translate(-.61 4.93) rotate(-22.67)"/>
    <ellipse class="cls-7" cx="14.59" cy="2.76" rx=".7" ry="1.3" transform="translate(.06 5.83) rotate(-22.67)"/>
    <path class="cls-7" d="m22.18.87l-.71,1.55c3.52.45,5.04,1.68,6.09,5.34l2.21-1.19C28.34.31,25.21.77,22.18.87Z"/>
    <path class="cls-2" d="m30.07,10.98C30.61-.4,22.65-1.69,11.37,4.63l-.31-.72C23.85-2.99,31.33-.84,30.74,10.98"/>
    <polygon class="cls-6" points="22.06 63.68 24.27 65.34 25.35 65.17 22.06 62.65 22.06 63.68"/>
    <path class="cls-6" d="m24.78,60.75l-2.21-1.61.12-1.09c1.26,1.02,3.09,2.43,3.28,2.7h-1.2Z"/>
    <path class="cls-6" d="m25.34,56.19l-2.16-1.7.12-1.07c1.23.99,3.02,2.38,3.21,2.64l-1.17.12Z"/>
    <path class="cls-6" d="m25.96,59.99c-.59,0-1.08-.94-1.08-2.1s.48-2.1,1.08-2.1,1.08.94,1.08,2.1-.48,2.1-1.08,2.1Z"/>
    <path class="cls-6" d="m25.38,64.59c-.59,0-1.08-.94-1.08-2.1s.48-2.1,1.08-2.1,1.08.94,1.08,2.1-.48,2.1-1.08,2.1Z"/>
    <path class="cls-6" d="m24.89,69.16c-.59,0-1.08-.94-1.08-2.1,0-.71.18-1.34.46-1.72.17-.24.39-.38.62-.38.59,0,1.08.94,1.08,2.1s-.48,2.1-1.08,2.1Z"/>
  </g>
  <g id="mechanism">
    <rect class="cls-5" x="9.13" y="69.7" width="1.84" height="11.26" transform="translate(8.87 -.66) rotate(6.71)"/>
    <path class="cls-7" d="m12.39,69.54l-5.38-.63c-.31-.04-.53-.3-.5-.59h0c.03-.29.31-.5.62-.46l5.38.63-.12,1.06Z"/>
    <rect class="cls-5" x="20.93" y="69.53" width="1.54" height="23.71" rx=".77" ry=".77" transform="translate(9.66 -1.98) rotate(6.71)"/>
    <rect class="cls-7" x="11.94" y="15.37" width="1.29" height="75.74" rx=".64" ry=".64" transform="translate(8.05 -1.28) rotate(8.54)"/>
    <rect class="cls-7" x="5.73" y="67.89" width="1.07" height="14.39" rx=".53" ry=".53" transform="translate(8.81 -.22) rotate(6.71)"/>
    <rect class="cls-7" x="5.76" y="70.56" width="1.84" height="3.12" transform="translate(8.47 -.29) rotate(6.71)"/>
    <rect class="cls-7" x="6.05" y="69.03" width="1.84" height="1.22" transform="translate(8.18 -.34) rotate(6.71)"/>
    <rect class="cls-7" x="5.22" y="74.58" width="1.84" height="3.12" transform="translate(8.94 -.2) rotate(6.71)"/>
    <rect class="cls-7" x="-2.61" y="99.63" width="16.76" height="1.07" transform="translate(106.01 104.43) rotate(95.73)"/>
    <rect class="cls-7" x="26.52" y="19.3" width="1.34" height="30.39" rx=".67" ry=".67" transform="translate(50.21 71.9) rotate(-173.36)"/>
    <path class="cls-7" d="m27.19,20.67h1.4c.52,0,.95-.28.95-.63v-.07c0-.35-.43-.63-.95-.63h-1.4s0,1.34,0,1.34Z"/>
    <rect class="cls-7" x="6.05" y="91.51" width="2.87" height="1.06" transform="translate(7.35 -.3) rotate(4.56)"/>
    <rect class="cls-7" x="4.43" y="107.72" width="3.35" height=".93" transform="translate(10.84 -.07) rotate(5.73)"/>
  </g>
  <g id="bars">
    <rect class="cls-7" x="24.49" y="43.89" width="3.65" height=".37" transform="translate(3.96 -2.13) rotate(5.02)"/>
    <rect class="cls-7" x="3.79" y="105.95" width="3.76" height=".39" transform="translate(8.47 -.12) rotate(4.56)"/>
    <rect class="cls-7" x="3.68" y="106.61" width="3.85" height=".39" transform="translate(8.52 -.11) rotate(4.56)"/>
    <rect class="cls-7" x="20.35" y="76.54" width="4.35" height=".37" transform="translate(4.75 -1.24) rotate(3.52)"/>
    <rect class="cls-7" x="20.4" y="75.8" width="4.35" height=".37" transform="translate(4.71 -1.24) rotate(3.52)"/>
    <rect class="cls-7" x="19.78" y="80.62" width="4.35" height=".37" transform="translate(5 -1.2) rotate(3.52)"/>
    <rect class="cls-7" x="19.83" y="79.88" width="4.35" height=".37" transform="translate(4.96 -1.2) rotate(3.52)"/>
    <rect class="cls-7" x="18.57" y="90.35" width="4.35" height=".37" transform="translate(5.6 -1.1) rotate(3.52)"/>
    <rect class="cls-7" x="18.62" y="89.61" width="4.35" height=".37" transform="translate(5.55 -1.11) rotate(3.52)"/>
    <rect class="cls-7" x="20.78" y="72.6" width="4.35" height=".37" transform="translate(4.51 -1.27) rotate(3.52)"/>
    <rect class="cls-7" x="20.83" y="71.86" width="4.35" height=".37" transform="translate(4.47 -1.28) rotate(3.52)"/>
    <rect class="cls-7" x="11.02" y="67.27" width="5.15" height=".37" transform="translate(7.97 -1.13) rotate(6.71)"/>
    <rect class="cls-7" x="11.11" y="66.48" width="5.15" height=".37" transform="translate(7.88 -1.14) rotate(6.71)"/>
    <rect class="cls-7" x="12.23" y="59.8" width="5.15" height=".37" transform="translate(7.11 -1.32) rotate(6.71)"/>
    <rect class="cls-7" x="12.32" y="59.02" width="5.15" height=".37" transform="translate(7.02 -1.33) rotate(6.71)"/>
    <rect class="cls-7" x="14.11" y="46.46" width="5.15" height=".37" transform="translate(5.56 -1.63) rotate(6.71)"/>
    <rect class="cls-7" x="14.2" y="45.68" width="5.15" height=".37" transform="translate(5.47 -1.65) rotate(6.71)"/>
    <rect class="cls-7" x="15.31" y="39.04" width="5.15" height=".37" transform="translate(4.7 -1.82) rotate(6.71)"/>
    <rect class="cls-7" x="15.4" y="38.25" width="5.15" height=".37" transform="translate(4.61 -1.84) rotate(6.71)"/>
    <rect class="cls-7" x="26.55" y="26.79" width="3.65" height=".37" transform="translate(2.47 -2.38) rotate(5.02)"/>
    <rect class="cls-7" x="26.48" y="27.55" width="3.65" height=".37" transform="translate(2.53 -2.37) rotate(5.02)"/>
    <rect class="cls-7" x="26.1" y="30.89" width="3.65" height=".37" transform="translate(2.82 -2.32) rotate(5.02)"/>
    <rect class="cls-7" x="26.03" y="31.65" width="3.65" height=".37" transform="translate(2.89 -2.31) rotate(5.02)"/>
    <rect class="cls-7" x="25.59" y="34.93" width="3.65" height=".37" transform="translate(3.18 -2.26) rotate(5.02)"/>
    <rect class="cls-7" x="25.52" y="35.69" width="3.65" height=".37" transform="translate(3.24 -2.25) rotate(5.02)"/>
    <rect class="cls-7" x="25.12" y="39.06" width="3.65" height=".37" transform="translate(3.54 -2.21) rotate(5.02)"/>
    <rect class="cls-7" x="25.05" y="39.81" width="3.65" height=".37" transform="translate(3.6 -2.2) rotate(5.02)"/>
    <rect class="cls-7" x="24.55" y="43.14" width="3.65" height=".37" transform="translate(3.89 -2.14) rotate(5.02)"/>
    <rect class="cls-7" x="10.48" y="70.4" width="1.84" height=".39" transform="translate(4.36 -.57) rotate(3.52)"/>
    <rect class="cls-7" x="10.36" y="71.16" width="1.84" height=".39" transform="translate(4.4 -.56) rotate(3.52)"/>
    <rect class="cls-7" x="9.91" y="74.51" width="1.84" height=".39" transform="translate(4.61 -.52) rotate(3.52)"/>
    <rect class="cls-7" x="9.74" y="75.21" width="1.84" height=".39" transform="translate(4.65 -.51) rotate(3.52)"/>
    <rect class="cls-7" x="9.33" y="78.52" width="1.84" height=".39" transform="translate(4.85 -.48) rotate(3.52)"/>
    <rect class="cls-7" x="9.17" y="79.3" width="1.84" height=".39" transform="translate(4.9 -.47) rotate(3.52)"/>
    <rect class="cls-7" x="5.34" y="88" width="4.35" height=".39" transform="translate(7.04 -.32) rotate(4.56)"/>
    <rect class="cls-7" x="5.22" y="88.76" width="4.35" height=".39" transform="translate(7.1 -.31) rotate(4.56)"/>
  </g>
  <g id="mouth-piece">
    <path class="cls-8" d="m2.92,6.86c-1.41,1-1.97.66-2.73.67-.23,0-.22.36-.12.54.66,1.2,1.51,1.56,3.27,1.86.24-1.18,2.93-3.24-.12-3.1"/>
    <path class="cls-4" d="m5.32,7.61c-2.62-2.6-4.55,2.12-1.9,2.39"/>
  </g>
  <g id="body">
    <path class="cls-1" d="m19.98,104.23c-.88.9-1.68,1.04-2.32-.66-.39-1.05-.47-2.2-.31-3.3,4.22-30.1,7.86-58.6,10.56-84.44,1.24-10.14-1.52-15.61-11.55-12.62-1.52.5-2.98,1.2-4.38,2.12-2.44,1.72-5.09,2.04-7.73,1.81-.43-.04-.88.08-1.16.4-.78.88-.61,2.1.43,2.58,3.56.46,6.94.11,10.11-1.09.91-.34,1.88-.56,2.85-.45,1.57.18,2.71.92,3.38,2.28.44.9.52,1.94.37,2.93-5.26,34.71-10.59,69.74-12.37,86.37-.65,5.45-.6,10.78,1.03,13.61,3.67,9.95,15.98,10.13,21.08,3.22,4.92-5.86,7.84-15.44,9.6-27.2.88-5.07,2.61-10.1,4.97-15.09l-14.22-16.59-10.35,46.12Z"/>
  </g>
  <g id="keys">
    <circle class="cls-4" cx="23.89" cy="17.17" r="1.65"/>
    <circle class="cls-4" cx="23.42" cy="24.59" r="1.65"/>
    <ellipse class="cls-7" cx="24.99" cy="11.3" rx=".7" ry="1.45" transform="translate(11.81 35.34) rotate(-85.6)"/>
    <ellipse class="cls-7" cx="24.15" cy="7.76" rx="1.45" ry=".7"/>
    <circle class="cls-4" cx="21.47" cy="39.21" r="1.65"/>
    <circle class="cls-4" cx="20.61" cy="46.89" r="1.65"/>
    <circle class="cls-4" cx="18.68" cy="60.13" r="1.65"/>
    <circle class="cls-4" cx="17.66" cy="67.41" r="1.65"/>
    <ellipse class="cls-4" cx="14.96" cy="86.81" rx="3.89" ry="2.85" transform="translate(-73.12 87.83) rotate(-80.88)"/>
    <ellipse class="cls-4" cx="16.43" cy="75.34" rx="3.89" ry="2.85" transform="translate(-60.57 79.63) rotate(-80.88)"/>
    <ellipse class="cls-4" cx="13.43" cy="98.55" rx="3.89" ry="2.85" transform="translate(-86 96.2) rotate(-80.88)"/>
    <ellipse class="cls-4" cx="11.67" cy="114.45" rx="3.89" ry="2.85" transform="translate(-102.28 98.65) rotate(-76.29)"/>
    <ellipse class="cls-4" cx="24.88" cy="93.88" rx="6.14" ry="4.08" transform="translate(-71.76 103.58) rotate(-80.88)"/>
    <ellipse class="cls-4" cx="22.78" cy="106.9" rx="4.99" ry="3.85" transform="translate(-86.38 112.45) rotate(-80.88)"/>
    <circle class="cls-4" cx="6.48" cy="95.69" r="2.87"/>
    <ellipse class="cls-4" cx="26.51" cy="77.47" rx="6.14" ry="4.08" transform="translate(-54.18 91.37) rotate(-80.88)"/>
  </g>
  <g id="bell">
    <ellipse class="cls-2" cx="42.11" cy="61.32" rx="9.52" ry="15.53" transform="translate(-28.52 37.99) rotate(-37.24)"/>
    <ellipse class="cls-7" cx="40.88" cy="62.08" rx="6.2" ry="10.28" transform="translate(-29.23 37.39) rotate(-37.24)"/>
  </g>
</svg>