<?xml version="1.0" encoding="UTF-8"?>
<svg xmlns="http://www.w3.org/2000/svg" xmlns:xlink="http://www.w3.org/1999/xlink" viewBox="0 0 145.66 59.75">
  <defs>
    <style>
      .cls-1, .cls-2 {
        fill: #ffc233;
      }

      .cls-3 {
        fill: url(#linear-gradient);
      }

      .cls-3, .cls-2 {
        mix-blend-mode: screen;
      }

      .cls-4 {
        fill: #c06250;
      }

      .cls-5 {
        fill: none;
        isolation: isolate;
      }

      .cls-6 {
        fill: #cf8429;
      }

      .cls-7 {
        fill: #e9c57a;
        mix-blend-mode: multiply;
      }
    </style>
    <linearGradient id="linear-gradient" x1="2400.75" y1="-162.73" x2="2390.44" y2="-162.96" gradientTransform="translate(-2366.81 204.28) rotate(-.06)" gradientUnits="userSpaceOnUse">
      <stop offset=".07" stop-color="#030303"/>
      <stop offset=".63" stop-color="#fbf5b8"/>
    </linearGradient>
  </defs>
  <g class="cls-5">
    <g id="Layer_1" data-name="Layer 1">
      <g>
        <g>
          <path class="cls-1" d="m72.7,51.15h40.87s4.33.15,7.44-2.45c3.11-2.6,3.62-5.77,3.44-7.73-.18-1.95.18-4.4-2.37-7.66-2.55-3.26-8.03-3.55-8.03-3.55l-.31-2.87s7.57-1.32,12.1,5.91c4.53,7.24,1.16,13.78,1.16,13.78,0,0-2.53,6.91-10.38,8.13-7.85,1.22-36.43,0-36.43,0h-8.25l.76-3.57Z"/>
          <path class="cls-4" d="m103.71,55.37c-10.72,0-23.33-.53-23.52-.54h-8.25s-.07-.02-.09-.04c-.02-.03-.03-.06-.02-.1l.76-3.57c.01-.05.06-.09.11-.09h40.87s4.33.12,7.36-2.42c3.43-2.87,3.52-6.29,3.4-7.63-.03-.32-.04-.65-.06-1-.08-1.74-.17-3.9-2.29-6.6-2.49-3.18-7.89-3.5-7.94-3.5-.06,0-.1-.05-.11-.1l-.31-2.87c0-.06.03-.12.09-.13.08-.01,7.7-1.25,12.22,5.96,4.52,7.21,1.2,13.83,1.16,13.89-.02.06-2.64,6.97-10.47,8.19-2.6.41-7.53.54-12.93.54Zm-31.63-.77h8.11c.29.01,28.67,1.21,36.41,0,7.69-1.2,10.27-7.99,10.29-8.06.04-.08,3.3-6.58-1.15-13.68-4.15-6.62-10.95-5.99-11.88-5.87l.29,2.67c.75.06,5.65.56,8.01,3.58,2.16,2.76,2.25,4.96,2.33,6.73.02.35.03.67.06.99.12,1.37.04,4.89-3.48,7.83-3.11,2.6-7.47,2.47-7.52,2.47h-40.77l-.71,3.34Z"/>
        </g>
        <path class="cls-7" d="m116.31,54.68c-.05-.31.06-.62.2-.9.32-.64.86-1.18,1.43-1.62.36-.28.77-.49,1.16-.72.54-.32,1.08-.64,1.6-.98,1.04-.68,2.03-1.45,2.83-2.41,1.53-1.83,2.34-4.17,2.62-6.52.29-2.44-.16-4.99-1.3-7.16-.55-1.04-1.24-2.04-2.11-2.84-.44-.4-.93-.76-1.45-1.04-.53-.28-1.1-.49-1.61-.81-.05-.03-.08-.1-.04-.16.14-.22.37-.36.61-.46.54-.22,1.15-.28,1.73-.29-4.02-2.62-8.23-1.89-8.23-1.89l.31,2.87s5.48.29,8.03,3.55c2.55,3.26,2.19,5.71,2.37,7.66.18,1.95-.33,5.13-3.44,7.73-3.11,2.6-7.44,2.45-7.44,2.45h-40.87l-.76,3.57h8.25s27.89,1.19,36.14.04c0-.03-.01-.05-.02-.08Z"/>
        <g>
          <g>
            <g>
              <path class="cls-1" d="m60.43,43.57l-14.79-.19v-.72s14.81.18,14.81.18h.03s.82.09,1.75-.03c-.56-.12-1.05-.36-1.41-.71-.49-.47-.72-1.11-.66-1.85.13-1.82,1.6-2.71,2.98-2.65,1.32.07,2.7,1,2.66,2.91-.02.82-.32,1.5-.91,2.01-1.03.91-2.7,1.06-3.68,1.06-.42,0-.71-.02-.79-.03Zm.46-3.25c-.04.53.11.96.44,1.28.47.45,1.32.68,2.2.57l.04.34c.32-.13.61-.29.86-.51.43-.38.65-.86.66-1.49.03-1.44-.97-2.13-1.98-2.18-.04,0-.08,0-.12,0-.96,0-2,.61-2.11,1.98Z"/>
              <path class="cls-4" d="m61.22,43.72c-.41,0-.71-.02-.79-.03l-14.78-.19s-.06-.01-.08-.04c-.02-.02-.03-.05-.03-.08v-.72c.02-.06.07-.11.13-.11h0l14.84.19c.2.02.62.04,1.14.02-.35-.14-.65-.33-.89-.56-.52-.5-.76-1.17-.7-1.94.14-1.9,1.67-2.83,3.1-2.75,1.37.07,2.82,1.05,2.77,3.03-.02.86-.34,1.57-.95,2.1-1.02.89-2.6,1.09-3.76,1.09Zm-15.46-.45l14.67.18s0,0,.01,0c.08,0,.36.03.77.03.91,0,2.59-.14,3.61-1.03.56-.48.85-1.13.87-1.93.04-1.83-1.3-2.73-2.55-2.8-1.32-.06-2.73.79-2.86,2.54-.05.7.16,1.31.63,1.76.33.32.8.56,1.35.68.05.01.09.06.09.12s-.05.1-.1.11c-.79.1-1.5.06-1.76.03h-.05s-14.67-.19-14.67-.19v.49Zm17.81-.65s-.04,0-.06-.02c-.03-.02-.05-.05-.06-.09l-.02-.23c-.88.07-1.7-.16-2.18-.62-.36-.35-.52-.81-.48-1.37,0,0,0,0,0,0,.11-1.44,1.19-2.09,2.22-2.09.01,0,.02,0,.04,0,.03,0,.06,0,.09,0,1.06.05,2.12.78,2.09,2.3-.01.66-.24,1.17-.7,1.57-.24.21-.54.39-.89.53-.01,0-.03,0-.04,0Zm-.04-.57s.05,0,.07.03c.02.02.04.05.04.08l.02.18c.27-.12.5-.26.69-.43.41-.35.61-.81.62-1.4.03-1.36-.92-2.01-1.87-2.06-.04,0-.07,0-.11,0h0c-.92,0-1.89.58-1.99,1.87-.03.49.1.89.41,1.19.45.43,1.26.64,2.11.54,0,0,0,0,.01,0Z"/>
            </g>
            <g>
              <rect class="cls-1" x="49.16" y="41.58" width="1.66" height="1.16"/>
              <path class="cls-4" d="m49.16,42.86s-.06-.01-.08-.03c-.02-.02-.03-.05-.03-.08v-1.16c0-.06.05-.12.11-.12h1.66s.06.01.08.03c.02.02.03.05.03.08v1.16c0,.06-.05.12-.12.12h-1.66s0,0,0,0Zm.12-1.16v.93s1.43,0,1.43,0v-.93s-1.43,0-1.43,0Z"/>
            </g>
            <g>
              <rect class="cls-1" x="48.01" y="42.38" width="3.96" height="2.76"/>
              <path class="cls-4" d="m48.01,45.26c-.06,0-.12-.05-.12-.11v-2.76s0-.06.03-.08c.02-.02.05-.03.08-.03h3.96s0,0,0,0c.06,0,.12.05.12.11v2.76s0,.06-.03.08c-.02.02-.05.03-.08.03h-3.96s0,0,0,0Zm.11-2.76v2.53s3.74,0,3.74,0v-2.53s-3.74,0-3.74,0Z"/>
            </g>
          </g>
          <g>
            <g>
              <rect class="cls-6" x="73.48" y="35.55" width="13.12" height="1.36"/>
              <path class="cls-4" d="m73.48,37.03s-.06-.01-.08-.03-.03-.05-.03-.08v-1.36c0-.06.05-.12.11-.12h13.12s0-.01,0-.01c.06,0,.11.05.12.11v1.36s0,.06-.03.08c-.02.02-.05.03-.08.03h-13.12s0,.01,0,.01Zm.12-1.36v1.13s12.89-.01,12.89-.01v-1.13s-12.89.01-12.89.01Z"/>
            </g>
            <g>
              <g>
                <g>
                  <path class="cls-1" d="m85.11,57.65c0,.28,1.11.5,2.48.5,1.37,0,2.47-.22,2.48-.5,0-.28-1.11-.5-2.48-.5-1.37,0-2.48.23-2.48.5Z"/>
                  <path class="cls-4" d="m87.57,58.26c-.96,0-2.57-.13-2.58-.61h0c0-.49,1.63-.62,2.59-.62h0c.96,0,2.59.13,2.59.61,0,.49-1.62.62-2.58.62-.01,0-.02,0-.03,0Zm-2.34-.61c.05.14.88.38,2.34.38.01,0,.02,0,.04,0,1.47,0,2.31-.25,2.35-.39-.04-.13-.89-.38-2.36-.38h0c-1.47,0-2.31.25-2.36.39Z"/>
                </g>
                <g>
                  <path class="cls-1" d="m85.41,57.63c0,.16.97.29,2.18.29,1.2,0,2.18-.13,2.18-.3l-.03-32.27h-4.36s.03,32.27.03,32.27Z"/>
                  <path class="cls-4" d="m87.57,58.04c-.73,0-2-.06-2.22-.28-.04-.04-.05-.09-.05-.12l-.03-32.27c0-.06.05-.12.12-.12h4.36s0,0,0,0c.03,0,.06.01.08.03.02.02.03.05.03.08l.03,32.27c0,.37-1.61.41-2.3.41h-.02Zm-2.05-.44c.15.09.9.2,2.06.21,1.16,0,1.93-.12,2.07-.21l-.03-32.12h-4.13s.03,32.13.03,32.13Zm0,.03h0s0,0,0,0h0Z"/>
                </g>
                <path class="cls-7" d="m89.73,25.36h-.86v32.5c.54-.05.89-.14.9-.24l-.03-32.27Z"/>
                <path class="cls-7" d="m85.74,25.37h-.37s.03,32.27.03,32.27c0,.06.12.11.33.15V25.37Z"/>
                <g>
                  <path class="cls-1" d="m90.05,57.68v1.52c0,.23-1.11.42-2.47.43-1.36,0-2.47-.19-2.47-.42v-1.52c.31.18,1.3.32,2.47.32,1.18,0,2.16-.14,2.47-.32Z"/>
                  <path class="cls-4" d="m87.59,59.74c-.27,0-2.58-.02-2.59-.54v-1.52s.02-.08.05-.1c.04-.02.08-.02.12,0,.25.15,1.15.3,2.39.3h.02c1.25,0,2.16-.16,2.41-.31.04-.02.08-.02.12,0,.04.02.06.06.06.1v1.52c0,.52-2.32.54-2.58.54Zm-2.36-1.88v1.34c.07.09.85.31,2.36.31,1.5,0,2.29-.22,2.36-.33v-1.32c-.45.16-1.34.26-2.36.26h-.02c-1.01,0-1.9-.1-2.34-.26Z"/>
                </g>
                <g>
                  <g>
                    <path class="cls-1" d="m85.36,18.77c0-.15.98-.28,2.18-.28,1.2,0,2.18.12,2.18.27v1.14s-4.36,0-4.36,0v-1.14Z"/>
                    <path class="cls-4" d="m85.36,20.02s-.06-.01-.08-.03c-.02-.02-.03-.05-.03-.08v-1.14s.01-.07.05-.12c.22-.22,1.5-.28,2.23-.28.02,0,.04,0,.06,0,.71,0,2.25.04,2.26.39v1.14c0,.06-.05.12-.12.12h-4.36s0,0,0,0Zm.12-1.22v.99s4.13,0,4.13,0v-.99c-.15-.09-.9-.2-2.07-.19-1.13,0-1.91.11-2.06.2Z"/>
                  </g>
                  <g>
                    <path class="cls-1" d="m85.36,19.91c0,.16.98.28,2.18.28,1.21,0,2.18-.13,2.18-.28,0-.15-.98-.28-2.18-.28-1.21,0-2.18.13-2.19.28Z"/>
                    <path class="cls-4" d="m87.54,20.3c-.86,0-2.29-.05-2.3-.39,0,0,0,0,0,0,.01-.34,1.45-.39,2.3-.39h.01c.73,0,2.01.06,2.23.28.04.04.05.09.05.12,0,.34-1.44.4-2.3.4Zm-1.98-.39c.27.08.97.16,1.98.16,1.01,0,1.72-.09,1.98-.17-.26-.08-.96-.16-1.96-.16h-.02c-1.01,0-1.71.09-1.98.17Z"/>
                  </g>
                </g>
                <g>
                  <path class="cls-6" d="m86.8,20.01s.33-.09.74-.09c.41,0,.74.04.74.09v6.67s-1.47,0-1.47,0v-6.68Z"/>
                  <path class="cls-4" d="m86.81,26.8s-.06-.01-.08-.03c-.02-.02-.03-.05-.03-.08v-6.68s0,0,0,0c0-.07,0-.21.84-.21.02,0,.03,0,.05,0,.31,0,.69.02.78.12.02.02.04.07.04.1v6.67c0,.06-.05.11-.11.12h-1.48s0,0,0,0Zm.11-6.73v6.49s1.26,0,1.26,0v-6.49c-.1-.02-.32-.04-.63-.04-.33,0-.54.03-.63.05Zm1.25-.07h0s0,0,0,0Z"/>
                </g>
                <g>
                  <path class="cls-1" d="m85.37,22.62c0-.2.97-.36,2.18-.36,1.21,0,2.18.16,2.18.36v4.01s-4.36,0-4.36,0v-4.01Z"/>
                  <path class="cls-4" d="m85.37,26.74s-.06-.01-.08-.03-.03-.05-.03-.08v-4.01s0,0,0,0c0-.45,1.91-.48,2.29-.48.93,0,2,.1,2.23.33.05.05.06.1.06.14v4.01s0,.06-.03.08c-.02.02-.05.03-.08.03h-4.36s0,0,0,0Zm.11-4.1v3.87s4.13,0,4.13,0v-3.87c-.1-.09-.8-.26-2.07-.26-1.18,0-1.95.16-2.06.26Z"/>
                </g>
              </g>
              <g>
                <g>
                  <path class="cls-1" d="m77.6,57.65c0,.28,1.11.5,2.48.5,1.37,0,2.47-.23,2.47-.5,0-.28-1.11-.5-2.47-.5-1.37,0-2.48.23-2.48.5Z"/>
                  <path class="cls-4" d="m80.04,58.27c-1.02,0-2.18-.13-2.48-.43-.07-.07-.08-.14-.08-.18h0c0-.48,1.63-.62,2.59-.62h.01c1.03,0,2.2.13,2.49.43.07.07.08.14.08.18,0,.04-.01.11-.08.18-.3.3-1.47.44-2.51.44h-.03Zm-2.33-.61c.05.14.88.38,2.33.38h.04c1.47,0,2.32-.25,2.36-.39-.04-.13-.88-.38-2.34-.38h-.01c-1.46,0-2.31.25-2.36.39Z"/>
                </g>
                <g>
                  <path class="cls-1" d="m77.89,57.64c0,.16.98.29,2.18.29,1.21,0,2.18-.13,2.18-.29l-.03-32.27h-4.36s.04,32.27.04,32.27Z"/>
                  <path class="cls-4" d="m80.04,58.05c-.73,0-1.99-.06-2.21-.28-.04-.04-.05-.09-.05-.12l-.04-32.26c0-.06.05-.12.12-.12h4.36s0,0,0,0c.03,0,.06.01.08.03.02.02.03.05.03.08l.03,32.27c0,.37-1.61.41-2.3.41h-.03Zm-2.04-.44c.14.09.89.21,2.03.21h.03c1.16,0,1.92-.12,2.07-.21l-.03-32.12h-4.13s.04,32.13.04,32.13Zm0,.03h0s0,0,0,0Z"/>
                </g>
                <path class="cls-7" d="m78.78,25.37h-.93s.04,32.27.04,32.27c0,.1.35.18.89.24V25.37Z"/>
                <path class="cls-7" d="m82.21,25.37h-1.29v32.54c.78-.05,1.32-.15,1.32-.27l-.03-32.27Z"/>
                <g>
                  <path class="cls-1" d="m82.53,57.69v1.52c0,.24-1.1.43-2.47.43-1.36,0-2.47-.19-2.47-.42v-1.52c.3.19,1.29.32,2.47.32,1.18,0,2.16-.14,2.47-.32Z"/>
                  <path class="cls-4" d="m80.04,59.74c-.66,0-1.28-.04-1.74-.12-.73-.12-.82-.28-.82-.41v-1.52s.02-.08.06-.1c.04-.02.08-.02.12,0,.24.15,1.09.3,2.4.3h.02c1.25,0,2.15-.15,2.4-.31.04-.02.08-.02.12,0,.04.02.06.06.06.1v1.52c0,.52-2.27.54-2.57.54-.01,0-.02,0-.03,0Zm-2.33-1.87v1.34c.06.09.84.3,2.33.3.01,0,.03,0,.04,0,1.43,0,2.27-.21,2.34-.33v-1.32c-.44.16-1.34.26-2.35.26h-.02c-1.02,0-1.91-.1-2.35-.26Z"/>
                </g>
                <g>
                  <g>
                    <path class="cls-1" d="m77.84,18.77c0-.16.98-.28,2.18-.28,1.2,0,2.18.12,2.18.28v1.14s-4.36,0-4.36,0v-1.14Z"/>
                    <path class="cls-4" d="m77.85,20.03c-.06,0-.12-.05-.12-.11v-1.14h0c0-.13.12-.23.74-.31.42-.05.97-.08,1.56-.08h.01c.73,0,2.02.06,2.23.28.04.04.05.09.05.12v1.14c0,.06-.05.12-.11.12h-4.36s0,0,0,0Zm.11-1.22v.99s4.13,0,4.13,0v-.99c-.15-.09-.92-.19-2.07-.2-1.16,0-1.92.11-2.07.2Zm0-.03h0s0,0,0,0h0Zm4.13,0h0s0,0,0,0Z"/>
                  </g>
                  <g>
                    <path class="cls-1" d="m77.85,19.91c0,.16.97.28,2.18.28,1.2,0,2.18-.13,2.18-.28,0-.15-.98-.28-2.18-.27-1.2,0-2.18.13-2.18.28Z"/>
                    <path class="cls-4" d="m80.02,20.31c-.22,0-1.98,0-2.24-.28-.04-.04-.05-.09-.05-.12,0-.03,0-.07.05-.12.22-.22,1.51-.28,2.24-.28.85,0,2.29.05,2.3.39,0,.03,0,.08-.05.12-.22.22-1.51.28-2.24.28h0Zm-1.97-.39c.26.08.97.16,1.97.16h0c1.01,0,1.72-.09,1.98-.17-.26-.08-.98-.15-1.98-.16-.99,0-1.71.09-1.98.17Z"/>
                  </g>
                </g>
                <g>
                  <path class="cls-6" d="m79.28,20.02c0-.05.33-.09.75-.1.41,0,.74.04.74.09v6.67s-1.47,0-1.47,0v-6.68Z"/>
                  <path class="cls-4" d="m79.29,26.81s-.06-.01-.08-.03c-.02-.02-.03-.05-.03-.08v-6.68s0,0,0,0c0-.08,0-.21.86-.21.85,0,.85.12.85.2v6.68c0,.06-.05.11-.11.12h-1.48s0,0,0,0Zm.11-6.72v6.49s1.26,0,1.26,0v-6.49c-.1-.02-.32-.05-.63-.05-.32,0-.54.03-.63.05Z"/>
                </g>
                <g>
                  <path class="cls-1" d="m77.85,22.63c0-.2.97-.36,2.18-.37,1.2,0,2.18.16,2.18.36v4.01s-4.36,0-4.36,0v-4.01Z"/>
                  <path class="cls-4" d="m77.85,26.75s-.06-.01-.08-.03c-.02-.02-.03-.05-.03-.08v-4.01s0-.09.06-.14c.23-.23,1.29-.34,2.23-.34.95,0,2,.1,2.23.34.05.05.06.1.06.14v4.01c0,.06-.05.12-.11.12h-4.36s0,0,0,0Zm.11-4.11v3.87s4.13,0,4.13,0v-3.87c-.11-.11-.89-.26-2.07-.26-1.27,0-1.97.17-2.06.27Zm4.13-.02h0s0,0,0,0Z"/>
                </g>
              </g>
              <g>
                <g>
                  <path class="cls-1" d="m70.08,57.66c0,.28,1.11.5,2.48.5,1.37,0,2.48-.23,2.48-.5,0-.28-1.11-.5-2.48-.5-1.37,0-2.48.23-2.48.5Z"/>
                  <path class="cls-4" d="m72.55,58.28c-.96,0-2.59-.13-2.59-.61,0-.04.01-.11.08-.18.3-.3,1.48-.44,2.51-.44.95,0,2.59.12,2.59.61,0,.49-1.63.62-2.59.62h0Zm-2.36-.61c.05.14.9.38,2.36.38h0c1.48,0,2.32-.26,2.36-.39-.04-.13-.88-.38-2.34-.38-1.48,0-2.34.25-2.39.39Zm0,0s0,0,0,0h0s0,0,0,0Z"/>
                </g>
                <g>
                  <path class="cls-1" d="m70.37,57.65c0,.16.97.29,2.18.29,1.21,0,2.18-.13,2.18-.3l-.04-32.26h-4.36s.03,32.27.03,32.27Z"/>
                  <path class="cls-4" d="m72.55,58.06c-.69,0-2.29-.04-2.3-.4h0s-.03-32.27-.03-32.27c0-.03.01-.06.03-.08.02-.02.05-.03.08-.03h4.36s0,0,0,0c.06,0,.12.05.12.11l.04,32.26c0,.37-1.61.41-2.3.41Zm-2.06-.44c.14.09.9.21,2.06.21,1.16,0,1.93-.12,2.07-.21l-.04-32.12h-4.13s.03,32.12.03,32.12Z"/>
                </g>
                <path class="cls-7" d="m70.76,25.38h-.42s.03,32.27.03,32.27c0,.06.15.12.39.17V25.38Z"/>
                <path class="cls-7" d="m74.69,25.38h-1.57v32.55c.92-.04,1.6-.15,1.6-.29l-.04-32.26Z"/>
                <g>
                  <path class="cls-1" d="m75.01,57.69v1.52c0,.23-1.1.43-2.47.43-1.37,0-2.47-.19-2.47-.42v-1.51c.3.18,1.29.32,2.47.32,1.18,0,2.17-.14,2.47-.33Z"/>
                  <path class="cls-4" d="m72.54,59.75c-.29,0-2.57-.02-2.58-.54v-1.52s.02-.08.06-.1c.04-.02.08-.02.12,0,.25.15,1.16.31,2.41.3h0c1.25,0,2.16-.15,2.4-.31.04-.02.08-.02.12,0,.04.02.06.06.06.1v1.52c0,.53-2.32.54-2.58.54h0Zm-2.35-1.87v1.34c.06.09.84.31,2.34.31h.01c1.51,0,2.29-.22,2.35-.33v-1.32c-.44.16-1.34.26-2.35.26,0,0-.02,0-.03,0-1.01,0-1.89-.1-2.33-.26Z"/>
                </g>
                <g>
                  <g>
                    <path class="cls-1" d="m70.32,18.78c0-.16.98-.28,2.18-.28,1.21,0,2.18.12,2.18.28v1.14s-4.36,0-4.36,0v-1.14Z"/>
                    <path class="cls-4" d="m70.33,20.04c-.06,0-.12-.05-.12-.11v-1.14s0-.07.05-.12c.22-.22,1.51-.28,2.24-.28h0c.86,0,2.29.05,2.29.39v1.14c0,.06-.05.12-.11.12h-4.36Zm.11-1.22v.99s4.13,0,4.13,0v-.99c-.15-.09-.91-.2-2.06-.2h0c-1.16,0-1.92.11-2.06.2Z"/>
                  </g>
                  <g>
                    <path class="cls-1" d="m70.33,19.92c0,.16.98.28,2.18.28,1.21,0,2.18-.13,2.18-.28,0-.16-.97-.28-2.18-.28-1.2,0-2.18.13-2.18.28Z"/>
                    <path class="cls-4" d="m72.45,20.31c-.71,0-2.23-.04-2.24-.39h0s0-.07.05-.12c.22-.22,1.51-.28,2.24-.28h0c.22,0,1.98,0,2.24.28.04.04.05.09.05.12,0,.03,0,.07-.05.12-.22.22-1.51.28-2.24.28h-.06Zm-1.92-.39c.26.08.97.16,1.98.16,1.01,0,1.72-.09,1.98-.17-.26-.08-.97-.16-1.97-.16,0,0,0,0-.01,0-1,0-1.71.09-1.97.17Z"/>
                  </g>
                </g>
                <g>
                  <path class="cls-6" d="m71.77,20.02s.33-.09.74-.09c.41,0,.74.04.74.09v6.68s-1.47,0-1.47,0v-6.68Z"/>
                  <path class="cls-4" d="m71.77,26.82s-.06-.01-.08-.03c-.02-.02-.03-.05-.03-.08v-6.68s.01-.07.03-.09c.1-.1.6-.12.82-.12.85,0,.86.13.86.2v6.68c0,.06-.05.12-.11.12h-1.48s0,0,0,0Zm.11-6.72v6.49s1.26,0,1.26,0v-6.49c-.1-.02-.31-.04-.63-.04h0c-.31,0-.53.03-.62.05Zm0-.07h0s0,0,0,0Zm0,0h0s0,0,0,0Z"/>
                </g>
                <g>
                  <path class="cls-1" d="m70.33,22.63c0-.2.97-.36,2.17-.36,1.21,0,2.18.16,2.18.36v4.01s-4.35,0-4.35,0v-4.01Z"/>
                  <path class="cls-4" d="m70.33,26.76s-.06-.01-.08-.03c-.02-.02-.03-.05-.03-.08v-4.01s0-.09.06-.14c.23-.23,1.28-.34,2.22-.34h.04c.58,0,1.12.04,1.53.11.51.09.73.2.73.37v4.01c0,.06-.05.12-.11.12h-4.36s0,0,0,0Zm.11-4.11v3.88s4.13,0,4.13,0v-3.87c-.1-.09-.79-.26-2.04-.26-.02,0-.03,0-.05,0-1.26,0-1.95.17-2.05.26Z"/>
                </g>
              </g>
            </g>
          </g>
          <g>
            <g>
              <path class="cls-1" d="m5.77.12c1.2,0,2.32,1.79,3.24,4.83,13.48,20.71,38.14,19.71,38.14,19.71l-.04.57c-5.16.12-10.26,2.2-13.31,6.36-7.96,2.27-17.83,7.2-24.74,17.87-.92,3.05-2.03,4.83-3.23,4.83-3.14,0-5.69-12.12-5.71-27.08C.1,12.25,2.63.12,5.77.12Z"/>
              <path class="cls-4" d="m5.82,54.4C2.57,54.4.01,42.46,0,27.21-.02,11.95,2.52,0,5.77,0h0,0c1.22,0,2.37,1.69,3.34,4.89,6.94,10.66,16.91,15.43,24.05,17.56,7.74,2.31,13.93,2.09,13.99,2.09.03,0,.06.01.09.04.02.02.03.06.03.09l-.04.57c0,.06-.05.11-.11.11-5.55.12-10.37,2.42-13.22,6.31-.02.02-.04.04-.06.04-7.35,2.1-17.59,6.89-24.67,17.8-.97,3.21-2.12,4.9-3.34,4.9h0ZM5.77.23c-1.44,0-2.85,2.86-3.89,7.85C.81,13.19.22,19.98.23,27.21c0,7.23.6,14.02,1.68,19.13,1.05,4.98,2.48,7.84,3.91,7.84h0c1.11,0,2.19-1.64,3.12-4.75,0-.01,0-.02.01-.03,7.1-10.97,17.38-15.79,24.77-17.9,2.88-3.9,7.71-6.22,13.28-6.37l.02-.34c-.93.02-6.76.04-13.93-2.1-7.18-2.14-17.21-6.94-24.19-17.67,0,0-.01-.02-.01-.03C7.97,1.92,6.86.23,5.77.23h0Zm0-.12h0,0Z"/>
            </g>
            <g>
              <path class="cls-1" d="m5.77.12c1.2,0,2.32,1.79,3.24,4.83,13.48,20.71,38.14,19.71,38.14,19.71l-.04.57c-5.16.12-10.26,2.2-13.31,6.36-7.96,2.27-17.83,7.2-24.74,17.87-.92,3.05-2.03,4.83-3.23,4.83-3.14,0-5.69-12.12-5.71-27.08C.1,12.25,2.63.12,5.77.12Z"/>
              <path class="cls-4" d="m5.82,54.4C2.57,54.4.01,42.46,0,27.21-.02,11.95,2.52,0,5.77,0h0,0c1.22,0,2.37,1.69,3.34,4.89,6.94,10.66,16.91,15.43,24.05,17.56,7.74,2.31,13.93,2.09,13.99,2.09.03,0,.06.01.09.04.02.02.03.06.03.09l-.04.57c0,.06-.05.11-.11.11-5.55.12-10.37,2.42-13.22,6.31-.02.02-.04.04-.06.04-7.35,2.1-17.59,6.89-24.67,17.8-.97,3.21-2.12,4.9-3.34,4.9h0ZM5.77.23c-1.44,0-2.85,2.86-3.89,7.85C.81,13.19.22,19.98.23,27.21c0,7.23.6,14.02,1.68,19.13,1.05,4.98,2.48,7.84,3.91,7.84h0c1.11,0,2.19-1.64,3.12-4.75,0-.01,0-.02.01-.03,7.1-10.97,17.38-15.79,24.77-17.9,2.88-3.9,7.71-6.22,13.28-6.37l.02-.34c-.93.02-6.76.04-13.93-2.1-7.18-2.14-17.21-6.94-24.19-17.67,0,0-.01-.02-.01-.03C7.97,1.92,6.86.23,5.77.23h0Zm0-.12h0,0Z"/>
            </g>
            <path class="cls-2" d="m19.31,17.11c-1.68-1.08-3.27-2.29-4.8-3.57-1.56-1.32-3.05-2.74-4.36-4.32-.96-1.16-1.83-2.42-2.48-3.78.45,1.91,1.25,3.74,2.25,5.42,1.14,1.92,2.57,3.69,4.25,5.18,1.75,1.54,3.8,2.68,5.95,3.55,2.14.86,4.38,1.5,6.64,1.98.94.2,1.89.37,2.85.46-1.48-.49-2.93-1.06-4.35-1.7-2.06-.93-4.06-2-5.96-3.22Z"/>
            <path class="cls-7" d="m40.38,24.17c-.31.02-.61.05-.92.08-1.31.12-2.61.3-3.9.5-1.18.19-2.36.36-3.55.53-2.35.35-4.7.75-7.02,1.29-2.24.52-4.49,1.16-6.6,2.07-1.85.8-3.67,1.89-4.82,3.6-.3.44-.47.91-.64,1.41-.22.63-.44,1.26-.69,1.88-.25.63-.52,1.27-.89,1.84-.24.38-.57.83-1.02.97-.45.14-.82-.15-1.07-.5-.37-.52-.57-1.17-.73-1.78-.18-.68-.31-1.38-.42-2.08-.1-.63-.22-1.26-.28-1.9-.23-2.34.02-4.7-.24-7.03-.42,1.39-.72,2.81-.94,4.25-.22,1.45-.36,2.92-.45,4.38-.08,1.33-.14,2.66-.06,3.99.15,2.56.68,5.23.08,7.76-.02.09-.13.11-.19.05-.23-.22-.43-.47-.61-.74-.88-1.33-1.23-2.99-1.52-4.53-.33-1.76-.61-3.53-.8-5.31-.45-4.16-.44-8.33-.48-12.5-.03-2.72-.06-5.45.11-8.17.18-2.92.53-5.88,1.49-8.66.6-1.76,1.49-3.47,2.8-4.79-.4-.43-.82-.66-1.25-.66C2.63.12.1,12.25.12,27.21c.01,14.96,2.57,27.08,5.71,27.08,1.2,0,2.32-1.79,3.23-4.83,6.91-10.66,16.78-15.59,24.74-17.87,3.05-4.16,8.16-6.24,13.31-6.36l.04-.57s-2.69.11-6.77-.49Z"/>
            <g>
              <path class="cls-1" d="m5.77.12c.64,0,1.25.5,1.83,1.43-.26-.19-.52-.29-.78-.29-2.91,0-5.27,11.62-5.25,25.94.02,14.33,2.39,25.94,5.31,25.94.27,0,.53-.1.78-.29-.57.93-1.19,1.43-1.82,1.43-3.14,0-5.69-12.12-5.71-27.08C.1,12.25,2.63.12,5.77.12Z"/>
              <path class="cls-4" d="m5.82,54.4C2.57,54.4.01,42.46,0,27.21-.02,11.95,2.52,0,5.77,0h0c.67,0,1.31.5,1.92,1.49.03.05.02.11-.02.15-.04.04-.1.04-.15,0-.24-.18-.48-.26-.72-.26-1.33,0-2.64,2.74-3.61,7.51-.99,4.89-1.53,11.4-1.53,18.32,0,6.92.56,13.43,1.56,18.32.98,4.77,2.3,7.5,3.63,7.5h0c.23,0,.48-.09.72-.27.04-.03.11-.03.15,0,.04.04.05.1.02.15-.61.99-1.25,1.49-1.92,1.49h0ZM5.77.23c-1.44,0-2.85,2.86-3.89,7.85C.81,13.19.22,19.98.23,27.21c0,7.23.6,14.02,1.68,19.13,1.05,4.98,2.48,7.84,3.91,7.84h0c.49,0,.98-.34,1.47-.99-.14.05-.29.07-.43.08-1.47,0-2.84-2.73-3.85-7.69-1-4.91-1.56-11.43-1.57-18.37,0-6.93.54-13.46,1.53-18.37C3.97,3.88,5.34,1.15,6.81,1.14c.14,0,.29.03.43.08-.48-.66-.98-.99-1.47-.99Z"/>
            </g>
          </g>
          <g>
            <path class="cls-1" d="m33.17,28.41c4.87-2.18,11.53-2.26,11.82-2.27l69.12-.07-.02,3.72-69.07.19c-.06,0-6.15.08-10.27,1.93-.97.43-2.1,0-2.53-.97-.44-.97,0-2.1.96-2.54Z"/>
            <path class="cls-4" d="m33.96,32.2c-.24,0-.49-.04-.73-.13-.51-.19-.91-.57-1.13-1.07-.22-.49-.24-1.05-.05-1.56.19-.51.57-.91,1.07-1.14h0c4.73-2.12,11.15-2.27,11.86-2.28l69.12-.07h0s.06.01.08.03c.02.02.03.05.03.08l-.02,3.72c0,.06-.05.11-.11.11l-69.07.19h0c-.08,0-6.1.07-10.22,1.92-.27.12-.55.18-.83.18Zm-.74-3.68c-.44.2-.78.56-.95,1.01-.17.45-.16.94.04,1.38.2.44.55.78,1,.95.45.17.94.16,1.38-.04,4.12-1.85,10.22-1.94,10.32-1.94h0l68.96-.19.02-3.49-69,.07c-.72,0-7.09.15-11.78,2.26h0Z"/>
          </g>
          <path class="cls-7" d="m33.17,28.41c4.87-2.18,11.53-2.26,11.82-2.27l69.12-.07-.02,3.72-69.07.19c-.06,0-6.15.08-10.27,1.93-.97.43-2.1,0-2.53-.97-.44-.97,0-2.1.96-2.54Z"/>
          <g>
            <g>
              <g>
                <path class="cls-1" d="m141.85,26.12c0,1.66-.21,2.96.58,3.37.15.08,1.11.21,1.27.21,1.02,0,1.85-1.61,1.85-3.58,0-1.98-.83-3.58-1.85-3.58-.17,0-1.12.12-1.27.2-.79.41-.58,1.73-.57,3.39Z"/>
                <path class="cls-4" d="m143.7,29.81c-.16,0-1.15-.12-1.33-.22-.7-.36-.68-1.35-.65-2.6,0-.28.01-.57.01-.88h0c0-.3,0-.59-.01-.87-.03-1.26-.06-2.25.65-2.62.18-.09,1.16-.21,1.32-.21,0,0,0,0,0,0,.32,0,.65.15.93.43.64.64,1.04,1.89,1.04,3.27,0,1.38-.39,2.63-1.03,3.27-.28.28-.6.43-.93.43Zm-1.74-3.69c0,.31,0,.6-.01.88-.03,1.21-.05,2.09.53,2.39.12.07,1.04.19,1.22.2.27,0,.52-.12.77-.36.6-.6.97-1.79.96-3.1,0-1.32-.37-2.51-.97-3.1-.24-.24-.5-.36-.77-.36,0,0,0,0,0,0-.19,0-1.1.12-1.21.18-.58.3-.56,1.19-.53,2.41,0,.28.01.57.01.87h0Z"/>
              </g>
              <g>
                <path class="cls-1" d="m140.88,26.12c0,1.88.79,3.4,1.76,3.4.97,0,1.75-1.52,1.75-3.4,0-1.88-.79-3.4-1.75-3.4-.97,0-1.76,1.52-1.76,3.4Z"/>
                <path class="cls-4" d="m142.64,29.63c-.31,0-.61-.14-.88-.41-.61-.61-.99-1.8-.99-3.11h0c0-1.31.37-2.5.98-3.11.27-.27.58-.41.89-.41,0,0,0,0,0,0,.31,0,.61.14.88.41.61.61.99,1.8.99,3.11,0,1.31-.37,2.5-.98,3.11-.27.27-.57.41-.88.41h0Zm0-6.8c-.25,0-.5.12-.73.34-.57.57-.92,1.7-.92,2.95h0c0,1.25.35,2.38.92,2.94.23.23.47.34.72.34,0,0,0,0,0,0,.25,0,.49-.12.72-.34.57-.57.92-1.69.91-2.95,0-1.25-.35-2.38-.92-2.95-.23-.23-.47-.34-.72-.34,0,0,0,0,0,0Z"/>
              </g>
              <g>
                <path class="cls-1" d="m134.96,24.3c.88-.03,2.62.14,3.47-.08,1.24-.32,1.44-.87,2.69-1.13.45-.09.88-.09,1.33-.08.82,0,1.49,1.41,1.49,3.15,0,1.74-.66,3.16-1.48,3.16-.45,0-.88,0-1.33-.08-1.25-.25-1.45-.81-2.69-1.13-.85-.22-2.6-.05-3.48-.08l-.23-2.07.23-1.66Z"/>
                <path class="cls-4" d="m142.25,29.43c-.38,0-.75,0-1.14-.08-.67-.14-1.05-.36-1.42-.58-.34-.2-.69-.4-1.27-.55-.56-.14-1.53-.11-2.39-.09-.4.01-.78.02-1.06.02-.06,0-.1-.05-.11-.1l-.23-2.07s0-.02,0-.03l.23-1.66c0-.06.05-.1.11-.1.28,0,.65,0,1.05.01.86.03,1.83.06,2.4-.09.58-.15.93-.35,1.26-.55.37-.22.76-.44,1.43-.58.44-.09.84-.09,1.27-.09h.07s0,0,0,0c.25,0,.5.12.72.33.55.55.89,1.67.88,2.93,0,1.26-.33,2.39-.88,2.94-.22.22-.46.33-.71.33h-.1s-.08,0-.12,0Zm-5.15-1.55c.53,0,1.02.03,1.38.12.61.16.98.37,1.33.57.37.22.72.42,1.35.55.41.08.8.08,1.21.08h.1c.19,0,.37-.09.55-.27.5-.5.82-1.59.81-2.77,0-1.18-.32-2.27-.82-2.77-.18-.18-.36-.27-.55-.27h-.08c-.42,0-.82,0-1.23.08-.63.13-.99.33-1.36.55-.35.21-.71.42-1.32.57-.6.15-1.59.12-2.47.1-.35-.01-.68-.02-.94-.02l-.22,1.55.22,1.96c.27,0,.6,0,.95-.02.35-.01.72-.02,1.07-.02Z"/>
              </g>
              <path class="cls-2" d="m140.32,25.16c.3-.06.6-.16.89-.27.29-.12.57-.26.82-.45.13-.1.26-.21.35-.35-.97,0-1.83.5-2.55,1.13.16,0,.33-.03.49-.06Z"/>
              <path class="cls-7" d="m142.69,27.27c-.78.16-1.66.15-2.41-.15-.26-.1-.45-.24-.61-.47-.15-.22-.25-.48-.33-.73-.18-.55-.28-1.14-.56-1.65-.02-.04-.05-.09-.08-.13-.08.03-.17.05-.26.08-.85.22-2.59.05-3.47.08l-.23,1.66.23,2.07c.88.03,2.62-.14,3.48.08,1.24.32,1.44.87,2.69,1.13.45.09.88.08,1.33.08.71,0,1.31-1.07,1.45-2.49-.38.22-.81.36-1.22.45Z"/>
            </g>
            <g>
              <path class="cls-1" d="m42.42,26.33c0-1.03.29-1.86.66-1.88v-.05c.25,0,.42,0,.49,0l93.7-.1c1.06,0,1.24.86,1.24,1.92,0,1.06-.18,1.92-1.24,1.92l-93.72.1h-.06s-.22,0-.5,0v-.05c-.33-.13-.58-.91-.58-1.86Z"/>
              <path class="cls-4" d="m43,28.35s-.06-.01-.08-.03c-.02-.02-.03-.04-.03-.06-.34-.22-.58-.99-.58-1.93h0c0-.91.23-1.84.67-1.98.02-.04.06-.06.1-.07.21,0,.36,0,.45,0h.04s93.7-.1,93.7-.1h0c.53,0,.91.21,1.12.62.16.32.24.75.24,1.41,0,1.01-.16,2.04-1.35,2.04l-93.72.1h-.06s-.18,0-.49,0h0Zm-.46-2.02c0,.96.26,1.65.51,1.75.02,0,.04.02.05.04.2,0,.35,0,.41,0h.05s93.71-.1,93.71-.1c.93,0,1.12-.72,1.12-1.81,0-.62-.07-1.02-.21-1.3-.17-.34-.46-.5-.91-.5h0l-93.7.1h-.04c-.07,0-.19,0-.35,0-.02.03-.05.05-.09.05-.26.02-.55.75-.55,1.77Z"/>
            </g>
            <path class="cls-2" d="m138.51,26.01c0-.25-.03-.48-.07-.69H42.53c-.05.21-.08.44-.09.69h96.07Z"/>
            <path class="cls-7" d="m42.44,26.75c.06.75.29,1.32.56,1.43v.05c.27-.01.45,0,.5,0h.06s93.72-.1,93.72-.1c.87,0,1.15-.58,1.22-1.38H42.44Z"/>
            <g>
              <path class="cls-1" d="m130.51,26.23c0-1.06-.46-1.91-1.02-1.93.17-.19.38-.31.6-.31.65,0,1.17.97,1.17,2.17,0,1.2-.52,2.17-1.17,2.17-.17,0-.33-.06-.47-.18.5-.14.89-.94.89-1.92Z"/>
              <path class="cls-4" d="m130.08,28.44c-.18,0-.36-.07-.53-.21-.03-.03-.05-.07-.04-.11,0-.04.04-.08.08-.09.45-.12.81-.91.81-1.81h0c0-.98-.41-1.8-.91-1.82-.04,0-.08-.03-.1-.07-.02-.04-.01-.09.02-.12.2-.23.43-.35.68-.35h0c.23,0,.45.1.64.29.4.4.65,1.16.65,1.99,0,.83-.25,1.59-.65,1.99-.19.19-.41.29-.64.29h0Zm-.22-.28c.07.03.15.05.22.05.17,0,.33-.08.48-.23.36-.36.58-1.06.58-1.83,0-.77-.22-1.47-.58-1.83-.15-.15-.32-.22-.48-.23-.12,0-.24.04-.35.13.52.21.9,1.02.9,2,0,.89-.31,1.65-.76,1.93Z"/>
            </g>
            <g>
              <path class="cls-1" d="m138.28,26.22c0-1.06-.46-1.91-1.03-1.93.18-.19.38-.31.6-.3.65,0,1.17.97,1.18,2.16,0,1.2-.52,2.17-1.17,2.17-.16,0-.33-.07-.47-.18.51-.14.89-.94.89-1.92Z"/>
              <path class="cls-4" d="m137.85,28.44c-.19,0-.37-.07-.54-.21-.03-.03-.05-.07-.04-.11,0-.04.04-.08.08-.09.46-.12.81-.9.81-1.81,0-.98-.41-1.8-.92-1.82-.04,0-.08-.03-.1-.07-.02-.04,0-.09.02-.12.21-.23.43-.34.68-.34h0c.72,0,1.29,1,1.29,2.28,0,1.28-.57,2.28-1.29,2.29Zm-.23-.28c.07.03.15.05.23.05.58,0,1.06-.93,1.06-2.06,0-1.11-.49-2.05-1.06-2.05,0,0,0,0,0,0-.12,0-.24.04-.35.13.52.21.9,1.02.9,2h0c0,.89-.31,1.65-.77,1.93Z"/>
            </g>
          </g>
        </g>
        <path class="cls-3" d="m34.58,27.92s-.09.06-.25.18c-.08.06-.18.13-.3.22-.11.09-.24.19-.39.31-.29.24-.63.54-.99.9-.17.18-.36.39-.55.61-.18.23-.38.45-.55.72-.38.51-.7,1.11-1.01,1.76-.3.65-.54,1.37-.74,2.13-.18.76-.32,1.56-.38,2.39-.05.41-.06.83-.07,1.25v.33c-.02.09-.02.2-.02.3,0,.2,0,.41.02.62.09,1.66.51,3.31,1.18,4.72.34.7.73,1.35,1.16,1.92.44.57.91,1.06,1.37,1.49.24.21.46.41.7.57.22.18.45.33.66.47.43.28.82.51,1.15.68.33.18.6.29.78.38.18.08.28.13.28.13,0,0-.1-.03-.29-.09-.19-.06-.48-.14-.82-.29-.35-.13-.77-.32-1.23-.57-.47-.25-.97-.57-1.49-.97-.51-.41-1.04-.89-1.52-1.47-.48-.58-.94-1.24-1.31-1.98-.37-.74-.7-1.53-.91-2.37-.23-.83-.37-1.71-.42-2.58-.01-.22-.02-.44-.02-.66,0-.11,0-.22,0-.34v-.31c.03-.44.04-.87.09-1.29.07-.86.25-1.69.46-2.48.22-.79.52-1.53.87-2.2.36-.67.74-1.27,1.16-1.77.2-.26.42-.48.62-.7.21-.21.42-.4.62-.58.4-.34.77-.61,1.09-.82.16-.1.3-.19.43-.26.13-.07.24-.13.33-.18.18-.1.27-.15.27-.15Z"/>
        <g>
          <path class="cls-1" d="m43.57,24.39v3.79s-8.32-.42-10.71,7.27c-2.39,7.69,3.93,13.12,10.25,13.42v3.84s-8.14-.33-11.98-6.2c-3.77-5.76-3.06-11.06-.46-15.34,2.93-4.83,9.3-6.94,12.9-6.78Z"/>
          <path class="cls-4" d="m43.11,52.83h0c-.08,0-8.24-.4-12.07-6.25-4.22-6.45-2.58-11.97-.46-15.46,2.99-4.92,9.53-6.99,13.01-6.84.06,0,.11.05.11.12v3.79s-.01.06-.04.08c-.02.02-.05.04-.09.03-.08,0-8.26-.33-10.6,7.19-1.22,3.93-.05,6.8,1.16,8.51,1.94,2.76,5.38,4.59,8.98,4.75.06,0,.11.05.11.11v3.84s-.01.06-.04.08c-.02.02-.05.03-.08.03Zm.1-28.33c-3.5,0-9.6,2.06-12.44,6.73-2.09,3.44-3.7,8.87.46,15.21,3.51,5.37,10.75,6.07,11.77,6.14v-3.61c-3.63-.2-7.09-2.05-9.05-4.84-1.23-1.76-2.44-4.7-1.19-8.71,2.24-7.18,9.66-7.36,10.71-7.35v-3.56c-.08,0-.17,0-.25,0Z"/>
        </g>
        <path class="cls-2" d="m33.73,47.73c-1.66-1.87-2.95-4.09-3.54-6.51-.61-2.48-.45-5.14.5-7.52.96-2.4,2.69-4.44,4.76-6.02,1.33-1.01,2.79-1.86,4.34-2.52-3.15.96-6.54,2.92-8.47,6.01-2.65,4.24-3.37,9.48.47,15.18,1.4,2.08,3.37,3.46,5.31,4.37-1.24-.87-2.37-1.87-3.37-2.99Z"/>
        <path class="cls-7" d="m42.55,24.68c-.06.52-.2,1.04-.56,1.45-.38.43-.95.67-1.48.87-.4.14-.8.26-1.2.4-.43.15-.85.31-1.27.48-.86.35-1.69.77-2.48,1.26-.77.48-1.5,1.03-2.14,1.68-.59.6-1.08,1.27-1.48,2.01-.7,1.3-1.14,2.74-1.3,4.21-.15,1.45-.04,2.92.32,4.33.36,1.39.96,2.72,1.8,3.88.85,1.18,1.93,2.19,3.18,2.93.63.37,1.3.68,2,.88.72.21,1.47.32,2.22.36.98.06,1.96.01,2.94-.13v-.41c-6.31-.29-12.64-5.72-10.25-13.42,2.4-7.69,10.71-7.27,10.71-7.27v-3.79c-.31-.01-.64,0-.99.01,0,.09-.02.18-.03.27Z"/>
        <g>
          <path class="cls-1" d="m85.58,44.84h21.26s4.09.19,4.85,4.34c.76,4.15-4.55,4.91-4.55,4.91h-20.52v-3.28h19.68s1.38.19,1.61-.88c.23-1.07-.84-1.34-2.45-1.34h-18.84l-1.03-3.75Z"/>
          <path class="cls-4" d="m86.62,54.21c-.06,0-.12-.05-.12-.12v-3.28c0-.06.05-.12.12-.12h19.68c.07,0,1.29.17,1.5-.79.06-.29.02-.51-.12-.69-.28-.35-.99-.51-2.22-.51h-18.84c-.05,0-.1-.03-.11-.08l-1.03-3.75s0-.07.02-.1c.02-.03.06-.05.09-.05h21.26s4.2.24,4.96,4.43c.2,1.09,0,2.05-.57,2.85-1.28,1.78-3.97,2.18-4.08,2.2h-20.54Zm.12-.23h20.41s2.69-.41,3.91-2.1c.54-.75.72-1.65.53-2.67-.73-4.01-4.7-4.24-4.74-4.24h-21.1s.97,3.51.97,3.51h18.75c1.32,0,2.06.18,2.4.6.19.23.24.52.17.88-.2.93-1.22,1.04-1.74.97h-19.55v3.05Z"/>
        </g>
        <path class="cls-7" d="m105.46,48.59c1.26,0,2.19.17,2.42.76.01-.4-.43-.73-.75-.92-.53-.32-1.1-.48-1.7-.6-1.83-.39-3.72-.42-5.58-.42-1.92,0-3.85-.02-5.77-.02-.93,0-1.87,0-2.8,0-.7.01-1.49.02-2.13-.32-.55-.3-.81-.87-1.04-1.42-.12-.29-.25-.56-.41-.82h-2.12l1.03,3.75h18.84Z"/>
        <path class="cls-7" d="m110.73,51.04c-.6.46-1.31.76-2.03,1-.82.27-1.68.45-2.54.58-1.74.26-3.51.33-5.26.32-2.23,0-4.46-.13-6.69-.21-.68-.03-1.36-.06-2.05-.03-.59.02-1.19.05-1.78-.04-.24-.04-.49-.09-.7-.23-.21-.14-.32-.37-.38-.6-.08-.34-.08-.69-.16-1.02h-2.54v3.28h20.52s4.7-.68,4.63-4.22c-.25.46-.61.85-1.03,1.17Z"/>
        <g>
          <g>
            <path class="cls-1" d="m39.66,50.47s-.09,3.58,3.7,4.27,39.86,0,39.86,0c0,0,3.1,0,4.39-1.8,1.3-1.8.84-4.78.23-6.08-.61-1.3-1.72-2.71-5.04-2.83s-4.55.61-4.55,2.83c0,0,.04,1.18,1.91,1.3,1.87.11,3.21.04,3.59,1.18.38,1.15-.23,2.18-2.1,2.33-1.87.15-40.43,0-40.43,0l-1.56-1.21Z"/>
            <path class="cls-4" d="m55.41,55.16c-5.92,0-10.79-.08-12.07-.31-3.84-.7-3.79-4.35-3.79-4.39,0-.04.03-.08.07-.1.04-.02.09-.01.12.01l1.53,1.19c1.43,0,38.56.15,40.38,0,.92-.08,1.57-.37,1.89-.85.24-.36.28-.82.11-1.33-.31-.94-1.33-.99-2.87-1.07-.2-.01-.41-.02-.62-.03-1.95-.12-2.02-1.4-2.02-1.41,0-.97.22-1.63.71-2.1.68-.66,1.9-.92,3.96-.85,3.41.12,4.54,1.61,5.14,2.89.58,1.24,1.11,4.33-.24,6.19-1.32,1.82-4.36,1.84-4.49,1.84-.97.02-16.36.31-27.81.31Zm-15.63-4.45c.05.8.47,3.35,3.6,3.92,3.73.68,39.48,0,39.84,0,.03,0,3.05-.02,4.3-1.75,1.29-1.79.78-4.76.22-5.96-.61-1.3-1.68-2.65-4.94-2.76-1.99-.07-3.16.17-3.79.78-.43.42-.64,1.03-.64,1.93,0,.04.07,1.08,1.8,1.18.21.01.42.02.62.03,1.58.08,2.71.14,3.08,1.23.19.57.14,1.1-.14,1.53-.36.54-1.07.87-2.06.95-1.86.15-38.87,0-40.44,0-.03,0-.05,0-.07-.02l-1.36-1.06Z"/>
          </g>
          <path class="cls-7" d="m80.16,48.17c1.87.11,3.21.04,3.59,1.18.25.75.07,1.45-.6,1.89.15-.05.3-.11.44-.18.34-.17.7-.4.89-.73.26-.47.15-1.12-.09-1.57-.3-.59-.84-1.03-1.46-1.26-.66-.24-1.37-.25-2.06-.3-.57-.04-1.24-.07-1.71-.43-.32-.25-.48-.63-.5-1.03,0-.22.02-.44.07-.65-.33.44-.48,1.02-.48,1.79,0,0,.04,1.18,1.91,1.3Z"/>
          <path class="cls-7" d="m87.84,46.87c-.61-1.3-1.72-2.71-5.04-2.83-1.93-.07-3.15.15-3.83.78,1.22-.33,2.53-.35,3.77-.13,1.38.25,2.79.86,3.66,2,.95,1.24.93,2.92.34,4.32-.7,1.64-2.24,2.68-3.83,3.32-.43.17-.87.32-1.32.45,1.05-.02,1.65-.03,1.65-.03,0,0,3.1,0,4.39-1.8,1.3-1.8.84-4.78.23-6.08Z"/>
        </g>
        <g>
          <g>
            <path class="cls-1" d="m70.69,45.11l-25.44.03c-.27,0-2.65.05-4.25,1.69-.92.94-1.38,2.2-1.35,3.64.03,1.04.88,1.87,1.92,1.87.02,0,.03,0,.05,0,1.06-.03,1.89-.91,1.87-1.97-.01-.58.18-.78.25-.86.37-.39,1.19-.53,1.53-.54l25.42-.03c1.06,0,1.92-.86,1.92-1.92,0-1.06-.87-1.92-1.92-1.92Z"/>
            <path class="cls-4" d="m41.58,52.46s0,0,0,0c-1.09,0-2-.89-2.03-1.98-.03-1.48.44-2.77,1.38-3.72,1.69-1.74,4.23-1.72,4.33-1.73l25.44-.03h0,0c1.12,0,2.03.91,2.03,2.03,0,1.12-.92,2.04-2.04,2.04l-25.42.03c-.31,0-1.1.14-1.45.5-.06.07-.23.24-.22.77.03,1.12-.86,2.06-1.98,2.08l-.03-.11v.11s-.02,0-.02,0Zm3.66-7.2c-.24,0-2.58.04-4.15,1.66-.89.91-1.34,2.14-1.31,3.56.03.97.84,1.76,1.8,1.76h.06c.99-.02,1.77-.85,1.75-1.85-.02-.63.2-.85.28-.94.4-.42,1.26-.57,1.61-.58l25.42-.03c.99,0,1.8-.81,1.81-1.81,0-.99-.81-1.8-1.8-1.8h0l-25.44.03h-.02Zm25.46-.14h0,0Z"/>
          </g>
          <path class="cls-7" d="m70.69,45.11h0c.16.85-.14,1.79-1,2.14-.58.23-1.21.31-1.83.34-.69.03-1.39-.01-2.08-.06-.64-.04-1.28-.08-1.92-.08-.85,0-1.71,0-2.56,0-1.7,0-3.39,0-5.09,0-1.71,0-3.41.02-5.12.04-.84,0-1.69.02-2.53.03-.74.01-1.49.04-2.23,0-.64-.03-1.27-.08-1.91-.06-.59.02-1.24.08-1.76.4-.23.14-.41.34-.49.6-.08.24-.08.49-.09.73,0,.49,0,1.09-.35,1.48-.39.44-.85-.12-1.04-.45-.29-.5-.45-1.07-.48-1.65-.01-.22,0-.45.03-.68-.4.75-.6,1.63-.58,2.58.03,1.04.88,1.87,1.92,1.87.02,0,.03,0,.05,0,1.06-.03,1.89-.91,1.87-1.97-.01-.58.18-.78.25-.86.37-.39,1.19-.53,1.53-.54l25.42-.03c1.06,0,1.92-.86,1.92-1.92,0-1.06-.87-1.92-1.92-1.92Z"/>
          <g>
            <path class="cls-1" d="m42.82,50.93c0-1.02-.08-2.04.29-2.06h0l27.95-.03c1.06,0,1.92.86,1.92,1.92,0,1.06-.86,1.92-1.92,1.92l-27.98.03c-.05,0-.1,0-.16,0-.11-.23-.11-.93-.11-1.78Z"/>
            <path class="cls-4" d="m43.08,52.83h-.16s-.08-.03-.1-.07c-.11-.25-.12-.88-.12-1.76v-.06s0,0,0,0c0-.16,0-.31,0-.46-.01-.98-.02-1.69.4-1.71l27.96-.03h0c1.12,0,2.03.91,2.04,2.03,0,1.12-.91,2.04-2.03,2.04l-27.98.03Zm-.07-.23h.08s27.97-.03,27.97-.03c.99,0,1.8-.81,1.8-1.81,0-.99-.81-1.8-1.81-1.8h0l-27.95.03c-.19.01-.18.86-.18,1.48,0,.15,0,.31,0,.47v.06c0,.68,0,1.33.08,1.6Z"/>
          </g>
          <path class="cls-7" d="m72.36,49.35c-.23.93-1.68,1.2-2.51,1.31-.63.08-1.26.11-1.89.13-1.1.03-2.21.08-3.31.1-1.48.03-2.95.04-4.43.04-1.48,0-2.97-.04-4.45-.03-2.92.03-5.85.24-8.77.09-.69-.03-1.38-.08-2.06-.17-.4-.05-.81-.13-1.16-.32-.59-.33-.76-.95-.79-1.58-.23.22-.17,1.11-.17,2.01,0,.85,0,1.54.11,1.78.06,0,.1,0,.16,0l27.98-.03c1.06,0,1.92-.86,1.92-1.92,0-.56-.24-1.06-.62-1.41Z"/>
        </g>
        <path class="cls-2" d="m88.96,45.34h17.58s4.03-.05,4.38,3.87c0,0-1.27-3.21-4.79-3.11s-16.76,0-16.76,0l-.41-.76Z"/>
      </g>
    </g>
  </g>
</svg>