<?xml version="1.0" encoding="UTF-8"?>
<svg xmlns="http://www.w3.org/2000/svg" viewBox="0 0 80.59 145.96">
  <defs>
    <style>
      .cls-1 {
        fill: #f7f1ec;
      }

      .cls-2 {
        fill: #f1aa66;
      }

      .cls-3 {
        fill: #f5b032;
      }

      .cls-4 {
        fill: #f3c8a7;
      }

      .cls-5 {
        fill: #f1f2f2;
      }

      .cls-6 {
        fill: #e5c0aa;
      }

      .cls-7 {
        fill: #854323;
      }

      .cls-8 {
        fill: #a25d3c;
      }

      .cls-9 {
        fill: #904927;
      }

      .cls-10 {
        fill: #b86239;
      }

      .cls-11 {
        fill: #8e4f33;
      }

      .cls-12 {
        fill: #a95831;
      }

      .cls-13 {
        fill: #c1663c;
      }

      .cls-14 {
        fill: #e21f27;
      }

      .cls-15 {
        fill: #120c0a;
      }

      .cls-16 {
        fill: #21409a;
      }

      .cls-17 {
        fill: #231f20;
      }

      .cls-18 {
        fill: #3e1d10;
      }

      .cls-19 {
        fill: #9c4f2b;
      }

      .cls-20 {
        fill: #9b4f2b;
      }

      .cls-21 {
        fill: #8a4525;
      }

      .cls-22 {
        fill: #6f3c25;
      }

      .cls-23 {
        fill: #88492d;
      }

      .cls-24 {
        fill: #3a1b0f;
      }

      .cls-25 {
        fill: #3d281b;
      }

      .cls-26 {
        fill: #2e170e;
      }

      .cls-27 {
        fill: #7a3c1e;
      }

      .cls-28 {
        fill: #5e321c;
      }

      .cls-29 {
        fill: #4d2312;
      }

      .cls-30 {
        fill: #83482e;
      }

      .cls-31 {
        fill: #821a1c;
        stroke: #231f20;
        stroke-miterlimit: 10;
      }
    </style>
  </defs>
  <g id="head">
    <path class="cls-5" d="m21.91,58.78C-1.88,47.16,1.77,17.33,21.91,5.71,31.81-.35,43.43-1.28,54.4,1.49c9.31,2.35,17.49,8.18,22.09,16.6,11.07,20.24-2.19,44.24-17.62,44.42"/>
  </g>
  <g id="head_details" data-name="head details">
    <ellipse class="cls-14" cx="44.59" cy="19.21" rx="17.16" ry="16.29"/>
    <path class="cls-14" d="m8.92,46.81c-5.55-8.94-4.59-23.42,3.47-32.9,3.82,10.55,3.51,23.98-3.47,32.9Z"/>
    <path class="cls-14" d="m73.23,55.01c-4.91-8.9-2.93-22.59,5.78-30.99,3.06,10.3,1.81,23.04-5.78,30.99Z"/>
  </g>
  <g id="face">
    <path class="cls-4" d="m58.78,59.15c-.78,7.94-7.15,14.04-15.06,15.01-5.2.63-9.91.09-14.65-3.02-1.1-.72-2.12-1.57-3-2.54-4.06-4.51-5.56-10.72-2.66-19.85,1.36-11.55,39.66-12.42,35.36,10.4Z"/>
  </g>
  <g id="eyes">
    <ellipse class="cls-17" cx="33.14" cy="50.64" rx="4.15" ry="1.95" transform="translate(-21.09 77.51) rotate(-83.15)"/>
    <ellipse class="cls-5" cx="33.32" cy="49.16" rx="1.44" ry=".84" transform="translate(-19.46 76.38) rotate(-83.15)"/>
    <ellipse class="cls-17" cx="48.12" cy="52.29" rx="4.15" ry="1.95" transform="translate(-9.53 93.83) rotate(-83.15)"/>
    <ellipse class="cls-5" cx="48.3" cy="50.81" rx="1.44" ry=".84" transform="translate(-7.91 92.7) rotate(-83.15)"/>
  </g>
  <g id="mouth">
    <path class="cls-31" d="m33.14,60.57c-.73,8.38,11.57,10.58,12.97,1.44-2.72-1.2-9.13-2.13-12.97-1.44Z"/>
    <path class="cls-14" d="m34.37,64.25c1.41,3.48,7.55,4.47,9.84,1.11-.84-2.11-6.87-3.35-9.84-1.11Z"/>
  </g>
  <g id="shoes">
    <path class="cls-30" d="m15.03,119.16c8.7,6.03,24.02-1.85,23.33-8.77-6.18-.47-11.34-2.62-15.2-6.67-7.72,2.69-12.92,10.51-8.5,15.12.11.12.24.22.37.32Z"/>
    <path class="cls-30" d="m66.43,119.1c-8.69,6.13-24.1-2.34-23.41-9.29,6.18-.47,10.94-2.95,14.8-7.01,7.76,2.7,13.35,11.49,8.83,16.1-.07.07-.14.13-.22.19Z"/>
  </g>
  <g id="body">
    <path class="cls-4" d="m10.62,61.86l.49,13.64c4.05.73,8.73,2.25,13.63,3.84l-1.85,12.45c3.78-6.81,28.81-9.55,33.1-2.23l2.84-9.05,6.54-13.13-2.22-5.5c-.59-1.73-1.44-3.16-1.9-3.8-.42-.72-1.67-.54-1.67.29.03.49.28,2.46.48,4.07.05.38-.08.77-.34,1.06-3.37,3.76-6.4,7.3-9.33,8.23-3.38.58-8.7.7-8.5,2.6-.02-.09-7.37-.84-7.17-.62.75-1.22-1.89-.89-3.13-1.2-2.82-.34-18.89-5.99-18.89-5.99,0,0,.12-4.18-.53-4.62-.65-.73-1.54-.05-1.54-.05Z"/>
  </g>
  <g id="maracas">
    <path class="cls-2" d="m64.16,53.08c-.74,2.83.87,7.02,2.81,11.05,3.3,7.02-2.92,9.83-4.42,1.69-.56-4.49-.99-9.19-3.15-11.24,2.37.43,3.93-.48,4.76-1.5Z"/>
    <path class="cls-16" d="m59.4,54.58c1.72.44,3.76-.15,4.76-1.5,6.48-10.63-.02-17.64-4.26-18.85-9.18-3.36-14.71,13.74-.49,20.35Z"/>
    <path class="cls-2" d="m11.45,58.88c-1.24,2.65-.43,7.06.74,11.38,1.95,7.51-4.67,9.13-4.66.85.27-4.52.71-9.22-1.04-11.63,2.25.86,3.96.25,4.95-.61Z"/>
    <path class="cls-16" d="m6.5,59.48c1.61.75,3.72.54,4.95-.61,8.32-9.26,3.21-17.34-.74-19.31-8.41-4.99-16.98,10.81-4.21,19.92Z"/>
  </g>
  <g id="fingers">
    <path class="cls-4" d="m70.93,67.05c-.05-.06-.1-.11-.15-.17-.28-.29-.36-.64-.33-.98s-.13-.68-.46-1.03-.47-.74-.44-1.14c.03-.43-.11-.86-.48-1.27-.31-.35-.45-.75-.4-1.14s-.06-.77-.34-1.13c-.44-.57-1.37-.89-2.24-.8s-1.76.33-2.57.65c-.4.16-.71.44-.86.75-.4.82-.13,1.42,1.24,1.65-1.05.19-.69,1.67.14,2.25.45.32.64.76.63,1.2,0,.8.45,1.59,1.12,1.67-.11.05-.17.24-.17.49.02.97,1.32,1.69,2.65,1.57.61-.06,1.22-.18,1.8-.39,1.09-.4,1.51-1.38.84-2.17Z"/>
    <path class="cls-4" d="m4.67,73.87c.01-.08.03-.16.05-.24.09-.41-.02-.79-.22-1.12s-.24-.74-.13-1.23.03-.94-.2-1.33c-.25-.42-.35-.9-.24-1.48.09-.48,0-.94-.25-1.31s-.35-.79-.29-1.27c.09-.76.75-1.5,1.57-1.8s1.74-.47,2.63-.51c.44-.02.86.11,1.16.35.79.63.86,1.34-.24,2.19,1.03-.28,1.49,1.34,1.06,2.3-.23.52-.17,1.04.07,1.47.42.79.43,1.78-.12,2.16.12,0,.28.16.41.41.49.97-.29,2.27-1.53,2.75-.57.22-1.18.38-1.8.43-1.18.09-2.07-.69-1.89-1.76Z"/>
  </g>
  <g id="pants">
    <path class="cls-5" d="m21.12,96.41c-1.7,19.89,40.09,17.91,38.93,0,.15-15.89-38.14-17.9-38.93,0Z"/>
  </g>
  <g id="vest">
    <path class="cls-16" d="m27.31,89.85c-2.51.78-5.58.99-7.9.92,1.92-7.28,5.36-13.22,12.09-18.25l3.13,1.2c-3.22,5.62-5.78,11.05-6.91,15.68-.05.21-.2.39-.41.45Z"/>
    <path class="cls-3" d="m26.42,88.56c1.47-4.97,4.18-9.77,7.28-15.2.37.14.73.27.93.36l-6.87,15.76c-.07.17-.21.3-.38.36-2.58.89-5.47,1.26-7.97.94l.29-1.07c2.21-.15,4.31-.62,6.72-1.13Z"/>
    <path class="cls-16" d="m45.91,88.82c4.45-.17,9.25-.03,14.26.34.68.05,1.2-.56.99-1.21l-2.42-7.44c-4.16-1.41-7.83-3.8-8.43-8.52-1.79.97-5.28,2.1-8.49,2.36l2.73,13.31c.14.67.68,1.19,1.37,1.16Z"/>
    <path class="cls-3" d="m43.45,74.14c1.07,4.09,2.38,8.15,2.95,12.75,6.05.02,10.79.39,14.6.58.43.98.21,1.71-.83,1.73l-14.95-.34c-.26,0-.48-.17-.54-.42-.63-2.26-1.79-8.56-2.88-14.09.64-.06,1.31-.14,1.65-.2Z"/>
  </g>
  <g id="blocks">
    <g>
      <path class="cls-6" d="m64.9,120.37s0,0,0,.01c-.03,0-.07,0-.1,0-2.05,0-4.11,0-6.16,0-1.66,0-3.31,0-4.97,0,0,0,0,0,0-.01h11.23Z"/>
      <path class="cls-6" d="m66.88,120.38s0,0,0-.01h11.23s0,0,0,.01c0,0-.01,0-.02,0-3.74,0-7.47,0-11.21,0Z"/>
      <path class="cls-1" d="m53.08,138.57h.02c0,1.49,0,2.99,0,4.48,0,.78,0,1.56,0,2.34,0,0-.01,0-.02,0,0-2.27,0-4.55,0-6.82Z"/>
      <path class="cls-1" d="m53.1,136.58s-.01,0-.02,0v-6.81s0,0,.01,0c0,.03,0,.05,0,.08,0,.5,0,1,0,1.5,0,1.74,0,3.48,0,5.22Z"/>
      <path class="cls-18" d="m78.66,127.79c-.18.18-.36.36-.54.54-.1,0-.2,0-.29.01-.76,0-1.52,0-2.28,0-.19,0-.38,0-.57,0-.34,0-.68,0-1.01,0-.04,0-.09,0-.13,0-.21,0-.42,0-.64,0-.1,0-.2-.01-.29-.01-.2,0-.39.01-.59.01-.09,0-.17-.01-.26-.01-.22,0-.44,0-.66,0-.28,0-.56,0-.83,0-.15,0-.3,0-.44,0-.25,0-.5,0-.74,0-.15,0-.3.01-.45.01-.24,0-.47,0-.71,0-.15,0-.29-.01-.44-.01-.13,0-.25.01-.38.01-.13,0-.26-.02-.39,0-.09,0-.14-.01-.2-.08-.13-.14-.28-.28-.42-.41-.02-.02-.02-.05-.03-.07.18,0,.36,0,.54,0,.03,0,.06,0,.09,0,3.24,0,6.48,0,9.72,0,.47,0,.93,0,1.4,0,.16,0,.32,0,.48,0,.02,0,.05,0,.07.01Z"/>
      <path class="cls-13" d="m66.88,120.38c3.74,0,7.47,0,11.21,0,0,0,.01,0,.02,0,0,0,0,0,0,0,0,.19,0,.37,0,.56,0,0,0,0,0,0-.04,0-.07,0-.11,0-3.71,0-7.41,0-11.12,0-.16,0-.31,0-.47,0-.03,0-.06,0-.08-.01.18-.19.37-.37.55-.56Z"/>
      <path class="cls-26" d="m65.47,145.4c-.18.18-.35.36-.53.54-.02.02-.04.02-.06.03-.02,0-.03,0-.05,0-3.69,0-7.38,0-11.07,0-.03,0-.06,0-.09-.01,0-.19,0-.37,0-.56,0,0,0,0,0,0,0,0,0,0,.01,0,.15,0,.3,0,.45,0,.02,0,.04,0,.06,0,.02,0,.04,0,.06,0,.04,0,.08,0,.12,0,.02,0,.04,0,.06,0,.02,0,.04.01.06.01.31,0,.62,0,.93,0,.02,0,.04,0,.06-.01h.09s.05.01.07.01c.54,0,1.08,0,1.61,0,.02,0,.05,0,.07-.01.03,0,.07,0,.1,0,.01,0,.02.01.03.01.19,0,.37,0,.56,0,.01,0,.02,0,.03-.01.02,0,.04,0,.06,0,.03,0,.05.01.08.01.81,0,1.61,0,2.42,0,.03,0,.05,0,.08-.01,0,0,.02,0,.03,0,.02,0,.05.01.07.01.42,0,.83,0,1.25,0,.02,0,.05,0,.07-.01.04,0,.08,0,.12,0h.22s.04,0,.06,0c.02,0,.05.01.07.01.47,0,.94,0,1.41,0,.02,0,.05,0,.07-.01.01,0,.03,0,.04,0,.02,0,.04.01.05.01.23,0,.46,0,.69,0,.02,0,.04,0,.05-.01,0,0,0,0,.01,0,.19,0,.38,0,.57,0h0Z"/>
      <path class="cls-13" d="m78.11,138s0,.02,0,.02c0,.18,0,.36,0,.55h0c-.25,0-.5,0-.75,0-3.49,0-6.99,0-10.48,0,0-.15,0-.31,0-.46,0-.03,0-.06-.02-.08.02,0,.05-.02.07-.02.06,0,.13,0,.19,0,.36,0,.73,0,1.09,0,0,0,.02,0,.03,0,.08,0,.17,0,.25,0,0,0,.02,0,.03,0,.03,0,.05,0,.08,0,2.67,0,5.34,0,8,0,.03,0,.05,0,.08,0h.09c.33,0,.66,0,.99,0,.01,0,.03,0,.04,0,.09,0,.18,0,.26,0h.01s0,0,.01,0Z"/>
      <path class="cls-26" d="m78.12,145.95s-.05.01-.07.01c-3.7,0-7.4,0-11.1,0-.03,0-.05-.01-.08-.02,0-.04.01-.07.01-.11,0-.15,0-.3,0-.44.04,0,.09,0,.13,0,.07,0,.13.01.2.01.08,0,.16,0,.24-.01.02,0,.04,0,.06,0,.09,0,.18,0,.28,0,.06,0,.12,0,.18,0h.06s.1,0,.15,0c.01,0,.03,0,.04,0,.01,0,.03,0,.04,0,.03,0,.06,0,.09,0,.01,0,.03,0,.04,0,.1,0,.19,0,.29,0,.02,0,.04,0,.06,0,.1,0,.2,0,.31,0,.01,0,.03,0,.04,0,.04,0,.08,0,.12,0,.02,0,.05,0,.07,0,.02,0,.04,0,.06,0,.01,0,.03,0,.04,0,.02,0,.04.01.06.01.33,0,.66,0,.99,0,.02,0,.04,0,.06-.01h.09s.1,0,.15,0c.04,0,.08,0,.12,0,.02,0,.04.01.05.01.28,0,.55,0,.83,0,.02,0,.04,0,.05-.01.04,0,.08,0,.12,0,.02,0,.05.01.07.01.5,0,1,0,1.5,0,.02,0,.05,0,.07-.01.06,0,.13,0,.19,0,.02,0,.05.01.07.01.12,0,.23,0,.35,0,.03,0,.06,0,.09-.01.04,0,.08,0,.12,0,.12,0,.23,0,.35,0,.01,0,.03,0,.04,0,.22,0,.44,0,.66,0,.04,0,.08,0,.12,0,.13,0,.26,0,.39,0h.18s.04.01.05.01c.28,0,.57,0,.85,0,.02,0,.04,0,.05-.01.06,0,.12,0,.18,0h.17c.05,0,.11,0,.16,0,.01,0,.03,0,.04,0,.09,0,.19,0,.28,0,.08,0,.16,0,.23.01,0,.18,0,.36,0,.55Z"/>
      <path class="cls-19" d="m53.1,145.39c0-.78,0-1.56,0-2.34,0-1.49,0-2.98,0-4.48,0,0,0,0,.01,0,.19,0,.37,0,.56,0,0,1.56,0,3.12,0,4.68,0,.71,0,1.42,0,2.13,0,0,0,.01,0,.02,0,0,0,0,0,0-.17,0-.33,0-.5,0-.01,0-.03.01-.04.02,0,0-.02-.01-.03-.02Z"/>
      <path class="cls-27" d="m78.66,127.79s-.05-.01-.07-.01c-.16,0-.32,0-.48,0,0,0,0,0,0-.01v-.02s.01-.05.01-.07c0-2.05,0-4.1,0-6.14,0-.19,0-.38,0-.58,0,0,0,0,0,0,.19,0,.37,0,.56,0,0,.03,0,.05,0,.08,0,2.22,0,4.44,0,6.66,0,.03-.02.07-.02.1Z"/>
      <path class="cls-27" d="m78.67,138.57s0,.05,0,.08c0,2.22,0,4.45,0,6.67,0,.03-.01.06-.02.09-.03,0-.05-.02-.08-.02-.15,0-.31,0-.47,0,0-.03,0-.06,0-.09,0-1.33,0-2.66,0-3.99,0-.91,0-1.82,0-2.74,0,0,0,0,0,0,.19,0,.37,0,.56,0Z"/>
      <path class="cls-27" d="m78.67,129.76s0,.06,0,.09c0,2.22,0,4.44,0,6.66,0,.03-.02.06-.02.09-.06,0-.12-.01-.18-.02-.12,0-.25,0-.37,0,0-.03,0-.06,0-.09,0-1.83,0-3.66,0-5.49,0-.41,0-.83,0-1.24h0c.19,0,.37,0,.56,0Z"/>
      <path class="cls-26" d="m78.11,136.58c.12,0,.25,0,.37,0,0,0,0,.01,0,.02.02.07.03.12-.07.13-.04,0-.07.06-.11.01,0,0-.03.02-.04.03,0,.02,0,.04,0,.06,0,.02-.01.04-.02.06-.02,0-.04-.02-.06-.02-.01,0-.02,0-.04-.02v.25s-.03.07-.03.1c0,.26,0,.53,0,.79,0,0,0,0-.01,0,0,0,0,0-.01,0-.09,0-.18,0-.26,0,0-.28,0-.57,0-.84-.14,0-.28,0-.41,0-.07,0-.15-.01-.22-.01-.18,0-.37,0-.55.01-.05,0-.1-.01-.14-.01-.12,0-.24.01-.37.01-.19,0-.38,0-.57-.01-.12,0-.25,0-.37,0-.34,0-.69,0-1.03,0-.27,0-.54,0-.81,0-.06,0-.08-.02-.08-.08,0-.16,0-.32,0-.47,0,0,.01,0,.02,0,.02,0,.05,0,.07,0,1.55,0,3.1,0,4.66,0,.03,0,.07,0,.1,0Z"/>
      <path class="cls-13" d="m78.11,129.19s0,0,0,0c0,.19,0,.37,0,.56,0,0,0,0,0,0-.05,0-.1,0-.15,0-1.56,0-3.12,0-4.68,0,0,0,0,0,0,0,0-.18,0-.36,0-.54v-.03s.06,0,.08,0c1.27,0,2.55,0,3.82,0,.21,0,.43,0,.64,0,.09,0,.17,0,.26,0,0,0,0,0,.01,0,0,0,0,0,.01,0Z"/>
      <path class="cls-26" d="m78.11,129.19s0,0-.01,0c0,0,0,0-.01,0-.09,0-.17,0-.26,0,0-.28,0-.56,0-.84.1,0,.2,0,.29-.01,0,.29,0,.57,0,.86Z"/>
      <path class="cls-15" d="m66.31,145.39c-.28,0-.56,0-.84,0,0,0,0,0,0,0,0-.1,0-.19,0-.29.28,0,.56,0,.84,0,0,.1,0,.19,0,.29h0Z"/>
      <path class="cls-29" d="m66.88,145.39c0,.15,0,.3,0,.44,0,.04,0,.07-.01.11-.19-.18-.37-.37-.56-.55,0,0,0,0,0,0,.19,0,.38,0,.57,0h0Z"/>
      <path class="cls-20" d="m78.12,129.76c0-.19,0-.37,0-.56.19.19.37.37.56.56-.19,0-.37,0-.56,0Z"/>
      <path class="cls-20" d="m78.67,120.95c-.19,0-.37,0-.56,0,0-.19,0-.37,0-.56.18.18.37.36.55.54,0,0,0,.01,0,.02Z"/>
      <path class="cls-15" d="m78.11,145.39c.16,0,.31,0,.47,0,.03,0,.05.01.08.02-.18.18-.36.36-.54.54,0-.18,0-.36,0-.55,0,0,0-.01,0-.02,0,0,0,0,0,0Z"/>
      <path class="cls-20" d="m78.67,138.57c-.19,0-.37,0-.56,0,0-.18,0-.36,0-.55,0,0,.02,0,.02,0,.18.18.36.36.53.54Z"/>
      <path class="cls-29" d="m53.12,145.41s.03-.02.04-.02c.17,0,.33,0,.5,0,0,.19,0,.37,0,.56-.18-.18-.36-.36-.54-.54Z"/>
      <path class="cls-25" d="m78.15,137.11v-.25s.03.01.04.02c.02,0,.04.02.06.02,0-.02.02-.04.02-.06,0-.02,0-.04,0-.06,0-.01.04-.03.04-.03.04.05.08,0,.11-.01.1-.01.09-.06.07-.13,0,0,0-.01,0-.02.06,0,.12.01.18.02-.17.17-.34.34-.51.51Z"/>
      <path class="cls-25" d="m66.31,145.1c-.28,0-.56,0-.84,0,0-.03,0-.05,0-.08,0-2.1,0-4.2,0-6.3,0-.05,0-.09,0-.14-.02-.02-.03-.04-.05-.06-.17-.17-.34-.34-.52-.51-.01,0-.02-.01-.03-.02-.02,0-.03-.01-.05-.01-.16,0-.33,0-.49,0-.02,0-.03,0-.05.01-.07,0-.14,0-.2,0h-1.09c-.09,0-.18,0-.26,0h-.03c-.06,0-.12,0-.18,0,0,0-.02,0-.03,0h-.12s-.03,0-.04,0c-.02,0-.05,0-.07,0h-.16s-.1,0-.15,0c-.02,0-.04-.01-.05-.01-.15,0-.3,0-.45,0-.02,0-.04,0-.05.01-.05,0-.11,0-.16,0-.03,0-.06-.01-.1-.01-.1,0-.21,0-.31.01-.01,0-.03,0-.04,0,0,0-.02,0-.03,0h-.07c-.12,0-.23,0-.35,0h-.12s-.04-.01-.06-.01c-.36,0-.72,0-1.07,0-.02,0-.04,0-.06.01h-.26s-.04,0-.06,0c-.04,0-.09,0-.13,0-.01,0-.03,0-.04,0-.05,0-.1,0-.15,0h-.34s-.06,0-.09,0c-.02,0-.04,0-.06,0-.03,0-.05-.01-.08-.01-1.31,0-2.62,0-3.94,0-.03,0-.05,0-.08.01-.03,0-.07,0-.1,0,0,0,0,0-.01,0,0,0,0,0-.01,0,0-.22,0-.45,0-.67.08,0,.13-.05.19-.1.07-.06.13-.1.23-.09.12,0,.25,0,.37,0,.19,0,.39,0,.58,0,.1,0,.2,0,.3,0,.04,0,.09,0,.13,0,.11,0,.21,0,.32,0,.02,0,.05,0,.07,0,.08,0,.17,0,.25,0,.15,0,.3-.01.44-.01.11,0,.22.01.34.01.13,0,.26-.01.39-.01.1,0,.21.01.31.01.08,0,.16-.01.25-.01.07,0,.14.01.21.01.04,0,.08-.01.12-.01.11,0,.22,0,.32,0,.02-.01.04-.02.06-.04.12-.11.24-.22.35-.34.05-.05.1-.12.15-.18,0,0,0-.02.01-.03,0-.02,0-.05,0-.07,0-2.21,0-4.41,0-6.62,0-.03,0-.06,0-.09,0-.01,0-.03-.01-.03-.18-.18-.37-.37-.55-.55,0,0-.02,0-.03,0-.03,0-.05,0-.08,0-.81,0-1.63,0-2.44,0-.74,0-1.48,0-2.23,0,0,0,0,0,0-.01-.02-.02-.04-.04-.05-.06,0-.19,0-.38,0-.57.05-.03.1-.06.15-.09.06-.04.11-.09.17-.11.09-.02.19-.02.29-.02.3,0,.6,0,.9,0,.17,0,.35.01.52.01.1,0,.21-.01.31-.01,1.8,0,3.6,0,5.4,0,.02,0,.04,0,.07,0,.1,0,.2,0,.3,0,.09,0,.18,0,.27,0,.16,0,.32.01.47,0,.18,0,.36,0,.55-.01.19,0,.38,0,.57,0,.08,0,.16,0,.24,0,.07,0,.14,0,.22,0,.1,0,.19,0,.29,0,.1,0,.21,0,.31,0,.07,0,.13-.01.2-.02.01,0,.03,0,.04-.01.16-.16.32-.32.48-.48.01-.01.02-.03.02-.04,0-.03.03-.06.03-.09,0-2.11,0-4.23,0-6.34,0-.13,0-.26,0-.39.28,0,.56,0,.85,0,0,1.52,0,3.05,0,4.57,0,.72,0,1.45,0,2.17,0,.03.02.06.03.09.01.02.02.05.03.07.14.14.29.27.42.41.06.06.11.08.2.08.13-.01.26,0,.39,0,.13,0,.25-.01.38-.01.15,0,.29.01.44.01.24,0,.47,0,.71,0,.15,0,.3-.01.45-.01.25,0,.5,0,.74,0,.15,0,.3,0,.44,0,.28,0,.56,0,.83,0,.22,0,.44,0,.66,0,.09,0,.17.01.26.01.2,0,.39-.01.59-.01.1,0,.2.01.29.01.21,0,.42,0,.64,0,.04,0,.09,0,.13,0,.34,0,.68,0,1.01,0,.19,0,.38,0,.57,0,.76,0,1.52,0,2.28,0,0,.28,0,.56,0,.84-.21,0-.43,0-.64,0-1.27,0-2.55,0-3.82,0-.03,0-.05,0-.08,0,0,0-.02.02-.03.03l-.02.02s-.02.02-.03.03c0,0-.01.01-.02.02,0,0-.02.02-.03.03-.02.02-.04.04-.06.06,0,0-.02.02-.03.03-.04.04-.08.08-.12.12,0,0-.02.02-.03.03-.03.03-.06.06-.09.09,0,0-.01.02-.02.03h0s-.02.01-.03.02c0,0-.01.01-.02.02,0,0-.01.02-.02.03h0s0,0-.01.01h0s-.02.02-.04.03c0,.04,0,.08,0,.12,0,1.2,0,2.41,0,3.61,0,1.02,0,2.04,0,3.06,0,0,0,.02.01.03h.54c0,.16,0,.32,0,.48,0,.06.02.08.08.08.27,0,.54,0,.81,0,.34,0,.69,0,1.03,0,.12,0,.25,0,.37,0,.19,0,.38.01.57.01.12,0,.24-.01.37-.01.05,0,.1.01.14.01.18,0,.37-.01.55-.01.07,0,.15.01.22.01.13,0,.27,0,.41,0,0,.28,0,.56,0,.84-.01,0-.03,0-.04,0-.02,0-.04-.01-.06-.01-.29,0-.58,0-.87,0-.02,0-.04,0-.06.01-.03,0-.06,0-.09,0-.03,0-.05-.01-.08-.01-2.67,0-5.34,0-8.01,0-.03,0-.05,0-.08.01,0,0-.02,0-.03,0-.08,0-.17,0-.25,0,0,0-.02,0-.03,0-.02,0-.04-.01-.06-.01-.32,0-.65,0-.97,0-.02,0-.04,0-.06.01-.06,0-.13,0-.19,0-.02,0-.05.02-.07.02-.15.15-.31.3-.46.45-.03.03-.06.07-.09.1,0,.03,0,.07,0,.1,0,2.11,0,4.21,0,6.32,0,.03,0,.06,0,.09Zm5.48-15.4c-.15-.15-.29-.29-.44-.44-.01-.01-.04-.02-.06-.03,0,0,0-.02-.01-.03,0,0-.01,0-.02,0-.02,0-.04,0-.07,0-1.83,0-3.67,0-5.5,0-1.71,0-3.42,0-5.12,0-.06,0-.1.01-.13.05-.13.13-.26.27-.4.4-.04.04-.07.08-.11.12,0,.05-.02.1-.02.14,0,2.1,0,4.2,0,6.31,0,.1,0,.21,0,.31,0,.04,0,.06.05.06.17,0,.35,0,.52,0h0c0,.11,0,.22,0,.33,0,.05-.01.09-.01.14,0,.06.02.1.1.1.11,0,.22,0,.33,0,.24,0,.49,0,.73,0,.06,0,.12.01.17.01.18,0,.37-.01.55-.01.34,0,.68,0,1.02,0,.21,0,.42.01.63.01.13,0,.26-.01.39-.01.25,0,.51,0,.76,0,.27,0,.54.01.82.01.11,0,.23,0,.34,0,.2,0,.41,0,.61,0,.23,0,.47.01.7.01.15,0,.3-.01.45-.01.06,0,.12.01.18.01.15,0,.29-.01.44-.01.16,0,.32.01.47.01.12,0,.23-.01.35-.01.18,0,.37.01.55.01.13,0,.26-.01.4-.01.25,0,.5,0,.76,0,.06,0,.07-.02.07-.07,0-.16,0-.32,0-.48,0,0,0,0,0-.01h.57s-.01-.1-.01-.15c0-.29,0-.58,0-.87,0-.22,0-.45,0-.67,0-.26,0-.52.01-.78,0-.23,0-.45,0-.68,0-.14-.01-.27-.01-.41,0-.16,0-.33.01-.49,0-.09,0-.18-.01-.27,0-.15,0-.29,0-.44,0-.31,0-.62,0-.92,0-.26,0-.51.01-.77,0-.09,0-.17-.01-.26,0-.03,0-.07,0-.1-.02-.02-.04-.04-.06-.06Z"/>
      <path class="cls-13" d="m53.66,120.38c1.66,0,3.31,0,4.97,0,2.05,0,4.11,0,6.16,0,.03,0,.07,0,.1,0,0,0,0,.01.01.02,0,.03-.01.05-.01.08,0,.16,0,.32,0,.48,0,0,0,0,0,0-.04,0-.07,0-.11,0-3.7,0-7.4,0-11.11,0-.16,0-.32,0-.49,0-.02,0-.05-.01-.07-.02.18-.18.36-.36.54-.55Z"/>
      <path class="cls-24" d="m64.9,128.32c-.07,0-.13.02-.2.02-.1,0-.21,0-.31,0-.1,0-.19,0-.29,0-.07,0-.14,0-.22,0-.08,0-.16,0-.24,0-.19,0-.38,0-.57,0-.18,0-.36.01-.55.01-.16,0-.32,0-.47,0-.09,0-.18,0-.27,0-.1,0-.2,0-.3,0-.02,0-.04,0-.07,0-1.8,0-3.6,0-5.4,0-.1,0-.21.01-.31.01-.17,0-.35-.01-.52-.01-.3,0-.6,0-.9,0-.1,0-.2,0-.29.02-.06.01-.11.07-.17.11-.05.03-.1.06-.15.09,0,0,0,0,0,0,.03-.16-.05-.26-.16-.37-.14-.13-.26-.27-.39-.4.18,0,.37,0,.55,0,.05,0,.09,0,.14,0,3.67,0,7.34,0,11.01,0,.03,0,.05,0,.08,0,0,0,0,0,0,0,0,.18,0,.36,0,.54Z"/>
      <path class="cls-19" d="m53.67,127.77c-.18,0-.37,0-.55,0,0-.02-.01-.04-.01-.07,0-2.23,0-4.46,0-6.69,0-.03.02-.06.02-.09.02,0,.05.02.07.02.16,0,.32,0,.49,0,0,.2-.01.4-.01.6,0,.23,0,.47.01.7,0,.02,0,.05,0,.07,0,.12,0,.24,0,.36,0,.16,0,.33,0,.49,0,.1,0,.21,0,.31,0,.06.01.11.01.17,0,.12-.01.24-.01.37,0,.14,0,.27,0,.41,0,.21.01.43.01.64,0,.14-.01.27-.01.41,0,.18,0,.35,0,.53,0,.05.01.09.01.14,0,.13,0,.25,0,.38,0,.13,0,.26,0,.4,0,.2,0,.41-.01.61,0,.08,0,.15,0,.23Z"/>
      <path class="cls-19" d="m53.1,136.58c0-1.74,0-3.48,0-5.22,0-.5,0-1,0-1.5,0-.03,0-.05,0-.08,0,0,0-.01.01-.02.19,0,.37,0,.56,0,0,.87,0,1.74,0,2.61,0,.17.01.35.01.52,0,.07-.01.14-.01.22,0,.16,0,.32,0,.48,0,.23,0,.46,0,.69,0,.35.01.7.01,1.05,0,.21,0,.41-.01.62,0,.04,0,.09.01.13,0,.11,0,.22,0,.33,0,.06,0,.12-.01.18h0c-.18,0-.37,0-.55,0,0,0,0,0-.01,0Z"/>
      <path class="cls-13" d="m53.66,129.76c-.19,0-.37,0-.56,0,.14-.14.28-.28.42-.43.05-.05.1-.1.14-.14,0,0,0,0,.01,0,.01,0,.03,0,.04,0,.74,0,1.48,0,2.23,0,.81,0,1.63,0,2.44,0,.03,0,.05,0,.08,0,0,0,.02,0,.03.01,0,.18,0,.37,0,.55,0,0,0,0,0,0-1.61,0-3.22,0-4.83,0Z"/>
      <path class="cls-24" d="m53.68,129.19s0,0-.01,0c0-.02,0-.05,0-.07.02.02.04.04.05.06-.01,0-.03,0-.04.01Z"/>
      <path class="cls-13" d="m64.87,138s.02.01.03.02c0,.19,0,.37,0,.56h0c-.63,0-1.26,0-1.89,0-3.11,0-6.23,0-9.34,0-.19,0-.37,0-.56,0,.15-.16.31-.31.46-.47.03-.03.07-.07.1-.1,0,0,0,0,.01,0,0,0,0,0,.01,0,.03,0,.07,0,.1,0,.02,0,.04,0,.07,0,1.32,0,2.64,0,3.96,0,.02,0,.04,0,.07,0,.02,0,.04,0,.06,0,.03,0,.06,0,.09,0,.05,0,.11,0,.16,0,.06,0,.12,0,.17,0,.05,0,.1,0,.15,0,.01,0,.03,0,.04,0,.04,0,.09,0,.13,0,.02,0,.04,0,.06,0,.09,0,.18,0,.26,0,.4,0,.8,0,1.2,0,.04,0,.08,0,.12,0,.12,0,.23,0,.35,0,.02,0,.05,0,.07,0,0,0,.02,0,.03,0,.01,0,.03,0,.04,0,.14,0,.27,0,.41,0,.05,0,.11,0,.16,0,.18,0,.37,0,.55,0,.05,0,.1,0,.15,0,.05,0,.11,0,.16,0,.02,0,.05,0,.07,0,.01,0,.03,0,.04,0,.04,0,.08,0,.12,0,0,0,.02,0,.03,0,.06,0,.12,0,.18,0,0,0,.02,0,.03,0,.09,0,.18,0,.26,0,.05,0,.11,0,.16,0,.26,0,.52,0,.77,0,.05,0,.11,0,.16,0,.07,0,.14,0,.2,0,.19,0,.39,0,.58,0Z"/>
      <path class="cls-26" d="m58.5,137.14c-.11,0-.22,0-.32,0-.04,0-.08.01-.12.01-.07,0-.14-.01-.21-.01-.08,0-.16.01-.25.01-.1,0-.21-.01-.31-.01-.13,0-.26.01-.39.01-.11,0-.22-.01-.34-.01-.15,0-.3,0-.44.01-.08,0-.17,0-.25,0-.02,0-.05,0-.07,0-.11,0-.21,0-.32,0-.04,0-.09,0-.13,0-.1,0-.2,0-.3,0-.19,0-.39,0-.58,0-.12,0-.25,0-.37,0-.1,0-.17.03-.23.09-.05.05-.11.1-.19.1,0-.06,0-.12,0-.19,0-.19,0-.37,0-.56,0,0,0,0,0,0,.03,0,.06,0,.09,0,1.33,0,2.66,0,3.99,0,.25,0,.5,0,.75,0h0c0,.19,0,.37,0,.56Z"/>
      <path class="cls-18" d="m53.67,136.59c0,.19,0,.37,0,.56-.18-.19-.37-.37-.55-.56.18,0,.37,0,.55,0Z"/>
      <path class="cls-20" d="m66.34,127.78s-.03-.06-.03-.09c0-.72,0-1.45,0-2.17,0-1.52,0-3.05,0-4.57,0,0,.01,0,.02-.01.03,0,.06.01.08.01.16,0,.31,0,.47,0,0,.69,0,1.38,0,2.07,0,1.58,0,3.16,0,4.74-.18,0-.36,0-.54,0Z"/>
      <path class="cls-21" d="m65.47,120.95c0,.13,0,.26,0,.39,0,2.11,0,4.23,0,6.34,0,.03-.02.06-.03.09-.18,0-.36,0-.54,0,0,0,0,0,0,0,0-1.31,0-2.62,0-3.93,0-.96,0-1.93,0-2.89,0,0,0,0,0,0,.16,0,.33,0,.49,0,.02,0,.05,0,.07-.01,0,0,.01,0,.02,0Z"/>
      <path class="cls-20" d="m65.45,120.94s-.05.01-.07.01c-.16,0-.33,0-.49,0,0-.16,0-.32,0-.48,0-.03,0-.05.01-.08.18.18.36.36.54.54Z"/>
      <path class="cls-12" d="m66.88,127.77c0-1.58,0-3.16,0-4.74,0-.69,0-1.38,0-2.07,3.71,0,7.41,0,11.12,0,.04,0,.07,0,.11,0,0,.19,0,.38,0,.58,0,2.05,0,4.1,0,6.14,0,.02,0,.05,0,.07,0,0,0,.01-.01.02,0,0,0,0,0,.01-.47,0-.93,0-1.4,0-3.24,0-6.48,0-9.72,0-.03,0-.06,0-.09,0Z"/>
      <path class="cls-12" d="m53.66,138.57c3.11,0,6.23,0,9.34,0,.63,0,1.26,0,1.89,0,0,.58,0,1.17,0,1.75,0,1.69,0,3.38,0,5.07,0,0,0,0-.01,0-.27,0-.54,0-.8,0-.01,0-.03,0-.04,0-.52,0-1.03,0-1.55,0-.02,0-.04,0-.06,0-.07,0-.15,0-.22,0-.04,0-.08,0-.12,0-.46,0-.92,0-1.39,0,0,0-.02,0-.03,0-.4,0-.79,0-1.19,0-.46,0-.92,0-1.38,0-.02,0-.04,0-.06,0-.21,0-.42,0-.63,0-.03,0-.07,0-.1,0-.04,0-.08,0-.12,0-.54,0-1.09,0-1.63,0-.03,0-.06,0-.09,0-.35,0-.7,0-1.05,0-.02,0-.04,0-.06,0-.04,0-.08,0-.12,0-.02,0-.04,0-.06,0-.02,0-.04,0-.06,0-.15,0-.3,0-.45,0,0,0,0,0-.01-.01,0-.71,0-1.42,0-2.13,0-1.56,0-3.12,0-4.68Z"/>
      <path class="cls-9" d="m64.9,145.39c0-1.69,0-3.38,0-5.07,0-.58,0-1.17,0-1.75,0,0,0,0,0,0,.11,0,.22,0,.33,0,.08,0,.16,0,.24.01,0,.05,0,.09,0,.14,0,2.1,0,4.2,0,6.3,0,.03,0,.05,0,.08,0,.1,0,.19,0,.29-.19,0-.38,0-.57,0Z"/>
      <path class="cls-29" d="m58.11,145.39c.46,0,.92,0,1.38,0,.4,0,.79,0,1.19,0-.03,0-.05.01-.08.01-.81,0-1.61,0-2.42,0-.03,0-.05,0-.08-.01Z"/>
      <path class="cls-29" d="m55.56,145.39c.54,0,1.09,0,1.63,0,.04,0,.08,0,.12,0-.02,0-.05.01-.07.01-.54,0-1.08,0-1.61,0-.02,0-.05,0-.07-.01Z"/>
      <path class="cls-29" d="m62.49,145.39c.52,0,1.03,0,1.55,0-.02,0-.05.01-.07.01-.47,0-.94,0-1.41,0-.02,0-.05,0-.07-.01Z"/>
      <path class="cls-29" d="m60.71,145.39c.46,0,.92,0,1.39,0-.02,0-.05.01-.07.01-.42,0-.83,0-1.25,0-.02,0-.05,0-.07-.01Z"/>
      <path class="cls-29" d="m54.42,145.39c.35,0,.7,0,1.05,0-.02,0-.04.01-.06.01-.31,0-.62,0-.93,0-.02,0-.04,0-.06-.01Z"/>
      <path class="cls-29" d="m64.08,145.39c.27,0,.54,0,.8,0-.02,0-.04.01-.05.01-.23,0-.46,0-.69,0-.02,0-.04,0-.05-.01Z"/>
      <path class="cls-29" d="m57.42,145.39c.21,0,.42,0,.63,0-.01,0-.02.01-.03.01-.19,0-.37,0-.56,0-.01,0-.02,0-.03-.01Z"/>
      <path class="cls-29" d="m62.21,145.39c.07,0,.15,0,.22,0-.07,0-.15,0-.22,0Z"/>
      <path class="cls-29" d="m54.25,145.39s.08,0,.12,0c-.04,0-.08,0-.12,0Z"/>
      <path class="cls-29" d="m54.13,145.39s.04,0,.06,0c-.02,0-.04,0-.06,0Z"/>
      <path class="cls-11" d="m53.66,145.38s0,0,.01.01c0,0,0,0-.01,0,0,0,0-.01,0-.02Z"/>
      <path class="cls-12" d="m78.11,138.57c0,.91,0,1.82,0,2.74,0,1.33,0,2.66,0,3.99,0,.03,0,.06,0,.09,0,0,0,0,0,0,0,0,0,0-.01,0,0,0-.01,0-.02,0-.07,0-.14,0-.2,0-.09,0-.19,0-.28,0-.01,0-.03,0-.04,0-.05,0-.11,0-.16,0-.06,0-.12,0-.17,0-.06,0-.12,0-.18,0-.32,0-.64,0-.96,0-.06,0-.12,0-.18,0-.13,0-.26,0-.39,0-.04,0-.08,0-.12,0-.22,0-.44,0-.66,0-.01,0-.03,0-.04,0-.12,0-.23,0-.35,0-.04,0-.08,0-.12,0-.17,0-.34,0-.51,0-.06,0-.13,0-.19,0-.55,0-1.09,0-1.64,0-.04,0-.08,0-.12,0-.31,0-.62,0-.93,0-.04,0-.08,0-.12,0-.05,0-.1,0-.15,0-.03,0-.06,0-.09,0-.37,0-.74,0-1.11,0-.01,0-.03,0-.04,0-.02,0-.04,0-.06,0-.02,0-.05,0-.07,0-.04,0-.08,0-.12,0-.01,0-.03,0-.04,0-.1,0-.2,0-.31,0-.02,0-.04,0-.06,0-.1,0-.19,0-.29,0-.01,0-.03,0-.04,0-.03,0-.06,0-.09,0-.01,0-.03,0-.04,0-.01,0-.03,0-.04,0-.05,0-.1,0-.15,0-.02,0-.04,0-.06,0-.06,0-.12,0-.18,0-.09,0-.18,0-.28,0-.02,0-.04,0-.06,0-.15,0-.29,0-.44,0-.04,0-.09,0-.13,0,0,0,0,0,0,0,0-.03,0-.07,0-.1,0-2.24,0-4.48,0-6.71h0c3.49,0,6.99,0,10.48,0,.25,0,.5,0,.75,0Z"/>
      <path class="cls-10" d="m66.32,138.58s.06-.07.09-.1c.15-.15.31-.3.46-.45,0,.03.01.06.02.08,0,.15,0,.31,0,.46,0,0,0,0,0,0-.19,0-.38,0-.56.01Z"/>
      <path class="cls-28" d="m68.53,138s.05-.01.08-.01c2.67,0,5.34,0,8.01,0,.03,0,.05,0,.08.01-.03,0-.05,0-.08,0-2.67,0-5.34,0-8,0-.03,0-.05,0-.08,0Z"/>
      <path class="cls-28" d="m67.13,138s.04-.01.06-.01c.32,0,.65,0,.97,0,.02,0,.04,0,.06.01-.36,0-.73,0-1.09,0Z"/>
      <path class="cls-28" d="m76.79,138s.04-.01.06-.01c.29,0,.58,0,.87,0,.02,0,.04,0,.06.01-.33,0-.66,0-.99,0Z"/>
      <path class="cls-28" d="m68.26,138c.08,0,.17,0,.25,0-.08,0-.17,0-.25,0Z"/>
      <path class="cls-28" d="m78.09,138s0,0,.01,0c0,0,0,0-.01,0Z"/>
      <path class="cls-29" d="m71.89,145.39c.55,0,1.09,0,1.64,0-.02,0-.05.01-.07.01-.5,0-1,0-1.5,0-.02,0-.05,0-.07-.01Z"/>
      <path class="cls-29" d="m69.38,145.39c.37,0,.74,0,1.11,0-.02,0-.04.01-.06.01-.33,0-.66,0-.99,0-.02,0-.04,0-.06-.01Z"/>
      <path class="cls-29" d="m76.09,145.39c.32,0,.64,0,.96,0-.02,0-.04.01-.05.01-.28,0-.57,0-.85,0-.02,0-.04,0-.05-.01Z"/>
      <path class="cls-29" d="m70.84,145.39c.31,0,.62,0,.93,0-.02,0-.04.01-.05.01-.28,0-.55,0-.83,0-.02,0-.04,0-.05-.01Z"/>
      <path class="cls-29" d="m74.74,145.39c.22,0,.44,0,.66,0-.22,0-.44,0-.66,0Z"/>
      <path class="cls-29" d="m73.72,145.39c.17,0,.34,0,.51,0-.03,0-.06.01-.09.01-.12,0-.23,0-.35,0-.02,0-.05,0-.07-.01Z"/>
      <path class="cls-29" d="m67.02,145.39c.15,0,.29,0,.44,0-.08,0-.16.01-.24.01-.07,0-.13,0-.2-.01Z"/>
      <path class="cls-29" d="m75.52,145.39c.13,0,.26,0,.39,0-.13,0-.26,0-.39,0Z"/>
      <path class="cls-29" d="m74.35,145.39c.12,0,.23,0,.35,0-.12,0-.23,0-.35,0Z"/>
      <path class="cls-29" d="m68.74,145.39c.1,0,.2,0,.31,0-.1,0-.2,0-.31,0Z"/>
      <path class="cls-29" d="m68.39,145.39c.1,0,.19,0,.29,0-.1,0-.19,0-.29,0Z"/>
      <path class="cls-29" d="m67.51,145.39c.09,0,.18,0,.28,0-.09,0-.18,0-.28,0Z"/>
      <path class="cls-29" d="m78.1,145.39s0,0,.01,0c0,0,0,.01,0,.02-.08,0-.16,0-.23-.01.07,0,.14,0,.2,0,0,0,.01,0,.02,0Z"/>
      <path class="cls-29" d="m77.23,145.39c.06,0,.12,0,.17,0-.06,0-.12,0-.17,0Z"/>
      <path class="cls-29" d="m70.58,145.39s.1,0,.15,0c-.05,0-.1,0-.15,0Z"/>
      <path class="cls-29" d="m69.09,145.39s.08,0,.12,0c-.04,0-.08,0-.12,0Z"/>
      <path class="cls-29" d="m68.26,145.39s.06,0,.09,0c-.03,0-.06,0-.09,0Z"/>
      <path class="cls-29" d="m69.28,145.39s.04,0,.06,0c-.02,0-.04,0-.06,0Z"/>
      <path class="cls-29" d="m67.96,145.39s.04,0,.06,0c-.02,0-.04,0-.06,0Z"/>
      <path class="cls-29" d="m77.56,145.39s.03,0,.04,0c-.01,0-.03,0-.04,0Z"/>
      <path class="cls-29" d="m68.17,145.39s.03,0,.04,0c-.01,0-.03,0-.04,0Z"/>
      <path class="cls-20" d="m78.1,127.76s0,0,.01-.02c0,0,0,.01-.01.02Z"/>
      <path class="cls-12" d="m73.28,129.76c1.56,0,3.12,0,4.68,0,.05,0,.1,0,.15,0,0,.41,0,.83,0,1.24,0,1.83,0,3.66,0,5.49,0,.03,0,.06,0,.09-.03,0-.07,0-.1,0-1.55,0-3.1,0-4.66,0-.02,0-.05,0-.07,0,0-.03,0-.06,0-.09,0-2.24,0-4.48,0-6.72Z"/>
      <path class="cls-20" d="m73.28,129.76c0,2.24,0,4.48,0,6.72,0,.03,0,.06,0,.09,0,0-.01,0-.02,0-.18,0-.36,0-.54,0,0,0,0-.02-.01-.03,0-1.02,0-2.04,0-3.06,0-1.2,0-2.41,0-3.61,0-.04,0-.08,0-.12.01,0,.03,0,.04,0,.18,0,.35,0,.53,0h0Z"/>
      <path class="cls-10" d="m73.28,129.76c-.18,0-.35,0-.53,0,0-.01,0-.02,0-.03,0,0,0,0,0,0,0,0,0,0,.01-.01,0,0,0,0,0,0,0,0,.01-.02.02-.03,0,0,.01-.01.02-.02,0,0,.02-.01.03-.02,0,0,0,0,0,0,0,0,.01-.02.02-.03.03-.03.06-.06.09-.09,0,0,.02-.02.03-.03.04-.04.08-.08.12-.12,0,0,.02-.02.03-.03.02-.02.04-.04.06-.06,0,0,.02-.02.03-.03,0,0,.01-.01.02-.02,0,0,.02-.02.03-.03,0,0,.01-.01.02-.02,0,0,.02,0,.03,0,0,.18,0,.36,0,.54Z"/>
      <path class="cls-8" d="m73.28,129.22s-.02,0-.03,0c0,0,.02-.02.03-.03,0,0,0,.02,0,.03Z"/>
      <path class="cls-28" d="m78.09,129.19s0,0,.01,0c0,0,0,0-.01,0Z"/>
      <path class="cls-20" d="m66.32,138.58c.19,0,.38,0,.56-.01,0,2.24,0,4.48,0,6.71,0,.03,0,.07,0,.1-.19,0-.38,0-.57,0,0-.1,0-.19,0-.29,0-.03,0-.06,0-.09,0-2.11,0-4.21,0-6.32,0-.03,0-.07,0-.1Z"/>
      <path class="cls-12" d="m71.3,136.57s0,0,0,.01c-.02,0-.04,0-.07,0-3.05,0-6.09,0-9.14,0-.54,0-1.07,0-1.61,0,0,0,0,0,0,0,0-.03,0-.06,0-.09,0-2.24,0-4.49,0-6.73,2.18,0,4.36,0,6.54,0,1.42,0,2.84,0,4.26,0,0,.02,0,.05,0,.07,0,1.21,0,2.42,0,3.63,0,1.03,0,2.07,0,3.1Z"/>
      <path class="cls-13" d="m71.29,129.76c-1.42,0-2.84,0-4.26,0-2.18,0-4.36,0-6.54,0-.18,0-.37,0-.55,0,.04-.04.07-.08.11-.12.13-.13.27-.26.4-.4.04-.04.08-.05.13-.05,1.71,0,3.42,0,5.12,0,1.83,0,3.67,0,5.5,0,.02,0,.04,0,.07,0,0,0,.01,0,.02,0,0,0,0,.02.01.03,0,.18,0,.35,0,.53h0Z"/>
      <path class="cls-26" d="m60.49,136.59c.54,0,1.07,0,1.61,0,3.05,0,6.09,0,9.14,0,.02,0,.04,0,.07,0,0,.16,0,.32,0,.48,0,.06-.01.08-.07.07-.25,0-.5,0-.76,0-.13,0-.26.01-.4.01-.18,0-.37-.01-.55-.01-.12,0-.23.01-.35.01-.16,0-.32-.01-.47-.01-.15,0-.29.01-.44.01-.06,0-.12-.01-.18-.01-.15,0-.3.01-.45.01-.23,0-.47-.01-.7-.01-.2,0-.41,0-.61,0-.11,0-.23,0-.34,0-.27,0-.54-.01-.82-.01-.25,0-.51,0-.76,0-.13,0-.26.01-.39.01-.21,0-.42-.01-.63-.01-.34,0-.68,0-1.02,0-.18,0-.37.01-.55.01-.06,0-.12-.01-.17-.01-.24,0-.49,0-.73,0-.11,0-.22,0-.33,0-.08,0-.1-.03-.1-.1,0-.05.01-.09.01-.14,0-.11,0-.22,0-.32Z"/>
      <path class="cls-20" d="m59.93,129.76c.18,0,.37,0,.55,0,0,2.24,0,4.49,0,6.73,0,.03,0,.06,0,.09-.17,0-.35,0-.52,0-.04,0-.05-.02-.05-.06,0-.1,0-.21,0-.31,0-2.1,0-4.2,0-6.31,0-.05,0-.1.02-.14Z"/>
      <path class="cls-9" d="m59.07,129.78s0,.06,0,.09c0,2.21,0,4.41,0,6.62,0,.02,0,.05,0,.07,0,0-.02.02-.03.03-.18,0-.36,0-.54,0,0,0,0,0,0,0,0-.02,0-.05,0-.07,0-2.25,0-4.5,0-6.75,0,0,0,0,0,0,.1,0,.21,0,.31,0,.08,0,.17,0,.25.01Z"/>
      <path class="cls-7" d="m71.3,136.57c0-1.03,0-2.07,0-3.1,0-1.21,0-2.42,0-3.63,0-.02,0-.05,0-.07,0,0,0,0,0,0,.17,0,.34,0,.51,0,.01,0,.03,0,.04,0,0,.03,0,.07,0,.1,0,.09.01.17.01.26,0,.26,0,.51-.01.77,0,.31,0,.62,0,.92,0,.15,0,.29,0,.44,0,.09.01.18.01.27,0,.16-.01.33-.01.49,0,.14,0,.27.01.41,0,.23,0,.45,0,.68,0,.26,0,.52-.01.78,0,.22,0,.45,0,.67,0,.29,0,.58,0,.87,0,.05,0,.1.01.15h-.57Z"/>
      <path class="cls-20" d="m59.07,129.78c-.08,0-.17-.01-.25-.01-.1,0-.21,0-.31,0,0-.18,0-.37,0-.55,0,0,0,0,0-.01.19.18.37.36.55.55,0,0,0,.02.01.03Z"/>
      <path class="cls-18" d="m58.5,136.59c.18,0,.36,0,.54,0,0,0,0,0,.01,0-.05.06-.09.12-.15.18-.11.12-.23.23-.35.34-.02.02-.04.03-.06.04,0-.18,0-.37,0-.55Z"/>
      <path class="cls-29" d="m64.9,127.78c.18,0,.36,0,.54,0,0,.01-.01.03-.02.04-.16.16-.32.32-.48.48,0,0-.03,0-.04.01,0-.18,0-.36,0-.54Z"/>
      <path class="cls-19" d="m65.46,138.58c-.08,0-.16-.01-.24-.01-.11,0-.22,0-.33,0,0-.19,0-.37,0-.56.17.17.34.34.52.51.02.02.03.04.05.06Z"/>
      <path class="cls-20" d="m71.81,129.76c-.17,0-.34,0-.51,0,0-.18,0-.35,0-.53.02,0,.04.02.06.03.15.15.29.29.44.44,0,.02,0,.04.01.06Z"/>
      <path class="cls-28" d="m57.89,138s-.04,0-.07,0c-1.32,0-2.64,0-3.96,0-.02,0-.04,0-.07,0,.03,0,.05-.01.08-.01,1.31,0,2.62,0,3.94,0,.03,0,.05,0,.08.01Z"/>
      <path class="cls-28" d="m60.21,138c-.4,0-.8,0-1.2,0,.02,0,.04-.01.06-.01.36,0,.72,0,1.07,0,.02,0,.04,0,.06.01Z"/>
      <path class="cls-28" d="m64.87,138c-.19,0-.39,0-.58,0,.02,0,.03-.01.05-.01.16,0,.33,0,.49,0,.02,0,.03,0,.05.01Z"/>
      <path class="cls-28" d="m61.95,138c-.18,0-.37,0-.55,0,.02,0,.04-.01.05-.01.15,0,.3,0,.45,0,.02,0,.04,0,.05.01Z"/>
      <path class="cls-28" d="m61.23,138c-.14,0-.27,0-.41,0,.1,0,.21-.01.31-.01.03,0,.06,0,.1.01Z"/>
      <path class="cls-28" d="m60.68,138c-.12,0-.23,0-.35,0,.12,0,.23,0,.35,0Z"/>
      <path class="cls-28" d="m58.37,138c-.06,0-.12,0-.17,0,.06,0,.12,0,.17,0Z"/>
      <path class="cls-28" d="m64.08,138c-.05,0-.11,0-.16,0,.05,0,.11,0,.16,0Z"/>
      <path class="cls-22" d="m71.81,129.76s0-.04-.01-.06c.02.02.04.04.06.06-.01,0-.03,0-.04,0Z"/>
      <path class="cls-28" d="m62.25,138c-.05,0-.11,0-.16,0,.05,0,.11,0,.16,0Z"/>
      <path class="cls-28" d="m63.14,138c-.05,0-.11,0-.16,0,.05,0,.11,0,.16,0Z"/>
      <path class="cls-28" d="m58.03,138s-.06,0-.09,0c.03,0,.06,0,.09,0Z"/>
      <path class="cls-8" d="m72.75,129.73s0,.02,0,.03c-.01,0-.03,0-.04,0,.01-.01.02-.02.04-.03Z"/>
      <path class="cls-28" d="m58.75,138s-.04,0-.06,0c.02,0,.04,0,.06,0Z"/>
      <path class="cls-20" d="m59.05,136.58s0,0-.01,0c0,0,.02-.02.03-.03,0,0,0,.02-.01.03Z"/>
      <path class="cls-28" d="m53.68,129.19s.03,0,.04-.01c0,0,0,0,0,.01-.01,0-.03,0-.04,0Z"/>
      <path class="cls-8" d="m73.24,129.24s-.02.02-.03.03c0,0,.02-.02.03-.03Z"/>
      <path class="cls-8" d="m73.19,129.28s-.02.02-.03.03c0,0,.02-.02.03-.03Z"/>
      <path class="cls-8" d="m72.96,129.51s-.02.02-.03.03c0,0,.02-.02.03-.03Z"/>
      <path class="cls-28" d="m62.37,138s-.03,0-.04,0c.01,0,.03,0,.04,0Z"/>
      <path class="cls-28" d="m58.56,138s-.03,0-.04,0c.01,0,.03,0,.04,0Z"/>
      <path class="cls-8" d="m73.11,129.37s-.02.02-.03.03c0,0,.02-.02.03-.03Z"/>
      <path class="cls-8" d="m58.5,129.2s0,0,0,.01c0,0-.02,0-.03-.01,0,0,.02,0,.03,0Z"/>
      <path class="cls-8" d="m72.84,129.63s-.01.02-.02.03c0,0,.01-.02.02-.03Z"/>
      <path class="cls-28" d="m62.72,138s-.02,0-.03,0c0,0,.02,0,.03,0Z"/>
      <path class="cls-28" d="m62.52,138s-.02,0-.03,0c0,0,.02,0,.03,0Z"/>
      <path class="cls-28" d="m60.78,138s-.02,0-.03,0c0,0,.02,0,.03,0Z"/>
      <path class="cls-8" d="m72.83,129.66s-.02.01-.03.02c0,0,.02-.01.03-.02Z"/>
      <path class="cls-8" d="m72.79,129.69s-.01.02-.02.03c0,0,.01-.02.02-.03Z"/>
      <path class="cls-23" d="m72.71,136.55s0,.02.01.03c0,0,0-.02-.01-.03Z"/>
      <path class="cls-8" d="m71.28,129.2s-.01,0-.02,0c0,0,.01,0,.02,0Z"/>
      <path class="cls-28" d="m53.69,138s0,0-.01,0c0,0,0,0,.01,0Z"/>
      <path class="cls-8" d="m72.77,129.72s0,0-.01.01c0,0,0,0,.01-.01Z"/>
      <path class="cls-12" d="m64.9,120.95c0,.96,0,1.93,0,2.89,0,1.31,0,2.62,0,3.93-.03,0-.05,0-.08,0-3.67,0-7.34,0-11.01,0-.05,0-.09,0-.14,0,0-.08,0-.15,0-.23,0-.2.01-.41.01-.61,0-.13,0-.26,0-.4,0-.13,0-.25,0-.38,0-.05-.01-.09-.01-.14,0-.18,0-.35,0-.53,0-.14.01-.27.01-.41,0-.21,0-.43-.01-.64,0-.14,0-.27,0-.41,0-.12.01-.24.01-.37,0-.06-.01-.11-.01-.17,0-.1,0-.21,0-.31,0-.16,0-.33,0-.49,0-.12,0-.24,0-.36,0-.02,0-.05,0-.07,0-.23-.01-.47-.01-.7,0-.2,0-.4.01-.6,3.7,0,7.4,0,11.11,0,.04,0,.07,0,.11,0Z"/>
      <path class="cls-12" d="m58.5,129.76c0,2.25,0,4.5,0,6.75,0,.02,0,.05,0,.07-.25,0-.5,0-.75,0-1.33,0-2.66,0-3.99,0-.03,0-.06,0-.09,0,0-.06.01-.12.01-.18,0-.11,0-.22,0-.33,0-.04-.01-.09-.01-.13,0-.21.01-.41.01-.62,0-.35,0-.7-.01-1.05,0-.23,0-.46,0-.69,0-.16,0-.32,0-.48,0-.07.01-.14.01-.22,0-.17-.01-.35-.01-.52,0-.87,0-1.74,0-2.61,1.61,0,3.22,0,4.83,0Z"/>
      <path class="cls-11" d="m78.1,145.39s-.01,0-.02,0c0,0,.01,0,.02,0Z"/>
    </g>
    <g>
      <path class="cls-6" d="m39.61,120.23s0,0,0,.01c-.03,0-.07,0-.1,0-2.05,0-4.11,0-6.16,0-1.66,0-3.31,0-4.97,0,0,0,0,0,0-.01h11.23Z"/>
      <path class="cls-6" d="m41.6,120.24s0,0,0-.01h11.23s0,0,0,.01c0,0-.01,0-.02,0-3.74,0-7.47,0-11.21,0Z"/>
      <path class="cls-1" d="m27.8,138.43h.02c0,1.49,0,2.99,0,4.48,0,.78,0,1.56,0,2.34,0,0-.01,0-.02,0,0-2.27,0-4.55,0-6.82Z"/>
      <path class="cls-1" d="m27.81,136.44s-.01,0-.02,0v-6.81s0,0,.01,0c0,.03,0,.05,0,.08,0,.5,0,1,0,1.5,0,1.74,0,3.48,0,5.22Z"/>
      <path class="cls-18" d="m53.37,127.65c-.18.18-.36.36-.54.54-.1,0-.2,0-.29.01-.76,0-1.52,0-2.28,0-.19,0-.38,0-.57,0-.34,0-.68,0-1.01,0-.04,0-.09,0-.13,0-.21,0-.42,0-.64,0-.1,0-.2-.01-.29-.01-.2,0-.39.01-.59.01-.09,0-.17-.01-.26-.01-.22,0-.44,0-.66,0-.28,0-.56,0-.83,0-.15,0-.3,0-.44,0-.25,0-.5,0-.74,0-.15,0-.3.01-.45.01-.24,0-.47,0-.71,0-.15,0-.29-.01-.44-.01-.13,0-.25.01-.38.01-.13,0-.26-.02-.39,0-.09,0-.14-.01-.2-.08-.13-.14-.28-.28-.42-.41-.02-.02-.02-.05-.03-.07.18,0,.36,0,.54,0,.03,0,.06,0,.09,0,3.24,0,6.48,0,9.72,0,.47,0,.93,0,1.4,0,.16,0,.32,0,.48,0,.02,0,.05,0,.07.01Z"/>
      <path class="cls-13" d="m41.6,120.24c3.74,0,7.47,0,11.21,0,0,0,.01,0,.02,0,0,0,0,0,0,0,0,.19,0,.37,0,.56,0,0,0,0,0,0-.04,0-.07,0-.11,0-3.71,0-7.41,0-11.12,0-.16,0-.31,0-.47,0-.03,0-.06,0-.08-.01.18-.19.37-.37.55-.56Z"/>
      <path class="cls-26" d="m40.19,145.25c-.18.18-.35.36-.53.54-.02.02-.04.02-.06.03-.02,0-.03,0-.05,0-3.69,0-7.38,0-11.07,0-.03,0-.06,0-.09-.01,0-.19,0-.37,0-.56,0,0,0,0,0,0,0,0,0,0,.01,0,.15,0,.3,0,.45,0,.02,0,.04,0,.06,0,.02,0,.04,0,.06,0,.04,0,.08,0,.12,0,.02,0,.04,0,.06,0,.02,0,.04.01.06.01.31,0,.62,0,.93,0,.02,0,.04,0,.06-.01h.09s.05.01.07.01c.54,0,1.08,0,1.61,0,.02,0,.05,0,.07-.01.03,0,.07,0,.1,0,.01,0,.02.01.03.01.19,0,.37,0,.56,0,.01,0,.02,0,.03-.01.02,0,.04,0,.06,0,.03,0,.05.01.08.01.81,0,1.61,0,2.42,0,.03,0,.05,0,.08-.01,0,0,.02,0,.03,0,.02,0,.05.01.07.01.42,0,.83,0,1.25,0,.02,0,.05,0,.07-.01.04,0,.08,0,.12,0h.22s.04,0,.06,0c.02,0,.05.01.07.01.47,0,.94,0,1.41,0,.02,0,.05,0,.07-.01.01,0,.03,0,.04,0,.02,0,.04.01.05.01.23,0,.46,0,.69,0,.02,0,.04,0,.05-.01,0,0,0,0,.01,0,.19,0,.38,0,.57,0h0Z"/>
      <path class="cls-13" d="m52.83,137.86s0,.02,0,.02c0,.18,0,.36,0,.55h0c-.25,0-.5,0-.75,0-3.49,0-6.99,0-10.48,0,0-.15,0-.31,0-.46,0-.03,0-.06-.02-.08.02,0,.05-.02.07-.02.06,0,.13,0,.19,0,.36,0,.73,0,1.09,0,0,0,.02,0,.03,0,.08,0,.17,0,.25,0,0,0,.02,0,.03,0,.03,0,.05,0,.08,0,2.67,0,5.34,0,8,0,.03,0,.05,0,.08,0h.09c.33,0,.66,0,.99,0,.01,0,.03,0,.04,0,.09,0,.18,0,.26,0h.01s0,0,.01,0Z"/>
      <path class="cls-26" d="m52.83,145.81s-.05.01-.07.01c-3.7,0-7.4,0-11.1,0-.03,0-.05-.01-.08-.02,0-.04.01-.07.01-.11,0-.15,0-.3,0-.44.04,0,.09,0,.13,0,.07,0,.13.01.2.01.08,0,.16,0,.24-.01.02,0,.04,0,.06,0,.09,0,.18,0,.28,0,.06,0,.12,0,.18,0h.06s.1,0,.15,0c.01,0,.03,0,.04,0,.01,0,.03,0,.04,0,.03,0,.06,0,.09,0,.01,0,.03,0,.04,0,.1,0,.19,0,.29,0,.02,0,.04,0,.06,0,.1,0,.2,0,.31,0,.01,0,.03,0,.04,0,.04,0,.08,0,.12,0,.02,0,.05,0,.07,0,.02,0,.04,0,.06,0,.01,0,.03,0,.04,0,.02,0,.04.01.06.01.33,0,.66,0,.99,0,.02,0,.04,0,.06-.01h.09s.1,0,.15,0c.04,0,.08,0,.12,0,.02,0,.04.01.05.01.28,0,.55,0,.83,0,.02,0,.04,0,.05-.01.04,0,.08,0,.12,0,.02,0,.05.01.07.01.5,0,1,0,1.5,0,.02,0,.05,0,.07-.01.06,0,.13,0,.19,0,.02,0,.05.01.07.01.12,0,.23,0,.35,0,.03,0,.06,0,.09-.01.04,0,.08,0,.12,0,.12,0,.23,0,.35,0,.01,0,.03,0,.04,0,.22,0,.44,0,.66,0,.04,0,.08,0,.12,0,.13,0,.26,0,.39,0h.18s.04.01.05.01c.28,0,.57,0,.85,0,.02,0,.04,0,.05-.01.06,0,.12,0,.18,0h.17c.05,0,.11,0,.16,0,.01,0,.03,0,.04,0,.09,0,.19,0,.28,0,.08,0,.16,0,.23.01,0,.18,0,.36,0,.55Z"/>
      <path class="cls-19" d="m27.81,145.25c0-.78,0-1.56,0-2.34,0-1.49,0-2.98,0-4.48,0,0,0,0,.01,0,.19,0,.37,0,.56,0,0,1.56,0,3.12,0,4.68,0,.71,0,1.42,0,2.13,0,0,0,.01,0,.02,0,0,0,0,0,0-.17,0-.33,0-.5,0-.01,0-.03.01-.04.02,0,0-.02-.01-.03-.02Z"/>
      <path class="cls-27" d="m53.37,127.65s-.05-.01-.07-.01c-.16,0-.32,0-.48,0,0,0,0,0,0-.01v-.02s.01-.05.01-.07c0-2.05,0-4.1,0-6.14,0-.19,0-.38,0-.58,0,0,0,0,0,0,.19,0,.37,0,.56,0,0,.03,0,.05,0,.08,0,2.22,0,4.44,0,6.66,0,.03-.02.07-.02.1Z"/>
      <path class="cls-27" d="m53.39,138.43s0,.05,0,.08c0,2.22,0,4.45,0,6.67,0,.03-.01.06-.02.09-.03,0-.05-.02-.08-.02-.15,0-.31,0-.47,0,0-.03,0-.06,0-.09,0-1.33,0-2.66,0-3.99,0-.91,0-1.82,0-2.74,0,0,0,0,0,0,.19,0,.37,0,.56,0Z"/>
      <path class="cls-27" d="m53.39,129.62s0,.06,0,.09c0,2.22,0,4.44,0,6.66,0,.03-.02.06-.02.09-.06,0-.12-.01-.18-.02-.12,0-.25,0-.37,0,0-.03,0-.06,0-.09,0-1.83,0-3.66,0-5.49,0-.41,0-.83,0-1.24h0c.19,0,.37,0,.56,0Z"/>
      <path class="cls-26" d="m52.83,136.44c.12,0,.25,0,.37,0,0,0,0,.01,0,.02.02.07.03.12-.07.13-.04,0-.07.06-.11.01,0,0-.03.02-.04.03,0,.02,0,.04,0,.06,0,.02-.01.04-.02.06-.02,0-.04-.02-.06-.02-.01,0-.02,0-.04-.02v.25s-.03.07-.03.1c0,.26,0,.53,0,.79,0,0,0,0-.01,0,0,0,0,0-.01,0-.09,0-.18,0-.26,0,0-.28,0-.57,0-.84-.14,0-.28,0-.41,0-.07,0-.15-.01-.22-.01-.18,0-.37,0-.55.01-.05,0-.1-.01-.14-.01-.12,0-.24.01-.37.01-.19,0-.38,0-.57-.01-.12,0-.25,0-.37,0-.34,0-.69,0-1.03,0-.27,0-.54,0-.81,0-.06,0-.08-.02-.08-.08,0-.16,0-.32,0-.47,0,0,.01,0,.02,0,.02,0,.05,0,.07,0,1.55,0,3.1,0,4.66,0,.03,0,.07,0,.1,0Z"/>
      <path class="cls-13" d="m52.83,129.05s0,0,0,0c0,.19,0,.37,0,.56,0,0,0,0,0,0-.05,0-.1,0-.15,0-1.56,0-3.12,0-4.68,0,0,0,0,0,0,0,0-.18,0-.36,0-.54v-.03s.06,0,.08,0c1.27,0,2.55,0,3.82,0,.21,0,.43,0,.64,0,.09,0,.17,0,.26,0,0,0,0,0,.01,0,0,0,0,0,.01,0Z"/>
      <path class="cls-26" d="m52.83,129.05s0,0-.01,0c0,0,0,0-.01,0-.09,0-.17,0-.26,0,0-.28,0-.56,0-.84.1,0,.2,0,.29-.01,0,.29,0,.57,0,.86Z"/>
      <path class="cls-15" d="m41.03,145.25c-.28,0-.56,0-.84,0,0,0,0,0,0,0,0-.1,0-.19,0-.29.28,0,.56,0,.84,0,0,.1,0,.19,0,.29h0Z"/>
      <path class="cls-29" d="m41.6,145.25c0,.15,0,.3,0,.44,0,.04,0,.07-.01.11-.19-.18-.37-.37-.56-.55,0,0,0,0,0,0,.19,0,.38,0,.57,0h0Z"/>
      <path class="cls-20" d="m52.83,129.62c0-.19,0-.37,0-.56.19.19.37.37.56.56-.19,0-.37,0-.56,0Z"/>
      <path class="cls-20" d="m53.39,120.81c-.19,0-.37,0-.56,0,0-.19,0-.37,0-.56.18.18.37.36.55.54,0,0,0,.01,0,.02Z"/>
      <path class="cls-15" d="m52.83,145.24c.16,0,.31,0,.47,0,.03,0,.05.01.08.02-.18.18-.36.36-.54.54,0-.18,0-.36,0-.55,0,0,0-.01,0-.02,0,0,0,0,0,0Z"/>
      <path class="cls-20" d="m53.39,138.43c-.19,0-.37,0-.56,0,0-.18,0-.36,0-.55,0,0,.02,0,.02,0,.18.18.36.36.53.54Z"/>
      <path class="cls-29" d="m27.84,145.27s.03-.02.04-.02c.17,0,.33,0,.5,0,0,.19,0,.37,0,.56-.18-.18-.36-.36-.54-.54Z"/>
      <path class="cls-25" d="m52.86,136.97v-.25s.03.01.04.02c.02,0,.04.02.06.02,0-.02.02-.04.02-.06,0-.02,0-.04,0-.06,0-.01.04-.03.04-.03.04.05.08,0,.11-.01.1-.01.09-.06.07-.13,0,0,0-.01,0-.02.06,0,.12.01.18.02-.17.17-.34.34-.51.51Z"/>
      <path class="cls-25" d="m41.03,144.96c-.28,0-.56,0-.84,0,0-.03,0-.05,0-.08,0-2.1,0-4.2,0-6.3,0-.05,0-.09,0-.14-.02-.02-.03-.04-.05-.06-.17-.17-.34-.34-.52-.51-.01,0-.02-.01-.03-.02-.02,0-.03-.01-.05-.01-.16,0-.33,0-.49,0-.02,0-.03,0-.05.01-.07,0-.14,0-.2,0h-1.09c-.09,0-.18,0-.26,0h-.03c-.06,0-.12,0-.18,0,0,0-.02,0-.03,0h-.12s-.03,0-.04,0c-.02,0-.05,0-.07,0h-.16s-.1,0-.15,0c-.02,0-.04-.01-.05-.01-.15,0-.3,0-.45,0-.02,0-.04,0-.05.01-.05,0-.11,0-.16,0-.03,0-.06-.01-.1-.01-.1,0-.21,0-.31.01-.01,0-.03,0-.04,0,0,0-.02,0-.03,0h-.07c-.12,0-.23,0-.35,0h-.12s-.04-.01-.06-.01c-.36,0-.72,0-1.07,0-.02,0-.04,0-.06.01h-.26s-.04,0-.06,0c-.04,0-.09,0-.13,0-.01,0-.03,0-.04,0-.05,0-.1,0-.15,0h-.34s-.06,0-.09,0c-.02,0-.04,0-.06,0-.03,0-.05-.01-.08-.01-1.31,0-2.62,0-3.94,0-.03,0-.05,0-.08.01-.03,0-.07,0-.1,0,0,0,0,0-.01,0,0,0,0,0-.01,0,0-.22,0-.45,0-.67.08,0,.13-.05.19-.1.07-.06.13-.1.23-.09.12,0,.25,0,.37,0,.19,0,.39,0,.58,0,.1,0,.2,0,.3,0,.04,0,.09,0,.13,0,.11,0,.21,0,.32,0,.02,0,.05,0,.07,0,.08,0,.17,0,.25,0,.15,0,.3-.01.44-.01.11,0,.22.01.34.01.13,0,.26-.01.39-.01.1,0,.21.01.31.01.08,0,.16-.01.25-.01.07,0,.14.01.21.01.04,0,.08-.01.12-.01.11,0,.22,0,.32,0,.02-.01.04-.02.06-.04.12-.11.24-.22.35-.34.05-.05.1-.12.15-.18,0,0,0-.02.01-.03,0-.02,0-.05,0-.07,0-2.21,0-4.41,0-6.62,0-.03,0-.06,0-.09,0-.01,0-.03-.01-.03-.18-.18-.37-.37-.55-.55,0,0-.02,0-.03,0-.03,0-.05,0-.08,0-.81,0-1.63,0-2.44,0-.74,0-1.48,0-2.23,0,0,0,0,0,0-.01-.02-.02-.04-.04-.05-.06,0-.19,0-.38,0-.57.05-.03.1-.06.15-.09.06-.04.11-.09.17-.11.09-.02.19-.02.29-.02.3,0,.6,0,.9,0,.17,0,.35.01.52.01.1,0,.21-.01.31-.01,1.8,0,3.6,0,5.4,0,.02,0,.04,0,.07,0,.1,0,.2,0,.3,0,.09,0,.18,0,.27,0,.16,0,.32.01.47,0,.18,0,.36,0,.55-.01.19,0,.38,0,.57,0,.08,0,.16,0,.24,0,.07,0,.14,0,.22,0,.1,0,.19,0,.29,0,.1,0,.21,0,.31,0,.07,0,.13-.01.2-.02.01,0,.03,0,.04-.01.16-.16.32-.32.48-.48.01-.01.02-.03.02-.04,0-.03.03-.06.03-.09,0-2.11,0-4.23,0-6.34,0-.13,0-.26,0-.39.28,0,.56,0,.85,0,0,1.52,0,3.05,0,4.57,0,.72,0,1.45,0,2.17,0,.03.02.06.03.09.01.02.02.05.03.07.14.14.29.27.42.41.06.06.11.08.2.08.13-.01.26,0,.39,0,.13,0,.25-.01.38-.01.15,0,.29.01.44.01.24,0,.47,0,.71,0,.15,0,.3-.01.45-.01.25,0,.5,0,.74,0,.15,0,.3,0,.44,0,.28,0,.56,0,.83,0,.22,0,.44,0,.66,0,.09,0,.17.01.26.01.2,0,.39-.01.59-.01.1,0,.2.01.29.01.21,0,.42,0,.64,0,.04,0,.09,0,.13,0,.34,0,.68,0,1.01,0,.19,0,.38,0,.57,0,.76,0,1.52,0,2.28,0,0,.28,0,.56,0,.84-.21,0-.43,0-.64,0-1.27,0-2.55,0-3.82,0-.03,0-.05,0-.08,0,0,0-.02.02-.03.03l-.02.02s-.02.02-.03.03c0,0-.01.01-.02.02,0,0-.02.02-.03.03-.02.02-.04.04-.06.06,0,0-.02.02-.03.03-.04.04-.08.08-.12.12,0,0-.02.02-.03.03-.03.03-.06.06-.09.09,0,0-.01.02-.02.03h0s-.02.01-.03.02c0,0-.01.01-.02.02,0,0-.01.02-.02.03h0s0,0-.01.01h0s-.02.02-.04.03c0,.04,0,.08,0,.12,0,1.2,0,2.41,0,3.61,0,1.02,0,2.04,0,3.06,0,0,0,.02.01.03h.54c0,.16,0,.32,0,.48,0,.06.02.08.08.08.27,0,.54,0,.81,0,.34,0,.69,0,1.03,0,.12,0,.25,0,.37,0,.19,0,.38.01.57.01.12,0,.24-.01.37-.01.05,0,.1.01.14.01.18,0,.37-.01.55-.01.07,0,.15.01.22.01.13,0,.27,0,.41,0,0,.28,0,.56,0,.84-.01,0-.03,0-.04,0-.02,0-.04-.01-.06-.01-.29,0-.58,0-.87,0-.02,0-.04,0-.06.01-.03,0-.06,0-.09,0-.03,0-.05-.01-.08-.01-2.67,0-5.34,0-8.01,0-.03,0-.05,0-.08.01,0,0-.02,0-.03,0-.08,0-.17,0-.25,0,0,0-.02,0-.03,0-.02,0-.04-.01-.06-.01-.32,0-.65,0-.97,0-.02,0-.04,0-.06.01-.06,0-.13,0-.19,0-.02,0-.05.02-.07.02-.15.15-.31.3-.46.45-.03.03-.06.07-.09.1,0,.03,0,.07,0,.1,0,2.11,0,4.21,0,6.32,0,.03,0,.06,0,.09Zm5.48-15.4c-.15-.15-.29-.29-.44-.44-.01-.01-.04-.02-.06-.03,0,0,0-.02-.01-.03,0,0-.01,0-.02,0-.02,0-.04,0-.07,0-1.83,0-3.67,0-5.5,0-1.71,0-3.42,0-5.12,0-.06,0-.1.01-.13.05-.13.13-.26.27-.4.4-.04.04-.07.08-.11.12,0,.05-.02.1-.02.14,0,2.1,0,4.2,0,6.31,0,.1,0,.21,0,.31,0,.04,0,.06.05.06.17,0,.35,0,.52,0h0c0,.11,0,.22,0,.33,0,.05-.01.09-.01.14,0,.06.02.1.1.1.11,0,.22,0,.33,0,.24,0,.49,0,.73,0,.06,0,.12.01.17.01.18,0,.37-.01.55-.01.34,0,.68,0,1.02,0,.21,0,.42.01.63.01.13,0,.26-.01.39-.01.25,0,.51,0,.76,0,.27,0,.54.01.82.01.11,0,.23,0,.34,0,.2,0,.41,0,.61,0,.23,0,.47.01.7.01.15,0,.3-.01.45-.01.06,0,.12.01.18.01.15,0,.29-.01.44-.01.16,0,.32.01.47.01.12,0,.23-.01.35-.01.18,0,.37.01.55.01.13,0,.26-.01.4-.01.25,0,.5,0,.76,0,.06,0,.07-.02.07-.07,0-.16,0-.32,0-.48,0,0,0,0,0-.01h.57s-.01-.1-.01-.15c0-.29,0-.58,0-.87,0-.22,0-.45,0-.67,0-.26,0-.52.01-.78,0-.23,0-.45,0-.68,0-.14-.01-.27-.01-.41,0-.16,0-.33.01-.49,0-.09,0-.18-.01-.27,0-.15,0-.29,0-.44,0-.31,0-.62,0-.92,0-.26,0-.51.01-.77,0-.09,0-.17-.01-.26,0-.03,0-.07,0-.1-.02-.02-.04-.04-.06-.06Z"/>
      <path class="cls-13" d="m28.38,120.24c1.66,0,3.31,0,4.97,0,2.05,0,4.11,0,6.16,0,.03,0,.07,0,.1,0,0,0,0,.01.01.02,0,.03-.01.05-.01.08,0,.16,0,.32,0,.48,0,0,0,0,0,0-.04,0-.07,0-.11,0-3.7,0-7.4,0-11.11,0-.16,0-.32,0-.49,0-.02,0-.05-.01-.07-.02.18-.18.36-.36.54-.55Z"/>
      <path class="cls-24" d="m39.61,128.17c-.07,0-.13.02-.2.02-.1,0-.21,0-.31,0-.1,0-.19,0-.29,0-.07,0-.14,0-.22,0-.08,0-.16,0-.24,0-.19,0-.38,0-.57,0-.18,0-.36.01-.55.01-.16,0-.32,0-.47,0-.09,0-.18,0-.27,0-.1,0-.2,0-.3,0-.02,0-.04,0-.07,0-1.8,0-3.6,0-5.4,0-.1,0-.21.01-.31.01-.17,0-.35-.01-.52-.01-.3,0-.6,0-.9,0-.1,0-.2,0-.29.02-.06.01-.11.07-.17.11-.05.03-.1.06-.15.09,0,0,0,0,0,0,.03-.16-.05-.26-.16-.37-.14-.13-.26-.27-.39-.4.18,0,.37,0,.55,0,.05,0,.09,0,.14,0,3.67,0,7.34,0,11.01,0,.03,0,.05,0,.08,0,0,0,0,0,0,0,0,.18,0,.36,0,.54Z"/>
      <path class="cls-19" d="m28.38,127.63c-.18,0-.37,0-.55,0,0-.02-.01-.04-.01-.07,0-2.23,0-4.46,0-6.69,0-.03.02-.06.02-.09.02,0,.05.02.07.02.16,0,.32,0,.49,0,0,.2-.01.4-.01.6,0,.23,0,.47.01.7,0,.02,0,.05,0,.07,0,.12,0,.24,0,.36,0,.16,0,.33,0,.49,0,.1,0,.21,0,.31,0,.06.01.11.01.17,0,.12-.01.24-.01.37,0,.14,0,.27,0,.41,0,.21.01.43.01.64,0,.14-.01.27-.01.41,0,.18,0,.35,0,.53,0,.05.01.09.01.14,0,.13,0,.25,0,.38,0,.13,0,.26,0,.4,0,.2,0,.41-.01.61,0,.08,0,.15,0,.23Z"/>
      <path class="cls-19" d="m27.81,136.44c0-1.74,0-3.48,0-5.22,0-.5,0-1,0-1.5,0-.03,0-.05,0-.08,0,0,0-.01.01-.02.19,0,.37,0,.56,0,0,.87,0,1.74,0,2.61,0,.17.01.35.01.52,0,.07-.01.14-.01.22,0,.16,0,.32,0,.48,0,.23,0,.46,0,.69,0,.35.01.7.01,1.05,0,.21,0,.41-.01.62,0,.04,0,.09.01.13,0,.11,0,.22,0,.33,0,.06,0,.12-.01.18h0c-.18,0-.37,0-.55,0,0,0,0,0-.01,0Z"/>
      <path class="cls-13" d="m28.38,129.62c-.19,0-.37,0-.56,0,.14-.14.28-.28.42-.43.05-.05.1-.1.14-.14,0,0,0,0,.01,0,.01,0,.03,0,.04,0,.74,0,1.48,0,2.23,0,.81,0,1.63,0,2.44,0,.03,0,.05,0,.08,0,0,0,.02,0,.03.01,0,.18,0,.37,0,.55,0,0,0,0,0,0-1.61,0-3.22,0-4.83,0Z"/>
      <path class="cls-24" d="m28.4,129.04s0,0-.01,0c0-.02,0-.05,0-.07.02.02.04.04.05.06-.01,0-.03,0-.04.01Z"/>
      <path class="cls-13" d="m39.58,137.86s.02.01.03.02c0,.19,0,.37,0,.56h0c-.63,0-1.26,0-1.89,0-3.11,0-6.23,0-9.34,0-.19,0-.37,0-.56,0,.15-.16.31-.31.46-.47.03-.03.07-.07.1-.1,0,0,0,0,.01,0,0,0,0,0,.01,0,.03,0,.07,0,.1,0,.02,0,.04,0,.07,0,1.32,0,2.64,0,3.96,0,.02,0,.04,0,.07,0,.02,0,.04,0,.06,0,.03,0,.06,0,.09,0,.05,0,.11,0,.16,0,.06,0,.12,0,.17,0,.05,0,.1,0,.15,0,.01,0,.03,0,.04,0,.04,0,.09,0,.13,0,.02,0,.04,0,.06,0,.09,0,.18,0,.26,0,.4,0,.8,0,1.2,0,.04,0,.08,0,.12,0,.12,0,.23,0,.35,0,.02,0,.05,0,.07,0,0,0,.02,0,.03,0,.01,0,.03,0,.04,0,.14,0,.27,0,.41,0,.05,0,.11,0,.16,0,.18,0,.37,0,.55,0,.05,0,.1,0,.15,0,.05,0,.11,0,.16,0,.02,0,.05,0,.07,0,.01,0,.03,0,.04,0,.04,0,.08,0,.12,0,0,0,.02,0,.03,0,.06,0,.12,0,.18,0,0,0,.02,0,.03,0,.09,0,.18,0,.26,0,.05,0,.11,0,.16,0,.26,0,.52,0,.77,0,.05,0,.11,0,.16,0,.07,0,.14,0,.2,0,.19,0,.39,0,.58,0Z"/>
      <path class="cls-26" d="m33.22,137c-.11,0-.22,0-.32,0-.04,0-.08.01-.12.01-.07,0-.14-.01-.21-.01-.08,0-.16.01-.25.01-.1,0-.21-.01-.31-.01-.13,0-.26.01-.39.01-.11,0-.22-.01-.34-.01-.15,0-.3,0-.44.01-.08,0-.17,0-.25,0-.02,0-.05,0-.07,0-.11,0-.21,0-.32,0-.04,0-.09,0-.13,0-.1,0-.2,0-.3,0-.19,0-.39,0-.58,0-.12,0-.25,0-.37,0-.1,0-.17.03-.23.09-.05.05-.11.1-.19.1,0-.06,0-.12,0-.19,0-.19,0-.37,0-.56,0,0,0,0,0,0,.03,0,.06,0,.09,0,1.33,0,2.66,0,3.99,0,.25,0,.5,0,.75,0h0c0,.19,0,.37,0,.56Z"/>
      <path class="cls-18" d="m28.38,136.44c0,.19,0,.37,0,.56-.18-.19-.37-.37-.55-.56.18,0,.37,0,.55,0Z"/>
      <path class="cls-20" d="m41.06,127.63s-.03-.06-.03-.09c0-.72,0-1.45,0-2.17,0-1.52,0-3.05,0-4.57,0,0,.01,0,.02-.01.03,0,.06.01.08.01.16,0,.31,0,.47,0,0,.69,0,1.38,0,2.07,0,1.58,0,3.16,0,4.74-.18,0-.36,0-.54,0Z"/>
      <path class="cls-21" d="m40.18,120.8c0,.13,0,.26,0,.39,0,2.11,0,4.23,0,6.34,0,.03-.02.06-.03.09-.18,0-.36,0-.54,0,0,0,0,0,0,0,0-1.31,0-2.62,0-3.93,0-.96,0-1.93,0-2.89,0,0,0,0,0,0,.16,0,.33,0,.49,0,.02,0,.05,0,.07-.01,0,0,.01,0,.02,0Z"/>
      <path class="cls-20" d="m40.17,120.79s-.05.01-.07.01c-.16,0-.33,0-.49,0,0-.16,0-.32,0-.48,0-.03,0-.05.01-.08.18.18.36.36.54.54Z"/>
      <path class="cls-12" d="m41.6,127.63c0-1.58,0-3.16,0-4.74,0-.69,0-1.38,0-2.07,3.71,0,7.41,0,11.12,0,.04,0,.07,0,.11,0,0,.19,0,.38,0,.58,0,2.05,0,4.1,0,6.14,0,.02,0,.05,0,.07,0,0,0,.01-.01.02,0,0,0,0,0,.01-.47,0-.93,0-1.4,0-3.24,0-6.48,0-9.72,0-.03,0-.06,0-.09,0Z"/>
      <path class="cls-12" d="m28.38,138.43c3.11,0,6.23,0,9.34,0,.63,0,1.26,0,1.89,0,0,.58,0,1.17,0,1.75,0,1.69,0,3.38,0,5.07,0,0,0,0-.01,0-.27,0-.54,0-.8,0-.01,0-.03,0-.04,0-.52,0-1.03,0-1.55,0-.02,0-.04,0-.06,0-.07,0-.15,0-.22,0-.04,0-.08,0-.12,0-.46,0-.92,0-1.39,0,0,0-.02,0-.03,0-.4,0-.79,0-1.19,0-.46,0-.92,0-1.38,0-.02,0-.04,0-.06,0-.21,0-.42,0-.63,0-.03,0-.07,0-.1,0-.04,0-.08,0-.12,0-.54,0-1.09,0-1.63,0-.03,0-.06,0-.09,0-.35,0-.7,0-1.05,0-.02,0-.04,0-.06,0-.04,0-.08,0-.12,0-.02,0-.04,0-.06,0-.02,0-.04,0-.06,0-.15,0-.3,0-.45,0,0,0,0,0-.01-.01,0-.71,0-1.42,0-2.13,0-1.56,0-3.12,0-4.68Z"/>
      <path class="cls-9" d="m39.61,145.25c0-1.69,0-3.38,0-5.07,0-.58,0-1.17,0-1.75,0,0,0,0,0,0,.11,0,.22,0,.33,0,.08,0,.16,0,.24.01,0,.05,0,.09,0,.14,0,2.1,0,4.2,0,6.3,0,.03,0,.05,0,.08,0,.1,0,.19,0,.29-.19,0-.38,0-.57,0Z"/>
      <path class="cls-29" d="m32.82,145.25c.46,0,.92,0,1.38,0,.4,0,.79,0,1.19,0-.03,0-.05.01-.08.01-.81,0-1.61,0-2.42,0-.03,0-.05,0-.08-.01Z"/>
      <path class="cls-29" d="m30.28,145.25c.54,0,1.09,0,1.63,0,.04,0,.08,0,.12,0-.02,0-.05.01-.07.01-.54,0-1.08,0-1.61,0-.02,0-.05,0-.07-.01Z"/>
      <path class="cls-29" d="m37.2,145.25c.52,0,1.03,0,1.55,0-.02,0-.05.01-.07.01-.47,0-.94,0-1.41,0-.02,0-.05,0-.07-.01Z"/>
      <path class="cls-29" d="m35.42,145.25c.46,0,.92,0,1.39,0-.02,0-.05.01-.07.01-.42,0-.83,0-1.25,0-.02,0-.05,0-.07-.01Z"/>
      <path class="cls-29" d="m29.14,145.25c.35,0,.7,0,1.05,0-.02,0-.04.01-.06.01-.31,0-.62,0-.93,0-.02,0-.04,0-.06-.01Z"/>
      <path class="cls-29" d="m38.8,145.25c.27,0,.54,0,.8,0-.02,0-.04.01-.05.01-.23,0-.46,0-.69,0-.02,0-.04,0-.05-.01Z"/>
      <path class="cls-29" d="m32.13,145.25c.21,0,.42,0,.63,0-.01,0-.02.01-.03.01-.19,0-.37,0-.56,0-.01,0-.02,0-.03-.01Z"/>
      <path class="cls-29" d="m36.93,145.25c.07,0,.15,0,.22,0-.07,0-.15,0-.22,0Z"/>
      <path class="cls-29" d="m28.97,145.25s.08,0,.12,0c-.04,0-.08,0-.12,0Z"/>
      <path class="cls-29" d="m28.85,145.25s.04,0,.06,0c-.02,0-.04,0-.06,0Z"/>
      <path class="cls-11" d="m28.38,145.23s0,0,.01.01c0,0,0,0-.01,0,0,0,0-.01,0-.02Z"/>
      <path class="cls-12" d="m52.83,138.43c0,.91,0,1.82,0,2.74,0,1.33,0,2.66,0,3.99,0,.03,0,.06,0,.09,0,0,0,0,0,0,0,0,0,0-.01,0,0,0-.01,0-.02,0-.07,0-.14,0-.2,0-.09,0-.19,0-.28,0-.01,0-.03,0-.04,0-.05,0-.11,0-.16,0-.06,0-.12,0-.17,0-.06,0-.12,0-.18,0-.32,0-.64,0-.96,0-.06,0-.12,0-.18,0-.13,0-.26,0-.39,0-.04,0-.08,0-.12,0-.22,0-.44,0-.66,0-.01,0-.03,0-.04,0-.12,0-.23,0-.35,0-.04,0-.08,0-.12,0-.17,0-.34,0-.51,0-.06,0-.13,0-.19,0-.55,0-1.09,0-1.64,0-.04,0-.08,0-.12,0-.31,0-.62,0-.93,0-.04,0-.08,0-.12,0-.05,0-.1,0-.15,0-.03,0-.06,0-.09,0-.37,0-.74,0-1.11,0-.01,0-.03,0-.04,0-.02,0-.04,0-.06,0-.02,0-.05,0-.07,0-.04,0-.08,0-.12,0-.01,0-.03,0-.04,0-.1,0-.2,0-.31,0-.02,0-.04,0-.06,0-.1,0-.19,0-.29,0-.01,0-.03,0-.04,0-.03,0-.06,0-.09,0-.01,0-.03,0-.04,0-.01,0-.03,0-.04,0-.05,0-.1,0-.15,0-.02,0-.04,0-.06,0-.06,0-.12,0-.18,0-.09,0-.18,0-.28,0-.02,0-.04,0-.06,0-.15,0-.29,0-.44,0-.04,0-.09,0-.13,0,0,0,0,0,0,0,0-.03,0-.07,0-.1,0-2.24,0-4.48,0-6.71h0c3.49,0,6.99,0,10.48,0,.25,0,.5,0,.75,0Z"/>
      <path class="cls-10" d="m41.04,138.44s.06-.07.09-.1c.15-.15.31-.3.46-.45,0,.03.01.06.02.08,0,.15,0,.31,0,.46,0,0,0,0,0,0-.19,0-.38,0-.56.01Z"/>
      <path class="cls-28" d="m43.25,137.86s.05-.01.08-.01c2.67,0,5.34,0,8.01,0,.03,0,.05,0,.08.01-.03,0-.05,0-.08,0-2.67,0-5.34,0-8,0-.03,0-.05,0-.08,0Z"/>
      <path class="cls-28" d="m41.85,137.86s.04-.01.06-.01c.32,0,.65,0,.97,0,.02,0,.04,0,.06.01-.36,0-.73,0-1.09,0Z"/>
      <path class="cls-28" d="m51.5,137.86s.04-.01.06-.01c.29,0,.58,0,.87,0,.02,0,.04,0,.06.01-.33,0-.66,0-.99,0Z"/>
      <path class="cls-28" d="m42.97,137.86c.08,0,.17,0,.25,0-.08,0-.17,0-.25,0Z"/>
      <path class="cls-28" d="m52.8,137.86s0,0,.01,0c0,0,0,0-.01,0Z"/>
      <path class="cls-29" d="m46.61,145.25c.55,0,1.09,0,1.64,0-.02,0-.05.01-.07.01-.5,0-1,0-1.5,0-.02,0-.05,0-.07-.01Z"/>
      <path class="cls-29" d="m44.1,145.25c.37,0,.74,0,1.11,0-.02,0-.04.01-.06.01-.33,0-.66,0-.99,0-.02,0-.04,0-.06-.01Z"/>
      <path class="cls-29" d="m50.8,145.25c.32,0,.64,0,.96,0-.02,0-.04.01-.05.01-.28,0-.57,0-.85,0-.02,0-.04,0-.05-.01Z"/>
      <path class="cls-29" d="m45.56,145.25c.31,0,.62,0,.93,0-.02,0-.04.01-.05.01-.28,0-.55,0-.83,0-.02,0-.04,0-.05-.01Z"/>
      <path class="cls-29" d="m49.46,145.25c.22,0,.44,0,.66,0-.22,0-.44,0-.66,0Z"/>
      <path class="cls-29" d="m48.44,145.25c.17,0,.34,0,.51,0-.03,0-.06.01-.09.01-.12,0-.23,0-.35,0-.02,0-.05,0-.07-.01Z"/>
      <path class="cls-29" d="m41.73,145.25c.15,0,.29,0,.44,0-.08,0-.16.01-.24.01-.07,0-.13,0-.2-.01Z"/>
      <path class="cls-29" d="m50.23,145.25c.13,0,.26,0,.39,0-.13,0-.26,0-.39,0Z"/>
      <path class="cls-29" d="m49.06,145.25c.12,0,.23,0,.35,0-.12,0-.23,0-.35,0Z"/>
      <path class="cls-29" d="m43.45,145.25c.1,0,.2,0,.31,0-.1,0-.2,0-.31,0Z"/>
      <path class="cls-29" d="m43.1,145.25c.1,0,.19,0,.29,0-.1,0-.19,0-.29,0Z"/>
      <path class="cls-29" d="m42.23,145.25c.09,0,.18,0,.28,0-.09,0-.18,0-.28,0Z"/>
      <path class="cls-29" d="m52.82,145.24s0,0,.01,0c0,0,0,.01,0,.02-.08,0-.16,0-.23-.01.07,0,.14,0,.2,0,0,0,.01,0,.02,0Z"/>
      <path class="cls-29" d="m51.94,145.25c.06,0,.12,0,.17,0-.06,0-.12,0-.17,0Z"/>
      <path class="cls-29" d="m45.3,145.25s.1,0,.15,0c-.05,0-.1,0-.15,0Z"/>
      <path class="cls-29" d="m43.81,145.25s.08,0,.12,0c-.04,0-.08,0-.12,0Z"/>
      <path class="cls-29" d="m42.97,145.25s.06,0,.09,0c-.03,0-.06,0-.09,0Z"/>
      <path class="cls-29" d="m44,145.25s.04,0,.06,0c-.02,0-.04,0-.06,0Z"/>
      <path class="cls-29" d="m42.68,145.25s.04,0,.06,0c-.02,0-.04,0-.06,0Z"/>
      <path class="cls-29" d="m52.28,145.25s.03,0,.04,0c-.01,0-.03,0-.04,0Z"/>
      <path class="cls-29" d="m42.89,145.25s.03,0,.04,0c-.01,0-.03,0-.04,0Z"/>
      <path class="cls-20" d="m52.82,127.62s0,0,.01-.02c0,0,0,.01-.01.02Z"/>
      <path class="cls-12" d="m48,129.62c1.56,0,3.12,0,4.68,0,.05,0,.1,0,.15,0,0,.41,0,.83,0,1.24,0,1.83,0,3.66,0,5.49,0,.03,0,.06,0,.09-.03,0-.07,0-.1,0-1.55,0-3.1,0-4.66,0-.02,0-.05,0-.07,0,0-.03,0-.06,0-.09,0-2.24,0-4.48,0-6.72Z"/>
      <path class="cls-20" d="m48,129.62c0,2.24,0,4.48,0,6.72,0,.03,0,.06,0,.09,0,0-.01,0-.02,0-.18,0-.36,0-.54,0,0,0,0-.02-.01-.03,0-1.02,0-2.04,0-3.06,0-1.2,0-2.41,0-3.61,0-.04,0-.08,0-.12.01,0,.03,0,.04,0,.18,0,.35,0,.53,0h0Z"/>
      <path class="cls-10" d="m48,129.62c-.18,0-.35,0-.53,0,0-.01,0-.02,0-.03,0,0,0,0,0,0,0,0,0,0,.01-.01,0,0,0,0,0,0,0,0,.01-.02.02-.03,0,0,.01-.01.02-.02,0,0,.02-.01.03-.02,0,0,0,0,0,0,0,0,.01-.02.02-.03.03-.03.06-.06.09-.09,0,0,.02-.02.03-.03.04-.04.08-.08.12-.12,0,0,.02-.02.03-.03.02-.02.04-.04.06-.06,0,0,.02-.02.03-.03,0,0,.01-.01.02-.02,0,0,.02-.02.03-.03,0,0,.01-.01.02-.02,0,0,.02,0,.03,0,0,.18,0,.36,0,.54Z"/>
      <path class="cls-8" d="m48,129.08s-.02,0-.03,0c0,0,.02-.02.03-.03,0,0,0,.02,0,.03Z"/>
      <path class="cls-28" d="m52.8,129.05s0,0,.01,0c0,0,0,0-.01,0Z"/>
      <path class="cls-20" d="m41.04,138.44c.19,0,.38,0,.56-.01,0,2.24,0,4.48,0,6.71,0,.03,0,.07,0,.1-.19,0-.38,0-.57,0,0-.1,0-.19,0-.29,0-.03,0-.06,0-.09,0-2.11,0-4.21,0-6.32,0-.03,0-.07,0-.1Z"/>
      <path class="cls-12" d="m46.01,136.43s0,0,0,.01c-.02,0-.04,0-.07,0-3.05,0-6.09,0-9.14,0-.54,0-1.07,0-1.61,0,0,0,0,0,0,0,0-.03,0-.06,0-.09,0-2.24,0-4.49,0-6.73,2.18,0,4.36,0,6.54,0,1.42,0,2.84,0,4.26,0,0,.02,0,.05,0,.07,0,1.21,0,2.42,0,3.63,0,1.03,0,2.07,0,3.1Z"/>
      <path class="cls-13" d="m46.01,129.62c-1.42,0-2.84,0-4.26,0-2.18,0-4.36,0-6.54,0-.18,0-.37,0-.55,0,.04-.04.07-.08.11-.12.13-.13.27-.26.4-.4.04-.04.08-.05.13-.05,1.71,0,3.42,0,5.12,0,1.83,0,3.67,0,5.5,0,.02,0,.04,0,.07,0,0,0,.01,0,.02,0,0,0,0,.02.01.03,0,.18,0,.35,0,.53h0Z"/>
      <path class="cls-26" d="m35.2,136.44c.54,0,1.07,0,1.61,0,3.05,0,6.09,0,9.14,0,.02,0,.04,0,.07,0,0,.16,0,.32,0,.48,0,.06-.01.08-.07.07-.25,0-.5,0-.76,0-.13,0-.26.01-.4.01-.18,0-.37-.01-.55-.01-.12,0-.23.01-.35.01-.16,0-.32-.01-.47-.01-.15,0-.29.01-.44.01-.06,0-.12-.01-.18-.01-.15,0-.3.01-.45.01-.23,0-.47-.01-.7-.01-.2,0-.41,0-.61,0-.11,0-.23,0-.34,0-.27,0-.54-.01-.82-.01-.25,0-.51,0-.76,0-.13,0-.26.01-.39.01-.21,0-.42-.01-.63-.01-.34,0-.68,0-1.02,0-.18,0-.37.01-.55.01-.06,0-.12-.01-.17-.01-.24,0-.49,0-.73,0-.11,0-.22,0-.33,0-.08,0-.1-.03-.1-.1,0-.05.01-.09.01-.14,0-.11,0-.22,0-.32Z"/>
      <path class="cls-20" d="m34.65,129.62c.18,0,.37,0,.55,0,0,2.24,0,4.49,0,6.73,0,.03,0,.06,0,.09-.17,0-.35,0-.52,0-.04,0-.05-.02-.05-.06,0-.1,0-.21,0-.31,0-2.1,0-4.2,0-6.31,0-.05,0-.1.02-.14Z"/>
      <path class="cls-9" d="m33.78,129.63s0,.06,0,.09c0,2.21,0,4.41,0,6.62,0,.02,0,.05,0,.07,0,0-.02.02-.03.03-.18,0-.36,0-.54,0,0,0,0,0,0,0,0-.02,0-.05,0-.07,0-2.25,0-4.5,0-6.75,0,0,0,0,0,0,.1,0,.21,0,.31,0,.08,0,.17,0,.25.01Z"/>
      <path class="cls-7" d="m46.01,136.43c0-1.03,0-2.07,0-3.1,0-1.21,0-2.42,0-3.63,0-.02,0-.05,0-.07,0,0,0,0,0,0,.17,0,.34,0,.51,0,.01,0,.03,0,.04,0,0,.03,0,.07,0,.1,0,.09.01.17.01.26,0,.26,0,.51-.01.77,0,.31,0,.62,0,.92,0,.15,0,.29,0,.44,0,.09.01.18.01.27,0,.16-.01.33-.01.49,0,.14,0,.27.01.41,0,.23,0,.45,0,.68,0,.26,0,.52-.01.78,0,.22,0,.45,0,.67,0,.29,0,.58,0,.87,0,.05,0,.1.01.15h-.57Z"/>
      <path class="cls-20" d="m33.78,129.63c-.08,0-.17-.01-.25-.01-.1,0-.21,0-.31,0,0-.18,0-.37,0-.55,0,0,0,0,0-.01.19.18.37.36.55.55,0,0,0,.02.01.03Z"/>
      <path class="cls-18" d="m33.21,136.44c.18,0,.36,0,.54,0,0,0,0,0,.01,0-.05.06-.09.12-.15.18-.11.12-.23.23-.35.34-.02.02-.04.03-.06.04,0-.18,0-.37,0-.55Z"/>
      <path class="cls-29" d="m39.61,127.63c.18,0,.36,0,.54,0,0,.01-.01.03-.02.04-.16.16-.32.32-.48.48,0,0-.03,0-.04.01,0-.18,0-.36,0-.54Z"/>
      <path class="cls-19" d="m40.18,138.44c-.08,0-.16-.01-.24-.01-.11,0-.22,0-.33,0,0-.19,0-.37,0-.56.17.17.34.34.52.51.02.02.03.04.05.06Z"/>
      <path class="cls-20" d="m46.52,129.62c-.17,0-.34,0-.51,0,0-.18,0-.35,0-.53.02,0,.04.02.06.03.15.15.29.29.44.44,0,.02,0,.04.01.06Z"/>
      <path class="cls-28" d="m32.6,137.86s-.04,0-.07,0c-1.32,0-2.64,0-3.96,0-.02,0-.04,0-.07,0,.03,0,.05-.01.08-.01,1.31,0,2.62,0,3.94,0,.03,0,.05,0,.08.01Z"/>
      <path class="cls-28" d="m34.92,137.86c-.4,0-.8,0-1.2,0,.02,0,.04-.01.06-.01.36,0,.72,0,1.07,0,.02,0,.04,0,.06.01Z"/>
      <path class="cls-28" d="m39.58,137.86c-.19,0-.39,0-.58,0,.02,0,.03-.01.05-.01.16,0,.33,0,.49,0,.02,0,.03,0,.05.01Z"/>
      <path class="cls-28" d="m36.66,137.86c-.18,0-.37,0-.55,0,.02,0,.04-.01.05-.01.15,0,.3,0,.45,0,.02,0,.04,0,.05.01Z"/>
      <path class="cls-28" d="m35.95,137.86c-.14,0-.27,0-.41,0,.1,0,.21-.01.31-.01.03,0,.06,0,.1.01Z"/>
      <path class="cls-28" d="m35.39,137.86c-.12,0-.23,0-.35,0,.12,0,.23,0,.35,0Z"/>
      <path class="cls-28" d="m33.08,137.86c-.06,0-.12,0-.17,0,.06,0,.12,0,.17,0Z"/>
      <path class="cls-28" d="m38.79,137.86c-.05,0-.11,0-.16,0,.05,0,.11,0,.16,0Z"/>
      <path class="cls-22" d="m46.52,129.62s0-.04-.01-.06c.02.02.04.04.06.06-.01,0-.03,0-.04,0Z"/>
      <path class="cls-28" d="m36.97,137.86c-.05,0-.11,0-.16,0,.05,0,.11,0,.16,0Z"/>
      <path class="cls-28" d="m37.86,137.86c-.05,0-.11,0-.16,0,.05,0,.11,0,.16,0Z"/>
      <path class="cls-28" d="m32.75,137.86s-.06,0-.09,0c.03,0,.06,0,.09,0Z"/>
      <path class="cls-8" d="m47.47,129.59s0,.02,0,.03c-.01,0-.03,0-.04,0,.01-.01.02-.02.04-.03Z"/>
      <path class="cls-28" d="m33.46,137.86s-.04,0-.06,0c.02,0,.04,0,.06,0Z"/>
      <path class="cls-20" d="m33.77,136.44s0,0-.01,0c0,0,.02-.02.03-.03,0,0,0,.02-.01.03Z"/>
      <path class="cls-28" d="m28.4,129.04s.03,0,.04-.01c0,0,0,0,0,.01-.01,0-.03,0-.04,0Z"/>
      <path class="cls-8" d="m47.95,129.09s-.02.02-.03.03c0,0,.02-.02.03-.03Z"/>
      <path class="cls-8" d="m47.91,129.14s-.02.02-.03.03c0,0,.02-.02.03-.03Z"/>
      <path class="cls-8" d="m47.68,129.37s-.02.02-.03.03c0,0,.02-.02.03-.03Z"/>
      <path class="cls-28" d="m37.09,137.86s-.03,0-.04,0c.01,0,.03,0,.04,0Z"/>
      <path class="cls-28" d="m33.27,137.86s-.03,0-.04,0c.01,0,.03,0,.04,0Z"/>
      <path class="cls-8" d="m47.82,129.23s-.02.02-.03.03c0,0,.02-.02.03-.03Z"/>
      <path class="cls-8" d="m33.22,129.05s0,0,0,.01c0,0-.02,0-.03-.01,0,0,.02,0,.03,0Z"/>
      <path class="cls-8" d="m47.56,129.49s-.01.02-.02.03c0,0,.01-.02.02-.03Z"/>
      <path class="cls-28" d="m37.44,137.86s-.02,0-.03,0c0,0,.02,0,.03,0Z"/>
      <path class="cls-28" d="m37.23,137.86s-.02,0-.03,0c0,0,.02,0,.03,0Z"/>
      <path class="cls-28" d="m35.49,137.86s-.02,0-.03,0c0,0,.02,0,.03,0Z"/>
      <path class="cls-8" d="m47.54,129.51s-.02.01-.03.02c0,0,.02-.01.03-.02Z"/>
      <path class="cls-8" d="m47.5,129.55s-.01.02-.02.03c0,0,.01-.02.02-.03Z"/>
      <path class="cls-23" d="m47.43,136.41s0,.02.01.03c0,0,0-.02-.01-.03Z"/>
      <path class="cls-8" d="m46,129.06s-.01,0-.02,0c0,0,.01,0,.02,0Z"/>
      <path class="cls-28" d="m28.41,137.86s0,0-.01,0c0,0,0,0,.01,0Z"/>
      <path class="cls-8" d="m47.48,129.57s0,0-.01.01c0,0,0,0,.01-.01Z"/>
      <path class="cls-12" d="m39.61,120.81c0,.96,0,1.93,0,2.89,0,1.31,0,2.62,0,3.93-.03,0-.05,0-.08,0-3.67,0-7.34,0-11.01,0-.05,0-.09,0-.14,0,0-.08,0-.15,0-.23,0-.2.01-.41.01-.61,0-.13,0-.26,0-.4,0-.13,0-.25,0-.38,0-.05-.01-.09-.01-.14,0-.18,0-.35,0-.53,0-.14.01-.27.01-.41,0-.21,0-.43-.01-.64,0-.14,0-.27,0-.41,0-.12.01-.24.01-.37,0-.06-.01-.11-.01-.17,0-.1,0-.21,0-.31,0-.16,0-.33,0-.49,0-.12,0-.24,0-.36,0-.02,0-.05,0-.07,0-.23-.01-.47-.01-.7,0-.2,0-.4.01-.6,3.7,0,7.4,0,11.11,0,.04,0,.07,0,.11,0Z"/>
      <path class="cls-12" d="m33.21,129.62c0,2.25,0,4.5,0,6.75,0,.02,0,.05,0,.07-.25,0-.5,0-.75,0-1.33,0-2.66,0-3.99,0-.03,0-.06,0-.09,0,0-.06.01-.12.01-.18,0-.11,0-.22,0-.33,0-.04-.01-.09-.01-.13,0-.21.01-.41.01-.62,0-.35,0-.7-.01-1.05,0-.23,0-.46,0-.69,0-.16,0-.32,0-.48,0-.07.01-.14.01-.22,0-.17-.01-.35-.01-.52,0-.87,0-1.74,0-2.61,1.61,0,3.22,0,4.83,0Z"/>
      <path class="cls-11" d="m52.82,145.24s-.01,0-.02,0c0,0,.01,0,.02,0Z"/>
    </g>
    <g>
      <path class="cls-6" d="m14.27,120.08s0,0,0,.01c-.03,0-.07,0-.1,0-2.05,0-4.11,0-6.16,0-1.66,0-3.31,0-4.97,0,0,0,0,0,0-.01h11.23Z"/>
      <path class="cls-6" d="m16.25,120.1s0,0,0-.01h11.23s0,0,0,.01c0,0-.01,0-.02,0-3.74,0-7.47,0-11.21,0Z"/>
      <path class="cls-1" d="m2.45,138.28h.02c0,1.49,0,2.99,0,4.48,0,.78,0,1.56,0,2.34,0,0-.01,0-.02,0,0-2.27,0-4.55,0-6.82Z"/>
      <path class="cls-1" d="m2.47,136.3s-.01,0-.02,0v-6.81s0,0,.01,0c0,.03,0,.05,0,.08,0,.5,0,1,0,1.5,0,1.74,0,3.48,0,5.22Z"/>
      <path class="cls-18" d="m28.03,127.5c-.18.18-.36.36-.54.54-.1,0-.2,0-.29.01-.76,0-1.52,0-2.28,0-.19,0-.38,0-.57,0-.34,0-.68,0-1.01,0-.04,0-.09,0-.13,0-.21,0-.42,0-.64,0-.1,0-.2-.01-.29-.01-.2,0-.39.01-.59.01-.09,0-.17-.01-.26-.01-.22,0-.44,0-.66,0-.28,0-.56,0-.83,0-.15,0-.3,0-.44,0-.25,0-.5,0-.74,0-.15,0-.3.01-.45.01-.24,0-.47,0-.71,0-.15,0-.29-.01-.44-.01-.13,0-.25.01-.38.01-.13,0-.26-.02-.39,0-.09,0-.14-.01-.2-.08-.13-.14-.28-.28-.42-.41-.02-.02-.02-.05-.03-.07.18,0,.36,0,.54,0,.03,0,.06,0,.09,0,3.24,0,6.48,0,9.72,0,.47,0,.93,0,1.4,0,.16,0,.32,0,.48,0,.02,0,.05,0,.07.01Z"/>
      <path class="cls-13" d="m16.25,120.1c3.74,0,7.47,0,11.21,0,0,0,.01,0,.02,0,0,0,0,0,0,0,0,.19,0,.37,0,.56,0,0,0,0,0,0-.04,0-.07,0-.11,0-3.71,0-7.41,0-11.12,0-.16,0-.31,0-.47,0-.03,0-.06,0-.08-.01.18-.19.37-.37.55-.56Z"/>
      <path class="cls-26" d="m14.84,145.11c-.18.18-.35.36-.53.54-.02.02-.04.02-.06.03-.02,0-.03,0-.05,0-3.69,0-7.38,0-11.07,0-.03,0-.06,0-.09-.01,0-.19,0-.37,0-.56,0,0,0,0,0,0,0,0,0,0,.01,0,.15,0,.3,0,.45,0,.02,0,.04,0,.06,0,.02,0,.04,0,.06,0,.04,0,.08,0,.12,0,.02,0,.04,0,.06,0,.02,0,.04.01.06.01.31,0,.62,0,.93,0,.02,0,.04,0,.06-.01h.09s.05.01.07.01c.54,0,1.08,0,1.61,0,.02,0,.05,0,.07-.01.03,0,.07,0,.1,0,.01,0,.02.01.03.01.19,0,.37,0,.56,0,.01,0,.02,0,.03-.01.02,0,.04,0,.06,0,.03,0,.05.01.08.01.81,0,1.61,0,2.42,0,.03,0,.05,0,.08-.01,0,0,.02,0,.03,0,.02,0,.05.01.07.01.42,0,.83,0,1.25,0,.02,0,.05,0,.07-.01.04,0,.08,0,.12,0h.22s.04,0,.06,0c.02,0,.05.01.07.01.47,0,.94,0,1.41,0,.02,0,.05,0,.07-.01.01,0,.03,0,.04,0,.02,0,.04.01.05.01.23,0,.46,0,.69,0,.02,0,.04,0,.05-.01,0,0,0,0,.01,0,.19,0,.38,0,.57,0h0Z"/>
      <path class="cls-13" d="m27.48,137.71s0,.02,0,.02c0,.18,0,.36,0,.55h0c-.25,0-.5,0-.75,0-3.49,0-6.99,0-10.48,0,0-.15,0-.31,0-.46,0-.03,0-.06-.02-.08.02,0,.05-.02.07-.02.06,0,.13,0,.19,0,.36,0,.73,0,1.09,0,0,0,.02,0,.03,0,.08,0,.17,0,.25,0,0,0,.02,0,.03,0,.03,0,.05,0,.08,0,2.67,0,5.34,0,8,0,.03,0,.05,0,.08,0h.09c.33,0,.66,0,.99,0,.01,0,.03,0,.04,0,.09,0,.18,0,.26,0h.01s0,0,.01,0Z"/>
      <path class="cls-26" d="m27.49,145.66s-.05.01-.07.01c-3.7,0-7.4,0-11.1,0-.03,0-.05-.01-.08-.02,0-.04.01-.07.01-.11,0-.15,0-.3,0-.44.04,0,.09,0,.13,0,.07,0,.13.01.2.01.08,0,.16,0,.24-.01.02,0,.04,0,.06,0,.09,0,.18,0,.28,0,.06,0,.12,0,.18,0h.06s.1,0,.15,0c.01,0,.03,0,.04,0,.01,0,.03,0,.04,0,.03,0,.06,0,.09,0,.01,0,.03,0,.04,0,.1,0,.19,0,.29,0,.02,0,.04,0,.06,0,.1,0,.2,0,.31,0,.01,0,.03,0,.04,0,.04,0,.08,0,.12,0,.02,0,.05,0,.07,0,.02,0,.04,0,.06,0,.01,0,.03,0,.04,0,.02,0,.04.01.06.01.33,0,.66,0,.99,0,.02,0,.04,0,.06-.01h.09s.1,0,.15,0c.04,0,.08,0,.12,0,.02,0,.04.01.05.01.28,0,.55,0,.83,0,.02,0,.04,0,.05-.01.04,0,.08,0,.12,0,.02,0,.05.01.07.01.5,0,1,0,1.5,0,.02,0,.05,0,.07-.01.06,0,.13,0,.19,0,.02,0,.05.01.07.01.12,0,.23,0,.35,0,.03,0,.06,0,.09-.01.04,0,.08,0,.12,0,.12,0,.23,0,.35,0,.01,0,.03,0,.04,0,.22,0,.44,0,.66,0,.04,0,.08,0,.12,0,.13,0,.26,0,.39,0h.18s.04.01.05.01c.28,0,.57,0,.85,0,.02,0,.04,0,.05-.01.06,0,.12,0,.18,0h.17c.05,0,.11,0,.16,0,.01,0,.03,0,.04,0,.09,0,.19,0,.28,0,.08,0,.16,0,.23.01,0,.18,0,.36,0,.55Z"/>
      <path class="cls-19" d="m2.47,145.1c0-.78,0-1.56,0-2.34,0-1.49,0-2.98,0-4.48,0,0,0,0,.01,0,.19,0,.37,0,.56,0,0,1.56,0,3.12,0,4.68,0,.71,0,1.42,0,2.13,0,0,0,.01,0,.02,0,0,0,0,0,0-.17,0-.33,0-.5,0-.01,0-.03.01-.04.02,0,0-.02-.01-.03-.02Z"/>
      <path class="cls-27" d="m28.03,127.5s-.05-.01-.07-.01c-.16,0-.32,0-.48,0,0,0,0,0,0-.01v-.02s.01-.05.01-.07c0-2.05,0-4.1,0-6.14,0-.19,0-.38,0-.58,0,0,0,0,0,0,.19,0,.37,0,.56,0,0,.03,0,.05,0,.08,0,2.22,0,4.44,0,6.66,0,.03-.02.07-.02.1Z"/>
      <path class="cls-27" d="m28.04,138.28s0,.05,0,.08c0,2.22,0,4.45,0,6.67,0,.03-.01.06-.02.09-.03,0-.05-.02-.08-.02-.15,0-.31,0-.47,0,0-.03,0-.06,0-.09,0-1.33,0-2.66,0-3.99,0-.91,0-1.82,0-2.74,0,0,0,0,0,0,.19,0,.37,0,.56,0Z"/>
      <path class="cls-27" d="m28.04,129.47s0,.06,0,.09c0,2.22,0,4.44,0,6.66,0,.03-.02.06-.02.09-.06,0-.12-.01-.18-.02-.12,0-.25,0-.37,0,0-.03,0-.06,0-.09,0-1.83,0-3.66,0-5.49,0-.41,0-.83,0-1.24h0c.19,0,.37,0,.56,0Z"/>
      <path class="cls-26" d="m27.48,136.29c.12,0,.25,0,.37,0,0,0,0,.01,0,.02.02.07.03.12-.07.13-.04,0-.07.06-.11.01,0,0-.03.02-.04.03,0,.02,0,.04,0,.06,0,.02-.01.04-.02.06-.02,0-.04-.02-.06-.02-.01,0-.02,0-.04-.02v.25s-.03.07-.03.1c0,.26,0,.53,0,.79,0,0,0,0-.01,0,0,0,0,0-.01,0-.09,0-.18,0-.26,0,0-.28,0-.57,0-.84-.14,0-.28,0-.41,0-.07,0-.15-.01-.22-.01-.18,0-.37,0-.55.01-.05,0-.1-.01-.14-.01-.12,0-.24.01-.37.01-.19,0-.38,0-.57-.01-.12,0-.25,0-.37,0-.34,0-.69,0-1.03,0-.27,0-.54,0-.81,0-.06,0-.08-.02-.08-.08,0-.16,0-.32,0-.47,0,0,.01,0,.02,0,.02,0,.05,0,.07,0,1.55,0,3.1,0,4.66,0,.03,0,.07,0,.1,0Z"/>
      <path class="cls-13" d="m27.48,128.9s0,0,0,0c0,.19,0,.37,0,.56,0,0,0,0,0,0-.05,0-.1,0-.15,0-1.56,0-3.12,0-4.68,0,0,0,0,0,0,0,0-.18,0-.36,0-.54v-.03s.06,0,.08,0c1.27,0,2.55,0,3.82,0,.21,0,.43,0,.64,0,.09,0,.17,0,.26,0,0,0,0,0,.01,0,0,0,0,0,.01,0Z"/>
      <path class="cls-26" d="m27.48,128.9s0,0-.01,0c0,0,0,0-.01,0-.09,0-.17,0-.26,0,0-.28,0-.56,0-.84.1,0,.2,0,.29-.01,0,.29,0,.57,0,.86Z"/>
      <path class="cls-15" d="m15.68,145.11c-.28,0-.56,0-.84,0,0,0,0,0,0,0,0-.1,0-.19,0-.29.28,0,.56,0,.84,0,0,.1,0,.19,0,.29h0Z"/>
      <path class="cls-29" d="m16.25,145.11c0,.15,0,.3,0,.44,0,.04,0,.07-.01.11-.19-.18-.37-.37-.56-.55,0,0,0,0,0,0,.19,0,.38,0,.57,0h0Z"/>
      <path class="cls-20" d="m27.49,129.47c0-.19,0-.37,0-.56.19.19.37.37.56.56-.19,0-.37,0-.56,0Z"/>
      <path class="cls-20" d="m28.05,120.67c-.19,0-.37,0-.56,0,0-.19,0-.37,0-.56.18.18.37.36.55.54,0,0,0,.01,0,.02Z"/>
      <path class="cls-15" d="m27.48,145.1c.16,0,.31,0,.47,0,.03,0,.05.01.08.02-.18.18-.36.36-.54.54,0-.18,0-.36,0-.55,0,0,0-.01,0-.02,0,0,0,0,0,0Z"/>
      <path class="cls-20" d="m28.04,138.28c-.19,0-.37,0-.56,0,0-.18,0-.36,0-.55,0,0,.02,0,.02,0,.18.18.36.36.53.54Z"/>
      <path class="cls-29" d="m2.49,145.12s.03-.02.04-.02c.17,0,.33,0,.5,0,0,.19,0,.37,0,.56-.18-.18-.36-.36-.54-.54Z"/>
      <path class="cls-25" d="m27.52,136.82v-.25s.03.01.04.02c.02,0,.04.02.06.02,0-.02.02-.04.02-.06,0-.02,0-.04,0-.06,0-.01.04-.03.04-.03.04.05.08,0,.11-.01.1-.01.09-.06.07-.13,0,0,0-.01,0-.02.06,0,.12.01.18.02-.17.17-.34.34-.51.51Z"/>
      <path class="cls-25" d="m15.68,144.81c-.28,0-.56,0-.84,0,0-.03,0-.05,0-.08,0-2.1,0-4.2,0-6.3,0-.05,0-.09,0-.14-.02-.02-.03-.04-.05-.06-.17-.17-.34-.34-.52-.51-.01,0-.02-.01-.03-.02-.02,0-.03-.01-.05-.01-.16,0-.33,0-.49,0-.02,0-.03,0-.05.01-.07,0-.14,0-.2,0h-1.09c-.09,0-.18,0-.26,0h-.03c-.06,0-.12,0-.18,0,0,0-.02,0-.03,0h-.12s-.03,0-.04,0c-.02,0-.05,0-.07,0h-.16s-.1,0-.15,0c-.02,0-.04-.01-.05-.01-.15,0-.3,0-.45,0-.02,0-.04,0-.05.01-.05,0-.11,0-.16,0-.03,0-.06-.01-.1-.01-.1,0-.21,0-.31.01-.01,0-.03,0-.04,0,0,0-.02,0-.03,0h-.07c-.12,0-.23,0-.35,0h-.12s-.04-.01-.06-.01c-.36,0-.72,0-1.07,0-.02,0-.04,0-.06.01h-.26s-.04,0-.06,0c-.04,0-.09,0-.13,0-.01,0-.03,0-.04,0-.05,0-.1,0-.15,0h-.34s-.06,0-.09,0c-.02,0-.04,0-.06,0-.03,0-.05-.01-.08-.01-1.31,0-2.62,0-3.94,0-.03,0-.05,0-.08.01-.03,0-.07,0-.1,0,0,0,0,0-.01,0,0,0,0,0-.01,0,0-.22,0-.45,0-.67.08,0,.13-.05.19-.1.07-.06.13-.1.23-.09.12,0,.25,0,.37,0,.19,0,.39,0,.58,0,.1,0,.2,0,.3,0,.04,0,.09,0,.13,0,.11,0,.21,0,.32,0,.02,0,.05,0,.07,0,.08,0,.17,0,.25,0,.15,0,.3-.01.44-.01.11,0,.22.01.34.01.13,0,.26-.01.39-.01.1,0,.21.01.31.01.08,0,.16-.01.25-.01.07,0,.14.01.21.01.04,0,.08-.01.12-.01.11,0,.22,0,.32,0,.02-.01.04-.02.06-.04.12-.11.24-.22.35-.34.05-.05.1-.12.15-.18,0,0,0-.02.01-.03,0-.02,0-.05,0-.07,0-2.21,0-4.41,0-6.62,0-.03,0-.06,0-.09,0-.01,0-.03-.01-.03-.18-.18-.37-.37-.55-.55,0,0-.02,0-.03,0-.03,0-.05,0-.08,0-.81,0-1.63,0-2.44,0-.74,0-1.48,0-2.23,0,0,0,0,0,0-.01-.02-.02-.04-.04-.05-.06,0-.19,0-.38,0-.57.05-.03.1-.06.15-.09.06-.04.11-.09.17-.11.09-.02.19-.02.29-.02.3,0,.6,0,.9,0,.17,0,.35.01.52.01.1,0,.21-.01.31-.01,1.8,0,3.6,0,5.4,0,.02,0,.04,0,.07,0,.1,0,.2,0,.3,0,.09,0,.18,0,.27,0,.16,0,.32.01.47,0,.18,0,.36,0,.55-.01.19,0,.38,0,.57,0,.08,0,.16,0,.24,0,.07,0,.14,0,.22,0,.1,0,.19,0,.29,0,.1,0,.21,0,.31,0,.07,0,.13-.01.2-.02.01,0,.03,0,.04-.01.16-.16.32-.32.48-.48.01-.01.02-.03.02-.04,0-.03.03-.06.03-.09,0-2.11,0-4.23,0-6.34,0-.13,0-.26,0-.39.28,0,.56,0,.85,0,0,1.52,0,3.05,0,4.57,0,.72,0,1.45,0,2.17,0,.03.02.06.03.09.01.02.02.05.03.07.14.14.29.27.42.41.06.06.11.08.2.08.13-.01.26,0,.39,0,.13,0,.25-.01.38-.01.15,0,.29.01.44.01.24,0,.47,0,.71,0,.15,0,.3-.01.45-.01.25,0,.5,0,.74,0,.15,0,.3,0,.44,0,.28,0,.56,0,.83,0,.22,0,.44,0,.66,0,.09,0,.17.01.26.01.2,0,.39-.01.59-.01.1,0,.2.01.29.01.21,0,.42,0,.64,0,.04,0,.09,0,.13,0,.34,0,.68,0,1.01,0,.19,0,.38,0,.57,0,.76,0,1.52,0,2.28,0,0,.28,0,.56,0,.84-.21,0-.43,0-.64,0-1.27,0-2.55,0-3.82,0-.03,0-.05,0-.08,0,0,0-.02.02-.03.03l-.02.02s-.02.02-.03.03c0,0-.01.01-.02.02,0,0-.02.02-.03.03-.02.02-.04.04-.06.06,0,0-.02.02-.03.03-.04.04-.08.08-.12.12,0,0-.02.02-.03.03-.03.03-.06.06-.09.09,0,0-.01.02-.02.03h0s-.02.01-.03.02c0,0-.01.01-.02.02,0,0-.01.02-.02.03h0s0,0-.01.01h0s-.02.02-.04.03c0,.04,0,.08,0,.12,0,1.2,0,2.41,0,3.61,0,1.02,0,2.04,0,3.06,0,0,0,.02.01.03h.54c0,.16,0,.32,0,.48,0,.06.02.08.08.08.27,0,.54,0,.81,0,.34,0,.69,0,1.03,0,.12,0,.25,0,.37,0,.19,0,.38.01.57.01.12,0,.24-.01.37-.01.05,0,.1.01.14.01.18,0,.37-.01.55-.01.07,0,.15.01.22.01.13,0,.27,0,.41,0,0,.28,0,.56,0,.84-.01,0-.03,0-.04,0-.02,0-.04-.01-.06-.01-.29,0-.58,0-.87,0-.02,0-.04,0-.06.01-.03,0-.06,0-.09,0-.03,0-.05-.01-.08-.01-2.67,0-5.34,0-8.01,0-.03,0-.05,0-.08.01,0,0-.02,0-.03,0-.08,0-.17,0-.25,0,0,0-.02,0-.03,0-.02,0-.04-.01-.06-.01-.32,0-.65,0-.97,0-.02,0-.04,0-.06.01-.06,0-.13,0-.19,0-.02,0-.05.02-.07.02-.15.15-.31.3-.46.45-.03.03-.06.07-.09.1,0,.03,0,.07,0,.1,0,2.11,0,4.21,0,6.32,0,.03,0,.06,0,.09Zm5.48-15.4c-.15-.15-.29-.29-.44-.44-.01-.01-.04-.02-.06-.03,0,0,0-.02-.01-.03,0,0-.01,0-.02,0-.02,0-.04,0-.07,0-1.83,0-3.67,0-5.5,0-1.71,0-3.42,0-5.12,0-.06,0-.1.01-.13.05-.13.13-.26.27-.4.4-.04.04-.07.08-.11.12,0,.05-.02.1-.02.14,0,2.1,0,4.2,0,6.31,0,.1,0,.21,0,.31,0,.04,0,.06.05.06.17,0,.35,0,.52,0h0c0,.11,0,.22,0,.33,0,.05-.01.09-.01.14,0,.06.02.1.1.1.11,0,.22,0,.33,0,.24,0,.49,0,.73,0,.06,0,.12.01.17.01.18,0,.37-.01.55-.01.34,0,.68,0,1.02,0,.21,0,.42.01.63.01.13,0,.26-.01.39-.01.25,0,.51,0,.76,0,.27,0,.54.01.82.01.11,0,.23,0,.34,0,.2,0,.41,0,.61,0,.23,0,.47.01.7.01.15,0,.3-.01.45-.01.06,0,.12.01.18.01.15,0,.29-.01.44-.01.16,0,.32.01.47.01.12,0,.23-.01.35-.01.18,0,.37.01.55.01.13,0,.26-.01.4-.01.25,0,.5,0,.76,0,.06,0,.07-.02.07-.07,0-.16,0-.32,0-.48,0,0,0,0,0-.01h.57s-.01-.1-.01-.15c0-.29,0-.58,0-.87,0-.22,0-.45,0-.67,0-.26,0-.52.01-.78,0-.23,0-.45,0-.68,0-.14-.01-.27-.01-.41,0-.16,0-.33.01-.49,0-.09,0-.18-.01-.27,0-.15,0-.29,0-.44,0-.31,0-.62,0-.92,0-.26,0-.51.01-.77,0-.09,0-.17-.01-.26,0-.03,0-.07,0-.1-.02-.02-.04-.04-.06-.06Z"/>
      <path class="cls-13" d="m3.04,120.1c1.66,0,3.31,0,4.97,0,2.05,0,4.11,0,6.16,0,.03,0,.07,0,.1,0,0,0,0,.01.01.02,0,.03-.01.05-.01.08,0,.16,0,.32,0,.48,0,0,0,0,0,0-.04,0-.07,0-.11,0-3.7,0-7.4,0-11.11,0-.16,0-.32,0-.49,0-.02,0-.05-.01-.07-.02.18-.18.36-.36.54-.55Z"/>
      <path class="cls-24" d="m14.27,128.03c-.07,0-.13.02-.2.02-.1,0-.21,0-.31,0-.1,0-.19,0-.29,0-.07,0-.14,0-.22,0-.08,0-.16,0-.24,0-.19,0-.38,0-.57,0-.18,0-.36.01-.55.01-.16,0-.32,0-.47,0-.09,0-.18,0-.27,0-.1,0-.2,0-.3,0-.02,0-.04,0-.07,0-1.8,0-3.6,0-5.4,0-.1,0-.21.01-.31.01-.17,0-.35-.01-.52-.01-.3,0-.6,0-.9,0-.1,0-.2,0-.29.02-.06.01-.11.07-.17.11-.05.03-.1.06-.15.09,0,0,0,0,0,0,.03-.16-.05-.26-.16-.37-.14-.13-.26-.27-.39-.4.18,0,.37,0,.55,0,.05,0,.09,0,.14,0,3.67,0,7.34,0,11.01,0,.03,0,.05,0,.08,0,0,0,0,0,0,0,0,.18,0,.36,0,.54Z"/>
      <path class="cls-19" d="m3.04,127.48c-.18,0-.37,0-.55,0,0-.02-.01-.04-.01-.07,0-2.23,0-4.46,0-6.69,0-.03.02-.06.02-.09.02,0,.05.02.07.02.16,0,.32,0,.49,0,0,.2-.01.4-.01.6,0,.23,0,.47.01.7,0,.02,0,.05,0,.07,0,.12,0,.24,0,.36,0,.16,0,.33,0,.49,0,.1,0,.21,0,.31,0,.06.01.11.01.17,0,.12-.01.24-.01.37,0,.14,0,.27,0,.41,0,.21.01.43.01.64,0,.14-.01.27-.01.41,0,.18,0,.35,0,.53,0,.05.01.09.01.14,0,.13,0,.25,0,.38,0,.13,0,.26,0,.4,0,.2,0,.41-.01.61,0,.08,0,.15,0,.23Z"/>
      <path class="cls-19" d="m2.47,136.3c0-1.74,0-3.48,0-5.22,0-.5,0-1,0-1.5,0-.03,0-.05,0-.08,0,0,0-.01.01-.02.19,0,.37,0,.56,0,0,.87,0,1.74,0,2.61,0,.17.01.35.01.52,0,.07-.01.14-.01.22,0,.16,0,.32,0,.48,0,.23,0,.46,0,.69,0,.35.01.7.01,1.05,0,.21,0,.41-.01.62,0,.04,0,.09.01.13,0,.11,0,.22,0,.33,0,.06,0,.12-.01.18h0c-.18,0-.37,0-.55,0,0,0,0,0-.01,0Z"/>
      <path class="cls-13" d="m3.04,129.47c-.19,0-.37,0-.56,0,.14-.14.28-.28.42-.43.05-.05.1-.1.14-.14,0,0,0,0,.01,0,.01,0,.03,0,.04,0,.74,0,1.48,0,2.23,0,.81,0,1.63,0,2.44,0,.03,0,.05,0,.08,0,0,0,.02,0,.03.01,0,.18,0,.37,0,.55,0,0,0,0,0,0-1.61,0-3.22,0-4.83,0Z"/>
      <path class="cls-24" d="m3.05,128.9s0,0-.01,0c0-.02,0-.05,0-.07.02.02.04.04.05.06-.01,0-.03,0-.04.01Z"/>
      <path class="cls-13" d="m14.24,137.71s.02.01.03.02c0,.19,0,.37,0,.56h0c-.63,0-1.26,0-1.89,0-3.11,0-6.23,0-9.34,0-.19,0-.37,0-.56,0,.15-.16.31-.31.46-.47.03-.03.07-.07.1-.1,0,0,0,0,.01,0,0,0,0,0,.01,0,.03,0,.07,0,.1,0,.02,0,.04,0,.07,0,1.32,0,2.64,0,3.96,0,.02,0,.04,0,.07,0,.02,0,.04,0,.06,0,.03,0,.06,0,.09,0,.05,0,.11,0,.16,0,.06,0,.12,0,.17,0,.05,0,.1,0,.15,0,.01,0,.03,0,.04,0,.04,0,.09,0,.13,0,.02,0,.04,0,.06,0,.09,0,.18,0,.26,0,.4,0,.8,0,1.2,0,.04,0,.08,0,.12,0,.12,0,.23,0,.35,0,.02,0,.05,0,.07,0,0,0,.02,0,.03,0,.01,0,.03,0,.04,0,.14,0,.27,0,.41,0,.05,0,.11,0,.16,0,.18,0,.37,0,.55,0,.05,0,.1,0,.15,0,.05,0,.11,0,.16,0,.02,0,.05,0,.07,0,.01,0,.03,0,.04,0,.04,0,.08,0,.12,0,0,0,.02,0,.03,0,.06,0,.12,0,.18,0,0,0,.02,0,.03,0,.09,0,.18,0,.26,0,.05,0,.11,0,.16,0,.26,0,.52,0,.77,0,.05,0,.11,0,.16,0,.07,0,.14,0,.2,0,.19,0,.39,0,.58,0Z"/>
      <path class="cls-26" d="m7.87,136.85c-.11,0-.22,0-.32,0-.04,0-.08.01-.12.01-.07,0-.14-.01-.21-.01-.08,0-.16.01-.25.01-.1,0-.21-.01-.31-.01-.13,0-.26.01-.39.01-.11,0-.22-.01-.34-.01-.15,0-.3,0-.44.01-.08,0-.17,0-.25,0-.02,0-.05,0-.07,0-.11,0-.21,0-.32,0-.04,0-.09,0-.13,0-.1,0-.2,0-.3,0-.19,0-.39,0-.58,0-.12,0-.25,0-.37,0-.1,0-.17.03-.23.09-.05.05-.11.1-.19.1,0-.06,0-.12,0-.19,0-.19,0-.37,0-.56,0,0,0,0,0,0,.03,0,.06,0,.09,0,1.33,0,2.66,0,3.99,0,.25,0,.5,0,.75,0h0c0,.19,0,.37,0,.56Z"/>
      <path class="cls-18" d="m3.04,136.3c0,.19,0,.37,0,.56-.18-.19-.37-.37-.55-.56.18,0,.37,0,.55,0Z"/>
      <path class="cls-20" d="m15.71,127.49s-.03-.06-.03-.09c0-.72,0-1.45,0-2.17,0-1.52,0-3.05,0-4.57,0,0,.01,0,.02-.01.03,0,.06.01.08.01.16,0,.31,0,.47,0,0,.69,0,1.38,0,2.07,0,1.58,0,3.16,0,4.74-.18,0-.36,0-.54,0Z"/>
      <path class="cls-21" d="m14.84,120.66c0,.13,0,.26,0,.39,0,2.11,0,4.23,0,6.34,0,.03-.02.06-.03.09-.18,0-.36,0-.54,0,0,0,0,0,0,0,0-1.31,0-2.62,0-3.93,0-.96,0-1.93,0-2.89,0,0,0,0,0,0,.16,0,.33,0,.49,0,.02,0,.05,0,.07-.01,0,0,.01,0,.02,0Z"/>
      <path class="cls-20" d="m14.82,120.65s-.05.01-.07.01c-.16,0-.33,0-.49,0,0-.16,0-.32,0-.48,0-.03,0-.05.01-.08.18.18.36.36.54.54Z"/>
      <path class="cls-12" d="m16.26,127.48c0-1.58,0-3.16,0-4.74,0-.69,0-1.38,0-2.07,3.71,0,7.41,0,11.12,0,.04,0,.07,0,.11,0,0,.19,0,.38,0,.58,0,2.05,0,4.1,0,6.14,0,.02,0,.05,0,.07,0,0,0,.01-.01.02,0,0,0,0,0,.01-.47,0-.93,0-1.4,0-3.24,0-6.48,0-9.72,0-.03,0-.06,0-.09,0Z"/>
      <path class="cls-12" d="m3.04,138.28c3.11,0,6.23,0,9.34,0,.63,0,1.26,0,1.89,0,0,.58,0,1.17,0,1.75,0,1.69,0,3.38,0,5.07,0,0,0,0-.01,0-.27,0-.54,0-.8,0-.01,0-.03,0-.04,0-.52,0-1.03,0-1.55,0-.02,0-.04,0-.06,0-.07,0-.15,0-.22,0-.04,0-.08,0-.12,0-.46,0-.92,0-1.39,0,0,0-.02,0-.03,0-.4,0-.79,0-1.19,0-.46,0-.92,0-1.38,0-.02,0-.04,0-.06,0-.21,0-.42,0-.63,0-.03,0-.07,0-.1,0-.04,0-.08,0-.12,0-.54,0-1.09,0-1.63,0-.03,0-.06,0-.09,0-.35,0-.7,0-1.05,0-.02,0-.04,0-.06,0-.04,0-.08,0-.12,0-.02,0-.04,0-.06,0-.02,0-.04,0-.06,0-.15,0-.3,0-.45,0,0,0,0,0-.01-.01,0-.71,0-1.42,0-2.13,0-1.56,0-3.12,0-4.68Z"/>
      <path class="cls-9" d="m14.27,145.1c0-1.69,0-3.38,0-5.07,0-.58,0-1.17,0-1.75,0,0,0,0,0,0,.11,0,.22,0,.33,0,.08,0,.16,0,.24.01,0,.05,0,.09,0,.14,0,2.1,0,4.2,0,6.3,0,.03,0,.05,0,.08,0,.1,0,.19,0,.29-.19,0-.38,0-.57,0Z"/>
      <path class="cls-29" d="m7.48,145.11c.46,0,.92,0,1.38,0,.4,0,.79,0,1.19,0-.03,0-.05.01-.08.01-.81,0-1.61,0-2.42,0-.03,0-.05,0-.08-.01Z"/>
      <path class="cls-29" d="m4.93,145.11c.54,0,1.09,0,1.63,0,.04,0,.08,0,.12,0-.02,0-.05.01-.07.01-.54,0-1.08,0-1.61,0-.02,0-.05,0-.07-.01Z"/>
      <path class="cls-29" d="m11.86,145.11c.52,0,1.03,0,1.55,0-.02,0-.05.01-.07.01-.47,0-.94,0-1.41,0-.02,0-.05,0-.07-.01Z"/>
      <path class="cls-29" d="m10.08,145.11c.46,0,.92,0,1.39,0-.02,0-.05.01-.07.01-.42,0-.83,0-1.25,0-.02,0-.05,0-.07-.01Z"/>
      <path class="cls-29" d="m3.8,145.11c.35,0,.7,0,1.05,0-.02,0-.04.01-.06.01-.31,0-.62,0-.93,0-.02,0-.04,0-.06-.01Z"/>
      <path class="cls-29" d="m13.45,145.11c.27,0,.54,0,.8,0-.02,0-.04.01-.05.01-.23,0-.46,0-.69,0-.02,0-.04,0-.05-.01Z"/>
      <path class="cls-29" d="m6.79,145.11c.21,0,.42,0,.63,0-.01,0-.02.01-.03.01-.19,0-.37,0-.56,0-.01,0-.02,0-.03-.01Z"/>
      <path class="cls-29" d="m11.58,145.11c.07,0,.15,0,.22,0-.07,0-.15,0-.22,0Z"/>
      <path class="cls-29" d="m3.62,145.11s.08,0,.12,0c-.04,0-.08,0-.12,0Z"/>
      <path class="cls-29" d="m3.5,145.11s.04,0,.06,0c-.02,0-.04,0-.06,0Z"/>
      <path class="cls-11" d="m3.04,145.09s0,0,.01.01c0,0,0,0-.01,0,0,0,0-.01,0-.02Z"/>
      <path class="cls-12" d="m27.49,138.28c0,.91,0,1.82,0,2.74,0,1.33,0,2.66,0,3.99,0,.03,0,.06,0,.09,0,0,0,0,0,0,0,0,0,0-.01,0,0,0-.01,0-.02,0-.07,0-.14,0-.2,0-.09,0-.19,0-.28,0-.01,0-.03,0-.04,0-.05,0-.11,0-.16,0-.06,0-.12,0-.17,0-.06,0-.12,0-.18,0-.32,0-.64,0-.96,0-.06,0-.12,0-.18,0-.13,0-.26,0-.39,0-.04,0-.08,0-.12,0-.22,0-.44,0-.66,0-.01,0-.03,0-.04,0-.12,0-.23,0-.35,0-.04,0-.08,0-.12,0-.17,0-.34,0-.51,0-.06,0-.13,0-.19,0-.55,0-1.09,0-1.64,0-.04,0-.08,0-.12,0-.31,0-.62,0-.93,0-.04,0-.08,0-.12,0-.05,0-.1,0-.15,0-.03,0-.06,0-.09,0-.37,0-.74,0-1.11,0-.01,0-.03,0-.04,0-.02,0-.04,0-.06,0-.02,0-.05,0-.07,0-.04,0-.08,0-.12,0-.01,0-.03,0-.04,0-.1,0-.2,0-.31,0-.02,0-.04,0-.06,0-.1,0-.19,0-.29,0-.01,0-.03,0-.04,0-.03,0-.06,0-.09,0-.01,0-.03,0-.04,0-.01,0-.03,0-.04,0-.05,0-.1,0-.15,0-.02,0-.04,0-.06,0-.06,0-.12,0-.18,0-.09,0-.18,0-.28,0-.02,0-.04,0-.06,0-.15,0-.29,0-.44,0-.04,0-.09,0-.13,0,0,0,0,0,0,0,0-.03,0-.07,0-.1,0-2.24,0-4.48,0-6.71h0c3.49,0,6.99,0,10.48,0,.25,0,.5,0,.75,0Z"/>
      <path class="cls-10" d="m15.69,138.3s.06-.07.09-.1c.15-.15.31-.3.46-.45,0,.03.01.06.02.08,0,.15,0,.31,0,.46,0,0,0,0,0,0-.19,0-.38,0-.56.01Z"/>
      <path class="cls-28" d="m17.91,137.71s.05-.01.08-.01c2.67,0,5.34,0,8.01,0,.03,0,.05,0,.08.01-.03,0-.05,0-.08,0-2.67,0-5.34,0-8,0-.03,0-.05,0-.08,0Z"/>
      <path class="cls-28" d="m16.5,137.71s.04-.01.06-.01c.32,0,.65,0,.97,0,.02,0,.04,0,.06.01-.36,0-.73,0-1.09,0Z"/>
      <path class="cls-28" d="m26.16,137.71s.04-.01.06-.01c.29,0,.58,0,.87,0,.02,0,.04,0,.06.01-.33,0-.66,0-.99,0Z"/>
      <path class="cls-28" d="m17.63,137.71c.08,0,.17,0,.25,0-.08,0-.17,0-.25,0Z"/>
      <path class="cls-28" d="m27.46,137.71s0,0,.01,0c0,0,0,0-.01,0Z"/>
      <path class="cls-29" d="m21.26,145.11c.55,0,1.09,0,1.64,0-.02,0-.05.01-.07.01-.5,0-1,0-1.5,0-.02,0-.05,0-.07-.01Z"/>
      <path class="cls-29" d="m18.75,145.11c.37,0,.74,0,1.11,0-.02,0-.04.01-.06.01-.33,0-.66,0-.99,0-.02,0-.04,0-.06-.01Z"/>
      <path class="cls-29" d="m25.46,145.11c.32,0,.64,0,.96,0-.02,0-.04.01-.05.01-.28,0-.57,0-.85,0-.02,0-.04,0-.05-.01Z"/>
      <path class="cls-29" d="m20.21,145.11c.31,0,.62,0,.93,0-.02,0-.04.01-.05.01-.28,0-.55,0-.83,0-.02,0-.04,0-.05-.01Z"/>
      <path class="cls-29" d="m24.11,145.11c.22,0,.44,0,.66,0-.22,0-.44,0-.66,0Z"/>
      <path class="cls-29" d="m23.09,145.11c.17,0,.34,0,.51,0-.03,0-.06.01-.09.01-.12,0-.23,0-.35,0-.02,0-.05,0-.07-.01Z"/>
      <path class="cls-29" d="m16.39,145.11c.15,0,.29,0,.44,0-.08,0-.16.01-.24.01-.07,0-.13,0-.2-.01Z"/>
      <path class="cls-29" d="m24.89,145.11c.13,0,.26,0,.39,0-.13,0-.26,0-.39,0Z"/>
      <path class="cls-29" d="m23.72,145.11c.12,0,.23,0,.35,0-.12,0-.23,0-.35,0Z"/>
      <path class="cls-29" d="m18.11,145.11c.1,0,.2,0,.31,0-.1,0-.2,0-.31,0Z"/>
      <path class="cls-29" d="m17.76,145.11c.1,0,.19,0,.29,0-.1,0-.19,0-.29,0Z"/>
      <path class="cls-29" d="m16.88,145.11c.09,0,.18,0,.28,0-.09,0-.18,0-.28,0Z"/>
      <path class="cls-29" d="m27.47,145.1s0,0,.01,0c0,0,0,.01,0,.02-.08,0-.16,0-.23-.01.07,0,.14,0,.2,0,0,0,.01,0,.02,0Z"/>
      <path class="cls-29" d="m26.6,145.11c.06,0,.12,0,.17,0-.06,0-.12,0-.17,0Z"/>
      <path class="cls-29" d="m19.95,145.11s.1,0,.15,0c-.05,0-.1,0-.15,0Z"/>
      <path class="cls-29" d="m18.46,145.11s.08,0,.12,0c-.04,0-.08,0-.12,0Z"/>
      <path class="cls-29" d="m17.63,145.11s.06,0,.09,0c-.03,0-.06,0-.09,0Z"/>
      <path class="cls-29" d="m18.65,145.11s.04,0,.06,0c-.02,0-.04,0-.06,0Z"/>
      <path class="cls-29" d="m17.34,145.11s.04,0,.06,0c-.02,0-.04,0-.06,0Z"/>
      <path class="cls-29" d="m26.93,145.11s.03,0,.04,0c-.01,0-.03,0-.04,0Z"/>
      <path class="cls-29" d="m17.54,145.11s.03,0,.04,0c-.01,0-.03,0-.04,0Z"/>
      <path class="cls-20" d="m27.47,127.47s0,0,.01-.02c0,0,0,.01-.01.02Z"/>
      <path class="cls-12" d="m22.65,129.47c1.56,0,3.12,0,4.68,0,.05,0,.1,0,.15,0,0,.41,0,.83,0,1.24,0,1.83,0,3.66,0,5.49,0,.03,0,.06,0,.09-.03,0-.07,0-.1,0-1.55,0-3.1,0-4.66,0-.02,0-.05,0-.07,0,0-.03,0-.06,0-.09,0-2.24,0-4.48,0-6.72Z"/>
      <path class="cls-20" d="m22.65,129.47c0,2.24,0,4.48,0,6.72,0,.03,0,.06,0,.09,0,0-.01,0-.02,0-.18,0-.36,0-.54,0,0,0,0-.02-.01-.03,0-1.02,0-2.04,0-3.06,0-1.2,0-2.41,0-3.61,0-.04,0-.08,0-.12.01,0,.03,0,.04,0,.18,0,.35,0,.53,0h0Z"/>
      <path class="cls-10" d="m22.65,129.47c-.18,0-.35,0-.53,0,0-.01,0-.02,0-.03,0,0,0,0,0,0,0,0,0,0,.01-.01,0,0,0,0,0,0,0,0,.01-.02.02-.03,0,0,.01-.01.02-.02,0,0,.02-.01.03-.02,0,0,0,0,0,0,0,0,.01-.02.02-.03.03-.03.06-.06.09-.09,0,0,.02-.02.03-.03.04-.04.08-.08.12-.12,0,0,.02-.02.03-.03.02-.02.04-.04.06-.06,0,0,.02-.02.03-.03,0,0,.01-.01.02-.02,0,0,.02-.02.03-.03,0,0,.01-.01.02-.02,0,0,.02,0,.03,0,0,.18,0,.36,0,.54Z"/>
      <path class="cls-8" d="m22.65,128.93s-.02,0-.03,0c0,0,.02-.02.03-.03,0,0,0,.02,0,.03Z"/>
      <path class="cls-28" d="m27.46,128.9s0,0,.01,0c0,0,0,0-.01,0Z"/>
      <path class="cls-20" d="m15.69,138.3c.19,0,.38,0,.56-.01,0,2.24,0,4.48,0,6.71,0,.03,0,.07,0,.1-.19,0-.38,0-.57,0,0-.1,0-.19,0-.29,0-.03,0-.06,0-.09,0-2.11,0-4.21,0-6.32,0-.03,0-.07,0-.1Z"/>
      <path class="cls-12" d="m20.67,136.28s0,0,0,.01c-.02,0-.04,0-.07,0-3.05,0-6.09,0-9.14,0-.54,0-1.07,0-1.61,0,0,0,0,0,0,0,0-.03,0-.06,0-.09,0-2.24,0-4.49,0-6.73,2.18,0,4.36,0,6.54,0,1.42,0,2.84,0,4.26,0,0,.02,0,.05,0,.07,0,1.21,0,2.42,0,3.63,0,1.03,0,2.07,0,3.1Z"/>
      <path class="cls-13" d="m20.66,129.47c-1.42,0-2.84,0-4.26,0-2.18,0-4.36,0-6.54,0-.18,0-.37,0-.55,0,.04-.04.07-.08.11-.12.13-.13.27-.26.4-.4.04-.04.08-.05.13-.05,1.71,0,3.42,0,5.12,0,1.83,0,3.67,0,5.5,0,.02,0,.04,0,.07,0,0,0,.01,0,.02,0,0,0,0,.02.01.03,0,.18,0,.35,0,.53h0Z"/>
      <path class="cls-26" d="m9.86,136.3c.54,0,1.07,0,1.61,0,3.05,0,6.09,0,9.14,0,.02,0,.04,0,.07,0,0,.16,0,.32,0,.48,0,.06-.01.08-.07.07-.25,0-.5,0-.76,0-.13,0-.26.01-.4.01-.18,0-.37-.01-.55-.01-.12,0-.23.01-.35.01-.16,0-.32-.01-.47-.01-.15,0-.29.01-.44.01-.06,0-.12-.01-.18-.01-.15,0-.3.01-.45.01-.23,0-.47-.01-.7-.01-.2,0-.41,0-.61,0-.11,0-.23,0-.34,0-.27,0-.54-.01-.82-.01-.25,0-.51,0-.76,0-.13,0-.26.01-.39.01-.21,0-.42-.01-.63-.01-.34,0-.68,0-1.02,0-.18,0-.37.01-.55.01-.06,0-.12-.01-.17-.01-.24,0-.49,0-.73,0-.11,0-.22,0-.33,0-.08,0-.1-.03-.1-.1,0-.05.01-.09.01-.14,0-.11,0-.22,0-.32Z"/>
      <path class="cls-20" d="m9.3,129.47c.18,0,.37,0,.55,0,0,2.24,0,4.49,0,6.73,0,.03,0,.06,0,.09-.17,0-.35,0-.52,0-.04,0-.05-.02-.05-.06,0-.1,0-.21,0-.31,0-2.1,0-4.2,0-6.31,0-.05,0-.1.02-.14Z"/>
      <path class="cls-9" d="m8.44,129.49s0,.06,0,.09c0,2.21,0,4.41,0,6.62,0,.02,0,.05,0,.07,0,0-.02.02-.03.03-.18,0-.36,0-.54,0,0,0,0,0,0,0,0-.02,0-.05,0-.07,0-2.25,0-4.5,0-6.75,0,0,0,0,0,0,.1,0,.21,0,.31,0,.08,0,.17,0,.25.01Z"/>
      <path class="cls-7" d="m20.67,136.28c0-1.03,0-2.07,0-3.1,0-1.21,0-2.42,0-3.63,0-.02,0-.05,0-.07,0,0,0,0,0,0,.17,0,.34,0,.51,0,.01,0,.03,0,.04,0,0,.03,0,.07,0,.1,0,.09.01.17.01.26,0,.26,0,.51-.01.77,0,.31,0,.62,0,.92,0,.15,0,.29,0,.44,0,.09.01.18.01.27,0,.16-.01.33-.01.49,0,.14,0,.27.01.41,0,.23,0,.45,0,.68,0,.26,0,.52-.01.78,0,.22,0,.45,0,.67,0,.29,0,.58,0,.87,0,.05,0,.1.01.15h-.57Z"/>
      <path class="cls-20" d="m8.44,129.49c-.08,0-.17-.01-.25-.01-.1,0-.21,0-.31,0,0-.18,0-.37,0-.55,0,0,0,0,0-.01.19.18.37.36.55.55,0,0,0,.02.01.03Z"/>
      <path class="cls-18" d="m7.87,136.3c.18,0,.36,0,.54,0,0,0,0,0,.01,0-.05.06-.09.12-.15.18-.11.12-.23.23-.35.34-.02.02-.04.03-.06.04,0-.18,0-.37,0-.55Z"/>
      <path class="cls-29" d="m14.27,127.49c.18,0,.36,0,.54,0,0,.01-.01.03-.02.04-.16.16-.32.32-.48.48,0,0-.03,0-.04.01,0-.18,0-.36,0-.54Z"/>
      <path class="cls-19" d="m14.83,138.3c-.08,0-.16-.01-.24-.01-.11,0-.22,0-.33,0,0-.19,0-.37,0-.56.17.17.34.34.52.51.02.02.03.04.05.06Z"/>
      <path class="cls-20" d="m21.18,129.47c-.17,0-.34,0-.51,0,0-.18,0-.35,0-.53.02,0,.04.02.06.03.15.15.29.29.44.44,0,.02,0,.04.01.06Z"/>
      <path class="cls-28" d="m7.26,137.71s-.04,0-.07,0c-1.32,0-2.64,0-3.96,0-.02,0-.04,0-.07,0,.03,0,.05-.01.08-.01,1.31,0,2.62,0,3.94,0,.03,0,.05,0,.08.01Z"/>
      <path class="cls-28" d="m9.58,137.71c-.4,0-.8,0-1.2,0,.02,0,.04-.01.06-.01.36,0,.72,0,1.07,0,.02,0,.04,0,.06.01Z"/>
      <path class="cls-28" d="m14.24,137.71c-.19,0-.39,0-.58,0,.02,0,.03-.01.05-.01.16,0,.33,0,.49,0,.02,0,.03,0,.05.01Z"/>
      <path class="cls-28" d="m11.32,137.71c-.18,0-.37,0-.55,0,.02,0,.04-.01.05-.01.15,0,.3,0,.45,0,.02,0,.04,0,.05.01Z"/>
      <path class="cls-28" d="m10.6,137.71c-.14,0-.27,0-.41,0,.1,0,.21-.01.31-.01.03,0,.06,0,.1.01Z"/>
      <path class="cls-28" d="m10.05,137.71c-.12,0-.23,0-.35,0,.12,0,.23,0,.35,0Z"/>
      <path class="cls-28" d="m7.74,137.71c-.06,0-.12,0-.17,0,.06,0,.12,0,.17,0Z"/>
      <path class="cls-28" d="m13.45,137.71c-.05,0-.11,0-.16,0,.05,0,.11,0,.16,0Z"/>
      <path class="cls-22" d="m21.18,129.47s0-.04-.01-.06c.02.02.04.04.06.06-.01,0-.03,0-.04,0Z"/>
      <path class="cls-28" d="m11.62,137.71c-.05,0-.11,0-.16,0,.05,0,.11,0,.16,0Z"/>
      <path class="cls-28" d="m12.52,137.71c-.05,0-.11,0-.16,0,.05,0,.11,0,.16,0Z"/>
      <path class="cls-28" d="m7.4,137.71s-.06,0-.09,0c.03,0,.06,0,.09,0Z"/>
      <path class="cls-8" d="m22.12,129.44s0,.02,0,.03c-.01,0-.03,0-.04,0,.01-.01.02-.02.04-.03Z"/>
      <path class="cls-28" d="m8.12,137.71s-.04,0-.06,0c.02,0,.04,0,.06,0Z"/>
      <path class="cls-20" d="m8.43,136.3s0,0-.01,0c0,0,.02-.02.03-.03,0,0,0,.02-.01.03Z"/>
      <path class="cls-28" d="m3.05,128.9s.03,0,.04-.01c0,0,0,0,0,.01-.01,0-.03,0-.04,0Z"/>
      <path class="cls-8" d="m22.61,128.95s-.02.02-.03.03c0,0,.02-.02.03-.03Z"/>
      <path class="cls-8" d="m22.57,128.99s-.02.02-.03.03c0,0,.02-.02.03-.03Z"/>
      <path class="cls-8" d="m22.33,129.23s-.02.02-.03.03c0,0,.02-.02.03-.03Z"/>
      <path class="cls-28" d="m11.74,137.71s-.03,0-.04,0c.01,0,.03,0,.04,0Z"/>
      <path class="cls-28" d="m7.93,137.71s-.03,0-.04,0c.01,0,.03,0,.04,0Z"/>
      <path class="cls-8" d="m22.48,129.08s-.02.02-.03.03c0,0,.02-.02.03-.03Z"/>
      <path class="cls-8" d="m7.87,128.91s0,0,0,.01c0,0-.02,0-.03-.01,0,0,.02,0,.03,0Z"/>
      <path class="cls-8" d="m22.21,129.34s-.01.02-.02.03c0,0,.01-.02.02-.03Z"/>
      <path class="cls-28" d="m12.09,137.71s-.02,0-.03,0c0,0,.02,0,.03,0Z"/>
      <path class="cls-28" d="m11.89,137.71s-.02,0-.03,0c0,0,.02,0,.03,0Z"/>
      <path class="cls-28" d="m10.15,137.71s-.02,0-.03,0c0,0,.02,0,.03,0Z"/>
      <path class="cls-8" d="m22.2,129.37s-.02.01-.03.02c0,0,.02-.01.03-.02Z"/>
      <path class="cls-8" d="m22.16,129.4s-.01.02-.02.03c0,0,.01-.02.02-.03Z"/>
      <path class="cls-23" d="m22.08,136.27s0,.02.01.03c0,0,0-.02-.01-.03Z"/>
      <path class="cls-8" d="m20.66,128.92s-.01,0-.02,0c0,0,.01,0,.02,0Z"/>
      <path class="cls-28" d="m3.06,137.71s0,0-.01,0c0,0,0,0,.01,0Z"/>
      <path class="cls-8" d="m22.14,129.43s0,0-.01.01c0,0,0,0,.01-.01Z"/>
      <path class="cls-12" d="m14.27,120.67c0,.96,0,1.93,0,2.89,0,1.31,0,2.62,0,3.93-.03,0-.05,0-.08,0-3.67,0-7.34,0-11.01,0-.05,0-.09,0-.14,0,0-.08,0-.15,0-.23,0-.2.01-.41.01-.61,0-.13,0-.26,0-.4,0-.13,0-.25,0-.38,0-.05-.01-.09-.01-.14,0-.18,0-.35,0-.53,0-.14.01-.27.01-.41,0-.21,0-.43-.01-.64,0-.14,0-.27,0-.41,0-.12.01-.24.01-.37,0-.06-.01-.11-.01-.17,0-.1,0-.21,0-.31,0-.16,0-.33,0-.49,0-.12,0-.24,0-.36,0-.02,0-.05,0-.07,0-.23-.01-.47-.01-.7,0-.2,0-.4.01-.6,3.7,0,7.4,0,11.11,0,.04,0,.07,0,.11,0Z"/>
      <path class="cls-12" d="m7.87,129.47c0,2.25,0,4.5,0,6.75,0,.02,0,.05,0,.07-.25,0-.5,0-.75,0-1.33,0-2.66,0-3.99,0-.03,0-.06,0-.09,0,0-.06.01-.12.01-.18,0-.11,0-.22,0-.33,0-.04-.01-.09-.01-.13,0-.21.01-.41.01-.62,0-.35,0-.7-.01-1.05,0-.23,0-.46,0-.69,0-.16,0-.32,0-.48,0-.07.01-.14.01-.22,0-.17-.01-.35-.01-.52,0-.87,0-1.74,0-2.61,1.61,0,3.22,0,4.83,0Z"/>
      <path class="cls-11" d="m27.47,145.1s-.01,0-.02,0c0,0,.01,0,.02,0Z"/>
    </g>
  </g>
</svg>