<?xml version="1.0" encoding="UTF-8"?>
<svg xmlns="http://www.w3.org/2000/svg" viewBox="0 0 80.59 121.3">
  <defs>
    <style>
      .cls-1 {
        fill: #f1aa66;
      }

      .cls-2 {
        fill: #f5b032;
      }

      .cls-3 {
        fill: #f3c8a7;
      }

      .cls-4 {
        fill: #f1f2f2;
      }

      .cls-5 {
        fill: #e21f27;
      }

      .cls-6 {
        fill: #21409a;
      }

      .cls-7 {
        fill: #231f20;
      }

      .cls-8 {
        fill: #83482e;
      }

      .cls-9 {
        fill: #821a1c;
        stroke: #231f20;
        stroke-miterlimit: 10;
      }
    </style>
  </defs>
  <g id="head">
    <path class="cls-4" d="m21.91,58.78C-1.88,47.16,1.77,17.33,21.91,5.71,31.81-.35,43.43-1.28,54.4,1.49c9.31,2.35,17.49,8.18,22.09,16.6,11.07,20.24-2.19,44.24-17.62,44.42"/>
  </g>
  <g id="head_details" data-name="head details">
    <ellipse class="cls-5" cx="44.59" cy="19.21" rx="17.16" ry="16.29"/>
    <path class="cls-5" d="m8.92,46.81c-5.55-8.94-4.59-23.42,3.47-32.9,3.82,10.55,3.51,23.98-3.47,32.9Z"/>
    <path class="cls-5" d="m73.23,55.01c-4.91-8.9-2.93-22.59,5.78-30.99,3.06,10.3,1.81,23.04-5.78,30.99Z"/>
  </g>
  <g id="face">
    <path class="cls-3" d="m58.78,59.15c-.78,7.94-7.15,14.04-15.06,15.01-5.2.63-9.91.09-14.65-3.02-1.1-.72-2.12-1.57-3-2.54-4.06-4.51-5.56-10.72-2.66-19.85,1.36-11.55,39.66-12.42,35.36,10.4Z"/>
  </g>
  <g id="eyes">
    <ellipse class="cls-7" cx="33.14" cy="50.64" rx="4.15" ry="1.95" transform="translate(-21.09 77.51) rotate(-83.15)"/>
    <ellipse class="cls-4" cx="33.32" cy="49.16" rx="1.44" ry=".84" transform="translate(-19.46 76.38) rotate(-83.15)"/>
    <ellipse class="cls-7" cx="48.12" cy="52.29" rx="4.15" ry="1.95" transform="translate(-9.53 93.83) rotate(-83.15)"/>
    <ellipse class="cls-4" cx="48.3" cy="50.81" rx="1.44" ry=".84" transform="translate(-7.91 92.7) rotate(-83.15)"/>
  </g>
  <g id="mouth">
    <path class="cls-9" d="m33.14,60.57c-.73,8.38,11.57,10.58,12.97,1.44-2.72-1.2-9.13-2.13-12.97-1.44Z"/>
    <path class="cls-5" d="m34.37,64.25c1.41,3.48,7.55,4.47,9.84,1.11-.84-2.11-6.87-3.35-9.84-1.11Z"/>
  </g>
  <g id="shoes">
    <path class="cls-8" d="m15.03,119.16c8.7,6.03,24.02-1.85,23.33-8.77-6.18-.47-11.34-2.62-15.2-6.67-7.72,2.69-12.92,10.51-8.5,15.12.11.12.24.22.37.32Z"/>
    <path class="cls-8" d="m66.43,119.1c-8.69,6.13-24.1-2.34-23.41-9.29,6.18-.47,10.94-2.95,14.8-7.01,7.76,2.7,13.35,11.49,8.83,16.1-.07.07-.14.13-.22.19Z"/>
  </g>
  <g id="body">
    <path class="cls-3" d="m10.62,61.86l.49,13.64c4.05.73,8.73,2.25,13.63,3.84l-1.85,12.45c3.78-6.81,28.81-9.55,33.1-2.23l2.84-9.05,6.54-13.13-2.22-5.5c-.59-1.73-1.44-3.16-1.9-3.8-.42-.72-1.67-.54-1.67.29.03.49.28,2.46.48,4.07.05.38-.08.77-.34,1.06-3.37,3.76-6.4,7.3-9.33,8.23-3.38.58-8.7.7-8.5,2.6-.02-.09-7.37-.84-7.17-.62.75-1.22-1.89-.89-3.13-1.2-2.82-.34-18.89-5.99-18.89-5.99,0,0,.12-4.18-.53-4.62-.65-.73-1.54-.05-1.54-.05Z"/>
  </g>
  <g id="maracas">
    <path class="cls-1" d="m64.16,53.08c-.74,2.83.87,7.02,2.81,11.05,3.3,7.02-2.92,9.83-4.42,1.69-.56-4.49-.99-9.19-3.15-11.24,2.37.43,3.93-.48,4.76-1.5Z"/>
    <path class="cls-6" d="m59.4,54.58c1.72.44,3.76-.15,4.76-1.5,6.48-10.63-.02-17.64-4.26-18.85-9.18-3.36-14.71,13.74-.49,20.35Z"/>
    <path class="cls-1" d="m11.45,58.88c-1.24,2.65-.43,7.06.74,11.38,1.95,7.51-4.67,9.13-4.66.85.27-4.52.71-9.22-1.04-11.63,2.25.86,3.96.25,4.95-.61Z"/>
    <path class="cls-6" d="m6.5,59.48c1.61.75,3.72.54,4.95-.61,8.32-9.26,3.21-17.34-.74-19.31-8.41-4.99-16.98,10.81-4.21,19.92Z"/>
  </g>
  <g id="fingers">
    <path class="cls-3" d="m70.93,67.05c-.05-.06-.1-.11-.15-.17-.28-.29-.36-.64-.33-.98s-.13-.68-.46-1.03-.47-.74-.44-1.14c.03-.43-.11-.86-.48-1.27-.31-.35-.45-.75-.4-1.14s-.06-.77-.34-1.13c-.44-.57-1.37-.89-2.24-.8s-1.76.33-2.57.65c-.4.16-.71.44-.86.75-.4.82-.13,1.42,1.24,1.65-1.05.19-.69,1.67.14,2.25.45.32.64.76.63,1.2,0,.8.45,1.59,1.12,1.67-.11.05-.17.24-.17.49.02.97,1.32,1.69,2.65,1.57.61-.06,1.22-.18,1.8-.39,1.09-.4,1.51-1.38.84-2.17Z"/>
    <path class="cls-3" d="m4.67,73.87c.01-.08.03-.16.05-.24.09-.41-.02-.79-.22-1.12s-.24-.74-.13-1.23.03-.94-.2-1.33c-.25-.42-.35-.9-.24-1.48.09-.48,0-.94-.25-1.31s-.35-.79-.29-1.27c.09-.76.75-1.5,1.57-1.8s1.74-.47,2.63-.51c.44-.02.86.11,1.16.35.79.63.86,1.34-.24,2.19,1.03-.28,1.49,1.34,1.06,2.3-.23.52-.17,1.04.07,1.47.42.79.43,1.78-.12,2.16.12,0,.28.16.41.41.49.97-.29,2.27-1.53,2.75-.57.22-1.18.38-1.8.43-1.18.09-2.07-.69-1.89-1.76Z"/>
  </g>
  <g id="pants">
    <path class="cls-4" d="m21.12,96.41c-1.7,19.89,40.09,17.91,38.93,0,.15-15.89-38.14-17.9-38.93,0Z"/>
  </g>
  <g id="vest">
    <path class="cls-6" d="m27.31,89.85c-2.51.78-5.58.99-7.9.92,1.92-7.28,5.36-13.22,12.09-18.25l3.13,1.2c-3.22,5.62-5.78,11.05-6.91,15.68-.05.21-.2.39-.41.45Z"/>
    <path class="cls-2" d="m26.42,88.56c1.47-4.97,4.18-9.77,7.28-15.2.37.14.73.27.93.36l-6.87,15.76c-.07.17-.21.3-.38.36-2.58.89-5.47,1.26-7.97.94l.29-1.07c2.21-.15,4.31-.62,6.72-1.13Z"/>
    <path class="cls-6" d="m45.91,88.82c4.45-.17,9.25-.03,14.26.34.68.05,1.2-.56.99-1.21l-2.42-7.44c-4.16-1.41-7.83-3.8-8.43-8.52-1.79.97-5.28,2.1-8.49,2.36l2.73,13.31c.14.67.68,1.19,1.37,1.16Z"/>
    <path class="cls-2" d="m43.45,74.14c1.07,4.09,2.38,8.15,2.95,12.75,6.05.02,10.79.39,14.6.58.43.98.21,1.71-.83,1.73l-14.95-.34c-.26,0-.48-.17-.54-.42-.63-2.26-1.79-8.56-2.88-14.09.64-.06,1.31-.14,1.65-.2Z"/>
  </g>
</svg>